<svg width="461" height="258" viewBox="0 0 461 258" fill="none" xmlns="http://www.w3.org/2000/svg">
<path d="M369.242 63.3101C369.06 63.3531 368.882 63.402 368.701 63.448C352.508 18.401 304.619 -8.128 257.037 3.397C221.331 12.045 195.277 39.8271 187.119 73.2121C184.732 74.0611 182.425 75.0471 180.189 76.1391C165.375 61.8621 143.81 55.219 122.333 60.421C99.005 66.072 81.979 84.188 76.58 105.978C67.595 104.073 58.051 104.092 48.527 106.4C14.49 114.644 -6.41895 148.921 1.82605 182.96C10.0711 216.995 44.3461 237.903 78.3831 229.66C80.2721 229.202 82.112 228.652 83.917 228.038C99.352 247.96 125.549 258.103 151.627 251.787C171.823 246.895 187.565 233.186 195.783 215.745C217.31 247.548 257.041 264.285 296.558 254.713C325.024 247.818 347.34 228.734 359.313 204.349C373.094 209.838 388.652 211.259 404.167 207.501C443.984 197.855 468.443 157.76 458.801 117.943C449.156 78.125 409.059 53.6651 369.242 63.3101Z" fill="#FEFEE5"/>
</svg>
