<svg width="528" height="305" viewBox="0 0 528 305" fill="none" xmlns="http://www.w3.org/2000/svg">
<path d="M425.86 31.9871C403.633 31.9871 383.078 39.13 366.352 51.239C349.627 39.13 329.071 31.9871 306.845 31.9871C288.936 31.9871 272.113 36.628 257.502 44.76C239.236 17.786 208.348 0.0560303 173.317 0.0560303C132.831 0.0560303 97.88 23.74 81.551 58.004C63.558 41.832 39.761 31.986 13.663 31.986C-42.449 31.986 -87.936 77.473 -87.936 133.587C-87.936 188.169 -44.891 232.691 9.10299 235.076C27.509 261.035 57.794 277.976 92.038 277.976C96.004 277.976 99.913 277.742 103.761 277.299C121.939 294.381 146.403 304.851 173.317 304.851C198.874 304.851 222.226 295.409 240.081 279.83C257.935 295.408 281.287 304.851 306.845 304.851C352.667 304.851 391.397 274.515 404.064 232.83C411.086 234.364 418.378 235.182 425.861 235.182C481.972 235.182 527.459 189.695 527.459 133.586C527.458 77.4751 481.971 31.9871 425.86 31.9871Z" fill="#FEFEE5"/>
</svg>
