<svg width="20" height="514" viewBox="0 0 20 514" fill="none" xmlns="http://www.w3.org/2000/svg">
<path d="M2.479 8.44133C1.832 7.41833 1.22601 6.54033 0.746011 5.93433C0.495011 5.57933 0.433007 5.20333 0.767007 4.84833C1.08001 4.51433 1.39401 4.57733 1.79101 4.78533C2.73101 5.26533 3.69201 5.95533 4.52701 6.70733C5.30001 7.43833 5.321 8.19033 4.59 8.85833C3.85801 9.52733 3.064 9.38133 2.479 8.44133ZM1.28901 16.0033C2.35401 14.2903 3.46101 12.0343 4.40101 10.0493C4.63101 9.52733 4.96501 9.38133 5.34101 9.52733C5.75901 9.69433 5.90501 9.96633 5.80101 10.4883C5.38301 12.7863 4.73601 15.5233 4.08801 17.4033C3.69101 18.6143 2.85501 19.0323 1.83201 18.5313C0.746009 17.9873 0.59901 17.0893 1.28901 16.0033ZM3.23101 3.72033C2.64601 2.86433 2.01901 1.98633 1.47601 1.27633C1.22501 0.900329 1.20501 0.54533 1.47601 0.25333C1.74701 -0.0596701 2.10201 -0.0596701 2.47801 0.12833C3.37601 0.54533 4.31601 1.21433 5.15201 1.96633C5.88301 2.67633 5.925 3.47033 5.215 4.07533C4.505 4.68133 3.77401 4.57633 3.23101 3.72033ZM5.32001 17.5283C5.32001 16.9433 5.63301 16.6093 6.19701 16.6093H10.793V10.3843H7.59701C7.05401 10.3843 6.80301 9.90433 6.76201 9.50733C6.67801 8.92233 7.05401 8.63033 7.59701 8.63033H10.793V3.47033H7.17901C6.63601 3.47033 6.32301 3.13633 6.32301 2.57233C6.32301 2.00833 6.63601 1.67433 7.17901 1.67433H17.645C18.188 1.67433 18.501 2.00833 18.501 2.57233C18.501 3.13633 18.188 3.47033 17.645 3.47033H14.052V8.63033H17.311C17.854 8.63033 18.146 8.92233 18.146 9.50733C18.146 10.0713 17.854 10.3843 17.311 10.3843H14.052V16.6093H18.522C19.065 16.6093 19.378 16.9433 19.378 17.5283C19.378 18.1133 19.065 18.4263 18.522 18.4263H6.19701C5.63301 18.4263 5.32001 18.1133 5.32001 17.5283Z" fill="#79C6B7"/>
<path d="M2.479 41.8663C1.832 40.8433 1.22601 39.9653 0.746011 39.3593C0.495011 39.0043 0.433007 38.6283 0.767007 38.2733C1.08001 37.9393 1.39401 38.0023 1.79101 38.2103C2.73101 38.6903 3.69201 39.3803 4.52701 40.1323C5.30001 40.8633 5.321 41.6153 4.59 42.2833C3.85801 42.9523 3.064 42.8063 2.479 41.8663ZM1.28901 49.4283C2.35401 47.7153 3.46101 45.4593 4.40101 43.4743C4.63101 42.9523 4.96501 42.8063 5.34101 42.9523C5.75901 43.1193 5.90501 43.3913 5.80101 43.9133C5.38301 46.2113 4.73601 48.9483 4.08801 50.8283C3.69101 52.0393 2.85501 52.4573 1.83201 51.9563C0.746009 51.4123 0.59901 50.5143 1.28901 49.4283ZM3.23101 37.1443C2.64601 36.2883 2.01901 35.4103 1.47601 34.7003C1.22501 34.3243 1.20501 33.9693 1.47601 33.6773C1.74701 33.3643 2.10201 33.3643 2.47801 33.5523C3.37601 33.9693 4.31601 34.6383 5.15201 35.3903C5.88301 36.1003 5.925 36.8943 5.215 37.4993C4.505 38.1053 3.77401 38.0013 3.23101 37.1443ZM5.32001 50.9533C5.32001 50.3683 5.63301 50.0343 6.19701 50.0343H10.793V43.8093H7.59701C7.05401 43.8093 6.80301 43.3293 6.76201 42.9323C6.67801 42.3473 7.05401 42.0553 7.59701 42.0553H10.793V36.8953H7.17901C6.63601 36.8953 6.32301 36.5613 6.32301 35.9973C6.32301 35.4333 6.63601 35.0993 7.17901 35.0993H17.645C18.188 35.0993 18.501 35.4333 18.501 35.9973C18.501 36.5613 18.188 36.8953 17.645 36.8953H14.052V42.0553H17.311C17.854 42.0553 18.146 42.3473 18.146 42.9323C18.146 43.4963 17.854 43.8093 17.311 43.8093H14.052V50.0343H18.522C19.065 50.0343 19.378 50.3683 19.378 50.9533C19.378 51.5383 19.065 51.8513 18.522 51.8513H6.19701C5.63301 51.8503 5.32001 51.5383 5.32001 50.9533Z" fill="#79C6B7"/>
<path d="M18.459 83.7023C18.229 86.6053 15.555 87.3163 11.691 85.3943C11.294 85.1853 11.148 84.8303 11.294 84.4123C11.398 84.0363 11.712 83.8903 12.192 83.9743C15.221 84.4963 15.555 84.3293 15.659 82.8883C15.847 80.4233 15.91 76.6843 15.93 72.4853C15.93 72.2763 15.805 72.1723 15.638 72.1723H12.525C11.773 73.8223 10.812 75.3263 9.914 76.2253C9.663 76.4753 9.392 76.5593 9.162 76.4753V84.9983C9.162 85.7923 8.661 86.2093 7.784 86.2093C6.907 86.2093 6.405 85.7923 6.405 84.9983V83.9543H4.191V85.1033C4.191 85.8973 3.711 86.3353 2.813 86.3353C1.915 86.3353 1.414 85.8973 1.414 85.1033V72.0053C1.414 71.1703 1.873 70.7103 2.709 70.7103H3.795C3.92 69.8333 4.045 68.7883 4.108 67.9733C4.171 67.0963 4.797 66.6993 5.758 66.8043C6.74 66.9083 7.074 67.6393 6.802 68.4753C6.572 69.2693 6.196 70.0423 5.8 70.7103H7.889C8.703 70.7103 9.163 71.1693 9.163 72.0053V74.6793C10.082 72.7783 10.625 70.3553 10.96 68.0993C11.106 67.0973 11.691 66.7413 12.652 66.8883C13.55 67.0133 13.968 67.5563 13.738 68.6013C13.613 69.2273 13.425 69.8963 13.195 70.5433H17.498C18.333 70.5433 18.73 71.0033 18.73 71.8593C18.773 77.2263 18.647 81.1533 18.459 83.7023ZM6.156 72.3593H4.443C4.297 72.3593 4.192 72.4633 4.192 72.6103V76.2863H6.406V72.6103C6.406 72.4633 6.302 72.3593 6.156 72.3593ZM6.406 82.3233V77.8743H4.192V82.3233H6.406ZM12.422 79.5873C12.067 78.6683 11.545 77.4563 11.044 76.3703C10.856 75.9323 10.961 75.5773 11.315 75.3053C11.649 75.0543 12.004 75.0963 12.38 75.4093C13.32 76.2453 14.239 77.4773 14.74 78.3753C15.178 79.1693 14.99 79.8163 14.239 80.2343C13.488 80.6313 12.778 80.4853 12.422 79.5873Z" fill="#79C6B7"/>
<path d="M1.03801 109.09C1.03801 108.317 1.45601 107.899 2.25001 107.899H17.792C18.565 107.899 19.003 108.317 19.003 109.09C19.003 109.863 18.565 110.28 17.792 110.28H2.25001C1.45601 110.28 1.03801 109.863 1.03801 109.09Z" fill="#79C6B7"/>
<path d="M19.211 152.374C18.773 153.335 17.791 153.523 16.851 153.021C14.177 151.601 11.691 148.509 10.647 144.853C9.31002 149.282 6.09302 152.123 1.62302 153.292C1.10102 153.438 0.767021 153.209 0.621021 152.791C0.496021 152.332 0.642021 151.977 1.12202 151.747C4.92402 149.888 7.18002 147.381 7.97402 143.183H2.02002C1.37302 143.183 1.03802 142.828 1.03802 142.201C1.03802 141.575 1.37202 141.219 2.02002 141.219H8.22402L8.28702 140.008C8.30802 139.11 8.32902 137.94 8.32902 136.833H3.25302C2.62702 136.833 2.29202 136.478 2.29202 135.872C2.29202 135.267 2.62602 134.891 3.25302 134.891H16.769C17.395 134.891 17.75 135.246 17.75 135.872C17.75 136.478 17.395 136.833 16.769 136.833H11.442C11.421 138.065 11.379 139.486 11.296 141.011C11.296 141.074 11.296 141.157 11.275 141.219H17.981C18.607 141.219 18.963 141.574 18.963 142.201C18.963 142.828 18.608 143.183 17.981 143.183H11.693C12.821 146.128 15.286 148.593 18.336 150.014C19.295 150.473 19.734 151.288 19.211 152.374Z" fill="#79C6B7"/>
<path d="M0.807999 213.772C0.557999 213.5 0.558003 213.166 0.829003 212.853C2.082 211.516 2.98 209.908 3.711 207.965C4.045 207.025 4.818 206.733 5.591 207.088C6.384 207.443 6.572 208.049 6.008 209.135C5.047 210.89 3.314 212.812 1.684 213.814C1.33 214.044 1.038 214.065 0.807999 213.772ZM5.592 215.631V225.303C5.592 226.222 5.091 226.661 4.172 226.661C3.253 226.661 2.752 226.222 2.752 225.303V218.66C2.439 218.89 2.104 219.12 1.77 219.349C1.394 219.641 1.018 219.62 0.788003 219.307C0.559003 218.994 0.579003 218.68 0.871003 218.367C2.459 216.696 3.628 214.586 4.485 212.33C4.819 211.432 5.529 211.139 6.323 211.515C7.138 211.87 7.305 212.58 6.866 213.437C6.49 214.211 6.072 214.942 5.592 215.631ZM19.504 224.551C19.504 225.47 19.045 225.95 17.938 225.992C17.249 226.055 16.288 226.055 15.536 226.034C12.632 225.909 10.606 225.115 9.227 222.838C8.705 224.195 7.953 225.303 6.992 226.076C6.637 226.347 6.303 226.389 5.99 226.076C5.677 225.784 5.635 225.429 5.886 225.052C6.972 223.402 7.39 221 7.452 218.075C7.473 216.947 7.995 216.571 8.872 216.613C9.77 216.655 10.188 217.072 10.146 218.096C10.083 219.161 9.958 220.143 9.77 221.041C10.25 221.751 10.71 222.253 11.274 222.587V216.508C11.274 215.798 11.566 215.401 12.151 215.255C11.921 215.026 11.942 214.691 12.109 214.378C12.255 214.149 12.38 213.898 12.505 213.647C12.422 213.751 12.297 213.856 12.15 213.939C11.44 214.356 10.834 214.064 10.563 213.271L10.312 212.477C9.602 214.023 8.599 215.255 7.534 216.07C7.221 216.32 6.887 216.383 6.573 216.112C6.281 215.862 6.281 215.548 6.531 215.214C7.638 213.605 8.432 211.349 8.599 208.487C8.682 207.401 9.163 207.025 10.103 207.067C11.022 207.088 11.377 207.672 11.293 208.654C11.251 209.26 11.147 209.845 11.022 210.409C11.481 210.889 11.941 211.474 12.421 212.226C12.651 212.56 12.734 212.873 12.713 213.166C13.256 211.808 13.528 210.179 13.611 208.424C13.632 207.275 14.175 206.983 15.115 207.004C16.034 207.046 16.389 207.568 16.285 208.57C16.222 209.259 16.076 209.969 15.888 210.638C16.702 211.223 17.726 212.1 18.436 213.019C19.021 213.708 18.916 214.419 18.207 214.92C17.518 215.421 16.912 215.191 16.452 214.356C16.097 213.709 15.721 213.04 15.303 212.33C14.76 213.541 14.071 214.586 13.298 215.254C13.841 215.4 14.133 215.797 14.133 216.507V218.136H17.475C17.997 218.136 18.29 218.428 18.29 218.95C18.29 219.493 17.998 219.786 17.475 219.786H14.133V223.295C14.613 223.316 15.136 223.337 15.741 223.337C16.368 223.358 17.329 223.316 18.018 223.254C19.044 223.151 19.525 223.653 19.504 224.551Z" fill="#79C6B7"/>
<path d="M19.149 259.25C18.543 260.127 17.603 260.211 16.726 259.396C15.912 258.644 15.201 257.746 14.595 256.722C13.488 258.038 12.11 259.124 10.438 259.918C10.041 260.106 9.707 260.022 9.519 259.689C9.31001 259.334 9.37301 259.021 9.74801 258.728C11.44 257.475 12.652 256.096 13.487 254.466C12.902 252.962 12.464 251.249 12.213 249.39C11.837 250.058 11.441 250.643 11.023 251.103C10.773 251.416 10.459 251.458 10.146 251.27C9.97901 251.145 9.896 251.02 9.854 250.873V257.37C9.854 259.501 8.05801 260.294 5.30001 259.146C4.94501 259 4.79901 258.728 4.88201 258.394C4.96501 258.018 5.21601 257.851 5.65501 257.914C6.92901 258.081 7.117 257.851 7.117 257.141V256.076H4.38V258.75C4.38 259.564 3.90001 259.982 3.00201 259.982C2.10401 259.982 1.603 259.564 1.603 258.75V250.185C1.603 249.371 2.06201 248.911 2.87701 248.911H8.58001C9.41501 248.911 9.854 249.37 9.854 250.185V250.54C9.854 250.477 9.87501 250.436 9.89601 250.373C10.293 249.559 10.627 248.619 10.919 247.595C10.794 247.783 10.585 247.887 10.272 247.887H1.35201C0.851005 247.887 0.57901 247.616 0.57901 247.115C0.57901 246.635 0.850005 246.363 1.35201 246.363H2.50001V244.462H1.72701C1.22601 244.462 0.95401 244.191 0.95401 243.689C0.95401 243.188 1.22501 242.916 1.72701 242.916H2.50001V241.433C2.50001 240.702 2.95901 240.305 3.77401 240.305C4.60901 240.305 5.06901 240.702 5.06901 241.433V242.916H6.44801V241.433C6.44801 240.702 6.88601 240.305 7.72201 240.305C8.55801 240.305 9.01701 240.702 9.01701 241.433V242.916H9.936C10.437 242.916 10.709 243.188 10.709 243.689C10.709 244.19 10.438 244.462 9.936 244.462H9.01701V246.363H10.27C10.771 246.363 11.043 246.635 11.043 247.115V247.136C11.46 245.528 11.753 243.71 11.899 241.747C11.982 240.682 12.567 240.201 13.528 240.327C14.489 240.473 14.865 241.037 14.677 242.06C14.51 243 14.301 243.919 14.071 244.776H18.52C19.042 244.776 19.335 245.068 19.335 245.57C19.335 246.092 19.043 246.384 18.52 246.384H18.061C17.873 249.476 17.247 252.15 16.119 254.364C16.829 255.262 17.664 256.056 18.604 256.787C19.525 257.517 19.754 258.352 19.149 259.25ZM4.38 250.727V251.75H7.117V250.727C7.117 250.581 7.013 250.476 6.866 250.476H4.631C4.484 250.476 4.38 250.581 4.38 250.727ZM7.117 254.55V253.255H4.38V254.55H7.117ZM6.44801 244.46H5.06901V246.361H6.44801V244.46ZM14.532 251.792C14.95 250.226 15.179 248.45 15.284 246.382H13.571C13.446 246.695 13.342 246.988 13.216 247.28C13.488 248.994 13.906 250.476 14.532 251.792Z" fill="#79C6B7"/>
<path d="M0.91301 288.79C0.72501 288.456 0.788009 288.164 1.12201 287.871C2.52101 286.806 3.77501 285.364 4.90301 283.359C5.27901 282.712 5.989 282.482 6.825 282.962C7.556 283.38 7.63901 284.194 7.05401 284.926C5.59201 286.847 3.691 288.289 1.811 289.041C1.393 289.208 1.10101 289.125 0.91301 288.79ZM19.19 281.542C19.19 282.064 18.898 282.377 18.355 282.377H12.067V286.263C12.067 288.54 9.64401 289.417 6.55201 287.996C6.15501 287.808 6.07201 287.495 6.15501 287.14C6.25901 286.785 6.51001 286.639 6.96901 286.66C8.82801 286.848 9.07901 286.66 9.07901 285.867V282.378H1.64201C1.12001 282.378 0.807007 282.065 0.807007 281.543C0.807007 281 1.12001 280.687 1.64201 280.687H4.23201V276.802C4.23201 275.966 4.73301 275.528 5.65201 275.528C6.55001 275.528 7.07201 275.966 7.07201 276.802V280.687H9.03601V275.172C9.03601 274.274 9.57901 273.814 10.54 273.814C11.501 273.814 12.044 274.273 12.044 275.172V276.843H16.598C17.141 276.843 17.412 277.114 17.412 277.658C17.412 278.18 17.141 278.472 16.598 278.472H12.044V280.686H18.353C18.898 280.685 19.19 280.999 19.19 281.542ZM17.52 285.448C15.16 290.106 10.522 293.052 2.08301 293.406C1.58201 293.427 1.28901 293.218 1.24701 292.78C1.20501 292.362 1.39301 292.049 1.91501 291.965C9.28901 290.838 12.694 288.79 14.846 284.173C15.243 283.317 15.974 283.024 16.83 283.421C17.687 283.798 17.958 284.571 17.52 285.448Z" fill="#79C6B7"/>
<path d="M8.18201 314.821H4.40102V325.662C4.40102 326.498 3.90001 326.895 3.00201 326.895C2.10401 326.895 1.62302 326.498 1.62302 325.662V309.222C1.62302 308.408 2.06202 307.948 2.89702 307.948H8.18201C8.99601 307.948 9.45602 308.408 9.45602 309.222V313.546C9.45602 314.361 8.99701 314.821 8.18201 314.821ZM6.78201 309.765C6.78201 309.619 6.67801 309.515 6.53201 309.515H4.65202C4.50602 309.515 4.40102 309.619 4.40102 309.765V310.663H6.78201V309.765ZM6.78201 312.105H4.40102V313.253H6.53201C6.67801 313.253 6.78201 313.149 6.78201 313.003V312.105ZM13.174 321.045V324.909C13.174 325.64 12.736 326.038 11.9 326.038C11.085 326.038 10.626 325.641 10.626 324.909V321.045H9.37302C9.14402 323.364 8.20301 325.098 6.11401 326.121C5.67601 326.33 5.30002 326.246 5.09102 325.912C4.84102 325.558 4.88201 325.244 5.23701 324.889C6.28201 323.886 6.69902 322.863 6.80402 321.045H5.61401C5.13401 321.045 4.86201 320.774 4.86201 320.273C4.86201 319.771 5.13401 319.5 5.61401 319.5H6.84602V317.328H6.01002C5.53002 317.328 5.25802 317.057 5.25802 316.555C5.25802 316.075 5.52902 315.803 6.01002 315.803H13.885C14.365 315.803 14.637 316.074 14.637 316.555C14.637 317.057 14.366 317.328 13.885 317.328H13.175V319.5H14.282C14.783 319.5 15.055 319.771 15.055 320.273C15.055 320.774 14.784 321.045 14.282 321.045H13.174ZM10.626 319.499V317.327H9.41502V319.499H10.626ZM18.355 309.222V324.534C18.355 326.686 16.454 327.354 13.927 326.393C13.467 326.205 13.321 325.892 13.405 325.495C13.509 325.078 13.739 324.932 14.219 324.974C15.41 325.078 15.577 324.87 15.577 324.096V314.822H11.838C11.024 314.822 10.564 314.362 10.564 313.548V309.224C10.564 308.41 11.023 307.95 11.838 307.95H17.081C17.896 307.948 18.355 308.408 18.355 309.222ZM15.577 309.765C15.577 309.619 15.473 309.515 15.327 309.515H13.489C13.343 309.515 13.239 309.619 13.239 309.765V310.663H15.578V309.765H15.577ZM15.577 312.105H13.238V313.003C13.238 313.149 13.342 313.253 13.488 313.253H15.577V312.105Z" fill="#79C6B7"/>
<path d="M8.49502 356.943C7.91002 357.611 7.20001 357.569 6.53201 356.839C6.30201 356.546 6.05201 356.254 5.78001 355.961C4.79801 357.653 3.52401 359.053 1.89501 360.16C1.49801 360.431 1.14301 360.389 0.892014 360.056C0.662014 359.722 0.704013 359.387 1.05901 359.033C2.45901 357.654 3.50302 356.15 4.23402 354.395L3.67001 353.894C3.67001 353.915 3.67001 353.915 3.67001 353.915C3.50301 354.792 2.98102 355.063 2.25002 354.938C1.49802 354.792 1.12201 354.311 1.26801 353.434C1.58101 351.492 1.91501 348.943 2.18701 346.457H1.54002C1.03902 346.457 0.726013 346.144 0.726013 345.642C0.726013 345.121 1.03902 344.848 1.54002 344.848H2.37502C2.47902 343.784 2.58402 342.739 2.64702 341.82C2.71002 340.922 3.23201 340.608 4.08801 340.671C4.92301 340.713 5.32002 341.173 5.23602 342.05C5.17302 342.906 5.06901 343.847 4.96501 344.849H6.90801C7.78501 344.849 8.28702 345.351 8.24502 346.374C8.09902 349.257 7.61902 351.722 6.80402 353.831C7.32602 354.166 7.82702 354.542 8.28702 354.938C9.03902 355.542 9.08002 356.253 8.49502 356.943ZM4.84001 352.661C5.34101 350.948 5.61301 348.984 5.73801 346.707C5.75901 346.54 5.65501 346.457 5.48801 346.457H4.77802C4.54902 348.399 4.25601 350.446 3.96401 352.243C4.25501 352.368 4.54701 352.514 4.84001 352.661ZM18.585 350.279C17.77 350.717 17.123 350.425 16.747 349.443C16.643 349.193 16.559 348.942 16.455 348.691C14.533 349.464 12.402 350.07 10.021 350.404C9.06002 350.55 8.39202 350.133 8.32902 349.214C8.26602 348.295 8.58002 347.752 9.66602 347.71H9.87502C10.501 345.935 11.086 343.783 11.504 341.902C11.754 340.837 12.444 340.503 13.426 340.816C14.407 341.109 14.679 341.797 14.303 342.738C13.635 344.43 12.715 346.206 11.775 347.605C13.174 347.521 14.511 347.376 15.828 347.209C15.577 346.624 15.306 346.039 15.013 345.412C14.804 344.974 14.888 344.66 15.243 344.431C15.598 344.201 15.932 344.243 16.245 344.556C17.227 345.559 18.25 346.812 19.128 348.253C19.65 349.109 19.441 349.84 18.585 350.279ZM18.376 352.41V358.97C18.376 359.847 17.875 360.243 16.997 360.243C16.12 360.243 15.619 359.847 15.619 358.97V358.426H11.921V359.011C11.921 359.889 11.441 360.265 10.564 360.265C9.66602 360.265 9.18501 359.889 9.18501 359.011V352.41C9.18501 351.596 9.64402 351.136 10.459 351.136H17.102C17.917 351.135 18.376 351.595 18.376 352.41ZM15.619 356.817V352.995C15.619 352.849 15.515 352.744 15.368 352.744H12.172C12.026 352.744 11.921 352.848 11.921 352.995V356.817H15.619Z" fill="#79C6B7"/>
<path d="M0.807999 400.805C0.557999 400.534 0.558003 400.2 0.829003 399.886C2.082 398.549 2.98 396.941 3.711 394.998C4.045 394.058 4.818 393.766 5.591 394.12C6.384 394.475 6.572 395.081 6.008 396.168C5.047 397.922 3.314 399.844 1.684 400.847C1.33 401.077 1.038 401.098 0.807999 400.805ZM5.592 402.664V412.336C5.592 413.255 5.091 413.693 4.172 413.693C3.253 413.693 2.752 413.255 2.752 412.336V405.693C2.439 405.922 2.104 406.152 1.77 406.382C1.394 406.674 1.018 406.653 0.788003 406.34C0.559003 406.027 0.579003 405.713 0.871003 405.4C2.459 403.729 3.628 401.62 4.485 399.363C4.819 398.466 5.529 398.173 6.323 398.549C7.138 398.904 7.305 399.614 6.866 400.471C6.49 401.245 6.072 401.975 5.592 402.664ZM19.504 411.584C19.504 412.503 19.045 412.983 17.938 413.025C17.249 413.088 16.288 413.088 15.536 413.067C12.632 412.941 10.606 412.147 9.227 409.871C8.705 411.228 7.953 412.336 6.992 413.108C6.637 413.379 6.303 413.421 5.99 413.108C5.677 412.816 5.635 412.461 5.886 412.085C6.972 410.435 7.39 408.032 7.452 405.108C7.473 403.98 7.995 403.604 8.872 403.645C9.77 403.687 10.188 404.105 10.146 405.128C10.083 406.193 9.958 407.175 9.77 408.073C10.25 408.784 10.71 409.285 11.274 409.619V403.54C11.274 402.83 11.566 402.434 12.151 402.287C11.921 402.058 11.942 401.723 12.109 401.41C12.255 401.18 12.38 400.93 12.505 400.679C12.422 400.783 12.297 400.888 12.15 400.971C11.44 401.389 10.834 401.097 10.563 400.303L10.312 399.509C9.602 401.055 8.599 402.287 7.534 403.102C7.221 403.353 6.887 403.415 6.573 403.144C6.281 402.893 6.281 402.581 6.531 402.246C7.638 400.638 8.432 398.382 8.599 395.519C8.682 394.433 9.163 394.057 10.103 394.099C11.022 394.12 11.377 394.704 11.293 395.687C11.251 396.292 11.147 396.877 11.022 397.441C11.481 397.921 11.941 398.506 12.421 399.258C12.651 399.593 12.734 399.906 12.713 400.198C13.256 398.841 13.528 397.211 13.611 395.456C13.632 394.308 14.175 394.015 15.115 394.036C16.034 394.078 16.389 394.599 16.285 395.602C16.222 396.291 16.076 397.001 15.888 397.67C16.702 398.255 17.726 399.132 18.436 400.051C19.021 400.74 18.916 401.45 18.207 401.952C17.518 402.453 16.912 402.223 16.452 401.388C16.097 400.741 15.721 400.073 15.303 399.362C14.76 400.574 14.071 401.619 13.298 402.287C13.841 402.433 14.133 402.83 14.133 403.54V405.17H17.475C17.997 405.17 18.29 405.462 18.29 405.984C18.29 406.527 17.998 406.82 17.475 406.82H14.133V410.329C14.613 410.35 15.136 410.371 15.741 410.371C16.368 410.392 17.329 410.35 18.018 410.288C19.044 410.185 19.525 410.686 19.504 411.584Z" fill="#79C6B7"/>
<path d="M17.415 446.422C15.765 446.548 13.321 446.548 11.336 446.443C8.37001 446.297 7.59701 444.668 9.10101 442.515C9.97801 441.283 11.963 439.048 13.947 436.624C14.093 436.457 14.01 436.311 13.801 436.311H9.95702C9.45602 436.311 9.14301 435.998 9.14301 435.476C9.14301 435.392 9.14302 435.309 9.16402 435.225C8.99702 435.392 8.80901 435.538 8.64201 435.685C8.30801 435.956 7.97402 435.977 7.70202 435.706C7.66002 435.664 7.61902 435.602 7.57702 435.539V443.331C7.57702 444.103 7.15902 444.459 6.38602 444.459C5.59302 444.459 5.17502 444.104 5.17502 443.331V442.725H3.90102V444.021C3.90102 444.835 3.46301 445.19 2.66901 445.19C1.87601 445.19 1.43701 444.836 1.43701 444.021V430.61C1.43701 429.774 1.89701 429.315 2.71101 429.315H6.30402C7.11902 429.315 7.57802 429.774 7.57802 430.61V434.788C7.59902 434.767 7.62001 434.725 7.64101 434.684C8.85301 432.929 9.68802 430.694 10.231 428.146C10.398 427.331 11.129 427.039 11.965 427.268C12.821 427.477 13.135 428.062 12.926 428.918C12.801 429.398 12.634 429.879 12.446 430.359H18.567C19.089 430.359 19.381 430.672 19.381 431.236C19.381 431.78 19.089 432.092 18.567 432.092H11.59C11.047 433.074 10.399 433.973 9.71001 434.683C9.79301 434.662 9.87701 434.662 9.96001 434.662H15.976C17.417 434.662 17.898 435.852 17.02 436.896C14.66 439.758 12.947 441.534 11.881 442.871C11.401 443.476 11.526 444.02 12.299 444.061C13.719 444.165 15.056 444.165 16.435 444.061C17.584 443.957 17.793 443.811 17.793 440.719C17.793 440.301 18.064 440.03 18.44 440.03C18.837 440.03 19.129 440.259 19.213 440.719C20.068 444.918 19.566 446.255 17.415 446.422ZM5.17402 431.153C5.17402 431.007 5.07002 430.902 4.92402 430.902H4.15002C4.00402 430.902 3.89902 431.006 3.89902 431.153V441.159H5.17301V431.153H5.17402Z" fill="#79C6B7"/>
<path d="M8.18201 468.43H4.40102V479.271C4.40102 480.107 3.90001 480.504 3.00201 480.504C2.10401 480.504 1.62302 480.107 1.62302 479.271V462.832C1.62302 462.018 2.06202 461.558 2.89702 461.558H8.18201C8.99601 461.558 9.45602 462.018 9.45602 462.832V467.156C9.45602 467.97 8.99701 468.43 8.18201 468.43ZM6.78201 463.374C6.78201 463.228 6.67801 463.124 6.53201 463.124H4.65202C4.50602 463.124 4.40102 463.228 4.40102 463.374V464.272H6.78201V463.374ZM6.78201 465.714H4.40102V466.862H6.53201C6.67801 466.862 6.78201 466.758 6.78201 466.612V465.714ZM13.174 474.655V478.519C13.174 479.25 12.736 479.648 11.9 479.648C11.085 479.648 10.626 479.251 10.626 478.519V474.655H9.37302C9.14402 476.974 8.20301 478.708 6.11401 479.731C5.67601 479.94 5.30002 479.856 5.09102 479.522C4.84102 479.168 4.88201 478.854 5.23701 478.499C6.28201 477.496 6.69902 476.473 6.80402 474.655H5.61401C5.13401 474.655 4.86201 474.384 4.86201 473.883C4.86201 473.381 5.13401 473.11 5.61401 473.11H6.84602V470.938H6.01002C5.53002 470.938 5.25802 470.667 5.25802 470.165C5.25802 469.685 5.52902 469.413 6.01002 469.413H13.885C14.365 469.413 14.637 469.684 14.637 470.165C14.637 470.667 14.366 470.938 13.885 470.938H13.175V473.11H14.282C14.783 473.11 15.055 473.381 15.055 473.883C15.055 474.384 14.784 474.655 14.282 474.655H13.174ZM10.626 473.109V470.937H9.41502V473.109H10.626ZM18.355 462.831V478.143C18.355 480.295 16.454 480.963 13.927 480.002C13.467 479.814 13.321 479.501 13.405 479.104C13.509 478.687 13.739 478.541 14.219 478.583C15.41 478.687 15.577 478.479 15.577 477.705V468.431H11.838C11.024 468.431 10.564 467.971 10.564 467.157V462.833C10.564 462.019 11.023 461.559 11.838 461.559H17.081C17.896 461.557 18.355 462.017 18.355 462.831ZM15.577 463.374C15.577 463.228 15.473 463.124 15.327 463.124H13.489C13.343 463.124 13.239 463.228 13.239 463.374V464.272H15.578V463.374H15.577ZM15.577 465.714H13.238V466.612C13.238 466.758 13.342 466.862 13.488 466.862H15.577V465.714Z" fill="#79C6B7"/>
<path d="M8.49502 510.552C7.91002 511.22 7.20001 511.178 6.53201 510.448C6.30201 510.155 6.05201 509.863 5.78001 509.57C4.79801 511.262 3.52401 512.662 1.89501 513.769C1.49801 514.04 1.14301 513.998 0.892014 513.665C0.662014 513.331 0.704013 512.996 1.05901 512.642C2.45901 511.263 3.50302 509.759 4.23402 508.004L3.67001 507.503C3.67001 507.524 3.67001 507.524 3.67001 507.524C3.50301 508.401 2.98102 508.672 2.25002 508.547C1.49802 508.401 1.12201 507.92 1.26801 507.043C1.58101 505.101 1.91501 502.552 2.18701 500.066H1.54002C1.03902 500.066 0.726013 499.753 0.726013 499.251C0.726013 498.73 1.03902 498.457 1.54002 498.457H2.37502C2.47902 497.393 2.58402 496.348 2.64702 495.429C2.71002 494.531 3.23201 494.217 4.08801 494.28C4.92301 494.322 5.32002 494.782 5.23602 495.659C5.17302 496.515 5.06901 497.456 4.96501 498.458H6.90801C7.78501 498.458 8.28702 498.96 8.24502 499.983C8.09902 502.866 7.61902 505.331 6.80402 507.44C7.32602 507.775 7.82702 508.151 8.28702 508.547C9.03902 509.152 9.08002 509.863 8.49502 510.552ZM4.84001 506.27C5.34101 504.557 5.61301 502.593 5.73801 500.316C5.75901 500.149 5.65501 500.066 5.48801 500.066H4.77802C4.54902 502.008 4.25601 504.055 3.96401 505.852C4.25501 505.977 4.54701 506.123 4.84001 506.27ZM18.585 503.888C17.77 504.326 17.123 504.034 16.747 503.052C16.643 502.802 16.559 502.551 16.455 502.3C14.533 503.073 12.402 503.679 10.021 504.013C9.06002 504.159 8.39202 503.742 8.32902 502.823C8.26602 501.904 8.58002 501.361 9.66602 501.319H9.87502C10.501 499.544 11.086 497.392 11.504 495.511C11.754 494.446 12.444 494.112 13.426 494.425C14.407 494.718 14.679 495.406 14.303 496.347C13.635 498.039 12.715 499.815 11.775 501.214C13.174 501.13 14.511 500.985 15.828 500.818C15.577 500.233 15.306 499.648 15.013 499.021C14.804 498.583 14.888 498.269 15.243 498.04C15.598 497.81 15.932 497.852 16.245 498.165C17.227 499.168 18.25 500.421 19.128 501.862C19.65 502.718 19.441 503.45 18.585 503.888ZM18.376 506.019V512.579C18.376 513.456 17.875 513.852 16.997 513.852C16.12 513.852 15.619 513.456 15.619 512.579V512.035H11.921V512.62C11.921 513.498 11.441 513.874 10.564 513.874C9.66602 513.874 9.18501 513.498 9.18501 512.62V506.019C9.18501 505.205 9.64402 504.745 10.459 504.745H17.102C17.917 504.745 18.376 505.205 18.376 506.019ZM15.619 510.426V506.604C15.619 506.458 15.515 506.353 15.368 506.353H12.172C12.026 506.353 11.921 506.457 11.921 506.604V510.426H15.619Z" fill="#79C6B7"/>
</svg>
