<svg width="1917" height="186" viewBox="0 0 1917 186" fill="none" xmlns="http://www.w3.org/2000/svg">
<path d="M1734.85 96.6454C1643.81 30.8594 1518.54 -26.5565 1415.43 45.6515C1390.76 62.9285 1373.19 90.1794 1339.96 87.6444C1299.76 84.5784 1252.92 46.5494 1215.15 31.9254C1149.66 6.56444 1087.49 -11.5396 1018.36 8.70644C968.933 23.1844 922.468 54.3906 875.564 75.4196C831.937 94.9786 792.849 118.154 744.169 98.9086C691.879 78.2356 642.147 52.4065 587.821 33.9645C478.676 -3.0895 382.122 74.8695 270.901 78.7985C226.184 80.3785 206.789 68.1285 168.133 50.9625C139.95 38.4475 110.541 24.4975 80.914 15.9135C50.37 7.06447 24.054 14.2694 -3 25.4284L-3 308H1917V18.5695C1905.18 20.9275 1893.22 24.7496 1881.08 30.3666C1821.51 57.9346 1799.99 143.716 1734.85 96.6454Z" fill="#FBD449"/>
</svg>
