<?xml version="1.0" encoding="utf-8"?>
<!-- Generator: Adobe Illustrator 16.0.0, SVG Export Plug-In . SVG Version: 6.00 Build 0)  -->
<!DOCTYPE svg PUBLIC "-//W3C//DTD SVG 1.1//EN" "http://www.w3.org/Graphics/SVG/1.1/DTD/svg11.dtd">
<svg version="1.1" id="圖層_1" xmlns="http://www.w3.org/2000/svg" xmlns:xlink="http://www.w3.org/1999/xlink" x="0px" y="0px"
	 width="1920px" height="67.236px" viewBox="0 0 1920 67.236" enable-background="new 0 0 1920 67.236" xml:space="preserve">
<path fill="#FBD449" d="M1737.85,35.641c-91.037-24.26-216.312-45.436-319.421-18.806c-24.671,6.372-42.24,16.422-75.472,15.486
	c-40.201-1.131-87.04-15.155-124.806-20.548c-65.494-9.354-127.666-16.029-196.792-8.563
	c-49.428,5.339-95.893,16.847-142.797,24.603c-43.627,7.212-82.715,15.76-131.395,8.662c-52.29-7.624-102.022-17.149-156.348-23.95
	C481.676-1.14,385.121,27.611,273.9,29.059c-44.717,0.583-64.112-3.934-102.768-10.266c-28.183-4.615-57.592-9.759-87.219-12.926
	C53.37,2.605,27.054,5.262,0,9.377v57.859h1920V6.848c-11.818,0.869-23.775,2.279-35.916,4.351
	C1824.506,21.365,1802.987,53,1737.85,35.641z"/>
</svg>
