<svg width="986" height="627" viewBox="0 0 986 627" fill="none" xmlns="http://www.w3.org/2000/svg">
<path d="M387.443 184.908C426.395 186.117 466.352 182.022 504.011 172.299C547.966 160.949 595.262 130.49 641.529 130.572C702.508 130.679 762.426 169.676 804.998 210.129C862.059 264.348 921.317 303.262 985.75 337.288C932.643 331.111 878.656 333.894 822.196 356.887C668.382 419.526 527.696 511.089 373.467 574.82C314.371 599.24 250.258 620.444 186.011 625.51C120.835 630.65 58.928 614.494 -0.00100708 589.53V0.70697C54.465 16.843 105.078 38.696 158.239 77.49C223.177 124.876 304.721 182.342 387.443 184.908Z" fill="#79C6B7"/>
</svg>
