<svg width="509" height="265" viewBox="0 0 509 265" fill="none" xmlns="http://www.w3.org/2000/svg">
<path d="M320.009 191.094C319.849 192.533 319.695 193.974 319.52 195.411C319.504 195.545 319.316 195.785 319.268 195.771C317.76 195.322 317.865 197.284 316.612 197.356C317.066 197.673 317.45 197.839 317.666 198.13C317.801 198.314 317.742 198.704 317.652 198.961C317.607 199.092 317.287 199.21 317.106 199.192C315.019 198.983 314.856 199.145 314.397 201.17C314.113 202.417 312.793 202.456 311.893 202.942C311.441 203.189 310.829 203.13 310.293 203.229C309.466 203.382 309.439 203.491 310.149 204.464C309.412 204.482 308.783 204.416 308.195 204.538C307.806 204.62 307.469 204.965 306.831 205.372C306.024 205.304 304.764 205.201 303.417 205.093C303.439 205.532 303.459 205.914 303.493 206.593C302.875 206.143 302.413 205.792 301.935 205.466C301.784 205.363 301.539 205.22 301.421 205.273C299.727 206.079 298.713 204.901 297.597 204.001C297.453 203.884 297.284 203.74 297.114 203.722C296.192 203.626 295.223 203.71 294.36 203.442C293.869 203.288 293.55 202.581 293.063 202.018C292.692 202.122 291.893 202.731 291.742 201.318C291.717 201.072 291.032 200.914 290.674 200.681C290.258 200.409 289.258 200.906 289.487 199.663C289.535 199.406 288.376 198.927 287.773 198.55C287.715 198.63 287.658 198.712 287.602 198.793C287.003 197.939 286.404 197.086 285.689 196.065C285.277 195.883 284.643 195.601 283.9 195.271C284.027 195.055 284.192 194.774 284.358 194.491C283.331 193.595 282.302 192.7 281.217 191.756C281.469 191.425 281.704 191.12 281.988 190.749C280.193 190.354 279.879 188.751 279.182 187.447C279.003 187.113 278.708 186.843 278.474 186.537C278.253 186.246 277.802 185.774 277.868 185.683C278.468 184.852 277.907 184.463 276.912 183.858C277.487 183.829 277.763 183.814 278.04 183.8C277.998 183.678 277.958 183.556 277.918 183.434C277.532 183.299 277.145 183.165 276.756 183.03C276.818 182.982 276.879 182.933 276.94 182.884C276.59 182.397 276.14 181.949 275.92 181.407C275.743 180.973 275.843 180.425 275.985 179.916C274.898 178.785 274.322 177.466 274.914 175.748C275.298 174.637 274.282 174.689 273.533 174.367C273.708 173.766 273.941 173.174 274.034 172.558C274.085 172.224 273.843 171.854 273.83 171.497C273.793 170.4 273.81 169.302 273.786 168.204C273.778 167.771 273.683 167.339 273.696 166.91C273.717 166.228 273.82 165.551 273.849 164.869C273.875 164.274 274.61 163.479 273.383 163.151C273.294 163.127 273.402 162.081 273.543 161.541C273.959 159.942 274.435 158.357 274.895 156.77C274.978 156.477 275.072 156.186 275.195 155.912C275.384 155.48 275.721 155.084 275.79 154.641C276.027 153.093 276.177 151.532 276.359 149.98C277.573 150.096 278.005 149.467 277.937 148.492C278.87 146.706 279.194 145.295 279.443 143.731C279.567 143.73 279.834 143.723 280.195 143.715C280.05 143.379 279.919 143.079 279.787 142.774C281.344 142.089 281.44 141.782 280.869 140.248C280.762 139.954 280.926 139.475 281.123 139.192C281.213 139.066 281.692 139.211 281.831 139.221C282.598 137.961 283.352 136.724 284.344 135.094C284.306 134.173 284.109 132.636 286.094 132.142C286.22 132.109 286.196 131.584 286.298 131.31C286.49 130.792 286.596 130.023 286.968 129.849C287.57 129.567 287.655 129.332 287.711 128.698C287.838 127.256 288.518 126.006 289.574 124.981C289.741 124.821 289.827 124.579 289.962 124.381C290.364 123.793 290.73 123.175 291.186 122.636C291.977 121.697 292.024 120.603 291.864 119.502C291.774 118.882 290.842 118.364 291.726 117.623C291.83 117.534 291.569 117.008 291.422 116.495C289.788 116.166 289.508 114.98 290.455 113.861C290.136 113.637 289.818 113.419 289.503 113.197C289.942 112.249 289.974 111.351 289.199 110.538C289.067 110.399 288.88 110.208 288.889 110.05C288.98 108.497 287.889 107.095 288.326 105.492C288.389 105.263 288.248 104.934 288.113 104.706C287.508 103.679 286.83 102.689 286.255 101.645C285.822 100.86 285.414 100.85 284.8 101.437C284.55 101.676 284.163 101.785 283.823 101.909C282.16 102.526 280.427 102.994 278.676 102.73C277.589 102.569 276.56 101.95 275.534 101.473C274.564 101.022 273.558 100.59 272.702 99.968C271.235 98.901 269.873 97.69 268.516 96.58C268.302 97.331 269.009 98.674 269.67 98.62C269.666 99.458 269.661 100.295 269.657 101.155C270.588 101.526 270.881 102.477 270.319 103.587C270.025 104.168 269.826 104.687 270.562 105.088C270.737 104.938 270.921 104.781 271.188 104.555C271.207 104.803 271.254 104.93 271.216 105.022C270.758 106.127 270.449 107.169 270.573 108.475C270.713 109.94 270.201 111.475 269.918 112.968C269.689 114.169 268.833 115.173 269.017 116.544C269.108 117.225 268.841 118.246 267.624 117.76C267.364 118.48 266.558 119.16 267.812 119.756C267.303 120.234 266.528 120.619 266.496 121.058C266.41 122.26 265.354 122.697 264.913 123.543C264.164 124.986 263.343 126.349 262.207 127.506C262.111 127.604 261.785 127.472 261.566 127.445C261.657 129.064 260.1 129.585 258.669 129.121C258.959 129.472 259.248 129.825 259.581 130.23C259.16 130.513 259.272 131.946 257.959 131.107C257.863 131.047 257.386 131.31 257.338 131.49C256.96 132.919 255.678 133.101 254.601 133.566C255.576 134.148 255.565 134.267 254.36 134.963C255.166 135.445 255.106 136.168 255.127 136.967C255.143 137.558 255.586 138.177 255.948 138.709C256.34 139.287 256.775 139.712 256.86 140.548C256.976 141.665 257.592 142.735 258.019 143.815C258.143 144.128 258.523 144.419 258.5 144.695C258.354 146.399 259.239 147.75 259.885 149.194C260.017 149.492 259.823 149.935 259.776 150.34C260.41 151.372 261.092 152.482 261.79 153.618C261.603 153.899 261.32 154.322 261.038 154.745C261.452 154.964 261.865 155.18 262.232 155.374C262.201 155.706 262.163 156.124 262.11 156.704C262.141 156.699 261.876 156.734 261.598 156.768C262.373 157.93 263.058 158.696 262.598 159.994C262.432 160.465 263.224 161.29 263.612 161.932C263.874 162.364 264.196 162.761 264.541 163.242C264.254 163.56 263.754 164.059 264.679 164.709C264.93 164.885 264.954 165.385 265.117 165.829C265.302 165.652 265.514 165.447 265.726 165.245C264.851 166.318 265.308 167.4 265.832 168.549C265.966 168.561 266.301 168.589 266.69 168.623C266.678 169.174 266.667 169.662 266.656 170.19C266.373 170.11 266.122 170.038 265.771 169.938C266.156 171.234 266.522 172.461 266.921 173.802C267.38 173.639 267.766 173.501 268.227 173.339C268.294 173.86 268.361 174.37 268.441 175.006C268.16 174.812 267.907 174.638 267.649 174.46C266.88 174.606 266.788 176.524 267.31 177.367C267.262 178.045 267.235 178.414 267.21 178.783C267.183 179.155 267.158 179.526 267.118 180.089C266.862 179.745 266.712 179.54 266.5 179.254C266.357 180.163 266.226 181.006 266.098 181.822C266.008 181.853 265.975 181.867 265.94 181.874C264.035 182.269 263.235 180.818 262.537 179.788C262.291 179.079 262.116 178.578 261.932 178.048C261.744 178.15 261.618 178.182 261.613 178.227C261.498 179.388 261.269 180.554 261.329 181.706C261.376 182.603 261.079 182.887 260.294 182.8C259.875 182.752 259.434 182.648 259.068 182.447C258.559 182.172 258.414 181.779 259.055 181.431C258.709 180.913 258.391 180.37 258.007 179.882C257.728 179.525 257.324 179.269 257.043 178.913C256.428 178.137 255.802 177.36 255.293 176.516C255.046 176.111 255.049 175.553 254.911 174.936C254.886 174.939 254.615 174.961 254.334 174.985C254.296 174.844 254.236 174.733 254.261 174.709C254.918 174.07 254.874 173.395 254.465 172.63C254.284 172.291 254.207 171.868 254.192 171.479C254.149 170.49 253.828 170.5 253.342 171.137C253.174 170.09 253.003 169.03 252.8 167.771C252.483 168.078 252.351 168.204 252.217 168.333C252.125 168.309 252.033 168.284 251.941 168.261C252.034 167.537 252.126 166.814 252.218 166.09C252.338 166.096 252.456 166.1 252.575 166.103C252.305 165.87 252.036 165.636 251.655 165.306C251.61 165.582 251.582 165.757 251.493 166.293C251.294 165.705 251.073 165.389 251.115 165.114C251.29 163.984 250.898 162.533 250.412 161.634C249.995 160.865 249.864 159.94 249.597 159.046C249.623 159.03 249.389 159.153 249.153 159.273C249.097 159.226 249.044 159.18 248.988 159.133C249.153 158.889 249.318 158.645 249.463 158.434C249.1 157.544 247.743 157.103 248.361 155.785C248.383 155.739 247.867 155.439 247.511 155.196C247.812 154.342 247.885 153.408 247.137 152.334C246.645 151.628 245.841 150.737 246.374 149.544C246.494 149.275 245.844 148.724 245.68 148.256C245.475 147.674 245.455 147.027 245.273 146.436C244.562 144.139 243.782 141.862 243.097 139.557C242.732 138.328 242.491 137.06 242.247 135.8C242.213 135.625 242.487 135.389 242.767 134.946C242.138 135.119 241.75 135.223 241.339 135.337C241.352 134.811 241.365 134.296 241.38 133.648C241.059 133.832 240.825 133.969 240.571 134.117C240.261 133.822 239.95 133.527 239.653 133.245C239.605 134.403 239.555 135.578 239.507 136.745C238.133 137.091 237.475 139.244 238.307 140.6C237.796 141.345 235.978 141.286 236.91 142.958C236.997 143.112 236.307 143.638 236.087 144.05C235.837 144.512 235.695 145.033 235.542 145.54C235.493 145.709 235.636 145.966 235.553 146.087C234.797 147.184 233.996 148.249 233.244 149.347C233.077 149.591 233.005 149.922 232.962 150.224C232.891 150.732 232.878 151.246 232.84 151.758C232.39 151.571 232.01 151.288 231.873 151.377C231.514 151.61 231.193 151.969 230.979 152.347C230.452 153.275 229.994 154.243 229.509 155.196C229.394 155.133 229.278 155.07 229.162 155.008C229.237 154.79 229.313 154.573 229.389 154.355C229.307 154.33 229.227 154.303 229.148 154.279C228.982 155.029 228.819 155.78 228.677 156.423C228.007 156.379 227.39 156.183 227.249 156.36C226.917 156.783 226.571 157.426 226.659 157.905C226.956 159.507 227.448 161.073 227.852 162.657C228.142 163.791 228.408 164.929 228.728 166.243C228.331 165.978 228.055 165.791 227.782 165.606C227.757 165.667 227.687 165.777 227.706 165.795C229.538 167.53 229.366 169.966 229.903 172.146C230.642 175.136 231.258 178.159 231.972 181.158C232.394 182.941 233.155 184.686 233.275 186.48C233.346 187.557 234.02 188.221 234.193 189.136C234.465 190.569 234.968 191.954 235.237 193.369C235.553 195.031 235.516 196.766 235.561 198.472C235.595 199.716 235.128 200.354 234.062 200.828C234.046 201.208 234.031 201.563 234.03 201.592C233.523 202.1 233.149 202.369 232.92 202.73C232.464 203.446 230.202 203.888 229.433 203.2C228.364 202.239 226.871 201.85 226.425 200.003C226.095 198.639 224.618 197.554 223.659 196.337C223.539 196.184 223.424 195.999 223.383 195.814C223.157 194.796 223.005 193.763 222.735 192.759C222.388 191.481 221.951 190.228 221.559 188.962C221.502 188.782 221.477 188.592 221.44 188.405C221.343 187.934 221.297 187.445 221.142 186.995C220.892 186.269 220.496 185.588 220.298 184.85C220.074 184.014 220.031 183.129 219.836 182.283C219.792 182.087 219.334 181.996 219.266 181.79C219.014 181.039 218.214 180.402 218.743 179.457C218.825 179.313 218.699 179.046 218.651 178.84C218.399 177.753 218.169 176.663 217.872 175.59C217.748 175.147 217.565 174.667 217.262 174.34C216.283 173.289 217.355 171.462 215.795 170.611C215.589 170.5 215.699 169.806 215.663 169.37C214.397 170.167 215.374 171.299 215.191 172.247C215.025 173.102 214.879 173.963 214.699 174.962C214.803 174.97 214.605 174.959 214.718 174.965C214.153 176.31 213.486 177.52 213.134 178.814C212.44 181.354 210.056 181.828 208.233 182.857C206.992 183.557 205.369 183.745 203.901 183.818C202.979 183.865 202.011 182.993 201.089 183.037C199.587 183.113 198.642 182.292 197.568 181.557C196.77 181.011 195.991 180.339 195.098 180.044C193.381 179.48 192.751 178.081 192.038 176.677C191.955 176.51 191.678 176.451 191.515 176.315C191.098 175.966 190.733 175.53 190.271 175.262C189.718 174.945 189.085 174.769 188.319 174.463C188.307 174.92 188.363 175.272 188.273 175.58C188.159 175.972 187.987 176.59 187.731 176.648C186.711 176.888 186.909 177.824 186.556 178.425C186.266 178.918 186.139 179.528 185.782 179.951C185.026 180.851 184.164 181.661 183.354 182.515C183.275 182.597 183.219 182.731 183.213 182.844C183.171 183.895 181.975 184.469 181.849 185.071C181.577 186.374 180.673 186.189 179.963 186.562C179.799 186.649 179.81 187.021 179.686 187.229C179.322 187.842 179.019 188.53 178.526 189.017C178.099 189.435 177.377 189.889 177.009 190.012C175.629 190.478 174.879 192.065 173.173 191.94C172.245 191.872 171.269 192.512 170.336 192.462C169.701 192.427 169.129 192.495 168.518 192.529C167.108 192.607 167.053 193.588 167.43 194.3C168.127 195.617 167.509 196.56 167.02 197.642C166.596 198.584 166.389 199.636 165.895 200.534C165.494 201.268 164.751 201.806 164.267 202.504C163.861 203.092 163.612 203.783 163.286 204.427C163.047 204.9 162.797 205.368 162.473 205.985C162.472 205.986 162.236 206.004 161.914 206.027C162.029 206.34 162.132 206.617 162.354 207.214C161.439 207.324 160.586 207.525 159.739 207.497C159.081 207.476 158.416 207.354 158.168 208.073C158.026 208.482 158.223 209.01 158.285 209.663C157.956 209.841 157.388 210.253 156.752 210.434C156.511 210.5 156.118 210.037 155.739 209.776C155.2 210.13 154.515 210.649 153.764 211.041C153.468 211.193 153.013 211.01 152.652 211.084C151.823 211.256 150.66 211.933 150.259 211.615C149.347 210.891 148.05 211.116 147.449 210.512C146.387 209.449 145.073 210.051 144.019 209.475C143.67 209.286 143.267 209.191 142.849 209.038C142.773 209.219 142.669 209.469 142.56 209.727C141.951 209.26 141.356 208.84 140.806 208.371C139.715 207.439 138.738 206.349 137.55 205.574C136.543 204.917 135.321 204.571 134.164 204.173C133.335 203.888 131.842 202.241 131.731 201.324C131.502 199.471 130.8 198.711 129.658 198.648C129.015 197.608 128.525 196.749 127.972 195.933C127.194 194.786 126.338 193.692 125.573 192.538C124.852 191.45 124.096 190.46 122.878 189.835C122.449 189.617 121.918 188.83 122.024 188.476C122.396 187.218 121.732 186.181 121.426 185.131C120.956 183.527 120.112 182.028 119.426 180.484C119.38 180.381 119.329 180.203 119.265 180.195C118.469 180.108 117.93 179.643 117.895 178.893C117.822 177.365 115.767 176.58 116.425 174.816C115.5 173.714 116.304 171.789 114.613 171.029C114.415 170.94 114.338 170.583 114.048 170.074C113.877 171.473 112.206 171.808 112.574 173.267C112.278 173.334 111.982 173.401 111.562 173.495C111.135 174.196 110.474 175.057 110.063 176.027C109.676 176.941 108.045 177.197 108.589 178.299C107.758 179.405 107.043 180.342 106.34 181.291C105.511 182.408 104.693 183.532 103.875 184.659C103.736 184.85 103.531 185.056 103.519 185.267C103.46 186.225 102.649 186.33 102.049 186.748C100.777 187.64 99.606 188.671 98.397 189.649C98.314 189.717 98.286 189.87 98.199 189.919C97.1 190.504 96.477 191.186 96.127 192.254C95.732 193.458 94.68 194.052 93.707 194.575C92.465 195.247 91.702 196.347 90.72 197.254C89.895 198.014 89.086 199.008 88.088 199.324C86.28 199.897 85.039 201.407 83.394 201.972C81.944 202.472 81.257 203.428 80.37 204.41C79.984 204.838 79.217 204.909 78.64 205.176C78.283 205.343 77.962 205.588 77.614 205.777C76.805 206.215 75.963 206.592 75.184 207.079C74.266 207.651 73.391 208.291 72.521 208.937C71.573 209.641 70.534 210.309 71.342 211.787C71.656 212.36 71.811 212.997 70.974 213.415C70.847 213.479 70.85 214.247 70.98 214.312C72.166 214.9 71.454 215.826 71.188 216.362C70.62 217.502 70.484 217.595 70.995 218.439C71.112 218.635 71.001 218.513 70.663 218.827C70.35 219.117 70.309 219.704 70.058 220.422C70.085 220.411 69.799 220.519 69.46 220.648C69.545 221.24 70.191 222.113 68.659 222.079C70.085 222.73 68.738 223.055 68.653 223.53C68.534 224.209 68.246 224.861 68.053 225.454C67.818 225.655 67.43 225.824 67.331 226.098C67.075 226.817 66.398 227.472 66.913 228.373C66.999 228.524 66.722 229.113 66.58 229.124C65.307 229.238 65.811 230.2 65.671 230.864C65.603 231.193 65.372 231.489 65.297 231.818C64.873 233.695 64.318 235.535 62.745 236.775C62.265 237.154 61.624 237.108 61.824 238.066C61.877 238.318 60.793 238.831 60.209 239.189C59.371 239.699 58.491 240.138 57.668 240.671C56.305 241.556 55.758 243.33 53.922 243.808C52.936 244.066 52.176 245.102 51.237 245.658C50.058 246.357 48.712 246.801 47.614 247.598C47.051 248.007 46.288 247.987 45.818 248.665C45.596 248.985 44.744 248.856 44.182 248.956C43.078 249.149 42.083 249.691 40.825 249.306C40.031 249.064 39.024 249.521 38.155 249.751C37.423 249.816 36.629 250.095 35.972 249.903C34.924 249.594 34.046 250.689 32.955 250.035C32.548 249.789 31.789 250.193 31.192 250.179C30.702 250.171 30.213 249.986 29.495 249.827C28.787 250.339 27.665 250.228 26.7 249.606C26.119 249.232 25.273 248.928 24.635 249.051C23.292 249.313 22.191 249.174 21.23 248.165C21.119 248.046 20.868 248.06 20.683 248.011C19.308 247.641 17.933 247.269 16.557 246.905C16.13 246.793 15.702 246.688 15.27 246.602C15.087 246.566 14.813 246.665 14.714 246.566C14.181 246.04 13.7 245.458 13.177 244.92C12.904 244.639 12.613 244.316 12.265 244.175C11.394 243.82 10.852 243.241 10.36 242.425C9.956 241.756 9.12601 241.342 8.48201 240.819C7.75201 240.226 7.03603 239.617 6.28203 239.057C5.76503 238.675 5.09801 238.458 4.66801 238.005C3.92901 237.231 3.27302 236.361 2.67702 235.469C2.11402 234.629 2.52802 233.479 1.80302 232.598C1.58602 232.333 1.989 231.558 2.145 230.843C2.008 230.796 1.65701 230.678 1.52501 230.633C1.43501 230.053 1.26101 229.44 1.26201 228.825C1.26301 228.016 1.42901 227.208 1.46501 226.396C1.48001 226.105 1.423 225.676 1.231 225.532C0.547001 225.013 0.498019 224.271 0.850019 223.73C1.46502 222.778 1.907 221.588 3.222 221.243C3.422 221.188 3.51902 220.745 3.73802 220.653C4.26702 220.301 4.81203 219.968 5.32103 219.59C6.05103 219.05 6.77203 218.492 7.45903 217.899C7.59603 217.782 7.47802 217.37 7.61302 217.25C8.83502 216.165 10.268 215.479 11.923 215.021C11.9 214.884 11.859 214.65 11.782 214.221C13.41 214.961 14.28 213.848 15.313 212.854C15.451 213.305 15.537 213.586 15.632 213.898C15.735 213.86 15.863 213.847 15.94 213.778C16.389 213.374 16.699 212.788 17.525 213.295C17.771 213.444 18.454 212.968 18.883 212.691C19.239 212.462 19.513 212.107 19.901 211.736C20.037 212.01 20.128 212.195 20.211 212.361C20.439 211.963 20.67 211.554 20.961 211.047C21.181 211.328 21.362 211.56 21.472 211.698C22.703 211.674 22.745 209.089 24.526 210.435C25.044 209.937 25.523 209.478 26.008 209.013C26.617 209.939 28.21 209.634 29.037 208.522C29.319 208.143 29.709 207.843 30.136 207.426C30.413 207.911 30.584 208.21 30.805 208.597C31.759 207.833 32.626 207.003 33.628 206.398C34.055 206.141 34.763 206.352 35.482 206.349C35.518 206.222 35.627 205.846 35.648 205.779C39.325 204.691 43.05 204.356 45.901 201.669C46.124 201.924 46.299 202.126 46.49 202.345C47.01 202.053 47.492 201.771 47.986 201.511C48.284 201.356 48.607 201.109 48.908 201.122C51.14 201.222 52.627 199.267 52.213 197.044C52.05 196.168 51.921 195.108 52.267 194.36C52.643 193.543 51.936 193.522 51.808 193.123C51.469 192.075 51.096 191.035 50.829 189.968C50.747 189.642 50.965 189.241 51.045 188.875C51.146 188.89 51.247 188.904 51.348 188.917C50.995 186.859 50.977 184.658 50.181 182.79C49.555 181.316 49.511 179.918 49.276 178.451C49 176.722 48.492 174.993 47.817 173.378C47.457 172.512 47.297 171.788 47.247 170.847C47.181 169.627 46.379 168.444 45.852 167.264C45.808 167.166 45.442 167.21 45.221 167.19C45.295 166.502 45.636 165.678 45.396 165.086C44.79 163.579 43.923 162.177 43.164 160.731C42.855 160.142 42.016 159.688 42.967 158.839C43.196 158.633 42.784 157.606 42.546 157.003C42.197 156.122 41.781 155.261 41.31 154.439C41.04 153.97 40.569 153.622 40.251 153.172C40.022 152.852 39.21 152.688 39.859 152.039C39.888 152.01 39.811 151.809 39.735 151.747C38.57 150.747 38.697 149.366 38.591 148.041C38.571 147.791 38.304 147.566 38.169 147.318C37.946 146.915 37.657 146.524 37.545 146.089C37.423 145.616 37.617 145.026 37.416 144.611C36.82 143.371 36.081 142.203 35.432 140.985C34.489 139.214 33.574 137.425 32.658 135.636C32.59 135.504 32.559 135.312 32.598 135.172C33.032 133.668 32.256 132.783 31.339 131.971C31.042 131.35 30.743 130.729 30.449 130.107C30.2 129.582 29.954 129.058 29.717 128.528C29.653 128.384 29.678 128.15 29.578 128.081C28.038 127.022 28.179 125.207 27.558 123.731C26.94 122.259 26.139 120.864 25.408 119.44C25.283 119.196 25.079 118.991 24.962 118.742C24.274 117.289 23.565 115.846 22.932 114.369C22.361 113.04 21.88 111.671 21.311 110.196C21.666 110.212 21.869 110.218 21.982 110.224C22.317 109.306 22.641 108.417 23.034 107.342C23.536 107.611 24.055 107.888 24.718 108.242C24.627 107.772 24.547 107.366 24.412 106.682C24.771 107.149 24.967 107.403 25.161 107.656C25.215 107.56 25.268 107.464 25.321 107.365C25.727 107.522 26.165 107.627 26.535 107.846C27.232 108.252 27.89 108.729 28.565 109.172C28.632 109.219 28.718 109.244 28.768 109.302C30.156 110.96 31.539 112.62 33.02 114.393C32.948 114.417 33.161 114.346 33.432 114.251C34.102 115.415 34.777 116.583 35.588 117.991C36.083 118.084 36.68 118.465 36.583 119.517C36.562 119.745 36.874 120.177 37.096 120.224C38.138 120.446 38.367 121.254 38.77 122.065C39.107 122.745 39.811 123.241 40.361 123.827C39.767 124.875 40.547 125.681 41.05 126.478C41.714 127.533 42.909 128.184 43.233 129.541C43.333 129.955 44.003 130.231 44.41 130.566C43.979 130.851 44.995 132.526 45.995 133.132C45.91 133.418 45.822 133.714 45.734 134.012C45.843 133.988 45.951 133.964 46.059 133.942C46.304 134.659 46.348 135.643 46.847 136.017C47.393 136.424 47.829 136.753 48.086 137.396C48.379 138.134 48.757 138.845 49.151 139.537C49.412 139.999 49.819 140.379 50.063 140.847C50.44 141.572 50.774 142.282 51.001 143.12C51.494 144.952 52.489 146.672 53.421 148.359C54.005 149.415 54.855 150.323 55.572 151.308C55.689 151.472 55.813 151.688 55.81 151.875C55.783 153.555 56.793 154.714 57.523 155.845C57.563 156.433 57.702 156.961 57.615 157.449C57.362 158.867 59.444 159.443 58.843 160.975C58.806 161.068 59.182 161.283 59.283 161.48C59.461 161.825 59.567 162.206 59.718 162.567C60.066 163.394 60.398 164.226 60.781 165.037C61.107 165.733 61.495 166.4 61.999 167.353C62.82 167.476 62.897 168.368 62.737 169.385C62.719 169.492 62.601 169.614 62.628 169.696C62.965 170.676 63.33 171.648 63.666 172.631C63.767 172.929 63.807 173.248 63.799 173.222C64.324 173.842 64.97 174.258 65.004 174.719C65.071 175.606 66.273 176.707 64.515 177.428C64.89 177.629 65.106 177.745 65.325 177.864C65.219 177.893 65.114 177.921 65.009 177.951C65.251 178.953 65.493 179.957 65.777 181.13C65.941 180.384 66.085 179.724 66.233 179.05C67.502 179.847 67.571 180.744 66.504 181.835C66.908 182.866 67.495 183.853 67.646 184.904C67.798 185.945 67.509 187.05 67.398 188.283C68.043 188.095 68.528 187.958 69.013 187.819C69.427 188.843 69.878 189.96 70.483 191.459C70.399 189.265 72.09 189.835 72.957 189.363C73.94 188.83 74.859 188.558 74.996 187.244C75.037 186.841 75.514 186.478 75.846 186.025C76.509 186.981 77.325 186.54 77.911 186.063C79.412 184.848 80.716 183.44 82.559 182.603C83.129 182.346 83.57 181.547 84.437 181.571C84.532 181.574 84.716 181.446 84.714 181.383C84.669 179.88 86.167 179.674 86.852 178.796C87.175 178.381 87.348 177.849 87.629 177.292C87.746 177.61 87.846 177.879 87.972 178.221C88.106 178.077 88.243 177.996 88.242 177.92C88.209 176.965 88.85 176.74 89.574 176.331C90.245 175.95 90.601 175.016 91.105 174.33C91.279 174.094 91.443 173.736 91.675 173.674C93.286 173.25 94.032 172.006 94.499 170.604C94.764 169.805 95.054 169.506 95.607 169.816C96.262 169.258 96.815 168.788 97.381 168.303C97.338 168.272 97.134 168.117 97.139 168.121C99.421 165.029 101.791 162.075 102.442 158.052C104.647 157.657 102.932 155.645 103.795 154.45C104.03 154.919 104.214 155.284 104.398 155.65C104.52 155.645 104.64 155.64 104.762 155.636C104.76 154.936 104.758 154.237 104.756 153.46C106.018 153.117 105.919 152.204 105.898 151.72C106.271 151.269 106.643 150.818 106.883 150.529C106.827 149.567 106.783 148.809 106.739 148.05C106.838 148.029 106.937 148.005 107.037 147.984C107.177 148.251 107.318 148.517 107.458 148.786C107.676 146.862 107.889 144.969 108.068 143.366C107.762 142.459 107.497 141.714 107.259 140.962C107.075 140.374 107.111 139.805 106.574 139.241C105.857 138.486 105.646 137.39 106.26 136.303C106.381 136.084 106.104 135.619 105.968 135.286C105.751 134.756 105.458 134.254 105.276 133.713C105.193 133.474 105.299 133.17 105.321 132.895C105.583 133.074 105.867 133.225 106.097 133.438C106.212 133.544 106.228 133.758 106.529 133.884C106.462 132.803 106.353 131.722 106.35 130.639C106.35 130.132 106.553 129.627 106.648 129.195C106.424 128.011 106.375 126.745 105.924 125.642C105.475 124.547 105.749 123.825 106.341 122.969C106.501 122.737 106.237 122.164 106.09 121.78C105.809 121.042 105.472 120.328 105.159 119.603C105.259 119.548 105.36 119.497 105.461 119.445C105.713 119.621 105.965 119.799 106.373 120.085C106.362 118.907 106.142 117.854 106.394 116.926C106.75 115.62 105.367 113.969 107.169 112.979C106.544 111.666 107.898 110.419 107.229 108.989C106.938 108.362 107.496 107.333 107.693 106.494C107.749 106.252 107.909 106.039 107.986 105.803C108.202 105.139 108.399 104.471 108.604 103.804C108.738 103.824 108.872 103.846 109.007 103.868C109.071 104.162 109.135 104.458 109.211 104.805C109.33 104.736 109.503 104.663 109.497 104.637C109.406 104.292 109.272 103.956 109.189 103.611C109.118 103.308 108.987 102.765 109.073 102.723C110.349 102.103 109.973 100.963 110.012 99.952C110.017 99.837 109.972 99.703 110.013 99.602C110.352 98.768 110.706 97.94 111.046 97.131C112.071 96.324 113.486 97.847 114.561 96.604C115.289 96.914 115.289 96.9139 117.169 95.7419C117.184 96.3049 117.196 96.7871 117.215 97.4871C117.69 96.2331 118.099 96.219 119.248 96.78C120.24 97.263 120.712 97.7739 121.038 98.7729C121.443 98.6649 121.811 98.566 122.269 98.442C122.235 98.796 122.205 99.134 122.188 99.304C122.938 99.775 124.039 100.072 124.239 100.671C124.673 101.964 126.484 102.879 125.444 104.675C125.286 104.946 125.869 105.647 126.052 106.029C126.258 107.116 126.311 108.187 126.687 109.132C126.994 109.901 127.514 110.515 127.041 111.404C126.927 111.619 127.103 112.037 127.234 112.321C127.602 113.112 127.515 113.764 127.101 114.275C127.105 114.829 127.005 115.411 127.141 115.93C127.31 116.577 127.614 117.211 127.973 117.776C128.43 118.499 128.526 119.014 127.813 119.691C127.497 119.992 127.43 120.802 127.573 121.286C127.922 122.455 127.92 123.505 127.059 124.502C127.359 124.637 127.571 124.731 127.694 124.784C127.518 125.138 127.311 125.477 127.172 125.843C126.693 127.1 126.683 128.301 127.547 129.435C127.678 129.607 127.611 129.956 127.582 130.214C127.549 130.519 127.458 130.817 127.381 131.167C126.496 131.409 126.079 132.15 126.326 133.035C126.41 133.333 126.366 133.921 126.211 133.987C125.321 134.375 125.772 134.917 125.827 135.536C125.946 136.885 125.821 138.252 125.858 139.609C125.901 141.137 125.76 142.736 126.167 144.172C126.548 145.517 127.567 146.676 128.252 147.945C128.547 148.492 129.283 149.192 128.006 149.629C128.814 151.214 129.635 152.828 130.526 154.573C130.558 154.57 130.814 154.543 131.047 154.517C130.96 156.986 130.723 159.502 132.865 161.36C133.105 162.536 133.349 163.747 133.61 165.037C133.972 164.963 134.264 164.906 134.551 164.849C134.456 165.718 133.523 166.624 134.671 167.53C134.107 168.402 134.825 169.187 135.382 169.794C136.007 170.476 137.099 170.75 137.671 171.454C138.334 172.276 139.279 173.071 139.124 174.353C139.102 174.523 139.135 174.711 139.184 174.878C139.355 175.456 139.544 176.026 139.767 176.724C139.835 176.686 140.085 176.546 140.335 176.407C139.696 177.678 140.684 178.464 141.218 179.351C141.542 179.89 142.046 180.321 142.424 180.833C142.674 181.171 142.847 181.566 143.081 181.985C143.3 181.927 143.655 181.833 144.017 181.736C144.142 183.111 145.151 183.766 146.067 184.517C146.684 185.024 147.147 185.756 147.818 186.149C148.804 186.729 148.72 187.869 149.332 188.535C151.227 187.911 150.725 190.414 152.156 190.552C153.145 188.768 152.92 186.281 154.775 185.077C154.382 183.727 154.088 182.481 153.641 181.29C153.425 180.719 152.899 180.269 152.555 179.739C152.322 179.381 152.013 178.986 151.992 178.593C151.876 176.454 151.813 174.313 151.782 172.171C151.763 170.787 151.83 169.401 151.637 167.983C151.655 167.417 151.666 166.85 151.696 166.284C151.721 165.807 151.783 165.334 151.804 164.858C151.82 164.503 151.729 164.13 151.798 163.789C152.111 162.259 152.463 160.735 152.8 159.209C152.825 159.093 152.905 158.919 152.857 158.864C151.911 157.813 153.108 156.722 152.794 155.654C152.734 155.453 152.812 155.052 152.951 154.978C154.671 154.064 153.93 152.165 154.631 150.855C154.703 150.72 154.646 150.509 154.727 150.386C156.125 148.248 156.104 145.54 157.681 143.424C158.862 141.838 159.819 140.02 160.518 138.168C160.85 137.285 161.201 136.987 161.984 136.692C162.627 136.449 163.202 135.912 163.683 135.391C164.336 134.678 165.074 134.635 165.965 134.656C166.728 134.675 167.492 134.246 168.267 134.206C169.793 134.129 171.314 134.037 172.627 135.194C173.877 136.295 175.282 137.215 176.593 138.249C176.917 138.504 177.121 138.905 177.416 139.204C177.619 139.41 177.884 139.557 178.122 139.727C178.258 139.479 178.534 139.214 178.508 138.985C178.32 137.313 178.846 135.987 180.101 134.842C180.914 134.101 181.505 133.121 182.282 132.332C182.558 132.051 183.091 132.028 183.5 131.872C183.676 131.806 183.908 131.743 183.995 131.603C184.692 130.488 185.752 130.325 186.936 130.384C187.547 130.417 188.365 130.099 188.736 130.39C189.704 131.148 190.481 132.152 191.324 133.066C191.801 133.58 192.256 134.113 192.725 134.634C193.583 135.586 194.753 136.314 194.75 137.847C194.751 138.249 195.121 138.651 195.404 139.218C195.279 139.456 195.06 139.873 194.842 140.292C194.945 140.28 195.049 140.269 195.152 140.255C195.179 141.273 195.204 142.29 195.231 143.307C195.585 143.669 195.916 144.182 195.521 144.919C194.908 146.071 195.68 147.064 195.931 148.071C196.125 148.854 196.293 148.886 195.546 149.032C195.573 150.874 195.594 152.684 195.631 154.492C195.634 154.69 195.672 154.922 195.777 155.082C196.541 156.252 197.4 157.367 198.082 158.583C198.534 159.384 198.628 160.39 199.093 161.179C199.603 162.045 200.351 162.776 201.007 163.555C201.595 164.253 202.206 164.932 202.79 165.633C203.483 166.46 204.071 167.398 204.865 168.11C205.578 168.749 206.203 168.34 206.559 167.443C206.949 166.466 207.642 165.613 208.031 164.634C208.438 163.615 208.824 162.527 208.888 161.449C209.039 158.913 208.994 156.367 209.025 153.825C209.028 153.546 208.918 153.228 209.016 152.994C209.664 151.45 209.461 149.983 208.652 148.576C208.467 148.256 208.136 148.022 207.801 147.672C208.86 146.824 207.601 146.366 207.399 145.687C207.337 145.476 207.023 145.228 207.075 145.109C207.69 143.735 206.691 142.678 206.322 141.543C205.898 140.232 205.275 139.038 205.119 137.59C204.95 136.026 204.216 134.525 203.744 132.99C203.331 131.647 202.95 130.295 202.528 128.954C202.403 128.554 202.146 128.193 202.033 127.79C201.849 127.133 201.526 126.591 201.531 125.781C201.54 124.425 200.924 123.053 200.499 121.714C200.407 121.423 200.014 121.229 199.924 121.142C199.938 120.41 199.752 119.715 200.002 119.259C200.481 118.384 201.107 117.528 201.858 116.881C202.504 116.325 203.408 116.068 204.243 115.658C205.576 116.687 206.551 118.12 207.112 119.847C207.19 120.084 207.388 120.289 207.547 120.495C207.839 120.87 208.237 121.19 208.424 121.609C208.958 122.807 209.389 124.048 209.894 125.26C210.538 126.8 211.236 128.32 211.871 129.864C212.569 131.568 213.335 133.255 213.857 135.016C214.36 136.709 215.074 138.239 216.013 139.736C216.634 140.727 216.797 142.003 217.216 143.13C217.498 143.888 217.865 144.611 218.201 145.348C218.471 145.938 218.752 146.528 219.114 147.302C220.129 145.544 219.796 144.059 219.252 142.573C218.71 141.105 217.978 139.677 217.652 138.16C216.979 135.042 215.581 132.176 214.725 129.122C214.199 127.245 213.224 125.491 212.451 123.683C212.372 123.499 212.191 123.295 212.225 123.136C212.461 122.029 211.861 121.286 211.279 120.444C210.66 119.547 211.03 118.165 209.822 117.439C209.584 117.293 209.86 116.347 209.838 115.772C209.828 115.516 209.668 115.263 209.564 114.978C209.364 115.133 209.224 115.244 209.003 115.416C208.893 115.078 208.755 114.801 208.717 114.513C208.582 113.518 208.188 112.651 208.572 111.485C209.007 110.166 208.676 108.593 208.678 107.131C209.241 106.429 209.857 105.592 210.549 104.819C211.478 103.784 212.622 103.195 214.068 103.393C214.101 103.397 214.128 103.441 214.158 103.469C214.708 101.924 216.696 104.038 217.279 102.25C217.361 102 218.559 102.106 219.241 102.069C219.329 102.064 219.496 102.252 219.504 102.243C220.507 101.112 221.047 102.002 221.554 102.779C222.674 101.881 225.634 101.75 226.875 102.386C226.695 102.131 226.515 101.877 226.321 101.604C227.522 101.789 229.013 101.38 229.219 103.224C230.62 102.829 231.717 103.459 232.751 104.347C232.83 104.228 232.909 104.108 232.988 103.988C232.342 102.084 231.696 100.177 231.035 98.23C231.292 98.183 231.57 98.129 232.01 98.05C230.814 97.54 230.814 97.54 231.304 93.369C231.653 93.318 232.031 93.262 232.409 93.205C232.346 93.284 232.284 93.362 232.221 93.439C232.76 93.956 233.298 94.472 233.836 94.989C233.937 94.931 234.038 94.873 234.14 94.816C234.066 94.255 233.993 93.695 233.945 93.323C234.358 92.883 234.689 92.5321 235.017 92.18C235.243 91.939 235.508 91.4699 235.684 91.5019C236.201 91.59 236.8 91.762 237.157 92.115C238.117 93.062 238.935 94.15 239.883 95.11C240.156 95.387 240.677 95.4179 241.335 95.6479C241.306 95.2769 241.266 94.799 241.226 94.322C241.124 94.335 241.022 94.3461 240.92 94.3571C241.086 93.9801 241.206 93.573 241.43 93.233C241.678 92.856 242.018 92.541 242.318 92.199C242.521 91.969 242.766 91.761 242.914 91.5C243.426 90.593 243.977 89.8909 244.924 89.2209C245.886 88.5399 246.864 87.7681 247.88 87.0861C248.005 87.0041 247.995 86.7249 248.058 86.5389C248.178 86.1789 248.305 85.82 248.428 85.462C248.532 85.496 248.637 85.532 248.74 85.568C248.697 85.921 248.651 86.27 248.592 86.738C249.846 86.086 251.01 85.4099 252.237 84.8769C252.662 84.6929 253.247 84.839 253.752 84.894C254.837 85.016 255.93 85.1149 256.994 85.3459C257.42 85.4389 257.776 85.854 258.204 86.15C258.443 86.02 258.834 85.811 259.225 85.6C259.285 85.695 259.346 85.792 259.406 85.889C259.173 86.057 258.937 86.2269 258.705 86.3929C260.033 87.1279 261.189 87.1651 261.77 86.482C261.887 86.3421 262.061 86.1829 262.067 86.0279C262.106 85.1229 262.104 84.215 262.114 83.301C263.046 83.132 264.113 84.818 264.488 82.899C266.431 83.567 267.573 85.032 268.575 86.843C269.219 88.008 270.649 88.7101 271.475 89.8101C272.936 91.7591 274.914 92.967 277.003 93.999C278.221 94.602 279.587 95.073 280.924 95.198C281.625 95.263 282.41 94.457 283.187 94.027C282.81 93.103 282.99 92.539 284.215 92.777C284.212 92.421 284.241 92.1479 284.201 91.8879C284.086 91.1369 283.932 90.391 283.815 89.64C283.749 89.224 283.884 88.581 283.656 88.415C281.66 86.964 281.882 84.636 281.269 82.644C280.907 81.466 280.573 80.279 280.248 79.09C280.158 78.76 280.055 78.391 280.113 78.069C280.308 77.002 280.095 76.199 278.938 75.897C279.052 74.268 278.427 72.875 277.821 71.431C277.486 70.629 277.72 69.606 277.558 68.71C277.292 67.259 276.84 65.84 277.244 64.337C277.387 63.803 277.406 63.2379 277.505 62.5179C278.247 62.2669 278.902 61.788 278.858 60.557C278.836 59.95 279.14 59.123 280.254 59.206C281.383 59.291 282.546 58.9769 283.672 59.0749C284.282 59.1329 285.061 59.125 285.212 60.343C285.354 61.504 286.054 62.896 286.965 63.578C287.929 64.299 287.997 65.055 288.145 65.98C288.182 66.21 288.434 66.47 288.657 66.594C289.451 67.04 290.48 67.312 289.75 68.599C289.707 68.674 289.967 68.894 290.03 69.066C290.301 69.817 290.509 70.594 290.821 71.327C291.158 72.12 291.682 72.844 291.943 73.652C292.154 74.307 292.043 75.06 292.172 75.75C292.328 76.584 292.587 77.398 292.8 78.222C292.895 78.588 293.134 78.99 293.058 79.313C292.723 80.726 293.542 81.8399 294.005 83.0019C294.663 84.6539 295.682 86.132 296.109 87.927C296.346 88.929 297.232 89.7809 297.877 90.7779C297.629 90.9589 297.393 91.132 297.153 91.308C297.415 91.436 297.744 91.597 297.847 91.649C298.026 92.467 297.967 93.283 298.344 93.719C299.22 94.73 299.562 95.916 299.908 97.128C299.984 97.396 299.95 97.693 299.979 98.145C300.51 98.229 300.827 98.557 300.54 99.54C300.279 100.432 300.224 101.429 301.515 102.043C302.088 102.315 302.249 103.494 302.559 104.277C302.891 105.115 303.17 105.973 303.488 106.814C303.633 107.192 303.818 107.553 303.985 107.923C303.906 108.07 303.829 108.22 303.751 108.368C304.152 108.267 304.643 108.281 304.939 108.049C306.123 107.106 307.246 106.089 308.444 105.054C308.374 105.847 308.311 106.535 308.254 107.197C309.045 106.425 309.923 105.566 310.801 104.71C310.859 104.753 310.914 104.794 310.971 104.838C310.51 105.763 309.917 106.646 309.61 107.618C308.777 110.256 308.029 112.925 307.335 115.604C307.2 116.125 307.459 116.75 307.529 117.278C308.081 119.594 308.603 121.796 309.168 124.171C309.819 124.282 310.25 124.699 310.296 125.783C310.351 127.054 310.775 128.341 311.236 129.545C311.483 130.191 312.144 130.676 312.726 131.362C312.632 131.63 312.483 132.062 312.394 132.311C312.716 133.01 312.99 133.612 313.296 134.276C313.372 134.258 313.588 134.205 314.006 134.102C313.751 134.698 313.55 135.17 313.272 135.826C313.733 135.805 314.143 135.786 314.787 135.758C314.735 136.131 314.671 136.567 314.579 137.2C314.232 136.875 314.069 136.721 313.653 136.332C313.748 137.543 313.818 138.44 313.894 139.409C315.599 139.466 313.894 140.854 314.545 141.654C314.957 141.842 315.657 141.864 315.446 143.096C315.299 143.956 316.339 145.015 316.834 145.991C316.947 146.216 317.152 146.571 317.067 146.697C316.192 147.989 317.138 148.264 318.264 148.633C317.975 148.898 317.761 149.092 317.476 149.356C317.212 150.631 318.691 150.72 319.409 151.559C319.06 151.713 318.805 151.827 318.291 152.058C318.749 152.7 319.172 153.293 319.689 154.022C319.228 155.146 319.228 155.146 320.078 156.616C319.721 156.695 319.399 156.765 318.849 156.887C319.268 158.372 319.688 159.854 320.191 161.633C320.663 161.113 320.837 160.924 321.107 160.626C321.367 160.978 321.604 161.298 321.951 161.765C321.495 161.868 321.254 161.918 321.015 161.978C320.606 162.08 319.955 161.868 319.926 162.508C319.902 163.031 319.977 163.855 320.301 164.046C321.498 164.751 321.207 166.012 321.523 166.989C321.824 167.92 321.612 167.988 322.538 167.644C322.604 167.942 322.732 168.239 322.72 168.532C322.708 168.826 322.608 169.149 322.448 169.392C322.328 169.577 322.05 169.654 321.841 169.78C322.065 169.954 322.287 170.13 322.647 170.412C322.378 170.687 322.108 170.965 321.826 171.254C322.003 171.546 322.215 171.894 322.428 172.241C322.182 172.304 321.937 172.364 321.427 172.49C321.838 172.752 322.108 172.92 322.441 173.131C321.691 173.566 321.849 173.974 322.397 174.62C322.776 175.07 322.753 175.863 322.935 176.606C322.531 176.517 322.02 176.407 321.469 176.284C322.096 177.069 322.697 177.817 323.295 178.563C322.511 179.22 321.898 179.793 322.277 180.838C322.501 181.456 322.072 182.217 321.604 182.425C321.63 183.174 321.654 183.872 321.681 184.654C322.062 184.658 322.839 184.578 322.364 185.718C322.132 185.509 321.936 185.333 321.657 185.08C321.565 185.498 321.495 185.82 321.414 186.192C321.769 186.27 322.072 186.337 322.425 186.415C322.071 187.063 321.743 187.663 321.417 188.263C320.521 187.419 320.784 189.729 319.68 188.317C319.733 188.58 319.786 188.843 319.839 189.105C320.345 189.157 320.852 189.211 321.535 189.282C321.461 189.8 321.38 190.357 321.294 190.96C320.841 191.016 320.419 191.065 319.994 191.116C319.833 190.609 319.674 190.102 319.567 189.762C319.192 190.546 318.842 191.276 318.441 192.113C318.699 191.985 318.997 191.87 319.259 191.701C319.52 191.528 319.756 191.301 320.009 191.094ZM305.945 183.004C305.65 182.19 305.335 181.359 305.059 180.517C305.005 180.351 305.061 180.107 305.147 179.94C305.621 179.006 305.142 178.397 304.188 177.78C304.771 177.661 305.086 177.594 305.402 177.53C304.807 174.916 304.807 174.916 305.129 174.647C305.035 173.286 304.949 172.045 304.863 170.795C304.613 170.844 304.417 170.885 303.947 170.979C305.066 169.57 304.224 168.604 303.506 167.723C303.039 167.15 302.912 166.757 303.197 166.043C303.37 165.613 303.077 164.995 302.988 164.464C302.945 164.215 302.888 163.968 302.83 163.674C303.184 163.697 303.421 163.711 303.609 163.723C303.274 161.501 301.512 159.665 302.262 157.276C302.317 157.101 302.269 156.873 302.216 156.687C301.865 155.491 301.404 154.318 301.158 153.102C300.75 151.09 300.546 149.038 300.108 147.035C299.968 146.394 299.312 145.884 298.98 145.266C298.707 144.757 298.279 144.083 298.424 143.655C298.705 142.825 298.62 142.334 298.12 141.589C297.644 140.885 297.661 139.85 297.454 138.927C296.528 138.992 296.051 139.298 296.482 140.295C296.548 140.451 296.439 140.74 296.323 140.91C295.139 142.641 294.166 144.502 293.111 146.309C292.715 146.986 292.723 147.901 292.567 148.709C292.474 149.191 292.578 149.98 292.317 150.121C290.762 150.963 290.933 152.556 290.976 153.767C291.015 154.839 290.452 155.195 289.936 155.817C290.133 156.025 290.332 156.238 290.476 156.391C290.012 156.751 289.599 157.075 289.185 157.398C289.265 157.493 289.346 157.589 289.426 157.684C289.63 157.515 289.834 157.347 290.037 157.178C290.081 157.574 289.942 157.807 289.764 158.005C289.558 158.234 289.092 158.554 289.129 158.624C289.724 159.722 288.561 160.086 288.265 160.797C288.188 160.981 287.959 161.195 288.006 161.318C288.436 162.427 287.344 163.117 287.296 164.084C287.394 164.067 287.493 164.05 287.59 164.032C287.686 164.827 287.78 165.62 287.875 166.406C287.106 166.725 286.397 168.151 286.817 168.736C287.022 169.018 287.692 168.967 288.347 169.111C287.971 169.444 287.6 169.773 287.16 170.165C287.346 170.669 287.563 171.255 287.781 171.842C287.898 171.803 288.012 171.764 288.128 171.727C287.804 171.79 287.48 171.854 286.913 171.964C287.587 172.535 288.094 172.965 288.645 173.433C288.532 173.656 288.201 173.998 288.247 174.282C288.334 174.815 287.641 175.382 288.377 175.886C289.217 176.46 289.618 177.294 289.502 178.338C289.842 178.347 290.185 178.359 290.527 178.37C290.537 178.448 290.546 178.526 290.557 178.606C290.286 178.72 290.015 178.834 289.701 178.968C289.978 179.192 290.37 179.39 290.346 179.504C290.071 180.832 291.397 181.305 291.919 182.1C292.753 183.376 293.935 184.384 293.946 186.253C294.366 186.221 294.787 186.142 295.2 186.174C295.455 186.195 295.915 186.383 295.913 186.49C295.898 187.377 296.741 187.317 297.157 187.712C297.437 187.976 297.652 188.491 297.938 188.526C298.731 188.621 298.585 189.642 299.1 189.702C300.314 189.842 301.61 190.019 302.764 189.735C304.139 189.393 304.846 187.683 304.516 186.184C304.771 186.343 304.962 186.463 305.156 186.586C305.68 185.428 304.029 183.941 305.945 183.004ZM181.306 157.735C180.83 156.433 180.235 154.759 179.598 153.103C179.458 152.74 179.222 152.375 178.937 152.115C177.821 151.092 176.661 150.12 175.53 149.113C175.017 148.658 174.522 148.181 174.042 147.692C173.088 146.713 172.157 145.714 171.203 144.738C171.072 144.604 170.856 144.553 170.68 144.461C170.116 144.164 169.55 143.865 168.991 143.569C168.67 144.048 168.188 144.59 167.899 145.223C166.885 147.432 165.969 149.655 165.502 152.088C164.943 154.996 163.861 157.802 163.608 160.78C163.501 162.04 163.585 163.318 163.435 164.568C163.33 165.449 162.728 166.282 163.445 167.181C163.557 167.321 163.309 167.726 163.257 168.016C163.13 168.729 162.563 169.452 163.62 170.072C163.965 170.275 164.693 171.037 163.901 171.751C163.829 171.819 163.875 172.035 163.891 172.181C164.01 173.302 164.304 174.434 164.21 175.536C164.104 176.798 164.973 177.468 165.483 178.36C165.701 178.738 165.982 179.221 166.344 179.351C167.467 179.753 168.587 179.705 169.52 178.801C170.369 177.98 171.246 177.182 172.054 176.322C172.259 176.104 172.188 175.649 172.357 175.371C172.685 174.834 173.056 174.313 173.477 173.845C174.236 172.995 175.424 172.308 175.73 171.333C176.075 170.232 176.371 169.101 176.98 168.151C177.397 167.504 177.995 167.03 178.249 166.198C178.608 165.017 179.285 163.935 179.776 162.791C180.152 161.912 180.487 161.013 180.774 160.103C180.989 159.414 181.097 158.693 181.306 157.735ZM225.723 116.726C225.786 115.835 226.201 114.472 225.838 114.219C224.926 113.58 225.259 111.843 223.585 111.921C222.824 111.957 222.054 111.321 221.254 111.172C220.429 111.02 219.558 111.024 218.715 111.082C217.679 111.154 216.626 111.254 215.641 111.548C215.29 111.652 214.87 112.387 214.915 112.784C215.028 113.78 215.458 114.737 215.631 115.732C215.887 117.202 216.016 118.692 216.228 120.17C216.3 120.674 216.451 121.168 216.578 121.663C217.01 123.369 217.277 125.147 217.95 126.752C218.326 127.646 218.295 128.029 217.732 128.29C218.07 128.77 218.491 129.168 218.664 129.653C219.394 131.709 220.067 133.784 220.729 135.864C221.109 137.065 221.428 138.285 221.792 139.564C222.442 139.331 222.929 139.158 223.637 138.905C223.054 138.491 222.579 138.152 222.014 137.75C222.253 137.479 222.499 137.233 222.704 136.956C222.861 136.745 222.965 136.497 223.156 136.15C223.205 136.162 223.592 136.296 223.617 136.244C224.12 135.252 225.061 134.155 224.907 133.249C224.777 132.478 225.146 131.767 224.874 131.056C224.847 130.98 225.013 130.804 225.12 130.712C225.434 130.443 225.766 130.198 226.183 129.87C225.704 129.661 225.497 129.571 225.22 129.45C226.377 128.722 226.39 128.172 225.264 126.853C225.68 126.236 226.281 125.624 226.524 124.892C226.698 124.37 226.306 123.686 226.314 123.075C226.331 121.814 226.446 120.557 226.519 119.304C226.269 119.233 226.045 119.17 225.768 119.09C227.213 117.548 227.046 117.509 225.723 116.726ZM34.293 233.341C34.692 232.938 35.073 232.279 35.342 232.321C37.087 232.605 38.584 231.732 40.03 231.157C41.657 230.509 43.312 229.526 44.086 227.701C44.145 227.56 44.201 227.375 44.315 227.312C45.757 226.513 46.551 225.171 47.521 223.899C48.506 222.608 49.223 221.359 49.405 219.61C48.001 219.854 46.642 220.106 45.278 220.321C44.607 220.428 43.844 220.303 43.268 220.582C41.916 221.238 40.65 222.074 39.346 222.832C39.25 222.889 39.09 222.959 39.018 222.918C37.871 222.264 37.435 223.446 36.634 223.662C36.087 223.596 35.584 223.651 35.095 223.767C34.44 223.922 33.8 224.138 33.145 224.297C32.897 224.358 32.603 224.27 32.375 224.363C31.072 224.892 29.822 225.606 28.476 225.953C27.656 226.168 26.695 225.837 26.162 225.783C25.273 226.604 24.707 227.403 23.939 227.758C23.081 228.155 22.035 228.152 21.073 228.323C20.061 228.502 19.047 228.682 18.036 228.863C18 229.023 17.964 229.185 17.927 229.344C18.507 229.745 19.228 230.038 19.633 230.57C20.477 231.682 20.521 231.764 21.497 231.857C21.853 231.891 22.316 232.116 22.497 232.398C22.951 233.104 23.354 233.131 24.043 232.707C24.292 232.554 25.052 232.734 25.186 232.977C25.701 233.921 26.006 234.026 26.875 233.332C27.117 233.139 27.432 232.915 27.712 232.916C28.623 232.921 29.532 233.022 30.485 233.093C30.486 233.109 30.505 233.373 30.535 233.788C30.894 233.462 31.117 233.261 31.387 233.017C32.282 234.727 33.455 232.43 34.293 233.341ZM245.013 103.295C244.83 103.267 244.649 103.236 244.468 103.208C244.832 101.551 245.206 99.896 245.549 98.233C245.61 97.937 245.547 97.617 245.542 97.307C245.272 97.469 244.866 97.565 244.757 97.8C244.277 98.834 243.686 99.8779 243.52 100.976C243.382 101.885 243.453 103.347 244.012 103.736C245.321 104.653 244.534 105.623 244.582 106.542C245.308 106.948 246.034 107.353 246.76 107.759C246.702 107.831 246.645 107.905 246.587 107.975C246.245 107.957 245.904 107.94 245.562 107.92C245.667 108.195 245.791 108.465 245.877 108.744C246.113 109.508 246.732 110.479 246.469 110.995C246.071 111.769 246.609 111.86 246.833 112.236C247.052 112.601 247.354 112.976 247.409 113.375C247.529 114.265 247.401 115.203 247.612 116.063C247.711 116.463 248.339 116.771 248.777 117.039C249.015 117.184 249.356 117.153 249.651 117.205C249.68 117.33 249.707 117.452 249.735 117.577C249.187 117.785 248.639 117.994 248.135 118.182C248.373 119.043 250.31 118.743 249.705 120.234C250.211 120.717 250.726 121.208 251.359 121.81C252.01 120.52 252.65 119.384 253.165 118.197C253.642 117.097 253.986 115.94 254.389 114.81C254.176 114.458 254.078 114.061 254.208 113.765C254.542 113.009 255.292 112.296 255.289 111.569C255.286 110.803 256.359 109.752 254.96 109.08C254.836 109.022 255.148 108.054 255.259 107.508C255.527 107.628 255.796 107.747 256.266 107.955C256.016 107.077 255.769 106.21 255.506 105.288C255.83 105.117 256.267 104.889 256.869 104.574C256.098 104.537 255.514 104.509 254.907 104.479C255.119 103.518 255.292 102.648 255.508 101.787C255.586 101.473 255.692 101.11 255.91 100.892C256.554 100.248 256.669 99.992 256.436 99.53C255.936 100.06 255.404 100.627 254.871 101.195C254.7 100.397 254.899 99.712 254.862 99.042C254.831 98.48 254.524 97.934 254.29 97.229C254.337 97.201 254.618 97.034 254.715 96.978C254.269 96.13 253.864 95.359 253.459 94.59C252.44 96.104 252.1 94.3049 251.346 94.1999C251.162 94.4709 250.942 94.7939 250.716 95.1269C250.405 95.0189 250.103 94.912 249.757 94.79C249.907 96.307 249.907 96.307 249.223 96.222C248.352 96.899 247.724 97.391 246.977 97.973C246.873 98.792 246.07 99.482 245.507 100.356C245.014 101.125 245.153 102.299 245.013 103.295ZM264.828 95.85C265.361 95.48 265.95 95.069 266.516 94.676C266.352 94.32 266.278 94.015 266.095 93.806C265.912 93.598 265.618 93.487 265.374 93.333C265.324 93.571 265.274 93.809 265.222 94.045C265.097 94.625 264.97 95.206 264.828 95.85ZM243.585 92.417C242.968 93.497 242.483 94.348 241.999 95.196C242.116 95.26 242.235 95.325 242.351 95.39C243.428 94.842 243.71 93.886 243.585 92.417ZM316.735 196.1C316.563 196.026 316.391 195.951 316.22 195.877C315.911 196.589 315.602 197.302 315.294 198.014C315.489 198.093 315.685 198.172 315.88 198.25C316.165 197.533 316.45 196.816 316.735 196.1ZM241.979 96.333C241.71 97.151 241.469 97.885 241.217 98.647C242.245 98.564 242.617 97.321 241.979 96.333ZM318.923 194.889C318.838 194.723 318.799 194.73 317.869 194.784C317.623 194.8 317.37 194.733 317.12 194.704C317.218 194.99 317.316 195.28 317.396 195.515C317.992 195.271 318.459 195.078 318.923 194.889Z" fill="#FEFEE5"/>
<path d="M194.06 247.232C194.487 246.809 195.063 246.181 196.164 246.611C196.511 246.746 197.122 246.306 197.567 246.054C198.489 245.531 199.369 244.954 200.477 245.634C200.667 245.753 201.008 245.659 201.273 245.616C203.384 245.27 205.644 245.848 207.607 244.599C208.057 244.313 208.456 243.921 208.937 243.718C210.6 243.018 212.325 242.722 214.154 242.763C215.05 242.782 215.988 242.372 216.852 242.023C217.786 241.644 218.913 241.088 219.675 241.073C221.818 241.024 223.703 239.231 225.951 240.225C226.207 240.338 226.768 240.196 226.947 239.975C227.747 238.991 228.825 239.412 229.798 239.257C230.435 239.153 231.027 238.79 231.653 238.59C233.126 238.118 234.608 237.678 236.087 237.225C236.125 237.214 236.184 237.214 236.195 237.19C236.906 235.654 238.253 236.628 239.294 236.406C239.65 236.329 240.133 236.39 240.346 236.178C241.598 234.922 243.257 235.091 244.783 234.73C245.702 234.513 246.556 233.92 247.373 233.395C248.645 232.578 249.983 232.43 251.089 232.736C251.565 232.353 251.816 232.065 252.132 231.913C253.297 231.354 254.477 231.065 255.833 231.226C256.838 231.344 257.859 231.021 258.366 229.819C258.488 229.526 259.459 229.287 259.824 229.466C260.799 229.941 261.47 229.153 262.262 229.018C263.001 228.893 263.859 228.682 264.534 228.012C265.454 227.099 266.833 227.34 268.022 227.141C269.497 226.893 270.926 226.761 271.846 225.241C272.137 224.762 273.13 224.662 273.827 224.491C274.421 224.342 275.052 224.345 275.784 224.269C275.593 223.84 275.49 223.606 275.342 223.272C276.102 223.151 276.991 222.726 277.472 223.004C278.19 223.419 278.767 223.11 279.112 222.864C280.974 221.531 283.231 221.279 285.264 220.438C286.296 220.012 287.288 219.488 288.316 219.042C289.316 218.607 290.244 218.065 291.365 217.833C292.491 217.601 293.523 216.918 294.588 216.415C294.973 216.233 295.33 215.998 295.7 215.788C295.758 215.87 295.816 215.955 295.874 216.038C296.392 215.35 296.909 214.662 297.427 213.975C297.478 213.996 297.528 214.017 297.578 214.038C297.481 214.362 297.386 214.688 297.29 215.013C298.039 214.361 298.341 213.129 299.664 213.907C300.464 212.694 301.593 212.295 302.932 212.197C303.524 212.153 304.113 211.883 304.671 211.646C305.377 211.346 305.913 210.833 306.756 210.634C308.303 210.272 309.776 209.517 311.224 208.815C312.508 208.192 313.706 207.39 314.974 206.728C315.337 206.538 315.879 206.668 316.22 206.458C316.9 206.039 317.428 205.321 318.143 205.025C319.255 204.567 319.838 203.606 320.683 202.922C321.369 202.365 322.543 202.45 323.457 202.127C324.236 201.853 324.948 201.395 325.697 201.035C326.324 200.737 326.976 200.489 327.594 200.174C328.079 199.926 328.615 199.687 328.979 199.303C329.417 198.837 329.763 198.511 330.483 198.687C330.751 198.756 331.131 198.341 331.469 198.162C332.738 197.479 333.964 196.676 335.302 196.171C336.165 195.844 337.163 195.869 337.938 195.236C337.997 195.187 338.248 195.281 338.25 195.268C338.715 193.416 340.596 193.979 341.738 193.449C342.903 192.91 343.451 192.003 344.263 191.264C344.712 190.851 344.898 190.104 345.386 189.794C346.097 189.342 346.981 189.018 347.605 189.874C348.518 188.905 349.298 187.855 350.296 187.09C351.008 186.543 352.017 186.391 352.885 186.038C353.204 185.908 353.598 185.781 353.782 185.524C354.39 184.674 355.248 184.518 356.191 184.387C356.566 184.336 356.887 183.911 357.364 183.845C357.843 183.549 358.342 183.282 358.799 182.954C359.978 182.105 361.173 181.273 362.294 180.352C363.196 179.612 363.998 178.752 364.871 177.918C365.226 178.236 365.44 178.428 365.736 178.694C366.041 178.264 366.291 177.916 366.582 177.509C366.822 177.588 367.087 177.672 367.488 177.801C367.322 177.386 367.216 177.118 367.23 177.153C368.142 176.679 368.947 176.262 369.752 175.846C370.19 175.618 370.663 175.446 371.059 175.162C371.824 174.618 372.488 173.902 373.303 173.469C373.931 173.133 374.728 173.118 375.451 172.963C375.603 172.931 375.812 172.959 375.899 172.869C376.618 172.104 377.522 171.419 377.967 170.512C378.553 169.318 379.514 168.64 380.659 169.279C381.216 168.687 381.74 167.996 382.4 167.478C382.802 167.162 383.516 167.239 383.911 166.918C384.774 166.221 385.498 165.355 386.328 164.611C386.865 164.132 387.434 163.009 388.087 164.589C388.484 164.319 388.772 164.125 389.206 163.832C388.76 163.734 388.478 163.671 388.198 163.61C388.2 163.548 388.202 163.486 388.205 163.423C388.869 163.38 389.553 163.414 390.191 163.262C390.667 163.15 391.289 162.904 391.491 162.528C392.254 161.099 393.784 160.561 394.825 159.471C395.026 159.26 395.463 159.222 395.798 159.203C396.323 159.168 396.714 159.12 396.655 158.411C396.636 158.184 396.916 157.807 397.146 157.712C397.922 157.388 401.131 154.974 401.675 154.177C401.881 154.335 402.083 154.49 402.319 154.671C402.443 154.463 402.559 154.256 402.684 154.056C403.217 153.206 403.843 152.72 404.941 152.438C406.108 152.141 407.252 151.418 408.366 150.858C409.467 150.302 410.234 149.069 411.641 148.841C411.872 148.806 412.245 148.4 412.218 148.21C412.02 146.784 413.06 146.905 413.916 146.75C414.166 146.704 414.415 146.565 414.63 146.42C415.944 145.517 417.231 144.572 418.56 143.692C419.54 143.042 420.53 142.38 421.588 141.88C423.026 141.201 424.101 140.079 425.353 139.175C426.968 138.009 428.798 137.139 430.516 136.107C431.251 135.665 431.903 135.085 432.641 134.654C433.889 133.923 435.211 133.317 436.434 132.549C437.83 131.673 439.145 130.663 440.513 129.74C440.798 129.548 441.167 129.477 441.495 129.351C441.552 129.455 441.605 129.559 441.66 129.663C441.357 130.033 441.054 130.402 440.752 130.772C440.846 130.883 440.94 130.994 441.035 131.104C442.208 130.139 443.38 129.174 444.553 128.208C444.624 128.252 444.697 128.296 444.769 128.338C443.99 129.688 443.255 131.068 442.421 132.385C440.786 134.962 439.146 137.534 437.416 140.048C435.855 142.315 434.24 144.549 432.527 146.702C431.337 148.198 429.913 149.51 428.648 150.95C428.228 151.428 427.995 152.066 427.636 152.603C427.439 152.902 427.174 153.159 426.916 153.411C426.522 153.793 426.07 154.121 425.713 154.531C424.593 155.808 423.592 157.206 422.382 158.385C421.153 159.585 419.715 160.571 418.399 161.685C418.023 162.001 417.761 162.453 417.416 162.813C417.1 163.144 416.79 163.605 416.395 163.714C415.291 164.022 414.829 164.737 414.721 165.902C414.4 165.754 414.11 165.62 413.905 165.525C413.647 166.005 413.4 166.465 413.066 167.085C413.883 168.025 412.227 167.854 412.059 167.868C410.485 168.012 409.348 168.638 408.706 170.151C408.587 170.434 408.067 170.588 407.703 170.72C405.422 171.537 403.698 172.934 402.421 175.054C401.948 175.839 400.729 176.173 399.617 176.856C399.629 177.053 399.662 177.608 399.707 178.348C399.327 178.142 398.986 177.956 398.807 177.859C397.961 178.217 397.137 178.454 396.45 178.898C395.97 179.21 395.554 179.756 395.328 180.29C394.935 181.214 394.634 182.089 393.344 181.782C392.959 181.688 390.942 183.064 390.833 183.485C390.592 184.423 390.037 185.068 389.146 185.428C388.659 185.624 388.042 184.932 387.618 185.665C387.479 185.901 387.157 186.054 387.068 186.3C386.553 187.719 385.353 188.441 384.101 188.898C383.352 189.169 382.393 188.868 381.25 188.807C381.55 189.36 381.666 189.574 381.869 189.947C380.992 190.407 380.07 190.803 379.246 191.35C378.736 191.687 378.44 192.342 377.934 192.693C376.63 193.602 375.257 194.411 373.924 195.28C373.233 195.73 372.57 196.227 371.886 196.688C371.699 196.816 371.426 197.026 371.283 196.968C370.506 196.657 370.345 197.193 370.093 197.705C369.792 198.318 369.424 198.674 368.588 198.373C368.126 198.204 367.259 198.041 367.14 199.064C367.133 199.131 366.672 199.146 366.369 199.194C367.533 200.599 365.688 200.591 365.477 201.412C365.282 200.982 365.136 200.666 364.991 200.345C364.699 200.565 364.43 200.823 364.114 200.994C363.655 201.25 363.164 201.444 362.364 201.814C363.026 202.095 363.346 202.232 364.058 202.534C363.342 202.689 362.887 202.672 362.578 202.879C361.883 203.344 360.841 203.158 360.396 204.119C360.217 204.508 359.85 204.91 359.469 205.079C358.3 205.594 357.083 206.001 355.884 206.448C355.847 206.463 355.789 206.453 355.77 206.477C355.331 207.041 355.005 207.847 354.43 208.115C353.842 208.386 353.008 208.129 352.192 208.103C352.236 208.756 352.257 209.095 352.296 209.669C351.925 209.352 351.711 209.171 351.337 208.851C351.059 209.386 350.791 209.902 350.469 210.518C350.284 210.263 350.119 210.035 349.959 209.815C349.594 209.89 349.226 209.963 348.769 210.055C348.85 210.927 348.429 211.468 347.364 211.688C346.179 211.931 345.161 212.543 344.288 213.473C343.694 214.107 342.668 214.345 342.095 214.99C341.228 215.968 340.112 215.715 339.178 215.937C339.035 217.192 338.069 218.155 337.213 218.283C335.883 218.481 335.044 220.166 333.324 219.508C333.189 219.796 333.044 220.29 332.752 220.673C332.115 221.51 331.083 221.523 330.224 221.433C328.944 221.299 328.371 221.47 328.14 222.674C327.973 223.541 327.742 224.012 326.658 224.135C325.498 224.266 324.416 224.992 323.269 225.365C322.514 225.611 321.638 225.553 320.943 225.893C320.242 226.235 319.737 226.959 319.068 227.395C318.759 227.596 318.266 227.511 317.532 227.593C316.682 228.089 315.495 228.763 314.33 229.472C313.906 229.73 313.564 230.131 313.128 230.361C312.774 230.548 312.33 230.56 311.932 230.674C311.544 230.784 311.161 230.914 310.784 231.057C310.665 231.103 310.581 231.288 310.47 231.3C309.429 231.406 309.27 231.542 309.199 232.536C308.81 232.419 308.443 232.307 308.043 232.184C307.644 232.607 307.201 233.075 306.687 233.617C305.933 233.147 305.287 233.298 304.904 234.317C304.917 234.069 304.928 233.819 304.941 233.573C304.523 234.594 303.983 235.305 302.783 234.356C302.82 235.838 301.549 235.783 300.924 235.807C299.832 235.857 299.382 236.501 298.864 237.178C298.781 237.285 299 237.625 299.119 237.979C298.802 237.909 298.525 237.9 298.298 237.788C297.621 237.455 296.912 236.689 296.582 238.168C296.533 238.394 295.773 238.72 295.551 238.602C293.898 237.729 292.96 239.657 291.53 239.574C291.475 239.571 291.449 239.97 291.326 240.107C290.333 241.236 289.093 241.473 287.68 241.09C287.457 241.029 287.207 241.067 286.984 241.059C286.104 242.689 284.785 243.269 283.851 242.195C284.054 243.034 283.789 243.248 283.104 243.286C282.255 243.332 281.391 243.534 280.596 243.834C280.349 243.925 280.306 244.557 280.179 244.918C279.599 244.445 278.22 244.754 277.45 245.408C276.834 245.929 276.077 246.32 275.325 246.62C275.11 246.707 274.688 246.277 274.428 246.124C273.877 246.304 273.301 246.547 272.699 246.679C271.75 246.884 271.403 247.413 271.53 248.575C270.736 248.754 269.945 248.934 269.071 249.133C268.943 248.945 268.772 248.692 268.773 248.692C267.615 248.754 266.625 248.778 265.64 248.862C265.312 248.893 264.885 248.989 264.698 249.215C263.952 250.12 262.904 249.835 261.98 250.062C261.489 250.182 261.08 250.631 260.638 250.939C260.455 251.065 260.278 251.202 259.902 251.151C260.036 250.863 260.171 250.574 260.304 250.286C259.674 251.84 258.052 251.325 256.945 251.856C255.825 252.398 254.121 252.3 253.466 253.118C251.835 255.149 249.951 253.946 248.176 254.064C248.017 254.073 247.857 254.088 247.71 254.102C247.146 255.504 246.308 255.927 244.713 255.731C244.36 255.689 243.979 255.954 243.61 255.954C243.224 255.952 242.838 255.804 242.448 255.717C242.076 256.058 242.091 257.14 241.104 256.392C240.989 256.306 240.507 256.8 240.16 256.904C238.589 257.379 237.007 257.819 235.424 258.25C235.25 258.297 234.999 258.264 234.848 258.167C233.488 257.293 233.493 257.287 232.516 258.57C232.419 258.697 232.311 258.818 232.161 258.693C231.276 258.828 230.394 258.974 229.509 259.097C228.974 259.174 228.389 259.38 227.905 259.247C226.473 258.848 225.337 259.095 224.361 260.273C223.758 261 221.659 261.088 220.726 260.804C220.113 260.617 219.179 260.606 218.721 260.953C217.231 262.083 215.547 262.246 213.823 262.236C212.23 262.229 210.639 262.009 209.046 261.95C207.961 261.909 206.872 261.979 205.784 262.009C205.588 262.014 205.282 261.996 205.218 262.104C204.379 263.518 202.714 263.265 201.687 263.195C200.567 263.119 199.433 263.887 198.342 263.205C197.149 264.5 195.726 264.521 194.005 264.434C192.427 264.355 190.904 263.838 189.324 263.972C187.719 264.111 186.117 264.324 184.509 264.376C183.463 264.411 182.475 264.355 181.399 264.636C180.428 264.887 179.245 264.188 178.141 264.105C176.933 264.012 175.64 263.347 174.502 264.446C174.333 264.61 173.881 264.527 173.569 264.49C171.892 264.299 170.223 264.002 168.54 263.913C167.476 263.857 166.392 264.203 165.321 264.176C164.215 264.147 163.115 263.859 162.007 263.726C161.637 263.68 161.246 263.806 160.875 263.767C160.445 263.72 159.971 263.673 159.612 263.462C158.222 262.649 156.905 262.217 155.627 263.663C155.516 263.787 155.072 263.719 154.835 263.617C153.081 262.86 151.297 262.295 149.347 262.506C149.159 262.527 148.882 262.514 148.772 262.399C147.545 261.081 145.722 262.103 144.354 261.28C144.192 261.184 143.721 261.602 143.321 261.821C142.889 260.475 141.607 260.905 140.652 260.604C139.963 260.384 139.254 260.219 138.552 260.041C138.091 259.927 137.629 259.79 137.16 259.737C136.421 259.658 135.709 259.707 135.239 258.876C135.078 258.593 134.365 258.6 133.896 258.522C133.549 258.464 133.043 258.628 132.859 258.445C131.863 257.44 130.218 257.966 129.238 256.716C128.803 256.162 127.588 256.22 126.728 256.002C126.35 255.904 125.94 255.874 125.598 255.706C124.604 255.219 123.636 254.682 122.662 254.156C122.056 253.83 121.438 253.517 120.861 253.144C120.007 252.594 119.237 251.882 118.331 251.447C117.52 251.056 117.331 250.518 117.217 249.718C117.138 249.178 116.61 248.72 116.437 248.177C116.268 247.644 116.09 246.957 116.294 246.513C116.494 246.076 117.152 245.621 117.641 245.584C120.09 245.396 122.473 245.828 124.825 246.55C125.838 246.86 126.944 247.073 127.992 247.017C130.53 246.877 132.763 248.117 135.193 248.409C136.391 248.554 137.595 248.675 138.801 248.749C140.782 248.876 142.769 248.927 144.75 249.079C145.108 249.106 145.427 249.619 145.786 249.647C146.593 249.712 147.549 249.862 148.192 249.513C148.933 249.112 149.482 249.102 150.182 249.369C151.045 249.697 151.924 249.982 152.798 250.285C152.872 250.309 152.994 250.341 153.031 250.306C154.599 248.745 156.618 249.824 158.377 249.391C158.563 249.344 158.76 249.272 158.942 249.294C160.37 249.465 161.791 249.763 163.218 249.805C164.194 249.834 165.18 249.514 166.161 249.35C166.572 249.28 167.09 249.016 167.376 249.173C169.01 250.07 170.502 249.598 172.144 249.099C174.255 248.456 176.466 248.345 178.712 248.588C179.784 248.705 180.911 248.199 182.025 248.069C183.391 247.911 184.772 247.878 186.141 247.742C187.766 247.577 189.382 247.309 191.01 247.179C191.948 247.105 192.903 247.206 194.06 247.232Z" fill="#FEFEE5"/>
<path d="M453.844 96.49C453.06 96.192 452.573 95.9981 453.592 95.1851C454.12 94.7581 454.037 93.579 454.247 92.746C454.332 92.405 454.463 92.0771 454.525 91.8851C454.312 90.3931 454.104 88.937 453.866 87.278C454.755 86.15 455.583 84.778 454.866 82.865C454.657 82.308 455.304 81.443 455.517 80.709C455.681 80.141 455.779 79.5521 455.927 78.8781C455.702 78.7741 455.93 78.875 456.228 78.1981C456.607 77.3341 456.755 76.269 456.663 75.325C456.574 74.433 456.726 73.4081 457.549 73.0101C456.384 71.9371 457.8 71.417 458.112 70.617C457.848 70.52 457.638 70.4441 457.673 70.4561C457.831 69.2541 457.967 68.205 458.074 67.403C456.344 66.923 454.918 66.526 453.497 66.132C453.357 66.765 454.231 67.466 453.11 67.768C452.964 67.807 452.941 68.407 452.915 68.751C452.884 69.171 452.914 69.595 452.912 70.017C452.912 70.277 452.792 70.671 452.919 70.778C454.188 71.84 453.197 71.9 452.24 72.039C452.365 73.051 452.734 74.094 452.527 75.002C452.377 75.659 451.461 76.14 450.886 76.699C450.801 76.62 450.713 76.541 450.626 76.46C450.622 77.068 450.616 77.6771 450.611 78.2951C449.403 77.9371 448.12 79.3721 448.21 80.8691C448.229 81.1871 448.178 81.576 448.001 81.818C447.838 82.046 447.466 82.123 447.187 82.267C447.104 82.18 447.022 82.0941 446.94 82.0081C446.836 82.4861 446.731 82.962 446.617 83.481C446.259 83.487 445.79 83.491 445.301 83.497C444.113 84.682 442.834 85.9531 441.408 87.3751C441.41 87.3751 441.074 87.302 440.865 87.256C440.289 87.887 439.775 88.451 439.05 89.246C439.03 90.361 438.843 90.4981 437.514 89.9101C437.253 90.2871 436.989 90.6701 436.692 91.0981C436.262 90.3201 435.978 90.053 435.311 91.074C434.921 91.672 433.83 92.056 433.038 92.089C431.35 92.152 429.671 92.238 427.936 91.85C426.818 91.599 425.86 91.5041 425.125 90.3681C424.804 90.7641 424.551 91.079 424.109 91.626C424.106 90.88 424.105 90.361 424.104 89.902C423.414 89.936 422.854 89.9621 422.292 89.9881C422.23 89.6991 422.198 89.3761 422.085 89.0811C421.957 88.7481 421.757 88.442 421.588 88.121C421.383 88.379 421.178 88.634 420.738 89.183C420.563 88.52 420.435 88.039 420.276 87.44C420.246 87.448 419.946 87.5211 419.914 87.5301C419.625 86.9011 419.361 86.3281 419.095 85.7531C418.984 85.7901 418.871 85.827 418.759 85.865C418.764 86.131 418.767 86.3931 418.773 86.6591C418.684 86.6831 418.594 86.7091 418.507 86.7341C418.32 86.1101 418.133 85.4881 417.924 84.7851C417.809 85.1051 417.702 85.4041 417.594 85.7011C417.52 85.6891 417.447 85.676 417.374 85.664C417.376 85.335 417.379 85.0051 417.383 84.6131C417.193 84.6761 416.998 84.7391 416.626 84.8641C416.578 84.3011 416.532 83.7841 416.481 83.1771C416.481 83.1771 416.209 83.173 415.894 83.167C415.89 83.502 415.885 83.7951 415.874 84.4671C415.534 84.0201 415.256 83.8061 415.291 83.6801C415.698 82.1951 414.302 81.087 414.442 79.627C414.462 79.405 413.408 79.0831 412.679 78.7231C412.676 78.5701 412.737 78.1381 412.648 77.7391C412.418 76.6851 412.124 75.6431 411.879 74.6911C411.609 75.0101 410.732 75.2791 411.399 76.2431C410.149 74.5781 411.371 72.6101 410.47 70.8631C410.353 71.1231 410.261 71.32 410.052 71.777C409.844 71.31 409.644 71.0611 409.632 70.8001C409.579 69.7661 409.879 68.605 409.498 67.731C408.972 66.521 409.472 65.283 408.984 64.085C408.78 63.584 409.375 62.72 409.687 62.059C410.015 61.366 409.959 60.7381 409.9 59.9771C409.816 58.8741 410.31 57.7271 410.608 56.3621C411.046 56.7711 411.257 56.9681 411.583 57.2691C412.055 55.7321 411.396 52.998 414.598 54.345C414.957 53.384 415.317 52.415 415.7 51.396C415.811 51.512 416.054 51.764 416.295 52.012C416.495 51.812 416.693 51.616 416.886 51.422C416.99 51.769 417.067 52.0241 417.143 52.2791C417.448 52.1521 417.955 52.0971 418.026 51.8891C418.681 49.9961 420.692 50.4831 421.909 49.6071C422.661 50.3591 422.93 49.0431 423.735 49.1911C423.457 49.5011 423.275 49.7011 422.993 50.0151C423.29 50.0781 423.493 50.123 423.695 50.167C423.788 49.71 423.94 49.255 423.956 48.794C423.98 48.129 423.565 47.5171 424.859 47.3741C425.901 47.2611 426.822 46.233 427.845 45.704C428.508 45.36 428.991 44.681 429.952 44.824C430.543 44.914 430.911 43.1461 430.267 42.2181C431.912 43.0031 432.775 40.408 434.614 41.96C434.489 41.44 434.425 41.172 434.386 41.013C435.977 40.996 437.661 40.809 439.289 41.038C440.042 41.145 440.682 42.062 441.46 42.684C441.215 41.724 443.132 40.8001 441.157 39.8751C441.62 39.7511 441.904 39.6761 442.468 39.5251C441.953 39.2841 441.671 39.152 441.447 39.047C441.736 38.504 442.211 37.9791 442.284 37.4011C442.533 35.4301 443.525 33.754 444.394 32.064C444.748 31.378 445.834 31.0591 446.601 30.5931C446.799 30.4741 447.097 30.4931 447.269 30.3531C448.848 29.0541 450.405 27.7321 451.98 26.4301C452.151 26.2871 452.552 26.117 452.59 26.163C453.105 26.808 453.521 26.317 453.819 26.007C454.532 25.268 455.233 25.6401 456.07 25.6341C457.684 25.6291 459.199 25.8551 460.669 26.3471C462.817 27.0641 465.013 27.6711 466.621 29.5301C467.549 30.6031 468.978 31.2451 469.879 32.3331C470.412 32.9721 471.858 32.903 471.538 34.298C471.499 34.457 472.013 34.9171 472.303 34.9511C473.861 35.1381 473.64 36.451 473.986 37.424C474.136 37.844 474.386 38.229 474.637 38.715C475.537 37.43 476.284 36.4271 476.951 35.3751C477.151 35.0591 477.13 34.604 477.209 34.214C477.085 34.141 476.96 34.07 476.835 33.997C477.162 33.937 477.485 33.871 477.812 33.82C477.983 33.792 478.25 33.8571 478.317 33.7691C479.128 32.6681 480.475 31.979 480.819 30.516C480.855 30.358 481.003 30.223 481.111 30.085C481.482 29.608 481.829 29.106 482.243 28.668C482.506 28.392 482.866 28.2001 483.196 27.9931C483.84 27.5871 484.582 27.293 485.13 26.788C487.369 24.717 490.014 24.194 493.026 24.434C493.061 26.491 492.877 28.375 492.02 30.153C491.951 30.298 491.984 30.6491 492.031 30.6601C492.333 30.7351 492.652 30.7451 492.969 30.7751C492.778 33.1241 491.599 35.206 490.488 37.345C489.876 38.524 489.207 39.562 488.272 40.492C487.993 40.771 488.181 41.4691 487.983 41.8941C487.712 42.4841 487.274 42.9921 486.921 43.5461C486.817 43.7101 486.766 43.906 486.684 44.105C487.253 44.967 489.218 44.278 488.916 46.094C490.13 46.2 490.39 47.2971 490.866 48.1241C490.783 48.1381 490.595 48.1681 490.573 48.1711C490.815 48.8321 490.99 49.565 491.352 50.188C491.541 50.515 492.057 50.651 492.488 50.912C492.299 51.333 492.1 51.772 491.833 52.361C492.282 52.383 492.55 52.396 492.905 52.414C492.744 52.815 492.618 53.1291 492.491 53.4421C492.609 53.4201 492.725 53.399 492.844 53.376C493.024 53.794 493.328 54.204 493.357 54.632C493.423 55.621 493.926 56.4521 494.171 57.3731C494.249 57.6651 494.435 57.9751 494.386 58.2441C494.236 59.1181 494.434 59.757 495.458 59.996C494.177 61.052 495.457 61.91 495.413 62.881C496.264 62.772 496.806 62.8441 496.741 63.9091C496.702 64.5291 497.123 65.1691 497.228 65.8161C497.275 66.1131 497.054 66.4501 496.933 66.8371C497.142 66.9001 497.354 66.9671 497.558 67.0301C497.416 67.1541 497.273 67.28 497.086 67.445C497.181 67.524 497.264 67.5781 497.327 67.6501C497.517 67.8641 497.833 68.069 497.859 68.304C497.974 69.289 497.969 70.288 498.075 71.278C498.116 71.664 498.307 72.0431 498.476 72.4011C498.939 73.3791 499.453 74.3301 499.885 75.3211C500.01 75.6061 499.913 75.9861 499.935 76.3211C499.947 76.5311 499.934 76.8911 500.026 76.9251C501.389 77.4221 500.679 78.2021 500.514 78.8741C500.53 81.4721 502.525 83.321 502.85 85.87C503.162 88.308 504.106 90.659 504.534 93.09C505.004 95.765 505.2 98.4861 505.521 101.243C505.755 101.028 505.922 100.88 506.212 100.616C506.269 101.294 506.457 101.794 506.316 102.172C505.771 103.643 507.378 104.888 506.724 106.388C506.679 106.492 507.581 107.011 507.891 107.229C507.713 108.765 507.559 110.288 507.353 111.801C507.193 112.989 507.01 114.12 508.397 114.808C508.597 114.907 508.49 115.625 508.524 116.058C508.404 116.017 508.284 115.973 508.164 115.931C507.985 116.205 507.614 116.514 507.66 116.744C507.914 118.061 508.368 119.348 508.54 120.675C508.613 121.236 508.127 121.858 507.973 122.469C507.916 122.693 508.085 122.977 508.152 123.231C508.285 123.208 508.419 123.182 508.551 123.158C508.49 123.342 508.486 123.61 508.359 123.693C507.433 124.3 507.768 125.066 507.957 125.885C508.058 126.321 507.859 126.829 507.774 127.3C507.753 127.423 507.564 127.564 507.595 127.639C508.152 129.011 507.948 130.416 507.686 131.787C507.528 132.608 507.033 133.356 506.791 134.169C506.432 135.382 506.185 136.624 505.842 137.841C505.675 138.431 505.558 139.256 505.138 139.514C504.034 140.184 504.335 141.664 503.067 142.375C502.167 142.88 501.867 144.456 501.193 145.76C500.634 145.978 499.803 146.303 498.733 146.72C498.441 147.306 498.019 148.162 497.594 149.02C497.677 149.044 497.761 149.067 497.847 149.089C497.486 149.265 497.125 149.439 496.768 149.62C494.785 150.638 492.716 151.37 490.463 151.44C489.773 151.461 489.099 151.419 489.098 152.34C488.588 152.185 488.098 151.91 487.611 151.915C486.049 151.936 484.739 151.553 483.453 150.535C482.757 149.988 481.502 150.145 480.44 149.973C479.376 147.492 479.142 147.316 477.445 147.833C476.922 147.121 476.508 146.259 475.838 145.707C474.547 144.647 473.123 143.748 471.734 142.811C470.222 141.792 469.406 140.306 468.66 138.605C468.631 138.619 468.436 138.691 468.208 138.778C467.806 138.016 467.562 136.764 466.951 136.549C465.312 135.966 465.842 134.062 464.625 133.323C464.436 133.208 464.502 132.728 464.362 132.466C464.207 132.176 463.936 131.949 463.74 131.677C463.471 131.302 463.225 130.912 462.975 130.526C462.666 130.049 462.25 129.603 462.087 129.08C461.827 128.247 461.456 127.665 460.522 127.564C460.441 127.556 460.415 127.21 460.331 127.037C460.072 126.513 460.739 125.571 459.598 125.417C459.522 125.404 459.398 124.868 459.493 124.67C459.74 124.155 459.861 123.805 459.138 123.607C459.007 123.572 458.878 123.074 458.945 122.848C459.239 121.856 458.826 121.326 458.012 120.78C457.553 120.472 456.781 120.092 457.408 119.01C457.725 118.463 456.901 117.33 456.778 116.437C456.629 115.364 455.721 114.374 456.38 113.196C456.439 113.092 456.386 112.808 456.296 112.754C455.061 111.99 455.368 110.556 454.971 109.468C454.569 108.369 454.809 107.034 454.774 105.805C454.771 105.687 454.869 105.509 454.818 105.458C453.528 104.106 454.2 102.259 453.612 100.707C453.216 99.6591 453.252 98.435 453.188 97.287C453.17 97.055 453.575 96.8 453.844 96.49ZM476.071 127.35C476.012 127.455 475.831 127.777 475.649 128.097C475.703 128.143 475.757 128.19 475.811 128.237C476.076 128.056 476.343 127.875 476.664 127.659C476.583 128.81 479.521 132.678 480.309 132.897C480.64 133.469 481.066 133.94 481.52 134.38C481.885 134.736 482.276 135.066 482.671 135.388C482.944 135.611 483.22 135.904 483.54 135.985C484.743 136.292 485.891 136.645 486.437 137.712C487.159 137.674 487.762 137.64 488.586 137.594C489.505 136.672 490.546 135.531 490.116 133.729C490.069 133.531 490.3 133.091 490.476 133.044C491.811 132.689 491.614 131.699 491.452 130.759C491.328 130.043 491.374 129.552 492.364 129.645C492.264 128.603 492.156 127.557 492.066 126.507C492.047 126.278 492.013 125.981 492.129 125.817C492.692 125.031 492.867 123.728 492.197 123.253C491.134 122.495 491.802 121.861 492.275 121.423C492.815 120.923 492.791 120.694 492.429 120.092C491.906 119.221 491.855 118.283 492.235 117.203C492.499 116.454 492.209 115.413 491.911 114.597C491.652 113.885 491.3 113.333 491.629 112.499C491.907 111.793 491.857 110.956 491.948 110.177C492.011 109.645 492.068 109.11 492.142 108.442C491.783 108.307 491.285 108.12 490.665 107.887C490.881 107.256 491.074 106.692 491.28 106.094C490.666 105.49 490.001 105.096 490.596 103.756C491.004 102.836 490.766 101.221 489.633 100.209C489.278 99.892 489.21 99.2321 489.083 98.7121C489.071 98.6591 489.575 98.4841 489.867 98.3521C489.222 97.0861 488.98 95.799 489.672 94.454C489.76 94.278 489.756 93.9031 489.638 93.7951C488.182 92.4541 488.622 90.537 488.105 88.918C487.612 87.373 488.468 85.4671 487.038 84.2271C486.247 83.5411 486.178 82.7811 486.116 81.9051C486.103 81.7381 485.928 81.543 485.775 81.433C484.546 80.549 485.171 79.0421 484.583 77.9481C484.787 77.8671 484.99 77.789 485.037 77.767C484.943 77.488 484.852 77.2091 484.76 76.9301C484.748 76.9421 484.735 76.9551 484.721 76.9681C484.142 75.6731 483.561 74.3781 482.962 73.0401C483.75 72.3391 483.687 71.3471 482.698 69.9111C482.421 69.5101 482.269 69.0221 482.04 68.5831C481.786 68.0951 481.513 67.6141 481.241 67.1341C480.958 66.6311 480.624 66.1491 480.426 65.6141C480.395 65.5301 481.002 65.257 481.241 65.006C481.367 64.871 481.449 64.5111 481.36 64.3901C480.661 63.4361 479.864 63.5931 479.177 64.6191C478.847 65.1121 478.225 65.426 477.703 65.772C476.734 66.418 475.346 65.9891 474.513 67.0451C473.895 67.8301 473.301 68.684 472.516 69.268C471.634 69.926 471.308 70.5661 471.838 71.5861C471.602 71.5981 471.287 71.5471 471.253 71.6231C470.986 72.2181 470.74 72.831 470.549 73.455C470.112 74.896 469.721 76.347 469.287 77.788C469.143 78.264 468.937 78.7251 468.749 79.1871C468.505 79.7881 468.05 80.3871 468.049 80.9871C468.048 81.8601 467.844 82.521 467.271 83.164C467.135 83.314 467.33 83.834 467.47 84.138C467.597 84.41 467.86 84.6201 468.058 84.8541C466.674 86.2551 465.911 89.0041 467.024 90.8001C466.771 90.7031 466.61 90.6421 466.564 90.6251C465.965 94.0231 464.617 97.4661 466.53 100.946C466.265 100.886 466.054 100.84 465.697 100.761C466.941 102.372 466.765 104.104 466.594 105.851C466.558 106.212 466.685 106.618 466.831 106.964C467.62 108.833 468.669 110.6 468.929 112.671C468.991 113.158 469.183 113.64 469.362 114.105C469.691 114.957 470.107 115.777 470.393 116.641C470.748 117.721 470.668 119.216 471.382 119.839C472.749 121.038 472.91 122.721 473.784 124.068C474.472 125.122 475.222 126.137 476.071 127.35ZM439.634 73.7441C439.655 73.7491 439.678 73.754 439.699 73.762C439.972 73.254 440.247 72.747 440.579 72.132C441.152 72.057 441.684 71.7261 441.6 70.8271C441.501 69.7951 441.404 68.7641 441.301 67.6611C442.212 67.3281 442.288 66.702 441.903 65.777C441.624 65.105 441.575 64.3251 441.503 63.5861C441.444 62.9811 441.504 62.3621 441.511 61.7501C441.513 61.6001 441.455 61.35 441.519 61.313C442.177 60.94 441.729 60.62 441.603 60.157C441.314 59.094 439.827 58.2671 440.715 57.2281C440.447 56.6881 440.245 56.346 440.108 55.98C440.046 55.812 440.192 55.542 440.105 55.412C439.715 54.826 439.549 54.2031 439.348 53.5361C439.013 52.4211 437.99 51.496 437.186 50.549C436.935 50.252 436.432 50.1851 436.1 49.9361C435.346 49.3721 434.725 48.5931 433.579 48.8481C433.34 48.9021 432.996 48.4851 432.7 48.2841C432.402 48.5111 432.1 48.4951 431.796 48.4981C431.398 48.5031 430.977 48.4401 430.607 48.5501C429.596 48.8501 428.612 49.237 427.61 49.564C426.911 49.791 426.199 49.9781 425.265 50.2501C426.723 51.3791 426.885 52.174 426.175 53.371C425.563 54.401 424.963 55.4391 424.314 56.4471C423.82 57.2171 423.253 57.9371 422.731 58.6871C422.455 59.0841 422.05 59.4741 421.973 59.9151C421.664 61.6951 421.647 63.48 422.304 65.216C422.367 65.38 422.404 65.636 422.322 65.761C421.782 66.588 421.951 67.3531 422.362 68.1801C422.583 68.6231 422.565 69.1801 422.705 69.6711C423.081 70.9811 423.396 72.3201 423.913 73.5721C424.205 74.2861 424.896 74.8261 425.315 75.4991C426.418 77.2661 427.471 79.062 428.614 80.964C428.964 80.586 429.122 80.415 429.157 80.377C429.722 80.545 430.136 80.664 430.828 80.871C430.801 80.85 431.138 81.2341 431.321 81.1721C432.147 80.889 432.966 80.533 433.718 80.09C434.257 79.773 434.65 79.2151 435.179 78.8731C435.685 78.5471 436.214 78.3801 436.427 77.6761C436.627 77.0121 437.107 76.4301 437.514 75.7221C437.6 76.2461 437.66 76.608 437.747 77.137C438.447 75.875 439.041 74.8101 439.634 73.7441ZM466.944 49.971C467.314 49.313 467.489 48.5261 467.96 48.2551C469.202 47.5421 469.401 46.313 468.327 45.294C467.924 44.909 467.673 44.3591 467.378 43.8691C467.114 43.4281 466.969 42.886 466.626 42.527C465.523 41.382 464.414 40.2241 463.188 39.2181C462.278 38.4711 461.189 37.939 460.162 37.339C459.621 37.024 458.905 37.1941 458.399 36.6231C458.21 36.4091 457.427 36.3881 457.202 36.5931C456.296 37.4231 455.499 38.3701 454.672 39.2861C454.616 39.3491 454.599 39.5501 454.647 39.5971C455.326 40.2131 454.585 40.408 454.319 40.742C454.063 41.063 453.822 41.396 453.552 41.705C452.766 42.601 453.638 43.4271 453.696 44.2761C453.773 45.4241 453.921 46.6531 455.112 47.3431C455.162 47.3731 455.17 47.476 455.211 47.573C455.043 47.6971 454.873 47.82 454.7 47.948C455.055 48.382 455.311 49.0111 455.698 49.1081C456.68 49.3521 456.525 50.0611 456.598 50.7121C456.627 50.9731 456.543 51.3201 456.681 51.4741C457.156 52.0061 457.69 52.4901 458.234 52.9531C458.535 53.2111 458.872 53.49 459.239 53.595C460.755 54.026 462.288 54.391 464.13 54.865C464.337 54.316 464.658 53.4691 464.979 52.6231C465.126 52.5691 465.271 52.5131 465.417 52.4571C465.46 52.8421 465.502 53.2281 465.544 53.6141C465.669 53.5701 465.794 53.5271 465.919 53.4831C466.1 52.6071 467.005 51.9251 466.333 50.7961C466.101 50.4041 466.19 49.635 466.944 49.971Z" fill="#FEFEE5"/>
<path d="M374.357 100.993C373.711 101.832 373.19 101.893 372.637 101.44C371.097 102.14 369.687 102.756 368.305 103.429C368.004 103.575 367.748 103.89 367.566 104.187C366.805 105.422 366.818 105.43 365.779 104.75C364.95 105.375 364.172 105.962 363.257 106.651C363.355 107.145 362.54 107.663 361.329 107.275C359.941 106.827 358.639 107.089 357.297 107.489C356.403 107.753 355.63 108.036 354.962 108.78C354.749 109.016 353.712 108.592 353.097 108.358C352.556 108.153 352.134 107.438 351.519 108.339C351.379 108.543 350.659 108.441 350.236 108.348C348.677 107.995 347.12 107.622 345.58 107.194C343.307 106.558 341.261 105.544 339.741 103.628C339.472 103.291 338.871 103.222 338.429 103.016C338.296 102.953 338.154 102.87 338.073 102.755C337.545 102.022 337.08 101.234 336.493 100.552C336.229 100.245 335.536 100.239 335.38 99.925C335.057 99.279 334.796 98.513 334.819 97.808C334.846 96.954 334.844 96.224 334.108 95.67C333.981 95.574 333.817 95.452 333.789 95.317C333.693 94.866 333.652 94.402 333.591 93.944C334.001 93.903 334.41 93.861 334.488 93.853C334.326 93.277 334.132 92.596 333.944 91.912C333.766 91.26 333.591 90.606 333.418 89.953C333.259 89.352 333.119 88.747 332.934 88.155C332.847 87.874 332.69 87.608 332.532 87.358C332.458 87.239 332.2 87.163 332.204 87.077C332.285 85.377 331.318 83.947 331.006 82.36C330.685 80.734 330.499 79.111 329.776 77.556C329.304 76.539 329.314 75.301 329.071 74.167C328.726 72.559 328.168 70.973 328.033 69.35C327.905 67.787 327.779 66.3291 326.951 64.9301C326.467 64.1141 326.342 63.083 326.08 62.142C325.992 61.818 325.934 61.474 325.941 61.14C325.973 59.755 325.039 58.703 324.646 57.463C324.373 56.599 323.836 55.934 324.523 55.031C324.669 54.841 324.514 54.102 324.324 54.021C322.589 53.273 322.991 51.6179 322.751 50.2989C322.556 49.2449 322.082 48.365 321.721 47.42C321.238 46.155 320.371 44.958 320.137 43.776C319.535 40.747 318.675 37.855 317.556 34.989C316.98 33.513 316.57 32.0399 315.296 30.976C315.099 30.813 314.975 30.329 315.066 30.088C315.441 29.113 314.846 28.5 314.354 27.834C313.623 26.849 312.939 25.871 313.22 24.509C313.295 24.143 312.96 23.708 312.905 23.295C312.518 20.428 313.387 19.2579 316.242 18.4919C317.309 18.2079 318.369 18.1131 319.453 18.0081C320.385 17.9161 320.96 18.381 321.626 18.829C322.021 19.095 322.488 19.258 323.021 19.514C324.375 21.279 325.825 23.174 327.23 25.005C328.197 23.925 329.083 22.848 330.067 21.868C330.681 21.255 331.117 20.686 330.8 19.777C330.474 18.846 331.311 18.5489 331.832 18.2939C332.638 17.8989 333.117 17.0821 333.705 16.7111C335.38 15.6511 335.548 13.163 337.815 12.731C338.391 12.62 338.941 11.829 339.302 11.231C339.949 10.152 341.018 10.5051 341.915 10.2581C343.396 9.85005 344.902 9.51002 346.163 8.52002C346.842 7.98902 347.633 7.59696 348.368 7.13196C348.824 6.84296 349.271 6.53805 349.621 6.15405C350.383 5.88105 351.136 5.57297 351.912 5.34997C352.681 5.12797 353.467 4.898 354.257 4.849C355.03 4.802 355.496 4.63495 355.266 3.55395C356.692 4.56995 357.68 4.181 358.996 3.406C360.152 2.722 361.547 1.97403 363.171 2.16003C364.155 2.27303 365.198 1.86206 366.213 1.68506C366.523 1.63106 366.919 1.42805 367.126 1.55005C367.855 1.97605 368.467 1.95396 369.157 1.45996C369.634 1.11796 370.141 1.16402 370.776 1.34802C371.422 1.53402 372.227 1.19803 372.955 1.06103C373.788 0.900033 374.733 1.483 375.485 0.677C375.522 0.638 375.875 0.868021 376.061 0.999021C376.675 1.43702 377.264 1.84702 378.1 1.49902C378.33 1.40302 378.683 1.61797 378.984 1.67297C379.274 1.72397 379.619 1.87197 379.854 1.77197C381.458 1.09497 383.687 1.46002 384.941 2.54602C385.228 2.79502 385.795 2.74698 386.238 2.77698C386.446 2.79298 386.736 2.54805 386.865 2.62805C388.125 3.39505 389.886 3.28497 390.719 4.81897C390.807 4.97997 391.085 5.04996 391.285 5.13696C392.295 5.58196 393.345 5.94996 394.301 6.49096C394.662 6.69396 394.789 7.29795 395.052 7.69995C395.182 7.89395 395.357 8.14901 395.549 8.18701C395.692 8.21201 395.895 7.93602 395.979 7.86902C396.694 8.41702 397.521 8.88296 398.109 9.55896C398.638 10.163 398.889 11.006 399.293 11.727C399.807 12.646 400.251 13.667 401.709 13.603C401.355 15.249 402.618 16.014 403.428 17.047C403.804 17.526 404.125 18.063 404.373 18.62C404.879 19.748 405.318 20.9081 405.788 22.0551C405.801 22.0911 405.851 22.1301 405.844 22.1591C405.469 23.6341 406.918 24.387 407.192 25.582C407.346 26.261 407.179 27.008 407.23 27.72C407.262 28.153 407.43 28.573 407.619 28.989C407.739 29.7 407.877 30.41 407.972 31.127C408.157 32.51 408.866 33.827 408.331 35.311C408.148 35.819 408.363 36.4689 408.412 37.3149C408.425 37.3049 408.203 37.513 407.888 37.811C408.235 37.946 408.474 38.0401 408.53 38.0601C408.65 38.6041 408.619 39.134 408.864 39.441C409.526 40.271 409.716 40.8529 408.76 41.6949C408.418 41.9969 408.483 43.2119 408.81 43.7259C409.572 44.931 409.706 45.653 408.87 46.475C408.978 47.422 409.084 48.343 409.194 49.304C408.82 49.394 408.529 49.463 408.234 49.533C408.211 50.45 408.189 51.312 408.166 52.176C408.103 52.19 408.039 52.2049 407.977 52.2209C407.849 51.9739 407.721 51.724 407.63 51.546C406.827 53.397 405.491 55.226 405.35 57.144C405.196 59.232 404.246 61.1241 404.287 63.2061C403.372 63.2491 402.465 64.679 402.664 65.241C402.147 67.481 400.286 68.915 400.955 71.182C400.469 71.266 400.112 71.328 399.386 71.453C400.051 71.734 400.374 71.872 400.699 72.009C400.692 72.073 400.686 72.138 400.678 72.201C400.356 72.1561 400.034 72.11 399.582 72.045C399.666 72.56 399.736 72.976 399.863 73.735C399.417 73.27 399.211 73.052 398.925 72.756C398.453 73.955 398.009 75.083 397.533 76.291C397.154 76.016 396.973 75.886 396.696 75.684C396.914 77.362 395.332 77.713 394.671 78.877C395.441 79.954 394.395 80.597 393.816 81.399C393.295 82.119 392.209 82.5261 392.591 83.7371C392.333 83.7211 392.146 83.7099 391.923 83.6949C391.924 84.3539 391.926 85.001 391.927 85.647C391.795 85.693 391.663 85.74 391.532 85.786C391.398 85.443 391.264 85.099 391.199 84.932C390.795 85.269 390.387 85.608 389.887 86.026C390.347 86.942 389.828 87.5511 388.96 88.0861C388.682 88.2581 388.582 88.717 388.41 89.028C387.672 88.34 387.503 88.425 386.89 89.8521C386.659 90.3901 386.412 90.921 386.097 91.626C385.75 91.296 385.524 91.081 385.086 90.661C384.967 91.202 384.929 91.638 384.77 92.026C384.604 92.436 384.404 92.914 384.07 93.15C383.802 93.341 383.309 93.2131 382.955 93.2271C382.687 93.4031 382.361 93.597 382.058 93.823C381.124 94.516 380.136 95.157 379.308 95.962C379.054 96.21 379.249 96.9181 378.999 97.201C378.311 97.7511 377.452 98.188 376.987 98.886C376.565 99.521 376.304 99.577 375.674 99.347C375.412 99.25 375.02 99.513 374.688 99.611C373.69 99.586 372.727 100.425 372.905 101.011C373.415 101.006 373.886 101 374.357 100.993ZM387.95 46.811C388.412 46.04 388.464 44.0769 388.915 42.5909C389.367 41.1019 388.488 39.86 388.788 38.434C389.071 37.088 388.621 35.586 388.927 34.253C389.296 32.643 389.198 31.241 388.422 29.78C388.154 29.926 387.96 30.03 387.806 30.113C387.668 29.089 387.83 28.0489 386.958 27.1639C386.273 26.4719 385.577 25.559 387.06 24.559C386.42 24.229 385.795 24.095 385.507 23.708C385.209 23.306 385.42 22.436 385.088 22.162C383.827 21.128 383.21 19.0579 380.986 19.4709C380.794 19.5049 380.471 19.343 380.353 19.172C379.479 17.92 377.852 18.4339 376.789 17.3979C376.719 17.8789 376.682 18.1391 376.643 18.4041C374.423 17.5141 374.423 17.5139 373.543 18.2209C373.033 17.7869 372.525 17.356 371.925 16.848C371.836 17.168 371.781 17.362 371.727 17.556C370.522 17.01 367.14 17.406 366.039 18.158C365.7 18.391 365.131 18.695 364.874 18.563C363.636 17.928 363.012 18.759 362.442 19.326C361.993 19.315 361.682 19.331 361.375 19.296C360.488 19.194 359.721 19.885 359.067 19.922C357.796 19.994 356.795 20.248 355.78 21.007C354.952 21.626 353.932 21.989 352.991 22.452C352.84 22.528 352.655 22.5569 352.484 22.5649C351.963 22.5849 351.368 22.427 350.938 22.628C350.025 23.0541 348.79 23.134 348.529 24.467C348.511 24.559 348.106 24.624 347.882 24.619C346.984 24.598 346.521 24.976 346.327 25.892C346.111 26.916 345.256 27.187 344.583 26.686C344.131 27.161 343.469 28.082 343.294 27.998C342.15 27.446 342.133 28.254 341.909 28.922C341.852 29.095 341.655 29.347 341.518 29.348C340.249 29.366 340.225 30.559 339.693 31.256C339.496 31.515 339.531 31.9381 339.361 32.2321C338.786 33.2201 338.137 34.169 337.587 35.17C337.472 35.383 337.611 35.776 337.714 36.058C338.116 37.153 338.406 38.24 337.791 39.361C337.719 39.495 337.675 39.715 337.736 39.838C338.284 40.93 337.881 42.0119 337.685 43.0749C337.339 44.9449 337.66 46.59 338.981 48.027C339.254 48.327 339.368 48.858 339.387 49.29C339.436 50.447 339.27 51.627 339.426 52.767C339.576 53.859 340.014 54.913 340.351 55.975C340.401 56.13 340.637 56.218 340.717 56.374C340.908 56.737 341.102 57.11 341.211 57.503C341.293 57.797 341.244 58.125 341.254 58.526C341.575 58.454 341.813 58.403 342.133 58.332C342.221 59.306 342.302 60.204 342.382 61.104C342.552 61.037 342.701 60.974 342.865 60.91C342.809 61.314 342.618 61.779 342.75 61.905C343.566 62.69 343.408 63.688 343.457 64.64C343.489 65.273 343.293 65.98 343.515 66.525C343.912 67.498 344.594 68.351 345.069 69.299C345.273 69.7039 345.278 70.215 345.343 70.682C345.381 70.953 345.239 71.3499 345.38 71.4919C346.241 72.3599 346.102 73.3691 346.178 74.4821C346.285 76.0561 346.776 77.592 346.895 79.228C347.065 81.578 347.52 83.895 347.457 86.288C347.42 87.677 348.486 88.934 350.231 88.778C350.732 88.734 351.303 88.575 351.724 88.749C353.252 89.387 354.194 88.483 355.196 87.624C355.379 87.468 355.646 87.345 355.883 87.328C357.334 87.23 358.57 86.603 359.736 85.811C361.47 84.631 363.185 83.424 364.947 82.205C365.078 81.839 365.11 81.046 365.5 80.778C366.626 80.004 367.182 78.143 369.293 79.028C369.007 78.487 368.755 78.096 368.792 78.067C369.259 77.693 369.746 77.33 370.272 77.047C370.85 76.738 371.609 76.655 372.053 76.229C372.854 75.459 373.511 74.527 374.163 73.616C374.367 73.331 374.335 72.59 374.461 72.577C375.267 72.5 375.149 71.907 375.32 71.3979C375.752 70.1129 376.45 69.643 377.038 69.799C378.631 68.936 378.014 66.759 379.808 66.153C379.888 65.069 381.526 64.656 381.037 63.312C381.016 63.252 381.182 63.063 381.294 63.022C382.697 62.514 382.176 61.7041 381.575 60.7841C382.138 60.1951 382.719 59.584 383.393 58.876C383.446 58.771 383.566 58.476 383.734 58.208C384.037 57.729 384.374 57.27 384.688 56.798C384.915 56.458 385.06 55.902 385.36 55.801C386.23 55.51 386.224 55.024 386.153 54.235C386.073 53.348 386.13 52.354 386.462 51.546C387.106 49.975 387.983 48.5 388.796 46.923C388.413 46.871 388.229 46.847 387.95 46.811Z" fill="#FEFEE5"/>
</svg>
