<svg width="440" height="21" viewBox="0 0 440 21" fill="none" xmlns="http://www.w3.org/2000/svg">
<path d="M19.1141 20.2749C18.5501 20.9019 17.7981 20.944 17.1291 20.254C16.3981 19.502 15.3331 18.3951 14.5601 17.6631C14.2051 17.3291 14.1641 16.9332 14.3931 16.5992C14.4561 16.5152 14.5181 16.4309 14.6021 16.3689H12.9521L13.0981 16.4939C13.7451 17.0799 13.8081 17.7691 13.0771 18.4161C11.7611 19.5651 9.98513 20.3591 8.52313 20.7771C8.08413 20.9021 7.64614 20.7769 7.49914 20.3999C7.35314 20.0459 7.43613 19.648 7.81213 19.42C9.06513 18.647 10.2562 17.6862 11.2172 16.6412C11.3212 16.5372 11.4261 16.4532 11.5511 16.3702H10.6111C9.79614 16.3702 9.35815 15.911 9.35815 15.097V7.93095L9.31616 7.97417C8.69016 8.43317 7.89615 8.36995 7.45715 7.57695C6.97715 6.69895 6.35013 5.78113 5.66113 4.86113C5.41013 5.36313 5.13913 5.88403 4.82513 6.40703C5.55613 6.97003 6.28712 7.76515 6.76812 8.43315C7.24812 9.12215 7.08112 9.66506 6.51812 10.0621C5.93312 10.4591 5.22316 10.3751 4.84716 9.60307C4.55516 8.99807 4.22116 8.34894 3.90716 7.76494C3.15516 8.74594 2.29913 9.66503 1.33813 10.355C0.837129 10.71 0.41915 10.605 0.14715 10.251C-0.0818496 9.93802 -0.0408457 9.60409 0.251154 9.24809C1.75515 7.43109 2.96712 4.75705 3.65612 2.25005C3.94812 1.22705 4.72114 1.0601 5.59814 1.3311C6.45414 1.5821 6.72615 2.24999 6.37115 3.18999L6.32916 3.29399C7.58216 4.17099 8.83515 5.27806 9.46215 6.09306C9.62915 5.65506 10.0471 5.4041 10.6321 5.4041H12.4492C12.5532 4.8201 12.6372 4.23395 12.6782 3.64995H9.31713C8.79513 3.64995 8.5241 3.35701 8.5241 2.81401C8.5241 2.27101 8.79513 1.97807 9.31713 1.97807H18.4871C18.9881 1.97807 19.2811 2.27101 19.2811 2.81401C19.2811 3.35701 18.9891 3.64995 18.4871 3.64995H15.3331C15.0411 4.27595 14.6861 4.8821 14.2681 5.4041H17.2141C18.0491 5.4041 18.4882 5.86402 18.4882 6.69902V15.097C18.4882 15.911 18.0501 16.3702 17.2141 16.3702H15.5851C16.7541 16.8722 18.1121 17.686 18.9061 18.334C19.6361 18.918 19.6151 19.7119 19.1141 20.2749ZM7.41613 19.294C6.74813 19.963 6.03814 19.879 5.36914 19.148C4.42914 18.082 3.25916 16.912 2.02716 15.826C1.67216 15.513 1.65116 15.1161 1.88116 14.7811C2.11116 14.3851 2.48711 14.3221 2.90411 14.4891C3.51011 14.7611 4.17816 15.095 4.84716 15.492C5.53616 14.406 6.10012 13.257 6.41412 12.379C6.47712 12.213 6.39313 12.108 6.22613 12.108H1.90216C1.38016 12.108 1.10815 11.774 1.10815 11.253C1.10815 10.731 1.37916 10.439 1.90216 10.439H7.81414C8.90014 10.439 9.38113 11.2739 8.98413 12.2549C8.42013 13.5929 7.48013 15.1801 6.24713 16.3921C6.64413 16.6841 7.04112 16.9761 7.37512 17.2691C8.14812 17.9571 8.06413 18.646 7.41613 19.294ZM12.0742 8.51616H15.7722V7.28398C15.7722 7.13798 15.6682 7.03203 15.4592 7.03203H12.3261C12.1801 7.03203 12.0751 7.13698 12.0751 7.28398V8.51616H12.0742ZM12.0742 11.564H15.7722V10.1021H12.0742V11.564ZM12.0742 14.4891C12.0742 14.6351 12.1781 14.74 12.3251 14.74H15.5211C15.6671 14.74 15.7722 14.6361 15.7722 14.4891V13.1521H12.0742V14.4891Z" fill="#79C6B7"/>
<path d="M52.5391 12.3588C52.2681 13.2358 51.5781 13.465 50.6591 13.173C50.0331 12.964 49.3221 12.6299 48.6331 12.2119V14.718C48.6331 15.554 48.1731 16.0129 47.3591 16.0129H44.5601C45.5631 16.2009 46.6281 16.4738 47.6732 16.8278C48.0901 16.3678 48.4662 15.8879 48.8422 15.3039C49.2182 14.7179 49.8031 14.5519 50.4711 15.0109C51.1601 15.5129 51.0561 16.2008 50.4711 16.6608C50.0751 16.9538 49.6981 17.204 49.3221 17.413C49.9491 17.642 50.5341 17.914 51.1191 18.186C51.9751 18.582 52.2051 19.2499 51.7661 20.0019C51.3271 20.7329 50.6381 20.8998 49.8651 20.3788C48.0271 19.1248 46.0631 18.0178 43.7441 17.0778C43.3681 16.9318 43.2642 16.6599 43.3682 16.3469C43.4102 16.2009 43.4932 16.0759 43.5972 16.0119H40.5272V17.746C41.5502 17.662 42.5741 17.5581 43.5561 17.4121C43.9941 17.3491 44.2661 17.496 44.3701 17.871C44.4741 18.268 44.3281 18.519 43.9531 18.666C41.9271 19.48 39.2742 20.0859 36.6832 20.3569C35.7222 20.4409 35.2211 20.1269 35.1371 19.2709C35.0541 18.4769 35.4291 17.976 36.3691 17.976C36.8281 17.976 37.3091 17.955 37.7891 17.933V12.3139C36.8281 12.8999 35.8261 13.3801 34.8441 13.7141C34.3641 13.8601 34.0501 13.7141 33.9041 13.3181C33.7581 12.9211 33.9042 12.6069 34.3422 12.3769C36.0762 11.4169 37.6841 10.1638 38.7501 8.80585H35.1572C34.6772 8.80585 34.4051 8.53489 34.4051 8.07489C34.4051 7.61589 34.6762 7.34491 35.1572 7.34491H41.8001V6.75898H37.1832C36.7242 6.75898 36.4731 6.50899 36.4731 6.04999C36.4731 5.63199 36.7232 5.36103 37.1832 5.36103H41.8001V4.77484H36.2852C35.8052 4.77484 35.5331 4.50386 35.5331 4.04486C35.5331 3.58586 35.8042 3.31391 36.2852 3.31391H39.9202C39.5232 2.91791 39.0851 2.51997 38.6671 2.12397C38.3541 1.83097 38.3331 1.51902 38.5211 1.20502C38.7091 0.87002 38.9811 0.850016 39.3781 0.976016C40.0881 1.20502 40.9031 1.58097 41.6551 2.08197C42.1771 2.43697 42.3651 2.85391 42.1561 3.31391H44.5792C44.8922 2.75091 45.1642 2.208 45.4982 1.539C45.8532 0.808004 46.4591 0.620043 47.1691 0.954043C47.8791 1.30904 48.0251 1.97695 47.4821 2.58295C47.2521 2.85395 46.9812 3.08491 46.7302 3.31391H50.3021C50.7821 3.31391 51.0541 3.58586 51.0541 4.04486C51.0541 4.50386 50.7831 4.77484 50.3021 4.77484H44.7451V5.36103H49.3201C49.7801 5.36103 50.0511 5.61099 50.0511 6.04999C50.0511 6.50899 49.7801 6.75898 49.3201 6.75898H44.7451V7.34491H51.5341C52.0141 7.34491 52.2861 7.61589 52.2861 8.07489C52.2861 8.53489 52.0151 8.80585 51.5341 8.80585H46.7921C48.0241 9.59985 49.6331 10.227 51.5551 10.707C52.5601 10.938 52.7901 11.5638 52.5391 12.3588ZM42.7421 10.666C42.4501 10.312 42.1161 9.914 41.8441 9.56C41.6981 9.393 41.6351 9.22602 41.6351 9.08002C41.1961 9.60202 40.6741 10.1449 40.0681 10.6669H42.7421V10.666ZM45.9381 12.2958C45.9381 12.1498 45.8341 12.0449 45.6871 12.0449H40.7781C40.6321 12.0449 40.5281 12.1498 40.5281 12.2958V12.6931H45.9381V12.2958ZM45.9381 13.904H40.5281V14.593H45.6871C45.8331 14.593 45.9381 14.489 45.9381 14.343V13.904ZM46.6071 10.666C45.9391 10.061 45.3751 9.43405 44.9781 8.80805H43.2441C43.5991 9.01705 43.9541 9.24601 44.2671 9.49701C44.7271 9.85101 44.8311 10.269 44.6011 10.666H46.6071Z" fill="#79C6B7"/>
<path d="M72.9711 6.99005V19.691C72.9711 20.505 72.4702 20.9441 71.5512 20.9441C70.6322 20.9441 70.1312 20.506 70.1312 19.691V10.834C69.5882 11.419 69.0241 11.9199 68.4601 12.3589C68.0421 12.6509 67.7501 12.63 67.4581 12.316C67.1661 12.003 67.1661 11.67 67.4581 11.293C69.4001 8.91203 70.8212 5.79908 71.8032 2.27008C72.0742 1.24708 72.8262 0.913136 73.8082 1.20514C74.7902 1.49714 75.0821 2.18603 74.7061 3.27203C74.2661 4.50403 73.6811 5.77905 72.9711 6.99005ZM83.2072 20.7151C79.7182 19.8371 77.8171 15.9311 77.0441 10.0821L74.3701 10.5831C73.8061 10.7091 73.4302 10.3741 73.3472 9.81109C73.2842 9.22609 73.5141 8.78816 74.0571 8.70416C74.9971 8.53716 75.9162 8.36994 76.8351 8.18194V8.16095C76.6891 6.65695 76.5852 4.61006 76.5642 2.72906C76.5432 1.72706 77.0861 1.33014 77.9841 1.30914C78.9031 1.30914 79.4042 1.64305 79.4462 2.68805C79.4882 4.37905 79.5502 6.19698 79.6762 7.61798C81.2422 7.30498 82.8302 6.97005 84.4802 6.61505C85.0232 6.51105 85.4201 6.82402 85.5241 7.38702C85.6281 7.97302 85.3572 8.40995 84.7932 8.53595C83.1012 8.86995 81.4932 9.20515 79.8842 9.51715C80.4692 13.6951 81.8482 16.8711 83.3732 17.4761C83.9162 17.6851 84.2291 17.5181 84.2291 14.5931C84.2291 14.0081 84.5422 13.7791 84.9601 13.7791C85.4191 13.7791 85.7122 13.9671 85.8162 14.5311C86.8212 19.6911 85.6302 21.3201 83.2072 20.7151ZM80.3242 2.93805C80.0532 2.58305 80.0532 2.2281 80.3032 1.9151C80.5742 1.5811 80.9291 1.5601 81.3261 1.7691C82.4121 2.3121 83.4152 2.98098 84.3342 3.79498C85.1072 4.46398 85.1692 5.23609 84.5012 5.88409C83.8542 6.51109 82.9972 6.46909 82.4962 5.73809C81.7862 4.67209 81.0552 3.77305 80.3242 2.93805Z" fill="#79C6B7"/>
<path d="M101.78 12.8181C101.362 13.0271 101.049 12.9019 100.861 12.5669C100.673 12.2329 100.757 11.899 101.111 11.627C102.74 10.395 103.639 9.18396 104.056 7.51196H101.863C101.383 7.51196 101.111 7.24101 101.111 6.76001C101.111 6.26001 101.382 5.98804 101.863 5.98804H104.328C104.37 5.57104 104.412 5.1321 104.412 4.6731H102.407C101.927 4.6731 101.634 4.4019 101.634 3.9209C101.634 3.4399 101.926 3.14795 102.407 3.14795H104.433V2.43799C104.433 1.58199 104.934 1.16406 105.833 1.16406C106.731 1.16406 107.211 1.58199 107.211 2.43799V3.14795H108.987C109.467 3.14795 109.739 3.4409 109.739 3.9209C109.739 4.4009 109.468 4.6731 108.987 4.6731H107.19C107.169 5.1321 107.127 5.57104 107.065 5.98804H109.237C109.717 5.98804 109.989 6.26001 109.989 6.76001C109.989 7.24001 109.718 7.51196 109.237 7.51196H106.709C106.688 7.59596 106.667 7.67992 106.626 7.76392C107.524 7.99292 108.402 8.32711 109.237 8.80811C110.031 9.20511 110.177 9.852 109.696 10.521C109.195 11.19 108.568 11.231 107.942 10.647C107.399 10.061 106.772 9.56009 106.083 9.03809C105.206 10.6661 103.806 11.8991 101.78 12.8181ZM116.528 12.8401V19.4199C116.528 20.3809 116.006 20.7981 115.045 20.7981C114.084 20.7981 113.562 20.3809 113.562 19.4199V19.2939H106.773V19.4199C106.773 20.3809 106.251 20.7981 105.29 20.7981C104.329 20.7981 103.807 20.3809 103.807 19.4199V12.8401C103.807 12.0251 104.266 11.5649 105.081 11.5649H115.254C116.068 11.5639 116.528 12.0241 116.528 12.8401ZM106.773 14.531H113.562V13.3831C113.562 13.2371 113.458 13.1321 113.311 13.1321H107.023C106.877 13.1321 106.773 13.2361 106.773 13.3831V14.531ZM113.562 17.686V16.0979H106.773V17.686H113.562ZM119.222 11.439C118.742 12.212 118.053 12.3369 117.259 11.7939C116.152 11.0629 115.128 9.93491 114.543 8.53491C113.75 9.78791 112.559 10.749 110.992 11.354C110.574 11.522 110.24 11.417 110.073 11.062C109.906 10.728 109.99 10.4151 110.344 10.1431C111.389 9.32907 112.057 8.53501 112.454 7.51001H110.95C110.47 7.51001 110.177 7.23906 110.177 6.75806C110.177 6.25806 110.469 5.98608 110.95 5.98608H112.83C112.872 5.59008 112.914 5.1509 112.934 4.6709H111.242C110.762 4.6709 110.469 4.39995 110.469 3.91895C110.469 3.43795 110.761 3.146 111.242 3.146H112.934V2.43604C112.934 1.58004 113.435 1.16211 114.334 1.16211C115.232 1.16211 115.712 1.58004 115.712 2.43604V3.146H117.738C118.218 3.146 118.49 3.43895 118.49 3.91895C118.49 4.39895 118.219 4.6709 117.738 4.6709H115.691C115.67 5.1299 115.608 5.56908 115.524 5.98608H118.156C118.636 5.98608 118.908 6.25806 118.908 6.75806C118.908 7.23806 118.637 7.51001 118.156 7.51001H115.566C116.276 8.40801 117.3 9.11911 118.553 9.64111C119.411 9.99811 119.661 10.729 119.222 11.439Z" fill="#79C6B7"/>
<path d="M137.941 16.5161C137.44 17.9571 136.521 19.4831 135.644 20.2971C135.289 20.6101 134.976 20.6731 134.662 20.4431C134.349 20.2131 134.307 19.8999 134.516 19.5029C134.996 18.5839 135.477 17.1629 135.832 15.8679C136.04 15.0739 136.542 14.845 137.273 15.012C137.983 15.179 138.213 15.8061 137.941 16.5161ZM134.975 13.3831V3.45996C134.975 2.62496 135.434 2.16406 136.249 2.16406H139.926C140.74 2.16406 141.2 2.62496 141.2 3.45996V13.3831C141.2 14.1971 140.741 14.656 139.926 14.656H136.249C135.435 14.656 134.975 14.1971 134.975 13.3831ZM137.398 5.82007H138.797V3.96094C138.797 3.81494 138.693 3.71094 138.547 3.71094H137.649C137.503 3.71094 137.398 3.81494 137.398 3.96094V5.82007ZM137.398 9.33008H138.797V7.32397H137.398V9.33008ZM137.398 12.8589C137.398 13.0049 137.502 13.1111 137.649 13.1111H138.547C138.693 13.1111 138.797 13.0059 138.797 12.8589V10.854H137.398V12.8589ZM141.471 18.521C141.722 19.231 141.575 19.7939 140.824 20.0659C140.093 20.3169 139.508 20.025 139.362 19.252C139.132 18.145 138.777 16.7669 138.526 15.8679C138.422 15.4499 138.526 15.199 138.86 15.053C139.173 14.907 139.486 14.9489 139.8 15.3669C140.364 16.0979 141.095 17.498 141.471 18.521ZM153.044 15.9099C153.044 16.4109 152.773 16.6819 152.313 16.6819H151.875V18.604C151.875 20.63 150.016 21.2979 147.342 20.2539C146.924 20.0869 146.778 19.7939 146.862 19.4189C146.945 19.0419 147.154 18.855 147.614 18.896C149.055 19.042 149.369 18.959 149.369 18.187V16.6819H144.502V19.6479C144.502 20.3589 144.043 20.7771 143.249 20.7771C142.434 20.7771 142.038 20.3589 142.038 19.6479V16.6819H141.599C141.098 16.6819 140.826 16.3899 140.826 15.8879C140.826 15.3869 141.097 15.136 141.599 15.136H142.038V11.501C142.038 10.687 142.497 10.228 143.312 10.228H145.568V9.43311H142.246C141.766 9.43311 141.494 9.16191 141.494 8.68091C141.494 8.19991 141.765 7.92896 142.246 7.92896H143.708V7.052H142.685C142.205 7.052 141.954 6.78102 141.954 6.32202C141.954 5.86202 142.205 5.59106 142.685 5.59106H143.708V4.73511H142.413C141.933 4.73511 141.661 4.46391 141.661 3.98291C141.661 3.50191 141.932 3.23096 142.413 3.23096H143.708V2.479C143.708 1.748 144.126 1.37207 144.94 1.37207C145.734 1.37207 146.172 1.748 146.172 2.479V3.25098H147.697V2.45703C147.697 1.74703 148.156 1.37109 148.95 1.37109C149.723 1.37109 150.162 1.74703 150.162 2.45703V3.22998H151.478C151.958 3.22998 152.23 3.50093 152.23 3.98193C152.23 4.46293 151.959 4.73389 151.478 4.73389H150.162V5.59009H151.206C151.686 5.59009 151.937 5.86104 151.937 6.32104C151.937 6.78005 151.687 7.05103 151.206 7.05103H150.162V7.92798H151.77C152.271 7.92798 152.522 8.19893 152.522 8.67993C152.522 9.16093 152.271 9.43188 151.77 9.43188H148.281V10.2271H150.579C151.414 10.2271 151.874 10.686 151.874 11.5V15.135H152.312C152.773 15.137 153.044 15.4079 153.044 15.9099ZM145.817 11.6899H144.752C144.606 11.6899 144.502 11.7939 144.502 11.9409V12.6931H145.817V11.6899ZM145.817 14.135H144.501V15.137H145.817V14.135ZM146.171 5.59106H147.717V4.73511H146.171V5.59106ZM146.171 7.92993H147.717V7.05298H146.171V7.92993ZM149.368 11.9409C149.368 11.7949 149.264 11.6899 149.117 11.6899H148.031V12.6931H149.368V11.9409ZM149.368 14.135H148.031V15.137H149.368V14.135Z" fill="#79C6B7"/>
<path d="M185.821 20.0459C185.466 20.9019 184.651 21.0271 183.774 20.5681C182.249 19.7321 180.306 18.834 178.593 18.144C178.154 17.956 177.966 17.6011 178.092 17.2261C178.134 17.0801 178.196 16.9741 178.28 16.9121H175.711C175.774 16.9961 175.857 17.0801 175.92 17.1831C176.379 17.9781 176.066 18.687 175.168 19.064C173.204 19.941 170.865 20.4431 168.692 20.6721C168.212 20.7351 167.982 20.5879 167.878 20.1709C167.774 19.7939 167.961 19.502 168.442 19.356C170.426 18.771 172.39 17.8731 173.852 16.9331C173.873 16.9331 173.873 16.9121 173.894 16.9121H171.408C170.594 16.9121 170.134 16.4529 170.134 15.6169V9.16211C170.134 8.34811 170.594 7.88892 171.408 7.88892H182.584C183.398 7.88892 183.858 8.34811 183.858 9.16211V15.6169C183.858 16.4529 183.398 16.9121 182.584 16.9121H179.889C181.497 17.1631 183.336 17.581 184.861 18.166C185.821 18.5 186.156 19.2109 185.821 20.0459ZM168.817 5.79907V3.18896C168.817 2.35296 169.276 1.89307 170.091 1.89307H183.878C184.714 1.89307 185.173 2.35296 185.173 3.18896V5.79907C185.173 6.61407 184.714 7.07397 183.878 7.07397H170.091C169.277 7.07397 168.817 6.61407 168.817 5.79907ZM171.575 5.34009C171.575 5.48609 171.679 5.59106 171.826 5.59106H173.434V3.41797H171.826C171.68 3.41797 171.575 3.52195 171.575 3.66895V5.34009ZM173.037 10.374H180.954V9.68604C180.954 9.54004 180.85 9.43408 180.704 9.43408H173.288C173.142 9.43408 173.038 9.53904 173.038 9.68604V10.374H173.037ZM173.037 12.8181H180.954V11.8359H173.037V12.8181ZM173.288 15.3669H180.704C180.85 15.3669 180.954 15.262 180.954 15.116V14.301H173.037V15.116C173.037 15.262 173.142 15.3669 173.288 15.3669ZM176.025 5.59106H177.947V3.41797H176.025V5.59106ZM180.516 5.59106H182.166C182.312 5.59106 182.417 5.48709 182.417 5.34009V3.66895C182.417 3.52295 182.313 3.41797 182.166 3.41797H180.516V5.59106Z" fill="#79C6B7"/>
<path d="M223.676 15.1989C223.739 16.4939 223.613 18.0819 223.321 19.2519C223.112 20.1289 222.444 20.4838 221.65 20.1498C220.815 19.8368 220.669 19.231 221.128 18.416C221.671 17.477 222.089 16.2859 222.339 15.0329C222.422 14.5939 222.694 14.3849 223.049 14.4269C223.447 14.4689 223.635 14.6979 223.676 15.1989ZM222.632 11.3769C223.426 10.4579 224.115 9.43384 224.742 8.34784C223.969 8.59883 223.196 8.80802 222.465 8.93402C221.65 9.08002 221.149 8.76584 221.066 7.95184C221.003 7.17884 221.358 6.74092 222.235 6.76092C222.799 5.48792 223.238 3.92096 223.614 2.37396C223.843 1.41296 224.428 1.07901 225.306 1.33001C226.162 1.58101 226.434 2.24891 226.037 3.14691C225.473 4.40091 224.826 5.6739 224.011 6.7409C224.533 6.7199 225.076 6.69792 225.619 6.65692C225.869 6.13492 226.099 5.612 226.329 5.091C226.684 4.255 227.353 4.06803 228.084 4.40203C228.836 4.75603 229.003 5.48794 228.564 6.30194C227.582 8.09894 226.162 9.87386 224.616 11.2739C225.264 11.2109 225.932 11.1279 226.621 11.0229C226.538 10.7939 226.475 10.5639 226.392 10.3549C226.246 9.93692 226.329 9.68696 226.663 9.49896C226.976 9.33196 227.248 9.43594 227.498 9.74994C228.125 10.5849 228.668 11.483 228.96 12.34C229.189 13.008 229.023 13.488 228.417 13.697C227.769 13.927 227.31 13.697 227.164 12.987C227.122 12.758 227.06 12.549 226.997 12.34C225.514 13.008 223.843 13.5509 222.464 13.7599C221.566 13.9059 221.023 13.594 220.918 12.737C220.835 11.902 221.231 11.4008 222.171 11.4008C222.318 11.3978 222.486 11.3979 222.632 11.3769ZM226.455 18.2709C226.58 19.1059 226.246 19.5659 225.432 19.6489C224.638 19.7119 224.179 19.3359 224.241 18.4799C224.304 17.3729 224.324 16.1199 224.262 14.9499C224.241 14.5319 224.408 14.3019 224.763 14.2389C225.118 14.1759 225.368 14.3439 225.515 14.7189C225.953 15.7849 226.309 17.1629 226.455 18.2709ZM229.003 16.683C229.316 17.372 229.128 17.9359 228.502 18.2289C227.792 18.5419 227.249 18.25 227.04 17.456C226.79 16.454 226.455 15.5149 226.1 14.6369C225.954 14.2399 226.017 13.9479 226.35 13.7809C226.684 13.5929 226.956 13.6969 227.248 13.9899C227.959 14.7189 228.565 15.722 229.003 16.683ZM239.51 8.99603C239.009 9.70503 238.278 9.89303 237.505 9.26702C237.338 9.12103 237.15 8.97382 236.983 8.80682C237.025 8.93282 237.046 9.05804 237.046 9.20404C237.046 9.72504 236.754 10.018 236.252 10.018H230.967C230.466 10.018 230.173 9.72504 230.173 9.20404C230.173 9.03604 230.194 8.91082 230.256 8.78582C229.734 9.20382 229.191 9.57901 228.648 9.87201C228.272 10.06 227.938 10.018 227.708 9.68402C227.499 9.37002 227.52 9.07785 227.854 8.76385C229.671 7.09285 231.134 4.50201 231.907 2.35101C232.283 1.30701 233.056 1.05582 233.87 1.32782C234.706 1.61982 235.082 2.22593 234.685 3.16693C235.813 4.77393 237.4 6.00695 238.988 6.98895C239.886 7.55495 240.012 8.26503 239.51 8.99603ZM238.132 13.174V19.4609C238.132 20.2749 237.631 20.715 236.712 20.715C235.793 20.715 235.292 20.2759 235.292 19.4609V19.0019H232.117V19.5029C232.117 20.3169 231.616 20.735 230.717 20.735C229.819 20.735 229.339 20.3169 229.339 19.5029V13.174C229.339 12.36 229.798 11.8998 230.613 11.8998H236.859C237.651 11.8988 238.132 12.359 238.132 13.174ZM236.607 8.47284C235.542 7.42883 234.56 6.09182 233.912 4.62982C233.056 6.02882 231.928 7.38682 230.674 8.45282C230.757 8.43182 230.862 8.40985 230.966 8.40985H236.251C236.377 8.40985 236.503 8.43184 236.607 8.47284ZM235.291 17.393V13.758C235.291 13.612 235.187 13.508 235.04 13.508H232.366C232.22 13.508 232.116 13.612 232.116 13.758V17.393H235.291Z" fill="#79C6B7"/>
<path d="M259.254 6.48816V19.6481C259.254 20.4001 258.753 20.8182 257.875 20.8182C256.997 20.8182 256.497 20.4001 256.497 19.6481V10.8121C256.121 11.2511 255.745 11.6481 255.348 11.9821C254.993 12.3161 254.638 12.337 254.366 12.045C254.053 11.753 254.074 11.4191 254.303 11.0431C255.765 9.01709 256.977 5.86213 257.708 2.41613C257.937 1.37113 258.606 0.99522 259.567 1.20422C260.507 1.43322 260.799 2.10112 260.507 3.12512C260.193 4.29512 259.755 5.42416 259.254 6.48816ZM270.283 20.192C268.299 20.275 266.523 20.275 264.622 20.192C261.552 20.066 260.946 19.4612 260.946 17.0802V10.5831C260.842 10.6251 260.737 10.6461 260.633 10.6871C260.048 10.8751 259.651 10.6032 259.526 10.0602C259.422 9.53918 259.568 9.099 260.131 8.953L260.946 8.703V4.48303C260.946 3.71103 261.447 3.29309 262.304 3.29309C263.161 3.29309 263.641 3.71103 263.641 4.48303V7.86706L265.145 7.36609V2.37317C265.145 1.62117 265.625 1.20422 266.482 1.20422C267.317 1.20422 267.798 1.62117 267.798 2.37317V6.44714C268.216 6.30114 268.654 6.15418 269.093 5.98718C269.489 5.34018 270.116 5.02623 270.931 5.23523C271.746 5.44423 272.184 6.05009 272.038 7.07409C271.641 9.89309 270.91 12.8811 270.242 14.4271C270.075 14.8031 269.72 14.9071 269.365 14.8031C269.01 14.7191 268.843 14.4482 268.926 14.0092C269.156 12.0042 269.344 10.02 269.448 8.09802C269.448 7.91002 269.344 7.82703 269.177 7.88903C268.718 8.03503 268.258 8.20202 267.798 8.34802V15.0751C267.798 15.8271 267.318 16.2452 266.482 16.2452C265.626 16.2452 265.145 15.8271 265.145 15.0751V9.24719L263.641 9.74914V16.2452C263.641 17.4152 263.912 17.6242 265.019 17.6862C266.711 17.7702 268.236 17.7902 270.033 17.6652C271.035 17.6022 271.244 17.2901 271.244 14.4901C271.244 14.0941 271.494 13.8641 271.891 13.8641C272.267 13.8641 272.539 14.0521 272.622 14.4901C273.458 18.9601 272.936 20.046 270.283 20.192Z" fill="#79C6B7"/>
<path d="M293.242 2.87512C293.054 4.02312 292.72 5.17317 292.302 6.27917V19.629C292.302 20.422 291.842 20.8182 290.944 20.8182C290.025 20.8182 289.565 20.422 289.565 19.629V11.4191C289.315 11.7531 289.064 12.066 288.813 12.359C288.479 12.734 288.103 12.713 287.831 12.484C287.518 12.213 287.518 11.8791 287.727 11.4811C288.96 9.09908 289.941 5.84116 290.464 2.26916C290.589 1.45516 291.111 0.974241 292.051 1.09924C292.971 1.20424 293.43 1.68412 293.242 2.87512ZM299.175 3.50207V9.56018C299.175 10.3952 298.715 10.8551 297.88 10.8551H296.084V19.649C296.084 20.401 295.583 20.7982 294.747 20.7982C293.911 20.7982 293.431 20.401 293.431 19.649V3.50305C293.431 2.66705 293.89 2.22912 294.726 2.22912H297.88C298.715 2.22812 299.175 2.66607 299.175 3.50207ZM296.898 4.00305C296.898 3.85705 296.794 3.75207 296.648 3.75207H296.147C296.001 3.75207 295.897 3.85705 295.897 4.00305V5.79919H296.899V4.00305H296.898ZM296.898 7.28308H295.896V9.35022H296.648C296.794 9.35022 296.898 9.24624 296.898 9.09924V7.28308ZM305.671 3.50207V18.3131C305.671 20.7781 303.436 21.362 300.177 20.129C299.759 19.963 299.655 19.6291 299.739 19.2321C299.802 18.8351 300.073 18.6881 300.532 18.7311C302.642 18.9601 303.018 18.7942 303.018 17.7272V10.8551H301.18C300.365 10.8551 299.906 10.3952 299.906 9.56018V3.50207C299.906 2.66607 300.365 2.22815 301.18 2.22815H304.397C305.212 2.22815 305.671 2.66607 305.671 3.50207ZM303.165 4.00305C303.165 3.85705 303.061 3.75207 302.914 3.75207H302.392C302.246 3.75207 302.142 3.85705 302.142 4.00305V5.79919H303.165V4.00305ZM303.165 7.28308H302.142V9.09924C302.142 9.24524 302.246 9.35022 302.392 9.35022H303.165V7.28308Z" fill="#79C6B7"/>
<path d="M329.09 10.7499C328.213 14.2179 325.831 17.6019 322.343 19.3559C321.905 19.5849 321.591 19.5019 321.34 19.1269C321.131 18.7719 321.215 18.396 321.591 18.104C324.035 16.161 325.497 13.5079 326.04 10.9389C326.082 10.7719 325.977 10.6669 325.811 10.6669H322.552C322.03 10.6669 321.737 10.375 321.737 9.85298C321.737 9.35198 322.03 9.06001 322.552 9.06001H327.795C328.756 9.05901 329.341 9.78895 329.09 10.7499ZM339.661 18.416C339.034 19.336 338.073 19.3359 337.112 18.5839C335.253 17.1429 333.686 14.9698 332.6 12.2128V17.832C332.6 20.673 330.093 21.4869 326.312 19.6479C325.916 19.4599 325.79 19.1269 325.895 18.7509C325.999 18.3749 326.27 18.2499 326.75 18.3129C329.174 18.6259 329.508 18.396 329.508 17.352V7.13691C329.508 6.99091 329.404 6.88594 329.258 6.88594H325.163C324.599 6.88594 324.285 6.57301 324.285 6.00801C324.285 5.46501 324.619 5.15303 325.163 5.15303H331.325C332.16 5.15303 332.599 5.61198 332.599 6.42598V7.88887C332.849 8.66087 333.12 9.37099 333.455 10.061C334.249 9.28898 335.021 8.34793 335.815 7.17793C336.379 6.32293 337.172 6.15492 338.008 6.82392C338.822 7.51192 338.676 8.39005 337.799 9.10005C336.504 10.166 335.188 10.8549 334.164 11.2929C335.334 13.1109 336.942 14.5729 339.094 15.9099C340.162 16.5779 340.308 17.477 339.661 18.416ZM327.002 1.66401C327.106 1.28701 327.399 1.16205 327.817 1.20405C329.446 1.37105 331.43 1.80899 333.039 2.39399C334.02 2.76999 334.354 3.41688 333.937 4.25288C333.499 5.10888 332.788 5.27585 331.911 4.79585C330.679 4.00185 329.195 3.24998 327.462 2.60298C327.044 2.43698 326.897 2.03901 327.002 1.66401Z" fill="#79C6B7"/>
<path d="M371.978 20.1919C369.451 20.3589 367.048 20.3589 364.708 20.2339C361.408 20.0879 359.633 19.0641 358.734 17.4761C358.629 17.3091 358.525 17.3091 358.441 17.4971C358.065 18.3741 357.605 19.3349 356.937 20.1909C356.352 21.0259 355.454 20.9429 354.848 20.2739C354.242 19.6279 354.304 18.9171 354.973 18.3521C355.788 17.6221 356.519 16.9319 356.937 16.3889V12.0859C356.937 11.9399 356.833 11.834 356.686 11.834H355.496C354.974 11.834 354.682 11.542 354.682 11.041C354.682 10.519 354.974 10.2471 355.496 10.2471H358.483C359.297 10.2471 359.757 10.685 359.757 11.521V16.033C360.07 16.66 360.592 17.0781 361.407 17.3701C361.156 17.2031 360.989 16.9529 360.947 16.6179C360.905 15.9289 361.114 15.512 361.908 15.428C362.221 15.407 362.534 15.365 362.848 15.324V14.2371C362.262 14.4461 361.636 14.614 361.009 14.739C360.529 14.843 360.195 14.697 360.09 14.28C359.986 13.862 360.131 13.5481 360.611 13.3601C361.865 12.9011 362.91 12.337 363.703 11.647H362.722C361.887 11.647 361.448 11.1881 361.448 10.3521V8.8689C361.448 8.0549 361.887 7.59497 362.722 7.59497H370.201C371.015 7.59497 371.475 8.0549 371.475 8.8689V10.3521C371.475 11.1881 371.015 11.647 370.201 11.647H367.109C366.649 12.106 366.106 12.5659 365.501 12.9629V14.968C365.981 14.885 366.42 14.78 366.858 14.697C367.276 14.614 367.569 14.78 367.672 15.135C367.818 15.531 367.693 15.846 367.318 16.033C365.751 16.827 364.226 17.2451 362.43 17.5371C362.325 17.5581 362.2 17.5581 362.096 17.5581C362.805 17.7041 363.662 17.7871 364.727 17.7871C367.004 17.7871 369.469 17.7241 371.872 17.4951C372.917 17.4111 373.418 17.7241 373.438 18.6841C373.462 19.6911 373.022 20.1499 371.978 20.1919ZM355.225 6.71899C354.932 6.38499 354.954 6.07206 355.162 5.73706C355.371 5.42406 355.746 5.36208 356.143 5.52808C357.021 5.88308 358.044 6.44798 358.859 7.05298C359.632 7.59598 359.695 8.32688 359.109 8.95288C358.525 9.62188 357.814 9.62189 357.187 8.88989C356.562 8.13889 355.81 7.36599 355.225 6.71899ZM356.186 2.79102C355.873 2.45702 355.831 2.14506 356.04 1.81006C356.249 1.49706 356.604 1.39308 357.022 1.55908C357.899 1.89308 358.944 2.45698 359.779 3.08398C360.51 3.60498 360.551 4.27412 360.008 4.92212C359.445 5.54912 358.755 5.54888 358.149 4.90088C357.544 4.21188 356.834 3.43902 356.186 2.79102ZM365.022 5.2561V4.48389H361.993C361.492 4.48389 361.221 4.21291 361.221 3.71191C361.221 3.23191 361.492 2.95996 361.993 2.95996H365.022V2.33301C365.022 1.53901 365.544 1.12109 366.463 1.12109C367.402 1.12109 367.904 1.53901 367.904 2.33301V2.95996H370.974C371.476 2.95996 371.747 3.23091 371.747 3.71191C371.747 4.21291 371.476 4.48389 370.974 4.48389H367.904V5.2561H372.312C372.792 5.2561 373.084 5.52705 373.084 6.02905C373.084 6.50905 372.792 6.78101 372.312 6.78101H360.843C360.363 6.78101 360.091 6.51005 360.091 6.02905C360.091 5.52705 360.362 5.2561 360.843 5.2561H365.022ZM364.228 9.93604C364.228 10.082 364.332 10.186 364.479 10.186H368.448C368.594 10.186 368.699 10.082 368.699 9.93604V9.30908C368.699 9.16308 368.595 9.05908 368.448 9.05908H364.479C364.333 9.05908 364.228 9.16308 364.228 9.30908V9.93604ZM372.334 13.3611C371.916 13.6321 371.478 13.863 371.018 14.072C371.415 14.322 371.79 14.593 372.125 14.865C372.835 15.408 372.919 16.1391 372.376 16.7241C371.79 17.3511 371.101 17.3711 370.475 16.7451C369.452 15.7411 368.031 14.5521 366.714 13.5911C366.36 13.3391 366.318 12.9639 366.464 12.6509C366.61 12.3379 366.986 12.1499 367.362 12.2749C368.051 12.5249 368.782 12.8391 369.471 13.1941C369.951 12.7971 370.411 12.3379 370.871 11.8149C371.309 11.3549 371.894 11.2519 372.416 11.7319C372.96 12.2539 372.981 12.9431 372.334 13.3611Z" fill="#79C6B7"/>
<path d="M405.905 17.9991C405.675 20.9021 403.001 21.613 399.137 19.691C398.74 19.482 398.594 19.1271 398.74 18.7091C398.844 18.3331 399.158 18.1881 399.638 18.2711C402.666 18.7931 403 18.6252 403.106 17.1842C403.294 14.7192 403.356 10.9811 403.377 6.78209C403.377 6.57309 403.252 6.4691 403.084 6.4691H399.972C399.22 8.1191 398.259 9.62308 397.361 10.5221C397.11 10.7731 396.839 10.8561 396.609 10.7731V19.295C396.609 20.089 396.108 20.5072 395.231 20.5072C394.353 20.5072 393.852 20.089 393.852 19.295V18.2511H391.637V19.399C391.637 20.193 391.157 20.6312 390.258 20.6312C389.359 20.6312 388.86 20.193 388.86 19.399V6.30113C388.86 5.46513 389.319 5.00621 390.155 5.00621H391.241C391.366 4.12921 391.491 3.08412 391.554 2.27012C391.617 1.39312 392.243 0.996202 393.204 1.1002C394.186 1.2042 394.52 1.9361 394.249 2.7711C394.02 3.5651 393.644 4.33821 393.247 5.00621H395.335C396.149 5.00621 396.609 5.46513 396.609 6.30113V8.9752C397.528 7.0752 398.071 4.65112 398.406 2.39512C398.552 1.39312 399.137 1.03819 400.098 1.18419C400.995 1.30919 401.413 1.85208 401.184 2.89708C401.059 3.52308 400.871 4.19199 400.641 4.83799H404.944C405.78 4.83799 406.176 5.29916 406.176 6.15416C406.218 11.5232 406.092 15.4501 405.905 17.9991ZM393.601 6.65611H391.888C391.742 6.65611 391.637 6.76011 391.637 6.90611V10.5831H393.852V6.90611C393.852 6.76011 393.747 6.65611 393.601 6.65611ZM393.852 16.6202V12.171H391.637V16.6202H393.852ZM399.868 13.8841C399.513 12.9651 398.991 11.7531 398.489 10.6661C398.301 10.2281 398.406 9.87315 398.76 9.60215C399.094 9.35115 399.449 9.39316 399.826 9.70616C400.765 10.5422 401.684 11.7742 402.185 12.6732C402.624 13.4672 402.436 14.1141 401.684 14.5321C400.933 14.9281 400.223 14.7811 399.868 13.8841Z" fill="#79C6B7"/>
<path d="M439.601 18.333C439.058 19.168 438.055 19.231 437.262 18.521C435.737 17.267 434.504 15.1991 433.899 12.8391C433.669 12.9221 433.439 12.9851 433.188 13.0681C433.543 14.0721 433.731 15.1159 433.731 16.1389C433.731 19.6069 432.541 20.7771 430.661 20.7771C429.847 20.7771 428.927 20.5259 427.862 19.8999C427.465 19.7119 427.34 19.336 427.423 18.96C427.548 18.584 427.82 18.416 428.237 18.48C428.697 18.563 429.26 18.647 429.825 18.647C430.723 18.647 430.974 18.0199 430.974 15.8269C429.073 17.4149 426.107 18.8969 422.702 19.5039C422.243 19.5869 421.908 19.4209 421.825 18.9819C421.741 18.5439 421.888 18.209 422.368 18.043C425.71 17.082 428.593 15.39 430.661 13.196C430.598 12.987 430.557 12.7781 430.494 12.5901C428.552 14.0951 425.981 15.2851 423.057 15.8081C422.555 15.8911 422.243 15.7449 422.137 15.2019C422.054 14.7639 422.221 14.4719 422.701 14.3469C425.417 13.5319 427.819 12.2989 429.699 10.4609L429.511 10.085C427.714 11.087 425.605 11.8601 423.515 12.2361C423.056 12.3191 422.701 12.1321 422.617 11.7351C422.534 11.3171 422.66 10.9619 423.16 10.8369C425.417 10.1689 427.255 9.22912 428.571 7.99512H426.148C425.626 7.99512 425.334 7.7029 425.334 7.2019C425.334 6.6999 425.626 6.42896 426.148 6.42896H435.652C436.154 6.42896 436.446 6.6999 436.446 7.2019C436.446 7.7229 436.154 7.99512 435.652 7.99512H432.351C431.913 8.43412 431.39 8.85202 430.827 9.24902C431.537 9.98002 432.122 10.7739 432.582 11.6299C433.627 10.9619 434.441 10.252 435.297 9.31201C435.82 8.74901 436.551 8.58201 437.219 9.20801C437.867 9.83401 437.762 10.6489 437.031 11.1919C436.446 11.6299 435.799 12.0061 435.151 12.3191C436.091 13.9491 437.365 15.1391 438.974 16.1001C439.956 16.7031 440.124 17.498 439.601 18.333ZM422.137 7.07397V4.96411C422.137 4.12911 422.597 3.66895 423.412 3.66895H429.281V2.45703C429.281 1.64303 429.824 1.16211 430.869 1.16211C431.892 1.16211 432.457 1.64203 432.457 2.45703V3.66895H438.348C439.184 3.66895 439.621 4.12911 439.621 4.96411V7.05298C439.621 7.80498 439.141 8.2439 438.264 8.2439C437.408 8.2439 436.907 7.84698 436.907 7.05298V5.57104C436.907 5.42505 436.803 5.31909 436.656 5.31909H425.104C424.958 5.31909 424.854 5.42405 424.854 5.57104V7.07495C424.854 7.84695 424.374 8.26489 423.475 8.26489C422.639 8.26489 422.137 7.84697 422.137 7.07397Z" fill="#79C6B7"/>
</svg>
