<?xml version="1.0" encoding="utf-8"?>
<!-- Generator: Adobe Illustrator 16.0.0, SVG Export Plug-In . SVG Version: 6.00 Build 0)  -->
<!DOCTYPE svg PUBLIC "-//W3C//DTD SVG 1.1//EN" "http://www.w3.org/Graphics/SVG/1.1/DTD/svg11.dtd">
<svg version="1.1" id="圖層_1" xmlns="http://www.w3.org/2000/svg" xmlns:xlink="http://www.w3.org/1999/xlink" x="0px" y="0px"
	 width="991.158px" height="791.86px" viewBox="0 0 991.158 791.86" enable-background="new 0 0 991.158 791.86"
	 xml:space="preserve">
<g>
	<defs>
		<path id="SVGID_5_" d="M804.998,375.526c-42.571-40.452-102.49-79.449-163.469-79.557c-46.267-0.082-93.563,30.377-137.518,41.727
			c-34.035,8.788-69.945,12.963-105.295,12.795c26.903-51.129,54.036-102.481,84.751-151.39
			c17.086-27.206,30.368-41.855,55.698-59.92c13.525-9.645,23.938-19.229,32.094-32.021
			c-73.552,25.498-110.042,102.529-166.613,150.981c-32.557,27.885-46.16,51.329-61.643,85.818c-0.094-0.023-0.189-0.047-0.283-0.07
			c9.403-28.896,6.93-64.193,8.07-92.875c1.867-46.945,7.017-96.67-4.75-142.56C335.226,66.282,313.542,26.654,279.201,0
			c8.945,50.569,17.553,101.138,24.385,151.997c4.242,31.58,14.742,62.401,12.703,93.638c-1.584,24.264-4.563,61.912-16.933,83.617
			c-0.375-0.158-0.748-0.321-1.122-0.48c-11.101-47.815-31.69-89.569-60.245-128.271c-27.819-37.704-66.115-57.534-100.448-86.408
			c-9.098,13.732,12.363,47.336,17.465,62.171c8.177,23.78,15.137,47.593,21.373,71.926c0.83,3.239,1.657,6.439,2.484,9.622
			c-7.039-5.034-13.921-10.033-20.624-14.924C105.079,204.093,54.466,182.24,0,166.104v588.822
			c58.929,24.965,120.836,41.12,186.012,35.98c64.247-5.066,128.36-26.271,187.456-50.69
			c154.229-63.73,294.914-155.294,448.729-217.933c56.46-22.992,110.446-25.775,163.554-19.599
			C921.317,468.659,862.059,429.745,804.998,375.526z"/>
	</defs>
	<clipPath id="SVGID_2_">
		<use xlink:href="#SVGID_5_"  overflow="visible"/>
	</clipPath>
	<path clip-path="url(#SVGID_2_)" fill="#79C6B7" d="M804.998,375.526c-42.571-40.452-102.49-79.449-163.469-79.557
		c-46.267-0.082-93.563,30.377-137.518,41.727c-34.035,8.788-69.945,12.963-105.295,12.795
		c26.903-51.129,54.036-102.481,84.751-151.39c17.086-27.206,30.369-41.855,55.699-59.92c13.525-9.645,23.937-19.229,32.093-32.021
		c-73.552,25.498-110.042,102.529-166.612,150.981c-32.557,27.885-46.16,51.329-61.643,85.818c-0.094-0.023-0.189-0.047-0.283-0.07
		c9.403-28.896,6.93-64.193,8.07-92.875c1.867-46.945,7.017-96.67-4.75-142.56C335.226,66.282,313.542,26.654,279.201,0
		c8.945,50.569,17.553,101.138,24.385,151.997c4.242,31.58,14.742,62.401,12.703,93.638c-1.584,24.264-4.563,61.912-16.933,83.617
		c-0.375-0.158-0.748-0.321-1.122-0.48c-11.101-47.815-31.69-89.569-60.245-128.271c-27.819-37.704-66.115-57.534-100.448-86.408
		c-9.098,13.732,12.363,47.336,17.465,62.171c8.177,23.78,15.137,47.593,21.373,71.926c0.83,3.239,1.657,6.439,2.484,9.622
		c-7.039-5.034-13.921-10.033-20.624-14.924C105.079,204.093,54.466,182.24,0,166.104v588.822
		c58.929,24.965,120.836,41.12,186.012,35.98c64.247-5.066,128.36-26.271,187.456-50.69
		c154.229-63.73,294.914-155.294,448.729-217.933c56.46-22.992,110.446-25.775,163.554-19.599
		C921.317,468.659,862.059,429.745,804.998,375.526z"/>
	<g clip-path="url(#SVGID_2_)">
		<g>
			<path fill-rule="evenodd" clip-rule="evenodd" fill="#94D0C4" d="M1918,621.391c-74.221-13.216-146.656-38.028-223.291-35.506
				c-59.719,1.978-117.094,14.395-173.736,34.469c-61.941,21.964-124.871,43.673-189.209,55.434
				c-42.348,7.753-87.936-3.121-132.105-4.137c-62.678-1.453-106.867-35.686-149.994-76.599
				c-53.111-50.373-117.649-72.915-191.733-62.115c-3.595,0.526-6.998,2.322-4.928,1.615c-4.665,11.726-5.655,21.092-10.846,26.14
				c-24.395,23.686-86.201,27.879-109.262-2.797c-21.284-28.279-45.997-54.635-63.222-85.204
				c-40.278-71.496-92.336-77.087-157.808-47.773c-31.593,14.14-59.6,36.122-90.594,51.858
				c-23.479,11.928-49.126,19.568-77.289,30.477c7.769,13.976,16.037,28.861,24.939,44.854
				c16.654-14.249,30.459-27.409,45.615-38.772c32.264-24.159,69.81-36.611,109.035-42.146
				c40.786-5.756,71.135,16.462,96.539,44.832c23.169,25.903,43.89,53.964,66.107,80.738c17.789,21.417,41.205,29.441,68.711,26.538
				c-15.799,26.137-64.682,42.238-89.449,27.607c-27.309-16.138-53.002-34.997-79.72-52.168
				c-40.76-26.154-86.31-24.903-131.572-19.876c-11.508,1.272-21.989,11.836-32.518,21.474
				c80.393,38.009,162.819,67.977,226.82,131.345c-11.581-5.499-24.042-9.657-34.579-16.7
				c-52.639-35.141-107.836-64.711-167.991-85.239c-47.657-16.244-78.504-52.112-101.103-95.367
				c-21.928-42.001-41.085-85.493-64.175-126.824c-27.208-48.683-60.053-93.623-101.648-131.525
				c-5.254-4.793-9.819-10.345-13.749-16.442c41.511,23.759,69.402,61.386,98.616,100.248
				c4.583-50.551-86.318-207.271-127.568-223.243c0.745-1.761,1.49-3.502,2.233-5.265c7.742,4.086,17.507,6.424,22.834,12.598
				c16.899,19.549,33.289,39.751,47.773,61.153c32.065,47.355,61.643,96.146,70.591,154.175c6.372,41.334,6.889,42.876,28.68,67.76
				c5.945-39.878,13.522-77.468,16.79-115.442c7.297-84.73-1.188-168.734-18.831-251.65c-3.376-15.845-13.849-30.168-21.055-45.198
				c2.977,0,5.954,0,8.921,0c24.458,44.055,29.804,93.099,34.523,141.707c5.845,60.246,13.441,120.655,2.724,181.371
				c-5.528,31.33-11.573,62.911-12.77,94.551c-0.654,17.315,7.314,35.377,13.612,52.276c1.597,4.302,11.653,5.463,17.979,8.15
				c10.754-164.217,85.12-287.175,220.702-373.701c-100.603,69.846-168.146,162.401-196.306,289.351
				c25.611-5.336,47.983-8.26,69.247-14.758c44.644-13.668,88.216-30.929,133.113-43.582
				c61.071-17.188,117.113-5.789,152.881,49.011c23.007,35.249,48.863,68.593,72.86,103.191
				c13.406,19.328,27.372,25.229,52.229,17.188c55.626-18.043,112.948-11.345,169.499-1.561
				c47.303,8.185,89.996,28.57,132.469,50.297c76.826,39.298,158.57,43.235,240.189,21.291
				c59.09-15.883,115.969-39.932,174.016-59.772c54.891-18.77,110.309-34.524,169.498-24.849c7.742,1.271,15.873,0.182,23.826,0.182
				c1.088-2.54,2.176-5.083,3.273-7.625c-13.838-7.714-26.889-19.768-41.639-22.435c-67.004-12.09-130.926,1.816-192.521,28.753
				c-4.057,1.759-8.025,3.721-12.09,5.462c-0.373,0.146-1.18-0.706-7.018-4.445c87.846-40.424,171.705-69.303,263.471-17.753
				c3.711-19.73-7.553-30.93-21.529-40.168c-37.699-24.922-78.885-45.725-112.711-75.056
				c-50.16-43.512-106.465-68.923-170.867-79.522c-9.131-1.507-17.961-4.846-26.057-10.51
				c45.143,10.164,93.125,11.055,133.621,36.394c32.547,20.364,62.197,45.324,94.443,66.233
				c30.738,19.931,63.166,37.266,97.025,53.801c-23.939-54.78-69.455-96.964-80.99-158.336
				c-11.217-59.625-12.896-118.764-6.381-179.224c-2.73,114.37,4.176,225.929,88.535,309.28
				c25.684-79.885,52.613-163.637,79.547-247.404c2.988,0.816,5.973,1.652,8.959,2.47c-2.904,9.711-5.762,19.422-8.742,29.114
				c-20.436,66.543-42.766,132.613-60.451,199.883c-7.215,27.409-4.855,57.432-5.779,86.293c-0.23,7.097,3.764,14.339,6.777,24.903
				c14.594-34.252,24.74-65.234,40.404-93.116c21.332-37.975,44.736-75.419,84.197-98.454c0,4.465,0,8.913,0,13.38
				c-34.697,18.767-55.68,50.658-74.158,83.168c-16,28.152-26.418,59.5-39.309,89.43c2.145,2.034,4.285,4.05,6.426,6.082
				c12.08-1.378,25.287-0.108,36.016-4.683c24.32-10.383,47.43-23.633,71.025-35.702c0,4.447,0,8.911,0,13.374
				c-48.031,41.696-105.025,47.812-164.518,38.919c-58.293-8.711-113.771,0.434-168.154,20.347
				c-54.227,19.858-107.156,44.145-162.553,59.718c-94.678,26.594-189.066,25.631-278.697-22.054
				c-40.775-21.691-82.48-39.969-128.295-49.19c-35.812-7.205-100.468-11.598-128.484-3.865
				c71.888-0.236,131.878,25.992,180.468,75.891c35.27,36.23,76.463,58.086,126.49,60.518c50.869,2.484,102.945,8.803,152.563,1.053
				c56.494-8.84,111.992-28.371,165.877-48.665c71.287-26.883,144.547-42.838,219.621-36.664
				c62.389,5.101,123.818,21.799,185.682,33.361C1918,612.476,1918,616.922,1918,621.391z M363.45,487.831
				c18.26-6.498,31.102-9.33,42.229-15.339c39.625-21.381,77.606-46.068,118.175-65.38c59.609-28.371,116.068-6.915,149.422,46.558
				c16.037,25.702,32.137,51.604,50.679,75.492c27.455,35.396,70.898,44.507,106.43,24.613
				c-8.885-9.894-18.687-18.985-26.355-29.625c-29.033-40.295-56.016-82.151-86.619-121.194
				c-12.624-16.101-31.012-29.224-49.28-39.043c-38.572-20.694-78.631-8.677-116.987,2.322
				c-55.924,16.008-107.764,46.575-168.344,46.269c-4.084-0.038-11.136,6.043-11.808,10.109
				C367.77,441.961,366.28,461.602,363.45,487.831z M703.08,638.124c-24.132-30.583-46.921-60.189-70.491-89.139
				c-25.495-31.332-52.748-65.074-96.175-64.73c-57.022,0.455-108.229,21.929-149.177,63.892c-9.303,9.53-9.811,19.169,0.924,26.103
				c9.831,6.316,15.13,28.371,33.446,11.89c19.394-17.462,43.371-20.384,68.121-21.691c52.921-2.774,97.873,15.775,139.43,47.412
				C650.804,628.341,673.294,647.961,703.08,638.124z"/>
			<path fill-rule="evenodd" clip-rule="evenodd" fill="#94D0C4" d="M4.279,210.986c35.15,24.433,72.868,45.906,104.906,73.895
				c61.425,53.655,112.983,115.733,139.692,194.891c1.662,4.92,3.431,9.894,4.339,14.975
				c19.104,106.442,93.162,168.173,179.327,219.687c16.454,9.84,34.578,16.863,51.813,25.431c1.524,0.763,2.133,3.376,3.168,5.12
				c-0.944,2.067-1.879,4.136-2.814,6.188c-20.365-8.622-41.621-15.628-60.935-26.175c-62.368-34.07-111.659-82.843-149.903-142.18
				c-12.243-19.004-23.179-40.93-27.045-62.858c-13.358-75.636-54.045-135.446-103.889-190.445
				c-40.55-44.742-86.855-82.823-138.658-114.063C4.279,213.962,4.279,212.473,4.279,210.986z"/>
			<path fill-rule="evenodd" clip-rule="evenodd" fill="#94D0C4" d="M4.279,295.752c94.387,46.212,144.168,128.022,178.255,222.646
				c13.986,38.808,27.653,77.852,44.426,115.461c14.539,32.618,43.201,50.644,75.664,64.674
				c27.671,11.961,55.715,25.522,79.159,44.017c19.095,15.048,31.619,38.408,47.048,58.104c-2.26,1.705-4.529,3.43-6.79,5.137
				c-15.265-17.535-28.651-37.321-46.313-51.949c-17.888-14.812-38.681-28.68-60.526-35.687
				c-80.42-25.85-112.204-89.016-132.161-162.945c-21.809-80.755-56.242-154.85-119.999-211.52
				c-17.398-15.464-39.062-26.136-58.765-39.024C4.279,301.689,4.279,298.711,4.279,295.752z"/>
			<path fill-rule="evenodd" clip-rule="evenodd" fill="#94D0C4" d="M4.279,371.59C70.948,423.412,108.24,491.95,126.075,574.103
				c21.055,97.003,72.769,170.734,172.047,202.678c2.088,0.657,4.147,1.489,6.135,2.417c0.572,0.27,0.854,1.144,2.279,3.176
				c-20.058,9.584-38.736,1.979-54.246-7.007c-45.179-26.211-78.17-64.799-104.58-109.688
				c-21.5-36.557-29.396-76.508-37.672-117.457C96.216,479.827,58.715,424.318,4.279,380.501
				C4.279,377.525,4.279,374.548,4.279,371.59z"/>
			<path fill-rule="evenodd" clip-rule="evenodd" fill="#94D0C4" d="M271.929,884.584c-23.56-17.697-47.347-35.104-70.636-53.165
				c-44.853-34.778-76.1-78.106-85.838-135.466C103.023,622.733,64.377,565.99,4.279,523.245c0-1.488,0-2.96,0-4.447
				c50.623,30.258,87.299,72.279,106.531,128.401c7.659,22.382,14.448,45.105,20.329,67.996
				c12.697,49.427,45.198,83.116,84.413,112.992c21.891,16.681,40.659,37.463,60.835,56.397
				C274.897,884.584,273.418,884.584,271.929,884.584z"/>
		</g>
	</g>
</g>
</svg>
