<?xml version="1.0" encoding="utf-8"?>
<!-- Generator: Adobe Illustrator 16.0.0, SVG Export Plug-In . SVG Version: 6.00 Build 0)  -->
<!DOCTYPE svg PUBLIC "-//W3C//DTD SVG 1.1//EN" "http://www.w3.org/Graphics/SVG/1.1/DTD/svg11.dtd">
<svg version="1.1" id="圖層_1" xmlns="http://www.w3.org/2000/svg" xmlns:xlink="http://www.w3.org/1999/xlink" x="0px" y="0px"
	 width="1920px" height="757.025px" viewBox="0 0 1920 757.025" enable-background="new 0 0 1920 757.025" xml:space="preserve">
<path fill="#94D0C4" d="M1867.281,179.178c-0.581-16.022-0.772-32.028-0.485-48.173c0.283-15.881,10.465-54.947-2.586-65.333
	c-24.056,38.528-54.751,69.583-69.776,114.583c-7.214,21.606-12.537,43.313-15.732,65.365
	c-11.669,9.217-23.336,18.484-35.026,27.742c-4.072-9.01-7.613-17.759-10.569-25.191c-11.716-29.45-11.224-62.415-16.996-94.156
	c-9.296-51.119-16.791-102.516-23.962-154.015c-24.756,36.394-33.271,81.331-30.522,125.329
	c2.99,47.873,23.475,94.16,39.928,138.796c3.82,10.365,7.438,21.817,11.445,33.397c-5.91,4.62-11.833,9.222-17.771,13.799
	c-12.079-8.618-25.823-16.228-43.323-23.521c-69.614-29.009-128.808-91.814-207.611-93.413
	c11.848,9.773,24.868,15.756,40.908,20.824c30.036,9.491,47.402,19.455,72.353,40.326c33.092,27.681,64.719,57.255,95.848,87.266
	c-100.348,73.43-207.283,134.461-336.765,145.049c-172.126,14.076-321.7-104.727-494.439-34.382
	c-153.814,62.639-294.5,154.202-448.729,217.933c-59.096,24.42-123.209,45.624-187.456,50.69
	C120.836,727.233,58.929,711.078,0,686.113v932.58c27.053-11.158,53.369-18.363,83.914-9.514
	c29.627,8.584,59.035,22.533,87.219,35.049c38.655,17.166,58.051,29.416,102.768,27.836c111.221-3.93,207.775-81.889,316.92-44.834
	c54.324,18.441,104.058,44.271,156.348,64.943c48.68,19.246,87.768-3.93,131.395-23.488c46.904-21.029,93.369-52.236,142.797-66.713
	c69.126-20.246,131.298-2.143,196.792,23.219c37.766,14.623,84.604,52.652,124.806,55.719c33.231,2.535,50.801-24.717,75.472-41.994
	c103.109-72.207,228.384-14.791,319.421,50.994c65.138,47.072,86.656-38.711,146.234-66.279
	c12.141-5.617,24.098-9.438,35.916-11.797V151.408C1901.526,159.559,1883.843,168.776,1867.281,179.178z"/>
<g>
	<defs>
		<path id="SVGID_9_" d="M1867.281,179.178c-0.58-16.022-0.771-32.028-0.484-48.173c0.283-15.881,10.465-54.947-2.586-65.333
			c-24.057,38.528-54.752,69.583-69.777,114.583c-7.213,21.606-12.537,43.313-15.732,65.365
			c-11.668,9.217-23.336,18.484-35.025,27.742c-4.072-9.01-7.613-17.759-10.57-25.191c-11.715-29.45-11.223-62.415-16.996-94.156
			c-9.295-51.119-16.791-102.516-23.961-154.015c-24.756,36.394-33.271,81.331-30.523,125.329
			c2.99,47.873,23.475,94.16,39.928,138.796c3.82,10.365,7.439,21.817,11.445,33.397c-5.91,4.62-11.832,9.222-17.771,13.799
			c-12.078-8.618-25.822-16.228-43.322-23.521c-69.615-29.009-128.809-91.814-207.611-93.413
			c11.848,9.773,24.867,15.756,40.908,20.824c30.035,9.491,47.402,19.455,72.352,40.326c33.092,27.681,64.719,57.255,95.848,87.266
			c-100.348,73.43-207.283,134.461-336.765,145.049c-172.126,14.076-321.7-104.727-494.439-34.382
			c-153.814,62.639-294.5,154.202-448.729,217.933c-59.096,24.42-123.209,45.624-187.456,50.69
			C120.836,727.233,58.929,711.078,0,686.113v932.58c27.053-11.158,53.369-18.363,83.914-9.514
			c29.627,8.584,59.035,22.533,87.219,35.049c38.655,17.166,58.051,29.416,102.768,27.836
			c111.221-3.93,207.775-81.889,316.92-44.834c54.324,18.441,104.058,44.271,156.348,64.943
			c48.68,19.246,87.768-3.93,131.395-23.488c46.904-21.029,93.369-52.236,142.797-66.713
			c69.126-20.246,131.298-2.143,196.792,23.219c37.766,14.623,84.604,52.652,124.806,55.719
			c33.231,2.535,50.801-24.717,75.473-41.994c103.109-72.207,228.383-14.791,319.42,50.994
			c65.139,47.072,86.656-38.711,146.234-66.279c12.141-5.617,24.098-9.438,35.916-11.797V151.408
			C1901.527,159.559,1883.844,168.776,1867.281,179.178z"/>
	</defs>
	<clipPath id="SVGID_2_">
		<use xlink:href="#SVGID_9_"  overflow="visible"/>
	</clipPath>
	<g clip-path="url(#SVGID_2_)">
		<g>
			<path fill-rule="evenodd" clip-rule="evenodd" fill="#79C6B7" d="M1920,235.921v-15.072
				c-44.451,25.948-70.814,68.128-94.845,110.904c-17.645,31.408-29.074,66.309-45.514,104.892
				c-3.395-11.9-7.894-20.059-7.634-28.053c1.04-32.511-1.617-66.33,6.51-97.205c19.922-75.776,45.076-150.201,68.096-225.159
				c3.357-10.918,6.576-21.856,9.848-32.796c-3.364-0.921-6.726-1.862-10.092-2.782c-30.34,94.36-60.675,188.704-89.606,278.69
				c-95.026-93.892-102.807-219.558-99.73-348.391c-7.34,68.105-5.447,134.723,7.188,201.888
				c12.994,69.133,64.266,116.65,91.232,178.358c-38.142-18.626-74.67-38.153-109.295-60.604
				c-36.324-23.554-69.724-51.67-106.387-74.609c-45.616-28.543-99.667-29.546-150.518-40.995
				c9.119,6.38,19.065,10.142,29.352,11.839c72.546,11.939,135.971,40.564,192.474,89.578
				c38.104,33.04,84.498,56.474,126.964,84.547c15.744,10.406,28.433,23.022,24.252,45.247
				c-103.37-58.068-197.833-25.537-296.788,19.998c6.576,4.212,7.485,5.172,7.905,5.008c4.578-1.962,9.049-4.172,13.618-6.152
				c69.385-30.343,141.391-46.008,216.867-32.39c16.615,3.005,31.316,16.583,46.904,25.271c-1.236,2.864-2.462,5.729-3.688,8.59
				c-8.959,0-18.118,1.227-26.839-0.205c-66.675-10.899-129.101,6.849-190.933,27.991c-65.387,22.35-129.458,49.439-196.021,67.331
				c-91.941,24.72-184.022,20.284-270.563-23.983c-47.845-24.474-95.937-47.438-149.22-56.657
				c-63.702-11.021-128.273-18.566-190.934,1.758c-28.002,9.058-43.732,2.41-58.834-19.362
				c-27.03-38.974-56.156-76.534-82.072-116.24c-40.291-61.729-103.421-74.569-172.214-55.208
				c-50.574,14.253-99.657,33.696-149.946,49.093c-23.953,7.32-49.153,10.613-78.003,16.624
				C213.258,184.66,289.342,80.4,402.666,1.723C249.939,99.19,166.17,237.697,154.055,422.681
				c-7.126-3.027-18.453-4.336-20.253-9.182c-7.095-19.036-16.07-39.382-15.333-58.887c1.348-35.641,8.156-71.215,14.384-106.507
				c12.071-68.395,3.515-136.442-3.069-204.307c-5.315-54.754-11.337-110-38.889-159.627H80.846
				c8.117,16.931,19.915,33.065,23.718,50.914c19.874,93.401,29.433,188.027,21.212,283.473
				c-3.68,42.777-12.216,85.12-18.912,130.041c-24.547-28.03-25.129-29.768-32.307-76.328C64.477,206.903,31.159,151.943-4.961,98.6
				c-16.316-24.108-34.778-46.865-53.814-68.886c-6.002-6.955-17.001-9.589-25.722-14.191c-0.838,1.986-1.677,3.947-2.517,5.931
				C-40.547,39.445,61.85,215.983,56.688,272.927C23.778,229.15-7.639,186.765-54.4,160.002c4.428,6.868,9.569,13.122,15.488,18.521
				C7.943,221.219,44.941,271.842,75.59,326.681c26.01,46.558,47.59,95.55,72.291,142.862
				c25.455,48.725,60.203,89.128,113.887,107.427c55.017,18.774,106.353,44.265,155.453,74.376
				c4.275-2.808,8.579-5.555,12.878-8.269c-60.23-40.753-128.563-67.515-195.647-99.231c11.859-10.856,23.666-22.756,36.63-24.189
				c50.985-5.662,102.295-7.072,148.21,22.39c27.933,17.953,54.875,37.54,83.199,54.796c5.252-3.152,10.482-6.352,15.651-9.641
				c-18.318-5.139-34.338-18.474-49.964-30.371c-46.813-35.638-97.449-56.533-157.062-53.408
				c-27.88,1.473-54.889,4.765-76.735,24.435c-20.631,18.565-26.602-6.278-37.676-13.394c-12.092-7.811-11.52-18.668-1.041-29.403
				c46.126-47.269,103.809-71.458,168.041-71.971c48.92-0.387,79.619,37.622,108.338,72.916
				c22.816,28.026,44.992,56.604,68.029,85.952c5.108-4.169,10.179-8.41,15.443-12.37c-8.401-4.854-16.115-11.402-23.064-19.769
				c-25.025-30.16-48.367-61.769-74.466-90.948c-28.616-31.957-62.804-56.984-108.745-50.501
				c-44.188,6.235-86.48,20.262-122.824,47.477c-17.072,12.8-32.624,27.624-51.384,43.675
				c-10.028-18.015-19.343-34.782-28.093-50.525c31.723-12.287,60.613-20.895,87.063-34.33
				c34.912-17.727,66.461-42.489,102.049-58.416c73.751-33.021,132.393-26.723,177.764,53.814
				c19.404,34.435,47.242,64.123,71.217,95.979c25.977,34.555,95.6,29.831,123.079,3.15c5.848-5.687,6.962-16.236,12.218-29.445
				c-2.333,0.797,1.502-1.227,5.551-1.819c83.451-12.165,156.152,13.228,215.979,69.97c48.579,46.087,98.358,84.648,168.961,86.285
				c49.756,1.144,101.109,13.394,148.812,4.66c72.474-13.248,143.361-37.702,213.136-62.443
				c63.806-22.613,128.436-36.601,195.706-38.828c86.326-2.841,167.921,25.109,251.527,39.996v-15.071
				c-69.687-13.025-138.884-31.835-209.162-37.58c-84.567-6.955-167.092,11.018-247.394,41.3
				c-60.698,22.86-123.215,44.861-186.853,54.819c-55.892,8.729-114.555,1.612-171.856-1.186
				c-56.353-2.74-102.756-27.359-142.484-68.171c-54.735-56.208-122.312-85.754-203.29-85.487
				c31.559-8.71,104.391-3.763,144.732,4.354c51.606,10.388,98.586,30.977,144.518,55.411
				c100.965,53.715,207.291,54.8,313.94,24.843c62.402-17.543,122.024-44.9,183.108-67.27
				c61.26-22.432,123.754-32.732,189.419-22.92c67.015,10.018,131.216,3.129,185.321-43.84v-15.065
				c-26.58,13.596-52.611,28.521-80.007,40.217c-12.085,5.152-26.962,3.723-40.57,5.274c-2.411-2.289-4.822-4.56-7.238-6.851
				c14.521-33.715,26.257-69.026,44.279-100.739C1857.279,292.985,1880.915,257.061,1920,235.921z M574.962,463.675
				c-20.888-26.908-39.023-56.086-57.089-85.038c-37.57-60.235-101.17-84.404-168.316-52.445
				c-45.699,21.754-88.484,49.563-133.119,73.647c-12.533,6.769-27,9.959-47.568,17.278c3.188-29.545,4.865-51.669,8.494-73.465
				c0.758-4.58,8.701-11.431,13.301-11.388c68.241,0.346,126.637-34.087,189.633-52.119c43.205-12.391,88.33-25.928,131.78-2.616
				c20.579,11.061,41.293,25.844,55.513,43.98c34.473,43.979,64.867,91.129,97.572,136.52c8.639,11.985,19.68,22.227,29.688,33.371
				C654.826,513.81,605.888,503.548,574.962,463.675z"/>
			<path fill-rule="evenodd" clip-rule="evenodd" fill="#79C6B7" d="M37.498,453.308c4.355,24.702,16.674,49.4,30.465,70.808
				c24.246,37.617,52.434,71.465,84.969,100.713c8.09-0.859,16.369-0.41,24.304,1.275c-65.429-49.661-116.397-111.26-132.54-201.196
				c-1.022-5.724-3.016-11.326-4.888-16.868C9.721,318.871-48.357,248.943-117.549,188.503
				c-36.09-31.527-78.577-55.717-118.172-83.239v5.03c58.354,35.189,110.514,78.086,156.191,128.486
				C-23.382,300.733,22.45,368.107,37.498,453.308z"/>
			<path fill-rule="evenodd" clip-rule="evenodd" fill="#79C6B7" d="M27.554,621.252c2.644-2.93,5.38-5.796,8.212-8.594
				c-8.297-8.886-15.318-19.092-20.646-31.047C-3.774,539.246-19.17,495.266-34.924,451.55
				c-38.398-106.588-94.475-198.744-200.797-250.8v10.039c22.193,14.519,46.598,26.54,66.195,43.959
				c71.818,63.836,110.606,147.301,135.173,238.268C-21.134,541.98-3.304,586.75,27.554,621.252z"/>
		</g>
	</g>
</g>
</svg>
