<svg width="437" height="531" viewBox="0 0 437 531" fill="none" xmlns="http://www.w3.org/2000/svg">
<path d="M224.391 530.266C211.164 521.728 219.563 479.035 221.59 465.171C227.004 428.139 239.288 397.501 256.591 364.635C285.854 309.056 315.04 252.932 348.468 199.704C365.554 172.498 378.837 157.849 404.167 139.784C417.692 130.139 428.104 120.555 436.26 107.763C362.708 133.261 326.218 210.292 269.648 258.744C232.824 290.283 220.25 316.132 201.775 358.72C218.093 327.891 214.456 285.212 215.792 251.617C217.659 204.672 222.809 154.947 211.042 109.057C200.228 66.883 178.543 27.256 144.203 0.601013C153.148 51.17 161.756 101.739 168.588 152.598C172.83 184.178 183.33 214.999 181.291 246.236C179.676 270.966 176.62 309.615 163.64 331.1C152.637 282.56 131.89 240.27 102.992 201.102C75.173 163.398 36.877 143.568 2.544 114.694C-6.554 128.426 14.907 162.03 20.009 176.865C28.186 200.645 35.146 224.458 41.382 248.791C51.915 289.901 61.931 326.227 79.301 364.499C93.925 396.72 94.322 443.498 97.055 478.723C98.127 492.54 93.736 498.805 105.167 506.022C118.451 514.41 145.184 507.718 159.828 507.649C177.626 507.565 215.672 503.744 226.323 520.772" fill="#94D0C4"/>
</svg>
