<svg width="640" height="283" viewBox="0 0 640 283" fill="none" xmlns="http://www.w3.org/2000/svg">
<path fill-rule="evenodd" clip-rule="evenodd" d="M610.705 9.14018C610.705 9.30918 610.646 9.59919 610.713 9.63219C612.255 10.3822 613.442 11.9482 615.471 11.6352C615.807 11.5832 616.599 12.2022 616.566 12.4162C616.275 14.2852 617.825 14.9972 618.719 16.1272C619.074 16.5782 619.45 17.1192 619.529 17.6602C619.744 19.1412 619.875 20.5862 621.167 21.6462C621.424 21.8562 621.383 22.5422 621.328 22.9902C621.228 23.8182 620.742 24.7102 621.655 25.0042C621.684 26.7572 621.709 28.3552 621.735 29.9522C621.739 30.1622 621.811 30.5332 621.742 30.5612C620.207 31.1852 620.92 32.8382 620.207 33.8662C619.261 35.2282 618.808 37.0512 617.631 38.1002C616.365 39.2292 615.464 41.1202 613.277 41.0742C612.815 41.0642 612.331 41.6822 611.875 42.0362C611.468 42.3502 610.967 43.0622 610.716 42.9782C609.242 42.4812 608.336 43.9412 607.052 43.8982C606.669 43.8842 606.293 43.6622 606.07 43.7942C605.341 44.1522 604.3 45.0042 603.94 44.7762C602.778 44.0472 604.684 43.9882 604.341 42.9522C603.48 43.0192 602.507 43.0862 601.537 43.1802C601.288 43.2042 601.016 43.4272 600.809 43.3682C599.351 42.9462 597.78 42.7892 596.703 41.4732C596.271 40.9462 595.63 40.5912 594.978 40.2702C594.343 38.3032 594.343 38.3032 592.412 38.1802C592.3 36.7532 592.189 35.3322 592.076 33.8872C591.373 34.0032 590.883 34.0862 590.357 34.1732C590.222 33.0872 590.213 32.1002 589.946 31.1902C589.759 30.5562 589.203 30.0342 588.834 29.4492C588.588 29.0552 588.184 28.6282 588.199 28.2312C588.228 27.4132 588.704 26.5762 588.606 25.7972C588.456 24.5992 589.125 23.8902 589.644 23.0062C589.998 22.4002 590.184 21.6032 590.172 20.8942C590.154 19.7802 590.538 19.0342 591.516 18.5312C591.784 18.3932 592.044 18.1532 592.199 17.8952C593.022 16.5232 593.782 15.1132 594.634 13.7582C594.808 13.4822 595.311 13.1942 595.596 13.2502C596.914 13.5012 597.56 12.5892 598.312 11.8372C598.555 11.5952 598.751 11.1322 599.009 11.1022C601.662 10.7822 603.843 8.47419 606.857 9.43819C607.825 9.74819 609.084 9.15419 610.209 8.97119C610.375 9.03019 610.541 9.08518 610.705 9.14018Z" fill="#79C6B7"/>
<path fill-rule="evenodd" clip-rule="evenodd" d="M80.5987 87.0072C80.9737 86.9572 81.3487 86.9062 81.7517 86.8512C81.1877 85.2962 80.5457 83.9522 78.4517 84.1462C78.6007 82.1892 78.6787 80.2272 77.0437 78.6092C77.2727 78.3352 77.5297 78.0322 77.5837 77.9662C77.0627 76.2582 76.5407 74.7392 76.1667 73.1862C76.0797 72.8242 76.3787 72.1342 76.7007 71.9572C77.6077 71.4552 77.2707 70.8822 77.1947 70.1212C77.0807 68.9832 77.2827 67.7962 77.4817 66.6532C77.5757 66.1132 77.9727 65.6262 78.2347 65.1072C79.5877 65.6452 80.2117 65.3842 81.0267 63.9482C81.2187 63.6112 81.4367 63.2692 81.7167 63.0082C82.0047 62.7402 82.3787 62.4212 82.7227 62.4112C82.9197 62.4062 83.1347 62.9722 83.4097 63.3862C84.1837 62.6502 83.8517 59.5112 86.2297 62.0072C86.5567 61.4452 86.7457 60.6902 87.1607 60.5342C87.5757 60.3792 88.2167 60.8232 88.9537 61.0702C89.3277 59.9522 89.7197 58.7732 90.1347 57.5332C90.5947 57.6862 90.9887 57.8182 91.3057 57.9242C91.6317 57.3992 91.9077 56.9532 92.1847 56.5072C92.3317 56.8292 92.4797 57.1492 92.6577 57.5382C92.7567 57.5202 93.0377 57.3772 93.1577 57.4612C94.1417 58.1582 94.8327 57.9292 95.4347 56.9232C95.5517 56.7282 96.0687 56.6982 96.3917 56.7192C97.4697 56.7882 98.5417 56.9072 99.6147 57.0292C100.449 57.1242 100.99 56.8542 101.023 55.9452C101.061 54.8922 101.689 54.4972 102.636 54.4902C103.782 54.4822 104.929 54.5622 106.073 54.5222C106.693 54.5002 107.308 54.3052 107.878 54.1982C107.814 53.5832 107.767 53.1462 107.721 52.7092C108.162 52.7642 108.637 52.9542 109.033 52.8482C110.018 52.5842 110.967 52.1842 112.123 51.7692C112.219 51.8662 112.539 52.1892 113.001 52.6552C113.407 51.9102 113.839 51.3082 114.071 50.6382C114.37 49.7712 114.851 49.5652 115.742 49.6232C116.33 49.6632 116.944 49.2532 117.554 49.0722C118.764 48.7112 119.969 48.3122 121.202 48.0632C121.467 48.0102 121.847 48.5212 122.241 48.8272C123.115 48.1392 123.828 47.3942 125.352 48.0562C126.257 48.4502 127.767 47.5102 128.98 47.0982C129.479 46.9292 129.914 46.5702 130.533 46.2082C130.545 46.0132 130.573 45.6042 130.604 45.1142C131.687 45.1632 132.784 44.9832 133.697 45.3122C134.894 45.7422 135.669 45.2292 136.532 44.6742C137.003 44.3692 137.475 44.0682 137.879 43.8082C137.892 43.3292 137.85 42.5322 137.923 42.5212C138.535 42.4322 139.319 42.2552 139.762 42.5452C140.893 43.2862 141.884 43.2642 143.047 42.6812C144.058 42.1762 145.218 41.9572 146.199 41.4102C146.973 40.9782 147.578 40.2422 148.334 39.5742C148.655 40.1102 148.859 40.4512 149.2 41.0182C149.435 40.0692 149.014 38.6142 150.585 39.4642C151.013 38.7172 151.162 37.5872 152.325 38.6952C152.449 38.8132 153.665 38.2462 153.711 37.9072C153.929 36.2882 154.701 35.0322 156.001 34.2052C156.798 33.6972 157.673 32.9552 158.818 33.4282C158.974 33.4922 159.294 33.4292 159.4 33.3052C160.11 32.4762 160.667 33.1342 160.979 33.5982C161.468 34.3262 161.991 34.3212 162.75 34.2172C163.8 34.0722 164.883 34.1702 165.942 34.0642C166.244 34.0332 166.67 33.7102 166.765 33.4262C167.097 32.4392 167.856 32.3842 168.654 32.4592C169.601 32.5482 170.412 32.5272 171.076 31.6362C171.367 31.2452 172.029 31.0442 172.558 30.9352C174.461 30.5492 174.98 28.5872 176.397 27.6622C176.975 27.2852 177.504 26.8092 178.123 26.5262C178.47 26.3682 178.955 26.5132 179.389 26.7232C180.457 25.6732 181.494 26.5402 182.517 26.9032C184.128 27.4772 185.689 28.2762 187.343 28.6012C188.165 28.7632 189.154 28.0842 190.245 27.7282C190.26 28.1002 190.279 28.5582 190.297 28.9852C190.955 28.9442 191.615 28.8602 192.271 28.8812C192.542 28.8902 192.873 29.0652 193.06 29.2702C193.893 30.1942 194.593 31.2602 195.523 32.0662C196.094 32.5622 196.992 32.6822 197.741 32.9772C198.577 33.3062 199.674 32.9572 200.172 34.1922C200.427 34.8262 201.344 35.1722 201.684 35.7982C201.925 36.2432 201.719 36.9412 201.676 37.5232C201.651 37.8682 201.382 38.3812 201.523 38.5252C202.32 39.3442 203.247 40.0362 204.056 40.8442C204.881 41.6722 205.77 42.4962 206.359 43.4832C207.035 44.6172 206.03 45.9412 204.683 46.0882C204.311 46.1292 203.778 46.6012 203.7 46.9572C203.582 47.5072 203.792 48.1302 203.868 48.7832C204.234 48.7752 204.485 48.7932 204.73 48.7612C206.341 48.5462 206.676 49.0112 206.28 50.5912C206.076 51.4052 206.434 52.4262 206.076 53.1152C205.773 53.6952 204.805 53.9282 203.924 54.4342C203.836 54.4062 203.485 54.2882 203.035 54.1382C202.159 55.3152 204.231 57.6212 201.515 57.8462C201.589 58.1712 201.591 58.3052 201.649 58.4092C201.874 58.8172 202.407 59.4462 202.303 59.5762C201.847 60.1492 201.275 60.8172 200.62 61.0032C199.671 61.2732 198.6 61.0792 197.608 61.2452C197.257 61.3032 196.985 61.8362 196.607 62.2272C196.442 62.0042 196.259 61.7522 196.074 61.5002C195.99 61.5242 195.906 61.5482 195.819 61.5712C196.029 62.2582 196.238 62.9432 196.469 63.6982C194.931 63.6772 194.309 64.5872 194.245 66.0522C194.227 66.4752 194.196 67.0282 193.937 67.2812C193.583 67.6252 192.807 68.0552 192.559 67.8992C191.291 67.0992 190.55 67.5962 189.954 68.7052C188.684 68.7932 187.45 68.8782 185.991 68.9792C186.022 69.6612 186.064 70.6392 186.122 71.9722C185.145 70.9892 184.58 71.0572 184.05 72.0152C183.953 72.1872 183.037 71.9062 182.193 71.7932C181.599 72.2252 180.747 72.8552 179.883 73.4712C179.085 74.0382 178.611 73.6862 178.342 72.8932C177.636 73.2972 176.952 73.6882 176.146 74.1482C175.901 73.7232 175.682 73.3452 175.441 72.9282C174.491 74.4482 173.203 74.8132 171.579 74.1112C171.007 73.8642 170.537 73.9632 170.468 74.7092C170.389 75.5582 169.828 75.8072 169.087 76.0122C168.225 76.2512 167.415 76.6772 166.588 77.0212C166.511 77.6792 166.854 78.7642 165.49 78.0652C165.378 78.0072 165.177 78.1232 165.018 78.1572C164.029 78.3702 163.04 78.5842 162.05 78.7982C162 78.6762 161.949 78.5542 161.9 78.4322C161.716 78.8492 161.534 79.2652 161.285 79.8282C160.629 79.3602 160.058 78.9532 159.618 78.6392C158.935 78.9802 158.211 79.3292 157.497 79.7002C156.93 79.9952 156.119 80.1762 155.861 80.6492C155.134 81.9882 154.01 82.2932 152.668 82.3392C151.689 82.3732 151.221 82.7672 151.557 83.8442C151.747 84.4562 151.576 84.9832 150.745 84.9482C149.177 84.8812 147.607 84.8232 145.985 84.7612C146.133 84.8712 146.289 85.0382 146.479 85.1212C147.609 85.6162 148.772 86.0442 149.871 86.6002C150.213 86.7742 150.322 87.3872 150.663 87.5952C151.272 87.9682 152.044 88.5192 152.627 88.4012C154.111 88.1022 155.158 88.5742 156.103 89.6102C156.267 89.7892 156.533 89.8752 156.704 89.9752C156.42 93.1602 156.376 96.2272 158.113 99.0792C158.512 98.9652 158.832 98.8722 158.834 98.8722C159.802 99.4802 160.567 99.9592 161.386 100.473C161.482 100.876 161.638 101.535 161.801 102.192C161.947 102.783 162.1 103.373 162.327 104.262C163.542 104.089 164.752 104.733 165.245 106.424C164.07 107.801 164.276 110.618 165.681 111.932C166.546 112.742 167.44 113.519 168.289 114.344C169.172 115.203 168.615 117.009 167.359 117.812C168.139 119.259 169.129 120.625 169.628 122.15C170.11 123.63 170.091 125.276 169.983 126.873C170.441 127.232 170.901 127.591 171.639 128.167C172.768 128.414 173.703 127.942 174.125 126.374C174.229 125.989 174.99 125.781 175.538 125.61C176.425 123.673 178.028 122.642 180.116 122.144C181.701 121.767 183.12 121.068 184.334 119.904C185.13 119.139 186.119 118.584 187.36 118.98C187.706 119.089 188.155 119.094 188.493 118.968C189.569 118.571 190.573 118.671 191.647 119.035C192.328 119.267 193.112 119.197 193.889 119.036C195.094 119.373 196.299 119.711 197.634 120.082C197.888 119.319 198.149 118.538 198.466 117.587C198.764 117.989 198.968 118.265 199.254 118.649C199.396 118.098 199.504 117.676 199.644 117.136C200.147 117.696 200.536 118.153 200.955 118.583C201.357 118.997 201.791 119.379 202.206 119.771C202.35 119.664 202.769 119.266 202.831 119.314C204.199 120.408 206.507 119.453 207.475 121.651C207.888 122.588 209.065 123.256 210.411 123.252C211.996 123.248 212.549 124.097 212.159 125.817C213.34 126.568 214.57 127.35 215.811 128.141C214.81 130 215.294 132.094 217.102 133.752C217.57 134.18 217.753 134.931 218.028 135.552C218.744 137.182 219.354 138.818 218.765 140.661C218.619 141.117 218.699 141.698 218.83 142.179C219.362 144.118 219.312 144.301 217.765 145.484C217.403 145.76 217.107 146.125 216.69 146.539C217.784 147.245 217.972 147.921 216.989 148.787C216.598 149.132 216.465 149.769 216.219 150.277C215.159 152.467 213.249 153.417 211.005 153.953C210.492 154.077 210.047 154.505 209.582 154.808C209.313 154.983 209.078 155.213 208.801 155.375C207.808 155.958 206.728 156.428 205.839 157.139C205.44 157.455 205.563 158.485 205.165 158.732C204.809 158.955 204.058 158.432 203.486 158.445C202.757 158.462 201.984 158.57 201.326 158.858C200.736 159.116 200.268 159.663 199.761 160.098C199.407 160.402 199.076 160.731 198.672 161.109C198.348 160.762 198.103 160.498 197.717 160.084C197.494 161.816 196.259 161.827 195.113 161.915C193.509 162.037 192.196 162.648 190.832 163.559C189.425 164.497 187.918 165.605 185.939 165.344C184.463 165.151 182.829 167.314 183.287 168.715C183.37 168.967 183.647 169.328 183.85 169.338C185.333 169.406 185.047 170.526 184.746 171.194C184.428 171.902 184.605 172.154 185.053 172.602C185.289 172.838 185.399 173.343 185.345 173.692C185.282 174.109 184.749 174.553 184.834 174.876C185.014 175.563 185.347 176.282 185.818 176.81C187.725 178.948 189.309 181.211 189.283 184.232C189.277 184.899 189.239 185.581 189.094 186.228C188.795 187.548 189.784 188.158 190.574 188.686C191.931 189.593 192.603 190.775 192.6 192.344C192.598 193.811 192.481 195.277 192.44 196.743C192.434 196.98 192.55 197.23 192.646 197.457C192.78 197.775 193.041 198.064 193.089 198.39C193.352 200.101 193.564 201.819 193.795 203.536C193.966 204.805 194.096 206.08 194.344 207.334C194.401 207.618 194.869 208.012 195.16 208.023C196.115 208.059 197.075 207.911 198.034 207.893C199.214 207.871 200.394 207.899 201.572 207.926C201.872 207.933 202.205 208.126 202.46 208.042C203.739 207.623 205.228 207.422 206.21 206.618C207.945 205.196 209.926 204.557 211.963 203.893C212.435 203.738 212.913 203.304 213.176 202.87C213.906 201.661 215.809 200.6 217.189 200.718C217.892 200.779 218.603 200.756 219.433 200.773C219.189 199.796 219.337 199.224 220.345 199.25C220.556 199.254 220.763 198.954 220.994 198.916C221.816 198.777 222.733 198.418 223.456 198.644C224.875 199.085 226.731 198.573 227.533 197.339C227.872 196.817 228.47 196.417 229.028 196.092C229.616 195.749 230.313 195.322 230.931 195.369C231.697 195.426 232.428 195.931 233.106 196.408C234.268 196.461 235.445 194.835 236.985 196.852C236.649 195.634 236.021 194.625 237.533 194.466C237.701 194.448 237.95 194.397 238.037 194.485C239.246 195.69 240.977 195.253 242.416 195.877C244.065 196.594 246.011 196.629 247.823 196.985C248.059 197.031 248.344 197.168 248.477 197.354C249.172 198.327 250.698 198.17 251.211 199.512C251.388 199.976 252.407 200.077 252.982 200.436C254.008 201.078 253.989 201.107 253.753 202.028C254.148 202.337 254.467 202.591 254.79 202.841C255.297 203.229 255.765 203.69 256.322 203.978C257.178 204.422 257.459 204.907 256.634 205.696C257.763 206.345 257.977 207.242 257.984 208.458C257.99 209.875 257.716 211.448 258.82 212.696C258.945 212.838 259.057 213.182 258.98 213.28C258.227 214.255 258.805 215.198 259.009 216.143C259.586 218.802 259.467 221.224 256.707 222.812C256.853 223.059 256.946 223.296 257.104 223.475C257.895 224.369 257.704 226.314 256.857 227.145C256.443 227.55 256.245 228.186 255.985 228.735C255.772 229.188 255.712 229.752 255.406 230.119C254.738 230.927 253.957 231.641 253.151 232.466C252.378 231.82 251.757 232.044 250.979 232.85C249.896 233.974 248.494 234.633 246.841 234.666C245.629 234.69 244.668 235.605 244.535 236.774C244.365 238.286 243.395 237.006 242.765 237.34C242.647 238.649 241.715 238.754 240.586 238.604C239.97 238.523 239.253 238.374 239.07 239.315C239.055 239.393 238.809 239.518 238.752 239.485C237.57 238.775 236.916 239.671 236.147 240.29C235.967 240.434 235.636 240.485 235.401 240.443C234.093 240.198 233.183 240.62 232.054 241.442C230.91 242.273 229.132 242.23 227.564 242.585C227.471 242.861 227.412 243.464 227.086 243.839C226.918 244.034 226.274 243.864 225.87 243.764C225.81 243.749 225.88 243.208 225.889 242.943C225.351 243.004 224.767 243.069 224.171 243.136C223.89 244.411 223.194 245.175 221.739 245.252C221.089 245.286 220.481 245.818 219.818 245.951C219.048 246.106 218.237 246.124 217.445 246.106C215.855 246.069 214.397 246.247 213.147 247.437C212.269 248.277 211.839 249.817 210.153 249.609C210.037 249.594 209.894 250.106 209.703 250.318C209.292 250.771 208.899 251.332 208.375 251.551C208.146 251.648 207.613 251.013 207.103 250.622C206.779 250.818 206.301 251.226 205.75 251.402C205.267 251.557 204.568 251.659 204.194 251.422C203.109 250.729 202.096 250.345 200.821 250.922C200.339 251.141 199.717 251.05 199.155 251.101C198.545 253.18 197.254 254.503 195.288 255.589C193.788 256.416 193.147 256.112 192.434 255.013C190.913 255.206 189.467 255.388 188.206 255.546C187.84 256.114 187.561 256.551 187.281 256.986C186.997 256.588 186.713 256.19 186.371 255.71C185.797 256.12 185.134 256.476 184.618 256.983C182.713 258.858 181.327 259.04 178.856 258.078C178.142 257.801 177.036 258.094 176.28 258.469C175.378 258.918 174.662 259.736 173.81 260.44C172.756 259.445 172.004 259.383 171.814 261.078C171.808 261.137 170.867 261.093 170.324 261.097C169.172 261.863 167.85 262.74 166.53 263.617C166.428 263.521 166.328 263.424 166.226 263.327C166.431 262.915 166.635 262.503 166.838 262.092C165.353 262.927 163.155 262.127 162.258 264.176C162.163 264.389 161.669 264.566 161.386 264.535C160.012 264.382 159.232 265.271 158.236 265.992C156.04 267.578 154.119 269.756 151.02 269.704C150.074 269.689 149.103 270.052 148.177 270.347C147.899 270.436 147.589 270.86 147.543 271.167C147.279 272.975 146.484 273.832 144.63 274.244C143.652 274.461 142.695 274.774 141.714 274.988C141.132 275.116 140.525 275.136 140.003 275.196C140.095 275.58 140.196 276.004 140.297 276.429C139.811 276.472 139.322 276.563 138.837 276.55C137.712 276.524 136.505 276.043 135.848 277.592C135.707 277.924 134.813 277.936 134.207 278.113C134.61 278.906 134.356 279.393 133.275 279.784C132.21 280.169 131.299 280.985 130.163 281.71C130.102 281.509 130.012 281.24 129.94 280.967C129.844 280.6 129.763 280.231 129.675 279.863C129.321 279.948 128.952 279.995 128.616 280.128C128.176 280.298 127.715 280.475 127.35 280.76C127.08 280.973 126.893 281.343 126.772 281.678C126.642 282.035 126.634 282.439 126.573 282.821C126.216 282.616 125.858 282.41 125.594 282.258C124.686 282.435 123.799 282.651 122.898 282.755C122.651 282.783 122.366 282.476 122.098 282.32C122.3 282.085 122.475 281.819 122.709 281.623C123.08 281.314 123.795 281.082 123.824 280.768C123.906 279.887 123.149 279.888 122.466 279.803C121.838 279.724 121.232 279.456 120.621 279.255C120.422 279.189 120.157 278.935 120.063 278.993C118.815 279.766 118.116 278.518 117.091 278.243C117.471 276.734 116.349 276.593 115.344 276.311C114.685 276.128 114.044 275.885 113.421 275.676C113.382 275.976 113.303 276.576 113.225 277.178C113.116 277.183 113.006 277.19 112.898 277.196C112.382 276.481 111.85 275.778 111.354 275.05C110.719 274.113 110.004 273.897 109.116 274.713C108.592 275.193 108.124 274.986 108.108 274.388C108.075 273.235 108.226 272.075 108.271 271.358C107.323 270.657 106.58 270.068 105.792 269.545C105.466 269.327 104.987 269.049 104.688 269.145C103.864 269.405 103.543 269.121 103.435 268.358C103.404 268.145 103.415 267.853 103.284 267.736C102.124 266.712 101.784 265.604 102.728 264.23C102.799 264.126 102.399 263.512 102.107 263.385C101.357 263.056 100.771 262.803 101.251 261.787C101.391 261.486 101.133 260.983 101.019 260.582C100.764 259.683 100.367 258.808 100.239 257.893C99.9777 256.042 100.179 255.867 102.009 255.78C102.111 254.372 102.092 252.939 102.38 251.571C102.483 251.08 103.331 250.747 103.985 250.223C103.784 249.076 104.789 248.585 105.677 247.773C107.081 246.49 108.583 245.084 109.058 243.106C109.454 241.458 110.858 241.372 112.025 240.874C112.221 240.791 112.552 240.849 112.643 240.718C113.698 239.183 114.231 240.276 114.603 240.693C116.138 240.08 117.671 239.464 119.209 238.857C119.406 238.779 119.638 238.671 119.827 238.71C122.251 239.197 124.038 237.943 125.712 236.503C126.96 235.429 128.078 234.208 129.294 233.096C130.038 232.413 130.832 231.778 131.652 231.19C131.944 230.982 132.417 230.834 132.751 230.906C134.735 231.34 135.935 230.252 137.031 228.86C137.313 228.502 137.727 228.248 138.165 227.876C138.488 228.292 138.734 228.612 139.054 229.026C139.492 227.93 140.182 227.867 141.199 228.241C142.254 228.628 143.129 228.058 143.918 227.284C144.451 226.76 145.126 226.252 145.826 226.061C146.864 225.777 147.527 224.463 148.906 225.028C149.219 225.155 149.787 224.518 150.278 224.394C150.84 224.256 151.493 224.139 152.023 224.296C153.012 224.589 153.341 224.424 153.368 223.318C153.397 222.126 154.403 221.297 155.606 221.392C155.908 221.416 156.231 221.172 156.544 221.052C156.096 220.432 155.756 219.978 155.432 219.514C155.142 219.1 154.867 218.675 154.586 218.255C154.663 218.161 154.743 218.069 154.82 217.974C154.415 217.985 154.01 217.995 153.419 218.009C153.505 217.62 153.635 217.314 153.622 217.014C153.6 216.488 153.486 215.966 153.412 215.443C153.343 214.952 153.274 214.461 153.215 214.036C153.095 212.378 153.032 210.803 152.843 209.244C152.776 208.687 152.486 208.108 152.15 207.644C151.824 207.195 151.313 206.88 150.729 206.373C150.397 206.576 149.869 206.899 148.985 207.44C149.216 206.61 149.35 206.126 149.475 205.679C147.833 203.814 149.205 202.027 149.566 200.15C148.808 199.741 148.224 199.233 149.22 198.406C149.356 198.294 149.484 197.989 149.426 197.855C148.657 196.081 147.863 194.315 147.044 192.562C146.949 192.357 146.698 192.124 146.487 192.089C144.979 191.836 145.75 191.176 146.127 190.485C146.327 190.116 146.496 189.515 146.332 189.203C145.904 188.391 145.224 187.716 144.758 186.918C144.355 186.23 144.039 185.467 143.845 184.698C143.802 184.525 144.427 184.183 144.794 183.878C144.536 182.458 143.275 182.142 140.089 182.842C139.878 182.521 139.655 182.18 139.36 181.732C138.811 182.414 138.656 183.702 137.388 182.892C137.318 182.848 136.91 183.316 136.67 183.557C136.012 184.221 135.361 184.89 134.672 185.592C134.247 185.2 133.977 184.95 133.581 184.586C133.322 185.832 132.679 186.148 131.523 185.983C131.039 185.914 130.443 186.613 129.871 186.98C129.483 186.538 129.096 186.095 128.552 185.472C128.351 186.207 128.232 186.646 128.098 187.137C127.873 187.156 127.596 187.267 127.464 187.174C126.031 186.15 124.486 186.882 123 186.885C122.673 186.886 122.347 187.269 122.078 187.592C120.739 187.771 119.277 189.017 117.995 187.319C116.93 188.756 115.663 189.353 114.045 189.104C113.845 189.073 113.56 189.111 113.421 189.234C112.338 190.195 111.174 190.139 109.931 189.616C109.293 189.346 108.876 189.52 108.678 190.266C108.623 190.477 107.949 190.766 107.873 190.695C106.595 189.461 105.14 188.568 103.373 188.293C102.619 188.176 102.09 187.083 101.161 187.791C100.747 187.234 100.332 186.678 100.015 186.251C99.4117 186.049 98.6117 186.02 98.3867 185.643C98.1357 185.224 98.4457 184.491 98.4347 183.895C98.4267 183.375 98.4747 182.746 98.2117 182.357C97.5977 181.45 97.5537 180.712 98.5397 179.988C98.2637 179.778 98.0847 179.557 97.8617 179.489C96.7197 179.144 96.3447 178.544 96.2857 177.229C96.2167 175.722 95.4357 174.248 94.8927 172.537C95.2587 172.127 95.8727 171.44 96.5697 170.661C96.1927 170.515 95.9177 170.428 95.6587 170.306C94.6517 169.827 94.4177 168.677 94.9187 167.759C95.2487 167.154 95.2477 166.366 95.3877 165.659C95.5037 165.077 95.6087 164.494 95.7197 163.912C95.8877 163.887 96.0567 163.862 96.2247 163.838C95.8077 163.071 95.1117 162.329 95.0397 161.531C94.9337 160.354 94.9767 158.977 95.5097 157.983C95.9537 157.155 96.4257 156.544 96.2297 155.543C96.1577 155.178 96.5317 154.712 96.7427 154.313C97.0827 153.665 97.7697 153.025 97.7507 152.398C97.7047 150.874 98.6747 150.583 99.7487 150.428C101.325 150.201 102.808 149.561 104.151 148.164C104.218 149.129 104.267 149.831 104.309 150.412C105.253 150.023 106.238 149.618 107.213 149.216C106.625 147.477 107.864 146.318 109.842 146.846C111.462 147.277 112.637 146.871 113.74 145.679C114.089 145.301 114.871 145.012 115.35 145.126C116.563 145.416 117.719 145.957 118.894 146.396C118.911 146.255 118.927 146.112 118.943 145.97C119.54 145.926 120.151 145.782 120.733 145.859C121.928 146.018 122.995 145.747 123.851 144.956C125.081 143.82 126.389 143.061 128.09 142.666C129.406 142.362 130.532 141.24 130.934 139.705C130.568 139.215 130.193 138.714 129.966 138.411C129.377 138.215 128.958 138.103 128.575 137.918C128.512 137.888 128.544 137.394 128.635 137.355C128.954 137.218 129.319 137.187 129.992 137.047C129.63 135.175 129.248 133.204 128.867 131.233C128.76 131.254 128.652 131.275 128.544 131.295C128.851 130.971 129.158 130.646 129.465 130.321C129.416 130.239 129.368 130.159 129.319 130.078C129.102 130.336 128.883 130.593 128.665 130.851C128.547 130.72 128.431 130.589 128.312 130.459C128.221 129.97 128.13 129.482 128.092 129.273C128.701 128.839 129.201 128.589 129.539 128.201C129.704 128.01 129.662 127.51 129.525 127.248C129.461 127.123 128.955 127.248 128.651 127.219C128.348 127.191 128.048 127.111 127.746 127.053C127.897 126.693 128.006 126.304 128.214 125.979C128.414 125.666 128.715 125.419 128.973 125.142C128.869 125.025 128.767 124.91 128.664 124.792C128.369 124.922 128.071 125.158 127.78 125.146C127.523 125.136 127.116 124.898 127.052 124.682C126.858 124.011 126.805 123.3 126.678 122.61C126.55 121.902 126.578 121.311 127.448 121.092C127.652 121.04 127.8 120.775 127.999 120.581C126.628 119.988 126.518 119.317 127.337 117.737C126.717 118.243 126.097 118.749 125.477 119.256C125.325 119.233 125.171 119.21 125.019 119.187C126.204 117.845 124.793 116.861 124.894 115.71C125.069 113.701 125.414 111.71 125.618 109.703C125.66 109.29 125.534 108.624 125.256 108.458C124.342 107.912 124.494 107.2 124.652 106.664C124.28 106.249 124.001 105.988 123.783 105.681C123.665 105.515 123.721 105.163 123.587 105.083C121.829 104.032 122.925 102.684 123.301 101.518C123.453 101.047 124.179 100.637 124.73 100.441C126.07 99.9692 126.226 99.4862 125.597 98.2632C125.23 97.5492 125.215 96.6482 125.077 95.8252C125.024 95.5022 125.02 95.1532 125.083 94.8342C125.159 94.4382 125.327 94.0622 125.457 93.6772C125.777 93.8592 126.107 94.0252 126.416 94.2282C126.543 94.3132 126.622 94.4722 126.7 94.5702C127.226 93.8202 127.677 93.0822 128.225 92.4232C128.77 91.7702 129.413 91.1952 130.012 90.5862C129.923 90.4602 129.835 90.3342 129.747 90.2082C129.203 90.4022 128.572 90.4802 128.13 90.8112C127.12 91.5662 126.179 91.6692 125.052 91.0572C124.771 90.9052 124.135 91.1632 123.789 91.4132C122.259 92.5132 120.576 92.7742 118.738 92.6442C118.158 92.6022 117.535 92.9602 116.957 93.1942C115.353 93.8412 113.756 94.5092 112.172 95.2032C111.918 95.3152 111.748 95.6132 111.527 95.8132C111.309 96.0142 111.036 96.3992 110.857 96.3632C109.034 95.9782 107.636 97.5372 105.926 97.4162C105.257 97.3692 104.619 96.8632 103.92 96.5412C102.765 96.6892 101.352 97.2162 100.141 96.9182C99.1407 96.6722 98.2477 96.0432 97.1517 96.4102C96.7687 96.5382 96.3307 96.6742 96.0687 96.9502C94.7267 98.3532 93.4187 98.2132 92.4787 96.5112C92.1467 95.9102 90.4797 95.8192 89.8407 96.3692C88.8597 97.2132 87.2247 97.1992 86.5777 96.1832C87.4997 95.9212 88.3687 95.6742 89.3177 95.4052C88.5057 94.8582 86.4397 95.1092 86.1477 95.7822C85.9987 96.1282 86.2117 96.6322 86.2627 97.0662C84.7147 97.1852 83.7857 96.2672 83.4927 94.7522C83.3357 93.9372 82.6287 93.2292 82.1987 92.5182C82.7387 92.0392 83.5227 91.6202 83.8597 90.9702C84.2187 90.2792 84.3597 89.3172 84.1747 88.5782C84.0957 88.2612 82.9527 88.2102 82.2897 88.0442C81.7737 87.9132 81.2557 87.7922 80.7397 87.6672C80.7007 87.4512 80.6487 87.2292 80.5987 87.0072ZM104.992 187.306C105.903 186.878 106.927 186.447 106.566 185.185C106.288 184.215 105.423 183.765 104.691 183.546C104.409 184.39 104.194 185.034 103.947 185.773C104.216 186.168 104.594 186.723 104.992 187.306ZM99.5617 180.463C99.3907 180.529 99.2207 180.596 99.0497 180.664C99.2767 181.241 99.3437 182.057 99.7687 182.341C100.604 182.902 101.639 183.166 102.591 183.553C102.69 183.378 102.789 183.202 102.887 183.026C101.779 182.172 100.67 181.317 99.5617 180.463ZM108.801 188.42C108.508 187.585 108.334 187.088 108.084 186.374C107.435 187.045 106.958 187.539 106.48 188.034C106.5 188.155 106.518 188.276 106.538 188.397C107.192 188.404 107.847 188.41 108.801 188.42Z" fill="#79C6B7"/>
<path fill-rule="evenodd" clip-rule="evenodd" d="M449.897 124.991C449.148 124.252 448.634 124.198 448.022 125.032C447.213 126.132 446.201 126.769 444.686 126.046C443.613 125.535 442.955 126.464 442.35 127.202C442.246 127.328 442.25 127.535 442.172 127.689C441.214 129.585 440.042 129.675 438.777 127.764C437.932 128.226 437.108 128.824 436.186 129.139C435.323 129.434 434.357 129.508 433.434 129.531C432.627 129.552 432.025 129.618 431.705 130.527C431.566 130.918 431.019 131.164 430.688 131.448C430.692 131.766 430.697 132.134 430.701 132.501C430.303 132.368 429.903 132.236 429.458 132.087C429.539 132.402 429.64 132.798 429.762 133.28C428.764 133.551 428.276 134.009 429.338 134.851C430.045 134.121 431.223 134.426 431.528 135.448C431.913 136.729 432.215 138.039 432.49 139.348C432.552 139.635 432.351 139.975 432.25 140.374C433.353 140.59 433.431 141.386 433.474 142.341C433.504 143.018 433.934 143.669 434.121 144.349C434.652 146.29 435.212 148.228 435.618 150.199C435.728 150.74 435.509 151.717 435.132 151.924C434.097 152.486 434.54 153.074 434.782 153.766C434.991 154.368 435.054 155.027 435.313 155.601C435.469 155.95 436.037 156.487 436.141 156.43C437.409 155.738 438.07 156.614 438.622 157.234C439.716 156.99 440.663 156.777 441.712 156.542C441.78 156.909 441.814 157.196 441.889 157.47C441.961 157.735 442.039 158.014 442.194 158.23C442.235 158.286 442.681 158.19 442.742 158.066C442.861 157.823 442.942 157.477 442.861 157.234C442.382 155.821 442.438 155.728 444.129 155.621C444.16 155.975 444.193 156.33 444.226 156.689C444.33 156.68 444.437 156.704 444.489 156.661C445.326 155.974 447.694 155.889 448.562 156.523C448.735 156.649 448.99 156.919 449.07 156.875C450.169 156.265 450.885 157.19 451.742 157.507C452.633 157.835 453.427 157.75 454.172 157.118C455.212 156.239 456.342 156.2 457.677 156.493C458.79 156.739 459.965 156.554 460.774 157.658C460.881 157.802 461.62 157.63 461.962 157.429C463.248 156.667 464.559 156.73 465.924 157.114C466.189 157.189 466.53 157.035 466.778 157.133C467.072 157.249 467.509 157.503 467.528 157.729C467.65 159.093 468.209 159.431 469.626 159.447C471.179 159.463 472.729 159.798 474.283 159.966C474.679 160.007 475.088 159.932 475.491 159.924C475.782 159.919 476.073 159.938 476.418 159.947C476.16 158.773 477.013 158.56 478.067 158.347C478.121 158.83 478.166 159.233 478.214 159.676C478.332 159.666 478.495 159.703 478.56 159.638C479.948 158.264 479.889 158.376 481.644 159.253C483.186 160.023 484.877 160.5 486.502 161.102C486.62 161.146 486.849 161.116 486.866 161.171C487.42 162.951 489.07 161.913 490.205 162.491C490.065 163.525 490.529 164.059 491.668 163.928C491.835 163.909 492.119 164.063 492.194 164.214C493.166 166.146 495.264 167.073 496.365 168.804C497.152 170.043 499.287 170.616 498.438 172.734C498.694 172.797 498.857 172.832 499.018 172.876C501.098 173.433 501.28 173.445 501.171 175.501C501.084 177.156 502.132 178.014 503.015 178.948C504.062 180.055 504.759 182.249 504.271 183.743C504.134 184.16 504.281 184.662 504.222 185.117C504.089 186.134 504.402 187.342 503.012 187.847C502.776 187.932 502.563 188.441 502.568 188.752C502.581 189.865 502.315 190.703 501.067 190.957C500.958 190.979 500.82 191.503 500.9 191.722C501.266 192.73 501.703 193.712 502.198 194.904C501.985 194.956 501.582 195.157 501.191 195.133C500.457 195.091 500.021 195.21 500.048 196.089C500.068 196.746 499.878 197.309 498.967 197.127C498.71 197.074 498.259 197.178 498.142 197.364C497.442 198.479 496.554 198.465 495.474 198.011C495.1 197.855 494.625 197.939 494.081 197.907C494.145 198.395 494.197 198.796 494.258 199.269C492.908 199.623 491.402 199.706 490.284 200.408C489.35 200.994 487.818 200.888 487.48 202.372C487.45 202.509 487.147 202.638 486.952 202.677C485.94 202.874 484.893 203.265 483.914 203.141C483.21 203.054 482.594 202.268 481.909 201.771C481.878 201.844 481.718 202.214 481.499 202.716C481.145 202.515 480.841 202.384 480.586 202.192C479.485 201.359 478.545 202.181 477.529 202.424C476.547 202.659 475.519 202.875 474.523 202.835C473.511 202.795 472.521 202.324 471.505 202.248C470.798 202.194 470.064 202.48 469.343 202.624C468.711 202.751 468.08 203.004 467.452 202.999C466.613 202.989 465.842 202.146 464.903 202.793C464.826 202.845 464.21 202.427 464.192 202.2C464.022 200.145 462.331 200.784 461.238 200.597C460.087 200.399 458.908 200.645 457.847 199.78C457.56 199.546 456.281 199.935 456.029 200.37C455.362 201.528 454.23 201.233 453.314 201.561C452.877 201.718 452.326 201.814 451.901 201.686C451.241 201.486 450.645 201.073 450.173 200.521C449.245 200.646 448.319 200.848 447.391 200.867C446.833 200.881 446.276 200.524 445.709 200.486C444.946 200.435 444.093 199.718 443.404 200.708C443.332 200.812 442.929 200.847 442.844 200.758C442.223 200.106 441.483 200.296 440.704 200.207C439.196 200.038 438.41 200.772 437.837 201.862C437.391 202.713 437.038 203.378 435.886 202.576C435.723 203.967 434.748 203.721 433.92 203.774C433.376 203.81 432.805 203.755 432.295 203.907C431.118 204.261 429.992 204.812 428.801 205.085C428.289 205.202 427.662 204.829 427.042 204.666C427.035 204.971 427.115 205.355 427.009 205.417C426.292 205.83 425.517 206.14 424.801 206.554C424.14 206.936 423.448 207.325 422.919 207.86C422.173 208.612 421.551 209.37 420.891 208.299C420.116 208.613 419.464 208.827 418.862 209.138C418.334 209.409 417.848 209.774 417.366 210.126C416.956 210.425 416.519 211.087 416.192 211.03C414.66 210.763 413.764 211.625 412.966 212.645C411.119 211.619 410.641 211.786 410.158 213.324C408.824 213.963 407.631 214.501 406.484 215.122C406.309 215.217 406.281 215.707 406.299 216.008C406.32 216.325 406.477 216.634 406.6 217.024C405.27 217.205 404.047 217.261 402.886 217.562C401.624 217.888 400.672 218.685 400.021 219.9C399.725 220.456 399.064 220.85 398.506 221.225C397.339 222.006 396.129 222.726 394.938 223.475C394.908 223.495 394.901 223.583 394.879 223.585C392.778 223.736 392.824 225.886 391.736 226.981C391.183 227.537 390.735 227.551 390.173 227.06C389.847 226.775 389.319 226.248 389.151 226.336C388.341 226.762 387.36 227.205 386.929 227.932C385.956 229.578 385.249 231.284 382.91 231.404C382.16 231.443 381.175 231.817 381.312 233.066C381.344 233.363 381.057 233.799 380.789 234.01C379.632 234.916 378.418 235.734 376.824 235.522C376.74 235.51 376.602 235.492 376.572 235.534C375.462 237.118 373.809 235.603 372.669 236.173C371.183 236.918 370.646 236.071 369.866 235.214C369.666 234.996 368.934 234.945 368.706 235.133C368.174 235.575 367.761 236.18 367.378 236.772C367.233 236.996 367.41 237.432 367.262 237.647C366.938 238.114 366.475 238.862 366.111 238.84C365.478 238.799 364.752 238.382 364.294 237.904C363.776 237.364 363.511 236.584 363.078 235.803C362.777 236.182 362.545 236.475 362.344 236.728C361.673 235.368 360.857 234.129 360.471 232.769C360.269 232.057 359.982 231.961 359.461 231.723C358.902 231.469 358.334 231.078 357.963 230.598C356.853 229.159 355.689 227.809 353.895 227.221C352.152 226.646 353.545 225.449 353.114 224.621C353.221 224.581 353.326 224.541 353.433 224.502C353.668 224.814 353.903 225.128 354.183 225.502C354.397 225.261 354.584 225.05 354.844 224.757C354.128 224.395 353.503 224.077 352.865 223.755C353.925 222.154 353.848 221.831 352.27 220.871C351.421 220.354 351.146 219.699 351.712 218.807C351.897 218.516 352.075 218.223 352.315 217.835C351.994 217.676 351.719 217.539 351.349 217.356C352.273 215.595 351.077 214.535 349.932 213.375C349.802 213.482 349.579 213.578 349.516 213.738C349.209 214.513 348.596 214.892 347.879 214.602C347.528 214.46 347.434 213.749 347.156 213.342C345.919 211.521 347.356 210.507 348.377 209.436C349.248 208.522 350.153 207.713 349.462 206.29C349.4 206.159 349.42 205.894 349.513 205.8C350.352 204.944 351.225 204.122 352.067 203.268C352.463 202.866 352.822 202.425 353.171 201.981C354.088 200.819 354.296 199.088 356.005 198.545C356.238 198.472 356.321 197.973 356.506 197.692C356.664 197.452 356.826 197.119 357.059 197.036C358.615 196.494 360.311 196.216 361.708 195.413C362.371 195.034 362.501 193.695 362.815 192.772C362.882 192.575 362.7 192.295 362.606 191.955C362.909 191.891 363.217 191.722 363.357 191.813C364.17 192.342 364.898 192.173 365.656 191.701C365.853 191.579 366.183 191.529 366.398 191.602C367.91 192.123 368.645 191.898 369.595 190.615C369.792 190.349 370.081 190.124 370.371 189.955C370.992 189.595 371.362 188.957 371.8 188.539C372.716 187.663 373.337 186.379 374.97 186.081C376.216 185.853 377.285 184.616 378.412 183.796C378.743 183.554 378.999 183.208 379.411 182.784C379.685 183.297 379.872 183.645 380.059 183.996C380.837 182.421 381.516 182.12 383.334 182.101C384.045 182.093 384.761 181.655 385.457 181.368C386.08 181.113 386.677 180.794 387.589 180.358C387.846 179.406 388.693 178.856 390.093 179.027C390.401 179.066 390.864 178.63 391.1 178.3C391.738 177.402 392.052 176.225 393.374 175.972C393.554 175.937 393.752 175.608 393.81 175.381C394.035 174.499 394.58 174.39 395.394 174.512C396.733 174.712 397.128 174.271 397.227 172.92C397.254 172.521 397.537 172.025 397.859 171.784C399.2 170.778 399.26 169.323 397.981 168.248C397.646 167.965 397.392 167.553 397.181 167.157C396.447 165.785 395.616 164.446 395.07 162.999C394.515 161.522 394.424 159.865 393.814 158.419C393.317 157.238 393.818 156.24 393.782 155.172C393.746 153.982 393.207 152.807 392.893 151.623C392.808 151.299 392.572 150.858 392.699 150.663C393.684 149.147 392.492 148.158 391.932 146.99C391.545 146.184 391.303 145.311 390.939 144.313C390.669 144.485 390.189 144.787 389.744 145.069C390.152 145.49 390.417 145.762 390.682 146.037C390.188 146.38 389.703 146.999 389.199 147.015C387.673 147.056 386.141 146.865 384.501 146.757C384.382 147.019 384.384 147.662 383.484 147.152C383.116 146.944 382.173 147.358 381.737 147.756C381.13 148.314 380.596 148.502 379.792 148.353C378.991 148.203 378.056 149.061 377.348 148.041C376.908 148.349 376.4 148.596 376.044 148.98C375.613 149.446 375.424 150.277 374.925 150.507C374.144 150.866 372.853 151.283 372.384 150.91C371.426 150.149 370.602 150.549 369.638 150.58C369.812 151.859 369.014 152.913 368.037 153.069C366.961 153.243 365.756 152.615 364.673 152.05C363.766 152.399 362.859 152.749 361.814 153.153C361.912 152.43 363.232 152.18 362.291 151.295C361.094 150.17 360.597 150.232 359.972 151.759C359.811 152.154 359.566 152.514 359.358 152.891C359.596 153.133 359.876 153.341 360.038 153.619C360.106 153.733 359.959 154.032 359.831 154.176C359.757 154.258 359.396 154.239 359.379 154.188C359.012 153.169 356.993 153.298 357.57 152.004C356.58 151.198 355.776 150.546 354.929 149.858C354.908 150.105 354.887 150.373 354.862 150.669C354.431 150.72 354.012 150.769 353.384 150.843C353.676 149.965 353.944 149.162 354.212 148.36C354.139 148.275 354.065 148.19 353.991 148.104C352.911 149.794 351.643 148.652 350.427 148.564C348.795 148.444 348.931 146.564 347.477 145.841C347.403 146.489 347.345 147.004 347.272 147.647C346.728 147.941 346.049 148.309 345.062 148.841C345.366 147.932 345.549 147.384 345.688 146.966C344.598 146.601 343.599 146.272 342.605 145.933C342.242 145.811 341.851 145.495 341.536 145.561C340.508 145.774 340.192 145.302 340.297 144.077C339.85 144.618 339.608 144.91 339.138 145.479C339.114 144.528 339.098 143.88 339.082 143.271C338.952 143.188 338.886 143.12 338.809 143.1C338.407 142.997 338.002 142.907 337.598 142.811C337.969 142.53 338.327 142.23 338.713 141.971C339.054 141.741 339.424 141.555 339.554 141.48C338.475 140.364 337.465 139.438 336.639 138.371C336.463 138.145 336.806 137.247 337.158 136.928C338.272 135.913 338.566 135.161 338.009 134.097C335.553 134.802 337.473 132.289 336.264 132.08C336.364 131.958 336.464 131.835 336.564 131.713C337.367 132.147 338.172 132.582 338.977 133.014C339.035 132.93 339.089 132.845 339.147 132.759C338.586 132.075 338.025 131.391 337.402 130.634C337.146 130.779 336.876 130.932 336.537 131.127C336.131 128.626 338.991 128.124 339.438 126.191C338.422 124.998 338.422 124.998 339.318 124.163C338.734 123.06 339.367 120.972 340.433 120.355C341.039 120.005 341.706 119.686 341.531 118.732C341.492 118.518 341.935 117.982 342.095 118.004C342.989 118.131 343.894 118.317 344.725 118.653C344.907 118.728 344.804 119.502 344.83 119.923C346.408 118.985 347.06 117.295 348.065 115.804C348.907 114.552 349.44 112.62 351.687 112.609C351.797 112.798 352.048 113.24 352.349 113.766C352.614 113.187 352.806 112.769 352.997 112.35C353.272 112.704 353.546 113.058 353.847 113.445C355.352 113.127 356.943 112.271 358.647 113.588C358.778 112.83 358.881 112.232 358.989 111.608C361.402 112.634 363.276 110.809 365.512 110.754C365.338 110.487 365.224 110.308 365.134 110.168C366.439 109.889 367.752 109.266 368.948 109.441C370.348 109.648 371.206 108.703 372.366 108.535C372.536 108.51 372.748 108.381 372.866 108.444C374.809 109.48 375.194 107.727 375.875 106.694C376.389 105.912 376.737 105.167 377.873 105.693C378.072 105.784 378.647 105.589 378.67 105.456C378.996 103.668 380.964 104.007 381.828 102.924C381.135 102.131 380.595 101.302 381.667 100.613C381.423 100.173 381.018 99.7832 381.071 99.4732C381.245 98.4442 380.477 97.1992 381.717 96.3692C381.797 96.3142 381.634 95.5702 381.444 95.4912C380.27 95.0072 380.934 94.3412 381.259 93.5582C378.762 93.3872 380.051 91.3752 379.626 90.1632C379.297 89.2272 379.237 88.1952 379.081 87.2012C379.051 87.0052 379.059 86.7132 379.177 86.5972C380.142 85.6532 379.307 85.0142 378.887 84.2352C378.643 83.7812 378.432 83.0332 378.641 82.6592C379.68 80.8032 379.526 78.9142 379.046 76.9872C378.971 76.6892 378.667 76.4432 378.61 76.1462C378.561 75.8892 378.693 75.5872 378.783 75.3182C378.846 75.1332 379.051 74.9722 379.057 74.7972C379.083 74.0342 379.27 73.4172 378.602 72.5702C377.81 71.5652 378.957 70.3832 379.746 69.5492C380.303 68.9602 380.314 68.5792 379.994 67.8712C379.696 67.2102 379.688 66.4012 379.632 65.6512C379.564 64.7372 379.573 63.8182 379.562 62.8992C379.56 62.6942 379.543 62.3822 379.66 62.2982C380.801 61.4792 380.648 60.0272 381.32 58.9992C381.751 58.3422 382.335 57.7892 382.831 57.1722C383.086 56.8552 383.302 56.5052 383.442 55.9602C382.028 57.0342 380.538 56.8262 378.963 56.7922C377.275 56.7562 375.572 57.3362 373.878 57.6502C372.72 57.8652 371.511 57.9362 370.42 58.3352C368.896 58.8922 367.494 59.7772 365.975 60.3542C365.22 60.6432 364.316 60.5212 363.492 60.6552C362.662 60.7882 361.821 60.9342 361.034 61.2112C360.307 61.4672 359.687 61.8542 359.148 60.9052C359.043 60.7192 358.263 60.6472 358.21 60.7462C357.542 61.9942 356.534 61.4322 355.577 61.3602C354.952 61.3132 354.311 61.4852 353.676 61.5532C353.435 61.5802 353.137 61.6942 352.959 61.5962C351.059 60.5662 349.212 60.3282 347.41 61.8092C347.222 61.9642 346.952 62.0162 346.672 62.1362C346.398 61.7542 346.154 61.4142 345.856 60.9962C345.543 61.2542 345.267 61.4812 345.065 61.6482C343.989 60.6412 343.044 59.9082 341.438 60.0252C340.598 60.0872 339.695 59.1312 338.802 58.6692C338.302 58.4092 337.768 58.2102 337.247 57.9922C336.942 57.8652 336.62 57.7772 336.325 57.6322C336.137 57.5402 335.912 57.2282 335.828 57.2692C333.813 58.2452 334.378 56.6282 334.288 55.5912C332.8 55.9832 332.463 54.9572 332.357 53.9232C332.233 52.7142 331.549 52.0152 330.673 51.3222C330.337 51.0572 330.063 50.4242 330.124 50.0102C330.262 49.0462 329.751 48.7722 329.031 48.8392C328.113 48.9262 327.667 48.6512 327.494 47.7222C327.412 47.2852 326.954 46.9322 326.791 46.4972C326.622 46.0442 326.385 45.4242 326.564 45.0752C327.038 44.1462 326.668 43.4612 326.345 42.6262C326.04 41.8392 326.069 40.9202 325.974 40.0582C325.947 39.8062 326.089 39.5102 326.001 39.2962C325.546 38.2002 325.963 37.3522 326.496 36.3772C326.987 35.4792 327.382 34.4762 327.7 33.4542C328.083 32.2252 328.691 30.7392 330.216 29.9572C330.944 29.5822 331.263 28.3602 331.705 27.4902C331.894 27.1222 331.822 26.3842 332.039 26.3092C333.053 25.9602 333.72 24.6712 335.075 25.1902C335.45 25.3352 335.93 25.2012 336.574 25.1932C336.16 24.5082 335.89 24.0662 335.42 23.2922C336.102 23.4222 336.435 23.4202 336.703 23.5512C337.685 24.0302 338.628 24.4052 339.555 23.4342C339.676 23.3062 340.024 23.2212 340.153 23.3012C341.929 24.3922 343.096 22.7812 344.524 22.3502C344.895 22.2402 345.278 22.1332 345.661 22.0982C347.017 21.9752 347.922 21.2582 348.529 20.0692C348.686 19.7612 348.993 19.5292 349.164 19.3392C349.993 19.4992 349.664 21.5002 351.152 20.2032C351.576 19.8332 352.659 20.3992 353.312 19.4932C353.676 18.9882 354.568 18.8622 355.398 18.8032C355.12 19.0692 354.842 19.3342 354.43 19.7282C355.051 19.9362 355.608 20.1212 356.415 20.3922C356.658 19.3592 356.851 18.4342 357.105 17.5262C357.174 17.2742 357.402 16.9242 357.604 16.8902C357.817 16.8552 358.153 17.0882 358.312 17.2982C358.51 17.5562 358.582 17.9122 358.762 18.3612C359.527 18.0262 360.221 17.7112 360.923 17.4152C362.418 16.7862 362.561 16.8502 362.962 18.0982C364.066 17.8182 365.172 17.5802 366.248 17.2462C367.085 16.9872 367.868 16.5602 368.704 16.2972C369.305 16.1072 369.953 16.0612 370.581 15.9652C370.65 15.9542 370.738 16.0762 370.812 16.0702C373.037 15.9032 375.438 16.6832 377.348 14.7692C377.66 14.4552 378.325 14.3112 378.793 14.3702C380.049 14.5252 380.928 14.3352 380.934 12.8212C380.934 12.7352 381.108 12.6492 380.951 12.7942C381.902 12.8462 382.853 12.6102 383.224 12.9702C384.349 14.0672 385.077 12.9892 385.957 12.7252C385.999 12.7132 386.051 12.6832 386.081 12.6982C388.362 13.8722 389.213 11.5542 390.667 10.7692C392.054 10.0192 393.302 9.0092 394.617 8.1202C395.22 7.7112 396.87 7.88819 397.425 8.54419C398.037 6.77119 399.307 7.02319 400.72 7.27419C401.654 7.43919 402.661 7.15018 403.637 7.13118C404.042 7.12518 404.527 7.18419 404.836 7.40519C405.613 7.96119 406.159 7.71219 406.786 7.15219C408.367 5.7402 409.966 4.4842 412.381 5.2622C412.883 5.4242 413.665 4.53619 414.371 4.28119C416.26 3.59919 417.598 1.40619 420.087 2.26619C420.497 2.40719 421.13 1.77119 421.692 1.61919C422.968 1.27619 424.263 1.0072 425.553 0.719196C425.761 0.673196 426.053 0.593188 426.185 0.692188C427.512 1.68619 428.639 1.16019 429.956 0.514194C430.949 0.0281943 432.222 0.0471867 433.376 0.000186728C433.689 -0.0118133 434.024 0.557183 434.449 0.952183C434.592 0.917183 434.949 0.830186 435.274 0.752186C436.078 1.76619 435.691 2.76319 435.05 3.39719C434.293 4.14619 434.763 4.59119 434.896 4.98119C435.621 4.38219 436.258 3.47619 437.049 3.31119C437.772 3.16119 438.273 4.91419 437.919 6.12719C437.953 6.15319 437.983 6.19619 438.021 6.20319C439.263 6.43819 440.811 5.87919 441.347 7.84119C441.457 8.24419 442.801 8.31119 443.607 8.54119C442.562 9.63219 441.537 10.7002 440.348 11.9392C440.86 12.1102 441.256 12.3032 441.67 12.3702C443.209 12.6182 444.689 12.9832 445.178 14.7122C445.366 15.3702 445.368 16.1172 445.293 16.8062C445.157 18.0742 444.9 19.3312 444.693 20.5932C444.807 20.6212 444.92 20.6512 445.033 20.6792C444.672 20.9422 444.311 21.2062 443.695 21.6542C444.251 21.7632 444.455 21.8622 444.635 21.8292C446.343 21.5202 446.361 21.5122 446.542 23.0902C446.574 23.3702 446.374 23.6792 446.28 23.9742C445.972 23.8232 445.635 23.7102 445.364 23.5102C445.108 23.3212 444.922 23.0392 444.626 22.7092C444.371 25.2492 445.876 27.2712 445.981 29.5692C443.417 30.1152 443.417 30.1152 443.999 32.8192C443.53 32.8112 443.04 32.7172 442.601 32.8292C442.388 32.8842 442.272 33.3222 441.975 33.8162C442.67 33.7182 443.068 33.6632 443.788 33.5642C442.929 35.1552 443.74 37.1682 441.76 38.1212C441.015 38.4792 440.599 39.6992 439.5 38.9392C438.837 39.6722 438.254 40.3832 437.588 41.0072C437.41 41.1742 436.819 41.2192 436.693 41.0762C435.937 40.2212 435.274 40.8442 434.586 41.1202C434.237 41.2622 433.753 41.6582 433.58 41.5472C432.381 40.7812 431.604 41.9032 430.651 42.1472C430.405 42.2092 430.222 42.6932 430.099 43.0182C429.974 43.3472 429.96 43.7172 429.831 44.4492C429.288 43.7772 428.988 43.4062 428.479 42.7762C427.6 43.3592 426.74 44.0302 425.788 44.5232C425.281 44.7852 424.586 44.6562 424.025 44.8472C423.418 45.0552 422.863 45.4212 422.294 45.7322C421.964 45.9132 421.66 46.1452 421.322 46.3112C420.7 46.6162 420.063 46.8882 419.537 47.3512C418.795 47.3652 417.99 47.1982 417.325 47.4302C415.894 47.9302 415.214 47.2622 414.77 46.0862C414.622 46.1182 414.491 46.1112 414.468 46.1562C413.418 48.2672 411.483 49.2572 409.06 49.1512C407.474 49.0812 405.966 49.4462 405.022 50.9722C404.401 51.9752 403.398 52.2172 402.213 51.6532C401.706 52.6122 401.288 53.6112 399.814 52.5902C399.358 52.2722 398.164 52.8622 397.384 53.2122C396.551 53.5852 395.81 54.1652 394.734 54.8372C394.481 56.3612 397.233 58.7122 398.807 59.5622C398.476 60.7212 399.1 61.2752 399.959 62.0702C401.075 63.1042 401.7 64.6772 402.493 66.0442C402.773 66.5242 402.925 67.0782 403.198 67.7542C403.327 66.8772 403.415 66.2782 403.503 65.6782C403.704 65.6602 403.903 65.6432 404.103 65.6252C404.589 66.8772 405.075 68.1292 405.567 69.4002C405.194 69.6982 404.928 69.9092 404.664 70.1192C403.867 70.7512 404.051 71.5512 404.839 71.7002C406.617 72.0372 407.046 73.5352 407.783 74.7282C408.473 75.8462 408.917 77.1142 409.501 78.3872C408.745 78.6812 408.348 78.8342 407.568 79.1372C408.126 79.3572 408.445 79.6042 408.601 79.5252C409.796 78.9222 410.23 79.7022 410.423 80.5922C410.694 81.8422 410.666 83.1652 411.013 84.3842C411.329 85.4832 411.769 86.6872 412.533 87.4802C413.516 88.5022 413.386 89.8592 414.067 90.9062C414.508 91.5842 415 92.6012 415.602 92.7062C416.322 92.8322 417.232 92.2242 417.962 91.7762C418.317 91.5582 418.402 90.9392 418.696 90.5722C419.019 90.1702 419.503 89.5162 419.811 89.5712C420.281 89.6532 420.669 90.2432 421.078 90.6312C421.195 90.7422 421.265 90.9032 421.361 91.0512C422.055 90.4942 422.686 89.9472 423.362 89.4622C424.015 88.9912 424.714 88.5842 425.372 88.0322C425.896 87.7112 426.387 87.2102 426.952 87.1052C428.062 86.8962 429.275 86.1522 430.309 87.4092C430.442 87.5732 431.083 87.5632 431.272 87.3922C432.064 86.6842 432.773 85.8832 433.463 85.1672C434.692 85.2522 436.089 85.0282 437.178 85.5062C438.397 86.0412 439.167 84.9892 440.243 85.2002C441.258 85.4022 442.35 85.1982 443.408 85.1962C443.875 85.1952 444.341 85.2572 444.914 85.2982C444.921 85.0482 444.823 84.6782 444.963 84.5192C445.171 84.2842 445.702 83.9902 445.828 84.0842C446.921 84.8862 448.043 84.4712 449.192 84.3552C449.814 84.2922 450.598 84.3782 451.083 84.7192C452.006 85.3702 452.755 86.2652 453.605 87.0282C453.806 87.2092 454.156 87.4212 454.367 87.3632C455.8 86.9732 456.202 87.9062 456.525 89.0942C458.631 88.4142 458.931 90.4402 459.959 91.3862C460.988 92.3352 461.645 93.5542 462.291 94.9762C463.615 95.2012 463.852 95.6262 463.775 97.1772C463.745 97.7742 464.081 98.6042 464.537 98.9702C466.14 100.25 466.152 102.111 466.512 103.829C466.772 105.071 466.093 105.942 465.321 106.978C464.563 107.995 464.586 109.655 464.445 111.051C464.337 112.127 464.46 112.14 463.358 112.229C462.817 113.943 461.862 115.32 460.379 116.333C460.083 116.534 459.853 116.837 459.61 117.111C459.312 117.448 459.035 117.805 458.745 118.149C458.152 118.854 457.443 119.491 456.985 120.275C456.223 121.577 454.826 121.408 453.723 121.71C452.697 121.991 451.902 122.147 451.431 123.238C451.172 123.869 450.503 124.327 449.897 124.991ZM436.704 39.0432C436.86 38.8842 437.015 38.7252 437.17 38.5662C436.766 38.1902 436.362 37.8142 435.959 37.4362C435.817 37.5842 435.673 37.7332 435.531 37.8812C435.923 38.2692 436.313 38.6582 436.704 39.0432ZM437.902 36.2252C437.751 36.3732 437.599 36.5202 437.447 36.6702C438.072 37.1432 438.696 37.6152 439.319 38.0882C439.404 37.9992 439.489 37.9112 439.574 37.8222C439.017 37.2892 438.46 36.7582 437.902 36.2252Z" fill="#79C6B7"/>
<path fill-rule="evenodd" clip-rule="evenodd" d="M313.025 85.0502C312.826 85.8982 312.443 86.4762 311.256 85.9362C311.504 86.5942 311.659 87.0052 311.735 87.2072C310.901 87.7122 310.202 88.1832 309.461 88.5762C308.44 89.1162 307.407 89.6352 306.347 90.0942C304.991 90.6812 303.607 91.2052 302.228 91.7382C302.04 91.8112 301.787 91.8392 301.604 91.7752C301.051 91.5802 300.532 91.2772 299.972 91.1142C299.468 90.9692 298.925 90.9532 298.247 90.8582C298.623 91.4422 298.951 91.9462 299.276 92.4512C296.643 91.5372 296.543 91.3402 297.472 89.5342C296.709 89.8702 295.949 90.2052 295.379 90.4552C294.887 89.7632 294.415 89.0472 293.882 88.3802C293.76 88.2272 293.325 88.1042 293.22 88.1912C292.425 88.8452 291.592 89.4832 290.942 90.2702C290.416 90.9082 290.127 91.2792 289.523 90.3862C289.274 90.0202 288.836 89.7752 288.466 89.4982C287.904 89.0802 287.328 88.6832 286.599 88.1642C285.798 88.6922 285.258 88.2132 284.742 87.2372C284.507 86.7912 283.62 86.2172 283.328 86.3522C281.645 87.1232 280.358 85.7942 278.88 85.7102C276.877 85.5982 275.304 83.6282 273.113 84.4342C273.011 84.4722 272.782 84.4302 272.75 84.3612C272.416 83.6442 271.646 84.0142 271.219 83.7362C270.68 83.3872 270.344 82.7252 269.836 82.0942C268.491 82.2072 266.825 82.8412 265.498 81.1512C264.627 80.0412 263.179 80.0592 261.917 79.7302C261.4 79.5962 260.927 79.2712 260.45 79.0062C260.228 78.8832 260.071 78.6372 259.843 78.5402C259.007 78.1762 258.168 77.8122 257.301 77.5302C256.932 77.4102 256.463 77.3852 256.099 77.5022C254.757 77.9302 253.629 77.0802 253.736 75.6462C253.782 75.0242 253.778 74.6772 252.922 74.9322C251.644 75.3132 251.048 74.7562 250.733 73.5162C250.613 73.0392 249.96 72.6932 249.544 72.2962C249.114 71.8842 248.647 71.5062 248.245 71.0682C247.871 70.6582 247.639 70.0782 247.205 69.7692C246.263 69.0972 245.611 68.3202 245.324 67.1572C245.11 66.2912 244.647 65.4822 244.242 64.6752C244.191 64.5712 243.822 64.6272 243.864 64.6302C243.481 63.2892 243.223 62.0032 242.738 60.8082C242.382 59.9262 241.946 59.2172 242.829 58.3792C243.17 58.0552 243.466 57.4282 243.409 56.9862C243.154 55.0022 244.231 53.4392 244.847 51.7182C245.211 50.6992 245.313 49.5882 245.571 48.5262C245.67 48.1202 245.795 47.6782 246.044 47.3622C246.565 46.7062 247.082 45.9692 247.769 45.5382C249.54 44.4332 250.71 42.7432 252.179 41.3502C252.356 41.1822 252.637 41.0662 252.882 41.0372C254.659 40.8262 256.44 40.6522 258.216 40.4462C258.678 40.3912 259.128 40.2182 259.589 40.1732C260.383 40.0942 261.184 40.0832 261.98 40.0192C262.484 39.9792 263.079 40.0462 263.466 39.8012C264.323 39.2602 265.088 39.3752 265.869 39.8352C266.749 40.3562 267.354 40.2312 267.521 39.1512C267.68 38.1182 267.742 37.0692 267.899 36.0362C267.965 35.5982 268.036 35.0372 268.325 34.7842C269.17 34.0422 269.426 33.2772 268.999 32.6552C270.434 30.6102 271.749 28.7412 273.058 26.8652C273.126 26.7672 273.156 26.6302 273.171 26.5072C273.342 25.1902 273.701 24.9982 275.038 25.6302C274.988 25.2892 274.947 25.0142 274.96 25.1012C275.969 24.1782 276.791 23.3722 277.675 22.6382C278.163 22.2342 278.794 22.0052 279.29 21.6072C280.235 20.8502 281.256 20.1312 282.012 19.2072C282.745 18.3092 283.34 17.5492 284.672 17.7812C285.11 17.8572 285.614 17.3802 286.113 17.2902C287.771 16.9922 289.441 16.5682 291.107 16.5642C292.192 16.5612 293.28 17.2012 294.364 17.5642C294.48 17.6022 294.565 17.7612 294.677 17.7792C295.724 17.9382 296.78 18.0512 297.821 18.2412C298.149 18.2992 298.438 18.5562 298.754 18.7022C299.434 19.0182 299.74 20.0632 300.752 19.7262C301.67 21.1792 303.94 20.2592 304.71 21.9802C304.753 22.0752 304.924 22.1762 305.029 22.1702C306.44 22.0812 307.151 23.4032 308.336 23.8052C308.92 24.0042 309.298 24.4892 308.94 25.3652C308.725 25.8932 309.128 26.6762 309.294 27.5682C309.78 26.9112 309.995 25.8042 310.89 26.8002C311.031 26.9582 311.161 27.3282 311.078 27.4492C310.439 28.3782 311.265 29.0762 311.561 29.7382C311.737 30.1312 312.688 30.1762 313.298 30.3792C313.461 31.5442 313.568 32.9232 313.873 34.2592C314.027 34.9342 314.629 35.4962 314.856 36.1692C314.978 36.5342 314.736 37.0202 314.638 37.5652C314.097 37.3452 313.757 37.2062 313.407 37.0642C313.272 37.7992 313.142 38.5012 313.011 39.2172C313.777 38.6792 314.545 38.1402 315.312 37.6032C315.472 37.6732 315.632 37.7412 315.791 37.8112C315.668 38.5562 315.571 39.3052 315.417 40.0422C315.265 40.7742 314.743 41.5002 315.642 42.1642C315.793 42.2752 315.678 42.8572 315.57 43.1852C315.414 43.6642 315.154 44.1092 314.984 44.4722C315.634 44.6892 316.078 44.8382 316.523 44.9862C316.318 45.4132 316.218 45.9612 315.891 46.2472C314.61 47.3662 315.437 48.7902 315.241 50.0582C315.005 51.5862 314.783 53.1182 314.616 54.6562C314.511 55.6352 314.015 56.6872 315.072 57.5412C315.213 57.6532 315.064 58.4252 314.824 58.6482C314.249 59.1852 314.367 59.5942 314.807 60.0842C315.99 61.3982 317.181 62.7062 318.332 64.0492C318.528 64.2762 318.562 64.6572 318.632 64.9752C318.837 65.9372 319.168 66.9012 319.185 67.8682C319.214 69.6002 320.694 71.1162 319.703 73.0382C319.087 74.2342 319.021 75.7002 318.605 77.0122C318.02 78.8562 316.814 80.2322 315.247 81.3722C314.655 81.8032 314.322 82.5902 313.87 83.2152C313.689 83.4672 313.454 83.6942 313.329 83.9712C313.178 84.3082 313.118 84.6872 313.018 85.0472L313.025 85.0502Z" fill="#79C6B7"/>
<path fill-rule="evenodd" clip-rule="evenodd" d="M3.65666 172.996C3.33166 172.746 2.79966 172.547 2.69666 172.217C2.05066 170.115 1.50065 167.983 0.918649 165.861C0.828649 165.532 0.556663 165.112 0.670663 164.89C1.40066 163.481 0.522662 162.267 0.200661 161.029C-0.0243385 160.166 -0.184335 159.481 0.429665 158.743C0.627665 158.504 0.642675 158.115 0.745675 157.796C0.956675 157.156 1.17265 156.519 1.46165 155.651C0.483648 154.024 5.80765 146.483 7.93165 146.305C8.26165 146.068 8.58165 145.812 8.92365 145.594C10.2177 144.77 11.5177 143.957 12.9277 143.07C13.1887 143.217 13.5577 143.423 13.9537 143.643C13.9427 143.237 13.9317 142.812 13.9297 142.74C14.8627 142.33 15.5307 141.931 16.2537 141.745C17.1667 141.509 18.1217 141.422 19.0637 141.339C19.1967 141.326 19.3647 141.699 19.2927 141.607C20.0907 141.569 20.8297 141.3 21.1847 141.558C22.4367 142.471 23.5457 141.58 24.0677 140.965C24.9237 139.95 25.4867 140.022 26.3547 140.687C26.5547 140.84 26.8187 140.909 27.1327 141.051C27.3557 140.738 27.5657 140.445 27.8007 140.116C29.4327 140.661 31.1167 141.758 32.6807 141.605C34.4997 141.43 35.7567 143.141 37.4977 142.487C37.5337 142.474 37.5877 142.488 37.6247 142.505C38.6827 143.015 39.7337 143.535 40.7947 144.036C41.6707 144.451 42.5546 144.843 43.7376 145.384C43.7326 145.369 43.8677 145.718 44.0027 146.067C44.0907 145.98 44.1797 145.892 44.2667 145.804C44.7557 146.242 45.2567 146.67 45.7327 147.123C46.2917 147.657 46.7857 148.271 47.3877 148.751C48.4307 149.583 49.4997 150.397 50.6377 151.088C51.0237 151.324 51.9637 151.384 52.1157 151.162C53.1777 149.595 55.1437 149.918 56.4437 148.936C56.8797 148.605 57.2407 148.171 57.6217 147.77C57.7957 147.586 57.8917 147.284 58.0956 147.186C58.7826 146.854 59.5017 146.591 60.0557 146.365C60.7077 146.745 61.3777 147.134 62.1337 147.573C62.1187 147.231 62.1117 147.062 62.1037 146.893C62.1957 146.867 62.2757 146.813 62.3427 146.827C62.7367 146.903 63.1716 147.149 63.5097 147.051C64.3547 146.806 65.1147 146.113 66.0637 146.739C67.4217 145.379 68.5247 146.873 69.7477 147.058C70.0197 147.1 70.3817 147.126 70.5747 146.986C71.1827 146.544 71.7077 146.043 72.5187 146.653C72.6437 146.747 73.0757 146.432 73.3917 146.295C73.4957 146.433 73.6507 146.556 73.6937 146.708C74.1317 148.259 75.0437 149.172 76.6937 149.575C77.3267 149.73 77.7477 150.755 78.4497 151.61C78.7547 151.436 79.3437 151.1 80.0566 150.692C80.2447 151.799 81.6117 152.206 81.7227 153.656C81.7857 154.464 82.7047 155.327 83.4316 155.93C84.5316 156.841 85.1367 157.808 84.7577 159.259C84.7007 159.472 84.8207 159.744 84.8967 159.977C84.9597 160.175 85.1877 160.374 85.1587 160.54C84.9287 161.832 84.6937 163.125 84.3817 164.4C84.1807 165.221 83.7257 165.992 83.6027 166.819C83.3997 168.189 83.5087 169.614 83.2197 170.959C83.0317 171.834 82.5497 172.817 81.8847 173.381C80.7086 174.377 80.3467 175.011 80.7827 176.071C80.1267 177.071 79.6127 177.946 78.9997 178.746C78.7477 179.077 78.2846 179.248 77.8366 179.543C77.9216 179.771 78.0187 180.034 78.0297 180.065C77.2407 181.225 76.5227 182.301 75.7817 183.362C75.5147 183.743 75.1526 184.06 74.9107 184.453C74.6717 184.84 74.5177 185.28 74.3477 185.705C74.2587 185.929 74.2917 186.285 74.1397 186.387C72.3517 187.588 71.5387 189.693 69.8577 190.977C69.5867 191.185 69.1887 191.227 68.7747 191.373C68.8687 191.693 68.9716 192.041 69.0136 192.182C68.5517 192.363 68.0737 192.427 67.7687 192.692C66.9377 193.421 66.1477 194.206 65.4007 195.024C64.8057 195.676 64.3377 196.445 63.7397 197.098C63.2037 197.681 62.5697 198.175 62.0487 198.645C61.5387 199.162 61.1107 199.58 60.7027 200.018C60.5637 200.166 60.4607 200.521 60.3677 200.513C58.5427 200.343 58.2127 202.96 56.1767 202.355C56.2027 202.485 56.2277 202.615 56.2517 202.745C56.4547 202.954 56.6577 203.164 56.9097 203.427C56.6597 203.647 56.4117 203.864 56.0887 204.147C55.5067 203.114 54.8647 203.41 54.1577 203.91C53.8647 204.118 53.4417 204.314 53.1147 204.267C51.8477 204.081 51.0467 204.625 50.5197 205.786C49.2517 205.242 48.6396 205.686 48.4446 207.003C48.3906 207.364 47.8777 207.91 47.5417 207.935C45.3727 208.097 43.1927 208.19 41.0187 208.176C40.5467 208.174 39.8347 207.746 39.6617 207.334C39.3027 206.476 38.7857 206.018 37.9127 205.804C37.6007 205.727 37.2527 205.481 37.0797 205.21C36.5647 204.408 35.9856 203.828 34.9316 203.92C34.7226 203.94 34.4937 203.676 34.2627 203.564C33.7137 203.295 33.1557 203.043 32.4677 203.02C32.0827 202.404 31.6347 201.818 31.3317 201.164C31.0337 200.517 30.6927 200.137 29.9157 200.08C29.6447 200.06 29.4167 199.464 29.0287 198.941C27.4957 198.133 25.4667 197.515 24.7057 195.531C24.3097 195.525 23.8777 195.651 23.7177 195.496C22.2267 194.054 20.7857 192.56 19.3247 191.086C19.0987 190.859 18.8797 190.509 18.6137 190.46C17.1307 190.183 16.5037 188.99 15.6437 187.971C14.8717 187.056 14.3757 186.105 13.9817 184.978C13.7017 184.176 13.0397 183.452 11.8967 183.285C10.7217 183.114 10.2997 181.997 9.83265 180.831C9.57865 180.824 9.12867 180.808 8.52067 180.786C9.58067 179.385 8.32867 179.074 7.67167 178.32C6.23067 176.657 5.00566 174.813 3.65666 172.996Z" fill="#79C6B7"/>
<path fill-rule="evenodd" clip-rule="evenodd" d="M562.202 41.6122C562.947 41.7512 563.995 41.9842 565.056 42.1332C566.027 42.2692 567.014 42.3002 567.991 42.4052C568.69 42.4802 569.391 42.5662 570.078 42.7122C571.066 42.9232 572.042 43.1962 573.022 43.4412C573.231 43.4942 573.586 43.5002 573.624 43.6122C573.995 44.7242 575.562 44.7102 575.783 45.9772C575.902 46.6492 576.279 47.2762 576.379 47.9482C576.485 48.6652 576.376 49.4032 577.355 49.6102C577.529 49.6472 577.801 50.1102 577.741 50.2242C576.864 51.8682 577.52 53.7002 577.068 55.3782C576.935 55.8742 576.541 56.3012 576.255 56.7532C576.139 56.9332 575.919 57.0812 575.877 57.2722C575.588 58.6072 575.417 59.9772 575.038 61.2842C574.82 62.0352 574.317 62.7172 573.875 63.3862C573.617 63.7782 573.208 64.0682 572.902 64.4332C572.536 64.8732 572.286 65.4462 571.847 65.7802C570.611 66.7212 569.304 67.5672 568.216 68.3192C567.448 70.5712 569.002 72.7292 567.784 74.7772C567.713 74.8952 568.212 75.2712 568.271 75.5632C568.441 76.3962 568.785 77.3252 568.569 78.0742C568.314 78.9542 568.419 79.5462 568.78 80.3462C569.175 81.2232 569.551 82.1512 569.158 83.2902C568.893 84.0592 569.013 85.2512 569.46 85.9152C570.327 87.2002 569.493 89.0582 570.906 90.0042C572.575 91.1222 572.944 92.5982 572.512 94.4292C572.48 94.5642 572.618 94.7402 572.676 94.8922C574.578 94.3482 574.597 94.3792 574.922 96.4662C574.982 96.8572 575.371 97.1982 575.428 97.5892C575.478 97.9372 575.28 98.3202 575.14 98.8962C575.829 98.8842 576.4 98.8742 577.072 98.8612C577.122 99.9342 577.659 100.36 578.799 100.592C579.509 100.738 580.021 101.855 580.655 102.574C580.895 102.313 581.145 102.041 581.544 101.607C582.209 104.611 584.496 103.357 586.216 103.634C587.711 103.875 589.193 104.197 590.682 104.483C591.008 104.546 591.373 104.727 591.653 104.639C592.507 104.37 593.34 103.642 594.135 104.777C594.167 104.822 594.87 104.567 595.045 104.308C595.432 103.739 595.746 103.495 596.522 103.685C597.583 103.944 598.711 103.929 599.89 104.037C599.806 103.801 599.704 103.512 599.541 103.05C601.714 103.303 602.327 105.228 603.675 106.357C603.069 107.356 602.485 108.363 601.856 109.341C601.403 110.04 601.191 110.579 602.086 111.176C602.819 111.666 603.286 112.318 602.588 113.359C602.221 113.904 602.418 114.804 602.252 115.52C602.176 115.851 601.837 116.382 601.627 116.379C600.65 116.36 600.293 116.961 599.893 117.681C599.638 118.143 599.163 118.484 598.661 119.013C598.727 119.087 598.924 119.307 599.272 119.696C597.105 120.89 595.108 121.991 592.993 123.156C592.821 122.996 592.549 122.742 592.269 122.482C591.686 123.034 591.088 123.599 590.402 124.25C590.124 124.084 589.766 123.871 589.408 123.658C589.487 123.814 589.565 123.969 589.643 124.124C588.808 124.503 587.974 124.88 587.138 125.259C587.063 125.117 586.988 124.975 586.912 124.833C586.285 124.419 585.655 124.005 584.959 123.545C584.784 123.784 584.615 124.014 584.391 124.321C584.241 124.071 584.11 123.851 583.989 123.648C583.841 123.716 583.727 123.73 583.692 123.791C582.954 125.033 582.896 124.938 581.878 124.008C581.036 123.239 579.955 122.674 578.889 122.248C578.557 122.115 577.929 122.727 577.435 123C577.477 123.132 577.518 123.266 577.56 123.399C577.019 123.298 576.478 123.199 576.297 123.167C575.929 122.318 575.65 121.673 575.37 121.028C575.231 121.066 575.094 121.104 574.956 121.141C574.639 121.724 574.321 122.308 574.029 122.847C572.601 121.904 571.289 121.037 569.883 120.109C569.836 120.154 569.589 120.395 569.276 120.698C569.096 119.757 568.939 118.945 568.78 118.119C567.957 118.254 567.285 118.365 566.556 118.485C566.387 118.015 566.244 117.62 566.103 117.229C564.147 117.655 563.41 116.979 563.547 114.952C563.141 114.561 562.67 114.24 562.386 113.799C562.124 113.39 562.062 112.851 561.871 112.242C561.44 112.557 561.148 112.771 560.888 112.96C560.107 111.202 559.361 109.519 558.615 107.836C557.863 107.525 557.028 107.177 556.042 106.769C556.557 106.45 556.912 106.23 557.378 105.941C556.176 104.959 555.752 106.243 555.137 106.333C555.245 107.039 555.423 107.635 555.412 108.23C555.386 109.67 554.259 110.04 553.146 110.287C551.341 110.685 550.517 112.216 549.363 113.38C548.884 113.863 548.301 114.245 547.772 114.681C547.52 114.89 547.312 115.172 547.031 115.321C546.551 115.577 546.027 115.753 545.526 115.97C545.271 116.081 544.944 116.147 544.787 116.345C543.856 117.509 542.599 117.845 541.202 117.807C540.499 117.786 539.967 117.84 539.656 118.648C539.569 118.873 538.781 118.829 538.314 118.909C538.28 118.757 538.246 118.606 538.211 118.453C536.815 119.05 535.422 119.646 534.029 120.242C533.949 120.276 533.86 120.329 533.784 120.318C531.357 119.927 528.931 119.529 526.504 119.136C526.125 119.074 525.723 119.091 525.367 118.968C524.996 118.839 524.648 118.614 524.327 118.379C523.955 118.107 523.665 117.706 523.271 117.484C522.372 116.978 521.592 116.491 521.843 115.224C521.924 114.812 521.801 114.124 521.512 113.911C519.887 112.71 520.021 111.197 520.587 109.459C520.775 109.624 520.932 109.762 521.177 109.979C521.522 109.351 521.857 108.759 522.174 108.158C522.532 107.478 522.798 106.843 523.808 106.77C524.44 106.724 525.416 106.276 524.387 105.097C524.973 105.07 525.449 105.129 525.877 105.014C526.934 104.729 527.994 104.423 528.993 103.989C529.202 103.897 529.159 103.225 529.23 102.821C531.277 103.006 534.954 101.279 535.62 99.7412C536.048 99.7922 536.511 99.8472 536.83 99.8872C537.554 99.1982 538.242 98.5812 538.879 97.9172C539.121 97.6662 539.25 97.3072 539.425 96.9942C539.879 96.1772 540.364 95.4322 541.364 95.8952C541.698 95.4232 542.012 94.9602 542.347 94.5132C542.473 94.3432 542.725 94.2312 542.784 94.0492C543.259 92.5492 543.704 91.0402 544.15 89.5332C544.198 89.3702 544.158 89.1732 544.228 89.0232C544.777 87.8612 545.367 86.7192 545.889 85.5442C546.051 85.1782 546.03 84.7322 546.113 84.3282C546.3 83.4212 546.543 82.5232 546.679 81.6082C546.796 80.8172 546.792 80.0092 546.843 79.2222C546.524 79.1612 546.287 79.1162 545.977 79.0572C546.347 78.3532 546.623 77.6832 547.02 77.0932C548.221 75.3062 548.512 73.4342 548.051 71.3042C547.82 70.2342 548.148 69.0422 548.245 67.5742C547.639 67.1902 546.783 66.6592 545.943 66.1022C545.785 65.9972 545.716 65.7672 545.573 65.6272C544.972 65.0362 544.448 64.2882 543.73 63.9132C542.653 63.3512 541.991 62.5682 541.231 61.6212C539.689 59.6982 540.132 57.3512 539.364 55.2932C539.143 54.6992 540.038 53.6892 540.531 52.6372C539.968 51.6062 540.248 50.7102 541.561 49.7972C542.228 49.3352 542.728 48.6332 543.339 48.0832C543.588 47.8602 543.923 47.6422 544.239 47.6072C545.724 47.4412 546.372 46.3822 546.986 45.2252C547.139 44.9342 547.567 44.5112 547.757 44.5612C549.878 45.1302 551.77 44.2652 553.808 43.6912C553.389 42.6712 553.979 42.4992 554.818 42.5022C555.803 42.5072 556.797 42.5282 557.771 42.4122C558.152 42.3662 558.488 41.9632 558.83 41.9412C559.876 41.8402 560.921 41.7382 562.202 41.6122Z" fill="#79C6B7"/>
<path fill-rule="evenodd" clip-rule="evenodd" d="M41.2636 244.571C40.5096 243.613 40.9486 243.181 41.3776 242.485C41.9496 241.561 42.3627 240.322 42.2847 239.258C42.0727 236.292 43.1666 235.69 45.8976 234.286C46.8276 233.807 46.4686 233.208 46.0656 232.713C45.5876 232.127 45.3726 231.752 46.0306 231.086C46.3786 230.732 46.3156 229.977 46.4626 229.292C48.2026 229.905 48.6356 228.247 49.5896 227.508C50.0846 227.126 50.3236 226.407 50.6616 225.83C51.1436 225.005 51.2866 224.213 50.8156 223.265C50.4586 222.542 52.4976 221.121 53.5866 221.3C54.0126 221.37 54.4316 221.547 54.8556 221.555C55.1716 221.559 55.6756 221.468 55.7776 221.262C56.6196 219.553 58.2006 219.153 59.8436 218.772C61.4756 218.391 63.0706 217.834 64.7126 217.524C65.8826 217.304 67.1067 217.369 68.3097 217.306C68.3746 216.867 68.3216 216.339 68.5436 215.98C68.7426 215.658 69.3766 215.246 69.5886 215.347C71.4426 216.244 73.2376 215.705 75.0636 215.312C75.4606 215.228 75.9616 215.298 76.3326 215.473C77.4776 216.016 78.5256 216.938 79.7176 217.177C81.9916 217.63 83.0686 219.231 84.1796 220.941C84.9466 222.123 85.8236 223.233 86.6136 224.4C86.8306 224.721 87.1036 225.2 87.0096 225.498C86.7836 226.218 86.3256 226.87 87.3606 227.334C87.4316 227.365 87.4327 227.776 87.3317 227.903C87.2307 228.029 86.9356 228.099 86.7686 228.05C86.4186 227.947 86.0967 227.75 85.9177 227.665C86.3897 229.34 86.8986 231.029 87.3256 232.736C87.4466 233.214 87.3996 233.765 87.2986 234.256C87.0886 235.278 86.9026 236.203 87.4076 237.274C87.7086 237.912 87.4487 238.876 87.2847 239.66C86.8817 241.597 86.5486 243.438 86.9466 245.506C87.1796 246.714 86.2506 248.29 85.5006 249.485C85.0346 250.229 84.8046 250.536 85.5246 251.146C85.7376 251.326 85.7667 252.123 85.7407 252.13C84.3686 252.507 84.7306 254.862 82.8246 254.708C82.6726 254.695 82.4196 255.832 82.2266 256.437C82.1246 256.758 82.1486 257.171 81.9506 257.397C80.9006 258.605 80.8366 260.119 80.4846 261.567C79.9856 263.614 78.9606 265.248 76.7396 265.961C75.9826 266.203 75.2337 266.923 74.7927 267.621C73.7777 269.222 73.0136 270.979 72.0266 272.599C71.6856 273.159 70.9226 273.441 70.4636 273.952C69.8136 274.676 69.2346 274.223 68.5796 274.036C68.3206 273.962 67.9226 274.098 67.6836 274.27C66.6026 275.048 65.6096 275.961 64.4836 276.664C62.8566 277.681 61.0807 277.067 59.3537 276.907C58.2257 276.803 57.0906 276.758 55.9616 276.666C55.5986 276.637 55.2186 276.601 54.8826 276.472C53.8676 276.084 52.9026 275.494 51.8556 275.289C51.1416 275.149 50.7337 275.083 50.7327 274.275C50.7327 273.579 50.4216 273.393 49.6486 273.425C48.9506 273.455 48.1296 273.135 47.5476 272.714C46.8276 272.191 46.6326 271.079 45.5246 270.868C45.3626 270.837 45.3466 270.042 45.2706 269.63C44.1866 270.177 42.1277 269.13 41.4697 267.48C40.9007 266.052 40.2526 264.779 38.7806 264.02C38.3876 263.817 38.0556 262.979 38.1236 262.494C38.3726 260.752 38.0246 259.27 36.8236 257.959C35.7226 256.759 36.2786 255.325 36.3456 253.956C36.3896 253.076 37.5657 252.265 36.5217 251.311C36.4767 251.27 36.4726 251.125 36.5096 251.064C37.2106 249.921 37.9307 248.791 38.6247 247.643C39.0327 246.968 39.5426 246.307 39.7476 245.568C39.9576 244.815 39.9456 244.081 41.2636 244.571Z" fill="#79C6B7"/>
<path fill-rule="evenodd" clip-rule="evenodd" d="M281.875 108.945C281.936 109.57 281.972 109.935 282.054 110.777C283.09 109.821 283.827 109.051 284.667 108.416C284.966 108.187 285.513 108.286 286.002 108.228C286.485 107.206 286.93 105.933 287.651 104.843C288.223 103.976 290.168 104.215 291.307 105.106C291.62 104.772 291.919 104.181 292.249 104.163C292.672 104.141 293.109 104.603 293.561 104.81C293.964 104.993 294.399 105.112 294.819 105.26C294.981 104.784 295.292 104.303 295.28 103.831C295.238 102.09 295.197 102.099 296.92 102.312C297.17 102.343 297.453 102.322 297.686 102.232C298.595 101.878 299.362 102.065 300.101 102.684C300.377 102.916 300.784 103.084 301.143 103.108C301.953 103.163 302.62 103.258 302.295 104.049C304.114 104.227 305.88 104.314 307.615 104.603C308.8 104.799 309.91 105.266 310.503 106.522C310.654 106.84 311.245 106.95 311.691 107.186C312.547 109.255 313.914 111.097 316.095 112.407C316.614 112.061 317.198 111.673 317.797 111.275C318.852 113.496 318.775 115.664 317.656 117.083C320.166 117.981 321.421 120.843 319.932 122.372C321.681 123.5 319.758 124.16 319.464 124.929C319.27 125.436 318.349 126.549 317.233 125.304C318.793 126.473 318.535 128.128 318.679 129.661C319.295 129.461 319.841 129.284 320.57 129.046C319.822 130.785 318.737 131.576 317.318 131.525C317.288 130.698 316.987 130.107 315.953 130.512C317.121 132.818 316.983 133.236 315.244 133.594C315.273 134.215 315.234 134.792 315.352 135.337C315.406 135.586 315.74 135.888 315.998 135.948C316.273 136.013 316.609 135.821 317.039 135.707C316.959 136.804 316.602 137.257 315.587 137.257C314.964 137.257 314.347 137.608 313.72 137.774C313.06 137.949 312.397 138.198 311.727 138.226C310.296 138.284 309.296 139.017 308.665 140.177C308.361 140.737 308.446 141.504 308.339 142.176C308.306 142.378 308.212 142.572 308.217 142.555C307.404 142.716 306.75 142.846 305.941 143.007C305.794 142.819 305.483 142.421 305.17 142.023C305.053 142.048 304.936 142.073 304.817 142.098C304.886 142.681 304.957 143.263 305.039 143.959C304.946 144.042 304.567 144.221 304.454 144.506C304.041 145.542 303.558 145.736 302.367 145.468C301.705 145.318 300.75 146.436 299.941 147.004C299.702 147.173 299.535 147.448 299.295 147.619C298.64 148.088 297.699 148.185 297.535 149.275C297.492 149.56 296.756 149.727 296.353 149.972C295.817 150.295 295.298 150.641 294.771 150.977C294.792 151.136 294.815 151.296 294.837 151.454C294.542 151.271 294.247 151.087 293.954 150.905C293.714 150.758 293.308 150.441 293.263 150.487C292.483 151.267 291.846 150.645 291.075 150.467C290.565 150.349 289.872 151.018 289.261 151.334C289.352 151.495 289.442 151.656 289.532 151.817C290.042 151.54 290.553 151.263 291.087 150.973C291.302 152.029 290.197 153.175 289.362 152.78C288.605 152.422 288.049 152.084 287.326 152.892C287.097 153.148 286.357 152.946 286.1 152.95C285.235 152.207 284.503 151.58 283.685 150.879C283.512 151.18 283.398 151.377 283.299 151.55C281.964 151.384 281.515 150.458 281.213 149.298C281.105 148.889 280.616 148.335 280.251 148.296C279.736 148.239 279.171 148.584 278.639 148.785C278.258 148.93 277.793 149.347 277.543 149.237C277.198 149.086 277.035 148.54 276.767 148.186C276.473 147.799 276.15 147.123 275.832 147.119C274.967 147.108 274.928 146.647 274.733 146.008C274.423 145.004 274.43 143.601 272.602 143.969C271.915 144.108 271.092 143.733 270.363 143.491C269.406 143.175 269.125 142.09 269.639 141.248C270.355 140.08 269.491 139.162 269.14 138.022C268.726 138.286 268.297 138.402 268.187 138.655C267.573 140.063 266.924 139.206 266.173 138.801C264.684 137.994 264.028 136.772 263.817 135.122C263.723 134.391 263.796 133.983 264.403 133.621C265.227 133.127 264.974 132.568 264.582 131.869C264.097 131 263.764 130.038 263.451 129.089C263.399 128.932 263.751 128.495 263.989 128.42C265.16 128.051 265.351 127.505 264.56 126.589C264.374 126.376 264.215 126.14 263.944 125.781C264.883 125.582 265.669 125.414 266.589 125.218C265.99 124.028 265.214 122.901 266.353 122.022C266.783 121.692 267.757 122.071 268.8 122.151C268.866 121.584 269.185 120.645 269.028 119.793C268.8 118.564 269.375 117.743 269.849 116.774C270.554 117.058 271.139 117.293 272.141 117.696C272.035 116.505 271.949 115.614 271.882 114.723C271.855 114.377 271.879 114.028 271.88 113.681C272.184 113.853 272.5 114.008 272.789 114.202C273.221 114.493 273.633 114.812 274.362 115.346C274.287 114.435 274.356 113.94 274.196 113.536C273.55 111.903 274.587 110.942 275.659 110.161C275.976 109.929 277.011 110.269 277.414 110.659C278.075 111.299 278.377 111.341 279.075 110.678C279.8 109.988 280.793 109.592 281.875 108.945ZM311.534 135.66C311.331 135.605 311.128 135.55 310.926 135.495C310.807 136.001 310.69 136.506 310.572 137.013C310.727 137.054 310.884 137.096 311.04 137.138C311.204 136.646 311.368 136.153 311.534 135.66Z" fill="#79C6B7"/>
<path fill-rule="evenodd" clip-rule="evenodd" d="M283.352 206.289C283.005 205.152 282.671 204.3 282.512 203.415C282.44 203.027 282.587 202.382 282.868 202.186C284.478 201.063 284.96 200.348 285.023 198.951C286.074 198.293 287.102 197.893 287.719 197.15C288.001 196.812 287.472 195.797 287.294 195.021C287.378 195.016 287.695 194.995 287.732 194.993C288.237 192.921 288.722 190.932 289.104 189.375C290.369 188.224 292.009 187.433 292.132 186.45C292.305 185.078 293.645 184.68 293.75 183.49C293.773 183.218 293.974 182.877 294.2 182.721C296.212 181.335 297.894 179.483 300.454 178.877C301.521 178.623 302.422 177.61 303.361 176.897C304.239 176.229 305.061 175.887 306.229 176.342C306.807 176.569 307.679 176.314 308.321 176.044C310.41 175.167 310.394 175.126 311.879 176.015C313.069 175.508 314.097 175.071 314.728 174.801C315.743 175.318 316.426 175.628 317.072 176.005C317.573 176.298 318.021 176.678 318.497 177.013C319.289 177.568 320.055 178.176 320.902 178.627C321.089 178.727 321.572 178.27 322.06 177.985C321.578 177.646 321.282 177.439 320.976 177.222C321.414 176.859 321.822 176.521 322.401 176.042C322.584 177.369 322.776 178.587 323.962 178.543C324.538 179.477 325.079 180.127 325.352 180.876C325.562 181.45 325.435 182.147 325.452 182.65C325.998 183.275 326.496 183.926 327.08 184.486C327.469 184.861 327.957 185.153 328.44 185.406C329.256 185.833 329.895 186.258 328.852 187.071C329.792 187.972 330.445 188.963 330.168 190.22C329.859 191.637 331.102 191.108 331.675 191.518C331.543 191.913 331.413 192.302 331.305 192.624C331.626 192.757 332.124 192.874 332.121 192.973C332.065 194.487 333.631 195.681 333.046 197.227C332.799 197.876 332.177 198.413 331.641 198.908C331.393 199.138 330.943 199.15 330.627 199.248C330.533 200.78 332.63 202.358 330.278 203.602C330.437 204.628 330.235 205.318 329.027 205.693C328.533 205.847 328.078 206.857 328.019 207.514C327.905 208.815 327.497 209.768 326.39 210.547C325.311 211.306 324.413 212.318 323.392 213.168C323.056 213.447 322.562 213.529 322.188 213.773C321.857 213.987 321.561 214.276 321.303 214.576C320.888 215.061 320.599 215.698 320.106 216.067C318.978 216.914 317.743 217.614 316.585 218.422C316.166 218.714 315.656 219.076 315.502 219.517C314.607 222.064 312.189 222.292 310.17 223.058C308.652 223.634 307.042 223.976 305.458 224.362C305.135 224.44 304.535 224.365 304.422 224.161C303.63 222.74 302.23 223.404 301.471 223.142C300.839 223.632 300.397 224.266 299.986 224.247C297.486 224.132 297.233 223.906 296.781 222.08C295.016 221.524 294.991 221.477 295.651 220.182C294.618 219.837 293.578 219.489 292.419 219.102C292.426 218.989 292.443 218.707 292.46 218.428C292.359 218.407 292.256 218.351 292.201 218.381C291.341 218.856 290.504 218.622 289.938 217.994C289.164 217.133 287.748 216.607 288.166 214.967C288.241 214.674 287.788 214.178 287.485 213.868C286.859 213.226 286.11 212.694 285.538 212.012C285.354 211.793 285.467 211.207 285.609 210.855C285.922 210.073 285.809 209.525 284.91 209.471C283.867 209.409 283.511 209.217 284.428 208.338C284.618 208.154 284.574 207.727 284.639 207.41C284.507 207.342 284.374 207.275 284.243 207.206C283.813 207.7 283.42 208.232 282.942 208.675C282.694 208.904 282.298 208.974 281.969 209.118C282.011 208.785 282.082 208.452 282.09 208.119C282.099 207.683 282.089 207.242 282.027 206.812C281.984 206.523 281.835 206.249 281.643 205.716C282.291 205.933 282.636 206.049 283.352 206.289Z" fill="#79C6B7"/>
<path fill-rule="evenodd" clip-rule="evenodd" d="M63.4957 95.1222C64.7137 94.3722 65.6517 93.7942 66.6547 93.1772C66.9147 94.7982 67.1397 96.1972 67.3687 97.6212C67.5017 98.3352 67.6026 99.0622 67.7806 99.7702C67.8946 100.222 68.0927 100.664 68.3097 101.079C68.4847 101.415 68.7446 101.708 68.9706 102.017C69.4456 102.666 69.9237 103.315 70.3997 103.963C70.5057 103.902 70.6116 103.839 70.7166 103.779C70.7916 104.883 70.9387 105.988 70.9097 107.088C70.8967 107.574 70.6466 108.226 70.2806 108.478C69.9666 108.695 69.2007 108.616 68.8817 108.361C68.5917 108.13 68.5827 107.486 68.5497 107.016C68.5297 106.732 68.7607 106.437 68.7717 106.143C68.7827 105.872 68.7236 105.534 68.5576 105.347C68.4626 105.242 68.0276 105.301 67.8626 105.433C67.6626 105.593 67.5117 105.895 67.4697 106.157C67.3697 106.802 67.2707 107.464 67.3087 108.111C67.3377 108.58 67.4717 109.334 67.7627 109.448C68.9887 109.933 69.1466 110.73 68.8206 111.848C68.7366 112.14 68.8417 112.488 68.8697 112.991C68.5467 112.798 68.3226 112.738 68.2256 112.593C67.6836 111.784 67.3407 112.054 66.8987 112.72C66.4897 113.334 65.8686 113.809 65.4706 114.429C65.1756 114.893 65.0667 115.484 64.9156 116.031C64.8066 116.424 64.8837 116.918 64.6717 117.226C63.5827 118.804 62.5616 120.469 61.2466 121.843C60.3446 122.783 58.9976 123.3 57.8496 124.005C57.1606 124.429 56.3977 124.768 55.7967 125.295C55.0927 125.91 54.5816 126.011 53.9666 125.222C53.7666 124.965 53.3737 124.86 53.0687 124.684C52.9057 125.038 52.7377 125.389 52.5807 125.746C52.3907 126.175 52.2106 126.608 51.8976 126.991C51.7256 128.632 51.7297 128.61 50.0247 128.33C49.3977 128.225 48.6987 128.388 48.1227 128.181C47.3636 127.911 46.7676 127.374 46.9056 126.377C46.9336 126.172 46.6257 125.92 46.2346 125.331C46.0086 126.354 45.8667 127.003 45.7227 127.651C45.6327 127.67 45.5417 127.689 45.4517 127.709C45.2737 127.195 45.2016 126.6 44.8896 126.188C44.5406 125.73 43.9716 125.438 43.4846 125.341C42.7846 125.287 42.0847 125.237 41.3857 125.181C39.7467 125.048 38.0767 125.105 36.5557 124.28C36.3807 124.185 35.8727 124.363 35.7567 124.558C35.1407 125.586 34.2317 125.013 33.6927 124.741C33.2077 124.497 32.7587 123.633 32.7757 123.053C32.8057 121.947 32.3217 121.835 31.4417 121.859C29.4397 121.916 28.4307 121.106 28.0947 119.179C26.6647 119.649 26.4176 118.942 26.5476 117.683C26.6106 117.062 26.2956 116.412 26.2466 115.769C26.2046 115.224 26.3257 114.666 26.3257 114.115C26.3247 113.674 26.2366 113.233 26.2036 112.79C26.1196 111.652 25.8106 110.468 26.0176 109.384C26.4106 107.338 26.2587 106.722 24.0157 105.571C24.7887 105.263 25.2867 105.064 25.8007 104.859C25.4637 103.456 25.2067 101.941 24.7157 100.505C24.4317 99.6742 24.5127 98.8152 25.2797 98.3682C25.5817 98.1932 25.8197 97.9032 26.0727 97.6532C26.4547 97.2782 26.8637 96.9242 27.1887 96.5042C27.7397 95.7932 28.2456 95.0452 28.7466 94.2962C29.0366 93.8662 29.2777 93.4052 29.5067 93.0142C29.5487 92.4232 29.5367 91.8132 29.6767 91.2402C29.7047 91.1262 30.3137 91.1562 30.7357 91.1102C31.2117 90.0552 31.2116 90.0552 32.4156 90.4292C32.3966 90.3022 32.3787 90.1762 32.3577 90.0492C32.9337 89.9342 33.5096 89.8162 34.0866 89.7042C34.7956 89.5642 35.7316 89.7922 35.6556 88.5122C35.6366 88.2022 36.0617 87.7602 36.3907 87.5502C38.2447 86.3652 40.2857 86.2092 42.4257 86.4552C42.7507 86.4922 43.2916 85.9872 43.4746 85.6082C43.8006 84.9382 44.0447 84.8582 44.6287 85.3312C45.1267 85.7342 45.7337 86.0002 46.2927 86.3272C46.3477 86.2372 46.4007 86.1472 46.4567 86.0562C46.7917 86.5262 47.1276 86.9992 47.4626 87.4692C47.5656 87.3942 47.6677 87.3152 47.7707 87.2392C47.6077 87.0522 47.4456 86.8662 47.2596 86.6522C48.3166 86.2732 49.3567 85.9022 50.3877 85.5332C51.9477 87.0372 55.5757 87.6422 56.9387 86.4282C57.0207 86.9932 57.0947 87.4202 57.1457 87.8482C57.2077 88.3642 57.0607 89.1502 57.3387 89.3482C58.1147 89.9002 59.0607 90.5292 59.9477 90.5402C61.4877 90.5592 62.0796 91.8262 63.1386 92.4442C63.2426 92.5042 63.1077 92.9192 63.1447 93.1592C63.2447 93.8162 63.3767 94.4692 63.4957 95.1222ZM30.0457 97.4402C30.3747 97.1112 30.6126 96.9682 30.7076 96.7592C30.9336 96.2602 31.0907 95.7332 31.2747 95.2172C30.9717 95.1322 30.4307 94.9252 30.4007 94.9802C30.1197 95.5252 29.8996 96.1052 29.7246 96.6952C29.6816 96.8412 29.8707 97.0562 30.0457 97.4402Z" fill="#79C6B7"/>
<path fill-rule="evenodd" clip-rule="evenodd" d="M516.014 35.3192C516.097 34.7412 516.148 34.3822 516.199 34.0212C516.127 33.9852 516.054 33.9492 515.983 33.9122C515.723 34.3492 515.461 34.7862 515.137 35.3302C514.737 35.0442 514.397 34.8022 514.058 34.5592C513.537 34.1852 513.163 33.9852 512.533 34.6172C512.208 34.9432 511.248 34.6852 510.586 34.6042C510.316 34.5712 510.061 34.1492 509.82 34.1712C506.445 34.4642 505.07 31.2082 502.502 30.0862C501.924 28.3872 499.53 27.9092 499.587 25.7302C499.596 25.4452 498.958 25.1032 498.575 24.8572C497.743 24.3222 497.235 23.6792 497.381 22.6042C497.442 22.1662 497.265 21.6932 497.195 21.2372C497.142 20.8992 496.93 20.4732 497.062 20.2402C497.897 18.7572 497.28 17.1552 497.345 15.6512C497.413 14.0852 498.06 12.9592 498.726 11.7262C499.529 10.2322 500.277 8.70517 501.151 7.25417C501.478 6.71217 502.037 6.23918 502.597 5.92618C503.098 5.64518 503.763 5.67717 504.327 5.48917C506.511 4.76317 508.824 4.26318 510.821 3.18418C512.675 2.18218 514.724 2.74618 516.336 2.10718C518.501 1.24818 519.972 2.86517 521.795 2.63617C521.905 2.62217 522.04 2.72118 522.148 2.79018C524.025 3.98018 525.898 5.17418 527.772 6.37018C527.88 6.43818 527.973 6.59417 528.079 6.59917C529.989 6.68517 530.329 8.36618 530.517 9.57818C530.804 11.4292 531.899 12.9332 532.226 14.7222C532.292 15.0872 532.437 15.5302 532.701 15.7502C533.41 16.3382 533.308 16.9992 533.114 17.7502C532.672 19.4582 532.275 21.1772 531.856 22.8892C531.814 23.0522 531.796 23.2882 531.686 23.3582C530.329 24.1992 530.54 25.7692 529.964 26.9672C529.772 27.3682 529.442 27.7422 529.089 28.0202C528.234 28.6932 527.33 29.3052 526.444 29.9392C526.374 29.9892 526.232 30.0262 526.231 30.0702C526.213 32.3652 524.151 31.5872 523.025 32.2162C522.735 32.3792 522.498 32.6552 522.197 32.7832C520.707 33.4202 519.204 34.0252 517.705 34.6392C517.219 34.8382 516.733 35.0312 516.014 35.3192Z" fill="#79C6B7"/>
<path fill-rule="evenodd" clip-rule="evenodd" d="M616.257 81.3012C615.949 80.8492 615.67 80.4342 615.162 79.6862C615.122 80.3412 615.047 80.6452 615.096 80.9292C615.329 82.2822 614.512 83.1662 613.137 82.9852C611.755 82.8032 610.373 82.6112 609.002 82.3732C608.752 82.3292 608.494 82.0802 608.327 81.8602C607.83 81.2012 607.356 80.5232 606.911 79.8282C606.09 78.5482 605.296 77.2512 604.398 75.8102C603.647 75.7222 602.717 74.3302 602.938 73.1812C603.101 72.3302 603.416 71.5002 603.496 70.6442C603.554 70.0092 603.346 69.3492 603.138 68.7272C603.178 68.0072 603.12 67.2642 603.286 66.5742C603.444 65.9222 603.698 65.1812 604.158 64.7362C605.032 63.8942 606.454 64.1212 607.372 62.8972C607.842 62.2692 609.663 62.6572 611.101 62.5732C611.343 62.1102 610.319 60.6552 611.98 60.5692C612.168 60.5592 612.386 61.1792 612.758 61.7762C613.182 62.3272 613.8 63.1432 614.435 63.9472C614.638 64.2032 614.919 64.6472 615.104 64.6192C616.079 64.4672 616.408 65.0412 616.917 65.7282C618.154 67.3962 618.178 67.8112 616.261 69.2272C617.074 69.0982 617.596 69.0142 618.282 68.9032C618.171 70.1772 618.057 71.3802 617.968 72.5852C617.919 73.2592 617.77 73.9722 617.92 74.6082C618.25 76.0202 618.108 77.2802 617.379 78.5492C616.914 79.3582 616.661 80.2882 616.257 81.3012Z" fill="#79C6B7"/>
<path fill-rule="evenodd" clip-rule="evenodd" d="M634.783 71.4452C634.765 71.7082 634.728 72.2552 634.696 72.7442C632.47 73.2572 630.404 73.1542 628.628 71.6492C628.254 71.3332 627.864 70.9142 627.723 70.4662C627.169 68.7112 626.487 66.9502 626.286 65.1432C626.108 63.5412 626.784 62.1202 627.931 60.7322C629.441 58.9062 630.942 58.7112 632.892 59.5202C633.455 59.7542 634.014 60.0012 634.583 60.2202C635.082 60.4112 635.581 60.6412 636.102 60.7312C637.135 60.9072 638.077 61.0692 638.068 62.4622C638.066 62.8412 638.313 63.3042 638.59 63.5872C639.802 64.8302 639.962 66.3542 639.091 67.8692C638.688 68.5722 638.537 69.4172 638.167 70.1432C637.854 70.7572 637.5 71.5622 636.959 71.7872C636.426 72.0082 635.634 71.6072 634.783 71.4452Z" fill="#79C6B7"/>
<path fill-rule="evenodd" clip-rule="evenodd" d="M513.131 77.0982C511.059 78.9682 508.103 78.4552 506.457 77.0842C506.18 76.8532 505.767 76.7822 505.411 76.6562C505.173 76.5732 504.772 76.5962 504.704 76.4492C504.214 75.4072 503.651 74.6072 502.391 74.2522C501.966 74.1322 501.562 72.8472 501.664 72.1712C501.9 70.5892 501.625 68.8222 502.914 67.5122C502.975 67.4492 503.01 67.3472 503.081 67.3132C504.352 66.7102 505.431 65.9722 505.998 64.5532C506.222 63.9892 506.91 63.9442 507.268 64.7192C507.688 65.6252 508.257 66.2042 509.319 65.3232C509.745 65.9662 510.121 66.5322 510.535 67.1572C510.792 66.8042 511.036 66.4692 511.389 65.9862C511.845 67.0862 512.377 68.0262 512.617 69.0352C512.908 70.2592 512.95 71.5392 513.112 72.8862C511.871 73.3792 511.674 74.0832 512.599 75.1862C512.968 75.6312 512.951 76.4022 513.131 77.0982Z" fill="#79C6B7"/>
<path fill-rule="evenodd" clip-rule="evenodd" d="M497.287 76.4112C496.933 76.1162 496.659 75.8862 496.384 75.6572C496.326 75.7012 496.267 75.7452 496.209 75.7902C496.553 76.4072 496.999 76.9912 497.213 77.6522C497.413 78.2632 497.593 79.0572 497.359 79.5802C497.164 80.0142 496.374 80.3302 495.805 80.4152C493.822 80.7072 492.037 80.0862 490.117 79.4962C487.878 78.8082 487.475 77.1232 486.554 75.6062C486.467 75.4622 486.365 75.2802 486.386 75.1312C486.546 73.8972 486.734 72.6662 486.915 71.4182C487.519 71.4792 488.273 71.5552 489.132 71.6422C489.315 71.0972 489.526 70.4672 489.759 69.7662C489.597 69.7002 489.41 69.6282 489.228 69.5462C488.961 69.4242 488.695 69.2952 488.429 69.1692C488.601 68.9232 488.717 68.5722 488.952 68.4452C490.403 67.6672 491.902 67.8232 493.484 68.3932C493.407 68.8572 493.318 69.3832 493.231 69.9102C493.296 69.9642 493.36 70.0182 493.425 70.0732C493.7 69.7882 493.976 69.5022 494.072 69.4022C495.016 70.2352 495.905 71.1032 496.882 71.8582C498.08 72.7842 498.335 74.6742 497.287 76.4112Z" fill="#79C6B7"/>
<path fill-rule="evenodd" clip-rule="evenodd" d="M349.912 226.38C349.694 226.575 349.465 226.757 349.26 226.964C348.339 227.895 347.035 227.652 346.566 226.394C346.272 225.606 346.05 224.768 345.966 223.934C345.928 223.561 346.301 223.146 346.768 222.709C347.097 224.642 347.152 226.647 350.12 225.959C350.05 226.1 349.982 226.24 349.912 226.38Z" fill="#79C6B7"/>
<path fill-rule="evenodd" clip-rule="evenodd" d="M263.728 121.424C264.194 121.58 265.001 121.652 265.064 121.908C265.261 122.705 265.359 123.632 265.118 124.388C265.011 124.722 263.998 124.768 263.397 124.946C263.315 124.594 263.115 124.217 263.18 123.897C263.316 123.223 263.594 122.578 263.813 121.92C263.784 121.756 263.756 121.59 263.728 121.424Z" fill="#79C6B7"/>
<path fill-rule="evenodd" clip-rule="evenodd" d="M78.6027 89.1502C78.6907 88.9842 78.8896 88.6162 79.0916 88.2402C80.5586 89.3442 80.7286 90.0152 79.7946 90.4752C79.4416 90.0822 79.0997 89.7032 78.6027 89.1502Z" fill="#79C6B7"/>
<path fill-rule="evenodd" clip-rule="evenodd" d="M350.065 217.832C348.851 217.873 348.418 217.419 348.625 216.612C348.685 216.373 349.115 216.23 349.375 216.042C349.606 216.64 349.835 217.235 350.065 217.832Z" fill="#79C6B7"/>
<path fill-rule="evenodd" clip-rule="evenodd" d="M578.278 125.471C578.366 124.638 578.456 123.805 578.55 122.918C578.863 123.006 579.25 123.113 579.844 123.278C579.427 124.119 579.031 124.919 578.634 125.718C578.514 125.637 578.397 125.554 578.278 125.471Z" fill="#79C6B7"/>
<path fill-rule="evenodd" clip-rule="evenodd" d="M104.101 147.883C104.857 147.358 105.254 147.084 106.008 146.561C106.056 147.429 106.089 147.993 106.12 148.556C105.562 148.369 105.004 148.184 104.101 147.883Z" fill="#79C6B7"/>
<path fill-rule="evenodd" clip-rule="evenodd" d="M113.393 278.573C113.978 276.718 114.365 276.573 115.728 277.597C114.961 277.918 114.3 278.194 113.393 278.573Z" fill="#79C6B7"/>
<path fill-rule="evenodd" clip-rule="evenodd" d="M198.822 65.0622C198.151 64.9132 197.493 64.7202 197.647 63.7772C197.675 63.6112 198 63.4932 198.186 63.3552C198.527 63.8322 198.868 64.3072 199.21 64.7842C199.081 64.8772 198.951 64.9692 198.822 65.0622Z" fill="#79C6B7"/>
<path fill-rule="evenodd" clip-rule="evenodd" d="M170.129 30.0342C171.081 29.4302 171.697 29.0382 172.313 28.6472C172.398 28.7042 172.483 28.7622 172.568 28.8182C172.124 29.3872 171.714 29.9902 171.202 30.4912C171.111 30.5812 170.601 30.2442 170.129 30.0342Z" fill="#79C6B7"/>
<path fill-rule="evenodd" clip-rule="evenodd" d="M285.139 197.974C284.319 196.641 284.473 196.435 286.583 196.179C286.042 196.852 285.633 197.36 285.139 197.974Z" fill="#79C6B7"/>
<path fill-rule="evenodd" clip-rule="evenodd" d="M58.6686 89.3282C59.0076 88.9702 59.3477 88.6132 59.9087 88.0222C60.0387 88.5672 60.2817 89.1132 60.1707 89.1972C59.7927 89.4852 59.2907 89.6132 58.8357 89.8012C58.7807 89.6432 58.7236 89.4852 58.6686 89.3282Z" fill="#79C6B7"/>
<path fill-rule="evenodd" clip-rule="evenodd" d="M374.168 152.966C374.008 152.475 373.838 151.986 373.713 151.487C373.707 151.461 374.214 151.262 374.222 151.278C374.458 151.74 374.662 152.217 374.871 152.693C374.637 152.783 374.403 152.876 374.168 152.966Z" fill="#79C6B7"/>
<path fill-rule="evenodd" clip-rule="evenodd" d="M351.384 150.386C350.997 150.287 350.606 150.202 350.222 150.09C349.847 149.981 349.479 149.846 349.124 149.726C349.83 149.093 350.43 149.197 351.384 150.386Z" fill="#79C6B7"/>
<path fill-rule="evenodd" clip-rule="evenodd" d="M201.385 62.0752C200.738 62.6332 200.369 62.9502 199.897 63.3572C199.566 63.0122 199.267 62.6982 198.828 62.2392C199.699 62.1832 200.333 62.1432 201.385 62.0752Z" fill="#79C6B7"/>
<path fill-rule="evenodd" clip-rule="evenodd" d="M615.833 64.0812C615.514 63.4812 615.195 62.8822 614.874 62.2832C615.064 62.1872 615.253 62.0902 615.444 61.9922C615.747 62.6012 616.051 63.2082 616.356 63.8172C616.181 63.9052 616.008 63.9932 615.833 64.0812Z" fill="#79C6B7"/>
<path fill-rule="evenodd" clip-rule="evenodd" d="M313.022 85.0482C313.183 84.8522 313.316 84.5332 313.513 84.4892C313.848 84.4112 314.237 84.4582 314.569 84.5602C314.662 84.5892 314.636 84.9982 314.666 85.2302C314.313 85.2652 313.958 85.3352 313.61 85.3152C313.41 85.3032 313.219 85.1432 313.025 85.0492L313.022 85.0482Z" fill="#79C6B7"/>
<path fill-rule="evenodd" clip-rule="evenodd" d="M301.57 92.9792C301.153 93.0872 300.809 93.2512 300.75 93.1802C300.532 92.9102 300.365 92.5752 300.274 92.2392C300.254 92.1632 300.618 91.9842 300.806 91.8512C301.027 92.1792 301.249 92.5052 301.57 92.9792Z" fill="#79C6B7"/>
<path fill-rule="evenodd" clip-rule="evenodd" d="M343.536 148.75C343.101 148.932 342.823 149.129 342.547 149.125C342.437 149.124 342.182 148.595 342.261 148.453C342.388 148.221 342.722 148.035 342.995 147.988C343.103 147.971 343.284 148.381 343.536 148.75Z" fill="#79C6B7"/>
<path fill-rule="evenodd" clip-rule="evenodd" d="M83.2797 89.2292C82.9467 89.7392 82.6137 90.2492 82.2787 90.7602C82.1227 90.6642 81.9666 90.5692 81.8116 90.4742C82.1236 89.9512 82.4357 89.4252 82.7477 88.9022C82.9247 89.0122 83.1027 89.1202 83.2797 89.2292Z" fill="#79C6B7"/>
<path fill-rule="evenodd" clip-rule="evenodd" d="M104.992 187.306C104.595 186.723 104.216 186.168 103.948 185.773C104.195 185.034 104.41 184.39 104.692 183.546C105.424 183.765 106.289 184.215 106.567 185.185C106.926 186.447 105.902 186.878 104.992 187.306Z" fill="#79C6B7"/>
<path fill-rule="evenodd" clip-rule="evenodd" d="M99.5616 180.463C100.67 181.317 101.779 182.171 102.886 183.025C102.788 183.202 102.689 183.377 102.59 183.552C101.638 183.165 100.604 182.901 99.7676 182.34C99.3426 182.056 99.2756 181.24 99.0486 180.663C99.2206 180.597 99.3906 180.53 99.5616 180.463Z" fill="#79C6B7"/>
<path fill-rule="evenodd" clip-rule="evenodd" d="M108.801 188.42C107.847 188.41 107.192 188.404 106.538 188.397C106.518 188.276 106.499 188.155 106.48 188.034C106.957 187.539 107.435 187.046 108.084 186.374C108.333 187.088 108.507 187.585 108.801 188.42Z" fill="#79C6B7"/>
<path fill-rule="evenodd" clip-rule="evenodd" d="M436.704 39.0432C436.313 38.6572 435.922 38.2692 435.532 37.8822C435.674 37.7342 435.818 37.5852 435.96 37.4372C436.363 37.8142 436.767 38.1902 437.171 38.5672C437.015 38.7252 436.861 38.8842 436.704 39.0432Z" fill="#79C6B7"/>
<path fill-rule="evenodd" clip-rule="evenodd" d="M437.902 36.2252C438.46 36.7582 439.017 37.2892 439.575 37.8222C439.49 37.9112 439.405 37.9982 439.32 38.0882C438.697 37.6152 438.073 37.1432 437.448 36.6702C437.599 36.5202 437.751 36.3732 437.902 36.2252Z" fill="#79C6B7"/>
<path fill-rule="evenodd" clip-rule="evenodd" d="M311.534 135.66C311.368 136.153 311.204 136.646 311.04 137.139C310.884 137.097 310.727 137.055 310.572 137.014C310.69 136.507 310.807 136.002 310.926 135.496C311.128 135.549 311.331 135.605 311.534 135.66Z" fill="#79C6B7"/>
<path fill-rule="evenodd" clip-rule="evenodd" d="M30.0457 97.4402C29.8717 97.0561 29.6816 96.8401 29.7246 96.6961C29.8996 96.1061 30.1207 95.5262 30.4007 94.9812C30.4297 94.9252 30.9707 95.1321 31.2747 95.2181C31.0897 95.7331 30.9336 96.2612 30.7076 96.7602C30.6126 96.9692 30.3747 97.1121 30.0457 97.4402Z" fill="#79C6B7"/>
</svg>
