<?xml version="1.0" encoding="utf-8"?>
<!-- Generator: Adobe Illustrator 16.0.0, SVG Export Plug-In . SVG Version: 6.00 Build 0)  -->
<!DOCTYPE svg PUBLIC "-//W3C//DTD SVG 1.1//EN" "http://www.w3.org/Graphics/SVG/1.1/DTD/svg11.dtd">
<svg version="1.1" id="圖層_1" xmlns="http://www.w3.org/2000/svg" xmlns:xlink="http://www.w3.org/1999/xlink" x="0px" y="0px"
	 width="437px" height="189px" viewBox="0 0 437 189" enable-background="new 0 0 437 189" xml:space="preserve">
<g>
	<path fill="#FFFFFF" stroke="#FFFFFF" stroke-miterlimit="10" d="M50.379,160.26c-2.594,0-4.765-0.687-6.451-2.04
		c-1.822-1.454-2.747-3.595-2.747-6.358c0-5.529,3.896-9.375,11.581-11.43c6.865-1.837,13.598-2.768,20.012-2.768
		c1.738,0,2.902-0.352,3.194-0.962c0.543-1.142,0.848-2.46,0.906-3.916c0.064-1.688,0.099-2.797,0.099-3.319l0.202-4.687
		c0.264-4.259,0.397-7.38,0.397-9.312c0-1.519-0.24-3.07-0.712-4.611c-0.366-1.187-0.731-1.187-0.887-1.187
		c-0.358,0-1.22,0.119-2.968,0.919c-1.876,0.861-3.392,1.28-4.631,1.28c-2.491,0-4.716-0.839-6.613-2.492
		c-1.979-1.716-2.985-3.905-2.985-6.506c0-4.12,4.628-7.582,14.563-10.896c3.772-1.372,4.484-2.072,4.553-2.148
		c0-0.005,0.521-0.78,0.681-4.44l0.198-3.366c-0.003-0.432-0.039-0.708-0.071-0.873c-0.165-0.032-0.442-0.068-0.875-0.071
		l-3.652,0.2c-2.606,0-5.123-0.997-7.479-2.964c-2.467-2.053-3.718-4.42-3.718-7.034c0-1.028,0.295-2.413,0.903-4.232l0.19-0.569
		l8.379-6.568l0.646-0.025c6.786-0.271,11.652-0.402,14.876-0.402c3.698,0,7.39,0.349,10.974,1.036
		c5.639,1.088,6.822,3.844,6.822,5.963c0,2.628-0.757,4.566-2.25,5.761c-1.236,0.989-2.949,1.764-5.236,2.371
		c-2.448,0.723-3.62,1.395-4.163,1.828c-0.469,0.375-0.749,1.511-0.749,3.037c0,3.997,0.42,5.956,0.772,6.896
		c0.36,0.959,2.301,1.103,3.426,1.103c0.164,0,0.665-0.032,1.781-0.332c1.205-0.32,2.099-0.469,2.818-0.469
		c1.865,0,3.623,0.555,5.226,1.647c2.292,1.575,2.772,3.562,2.772,4.952c0,2.878-1.106,5.229-3.2,6.799
		c-1.774,1.33-4.167,2.533-7.315,3.679c-1.18,0.474-2.333,1.034-3.367,1.644c-0.92,0.543-1.319,1.002-1.492,1.309
		c-0.475,1.241-1.022,3.83-1.022,9.165c0,4.771-0.068,8.507-0.203,11.103c-0.143,2.688-0.641,5.469-1.481,8.27
		c-0.277,0.828-0.315,1.244-0.315,1.424c0.001,0.046,0.612,0.8,4.199,0.8c5.104,0,12.621-0.134,22.34-0.397
		c10.021-0.271,17.365-0.401,22.449-0.401c4.945,0,19.995,0,19.995,9.397c0,3.904-1.911,6.675-5.381,7.802
		c-2.85,0.927-6.354,1.397-10.415,1.397c-17.75,0-35.832,0.2-53.742,0.599l-5.443,0.001c-0.748,0-2.95,0.063-6.93,0.199
		c-3.737,0.129-7.261,0.52-10.474,1.16l-0.106,0.02c-0.837,0.121-2.161,0.438-3.937,0.943l-0.104,0.026
		C58.152,159.589,53.625,160.26,50.379,160.26z M19.386,149.063c-2.401,0-4.629-0.688-6.624-2.047
		c-2.206-1.494-3.374-3.691-3.374-6.352c0-2.617,1.787-5.492,5.464-8.788c3.307-2.961,7.102-5.608,11.281-7.868
		c4.401-2.382,7.688-3.54,10.049-3.54c2.808,0,4.377,1.306,5.199,2.398c1.062,1.42,1.6,3.168,1.6,5.2c0,2.91-1.397,5.98-4.271,9.389
		c-2.665,3.152-5.853,5.882-9.479,8.111C25.409,147.919,22.188,149.063,19.386,149.063z M19.386,118.869
		c-2.191,0-4.04-0.84-5.345-2.43c-1.229-1.488-1.854-3.297-1.854-5.369c0-4.836,2.983-10.598,17.196-10.598
		c3.328,0,6.427,0.631,9.213,1.873c3.262,1.461,4.984,4.133,4.984,7.725c0,1.765-0.849,3.464-2.524,5.052
		c-1.647,1.558-3.354,2.348-5.074,2.348c-0.95,0-2.261-0.178-4.008-0.542c-1.828-0.379-2.744-0.458-3.19-0.458
		c-0.463,0-1.61,0.14-4.096,1.072C22.272,118.447,20.588,118.869,19.386,118.869z M36.182,88.877c-2.334,0-4.886-0.5-7.586-1.485
		c-2.977-0.739-5.2-1.114-6.61-1.114c-1.363,0-3.295-0.563-4.755-3.242c-0.958-1.755-1.443-3.49-1.443-5.156
		c0-2.978,1.682-5.21,4.734-6.285c2.465-0.871,5.111-1.313,7.863-1.313c4.009,0,7.594,0.737,10.656,2.192
		c3.495,1.667,5.341,4.711,5.341,8.806c0,2.158-0.854,4.059-2.472,5.494C40.342,88.168,38.415,88.877,36.182,88.877z"/>
	<path fill="#FFFFFF" stroke="#FFFFFF" stroke-miterlimit="10" d="M87.97,61.482c3.599,0,7.129,0.335,10.597,1
		c3.465,0.669,5.199,2,5.199,3.999c0,2-0.5,3.399-1.5,4.199c-1,0.8-2.5,1.469-4.499,1.999c-2.268,0.669-3.899,1.4-4.899,2.2
		c-1,0.8-1.5,2.334-1.5,4.599c0,3.468,0.3,5.998,0.9,7.598c0.6,1.6,2.365,2.4,5.299,2.4c0.531,0,1.299-0.132,2.299-0.4
		c1-0.266,1.765-0.4,2.299-0.4c1.465,0,2.831,0.435,4.099,1.3c1.265,0.869,1.899,1.969,1.899,3.3c0,2.268-0.8,4-2.399,5.199
		c-1.6,1.199-3.868,2.334-6.798,3.398c-1.334,0.534-2.568,1.134-3.699,1.8c-1.134,0.668-1.899,1.399-2.299,2.199
		c-0.8,1.999-1.2,5.333-1.2,9.997c0,4.799-0.069,8.467-0.2,10.998c-0.134,2.533-0.6,5.133-1.399,7.798
		c-0.269,0.8-0.4,1.469-0.4,1.999c0,1.869,2.065,2.8,6.199,2.8c5.064,0,12.528-0.131,22.396-0.399
		c9.863-0.266,17.327-0.399,22.395-0.399c11.997,0,17.995,2.468,17.995,7.397c0,3.067-1.334,5.033-3.999,5.898
		c-2.668,0.868-5.933,1.3-9.797,1.3c-17.864,0-35.792,0.2-53.787,0.601h-5.4c-0.8,0-3.134,0.067-6.999,0.199
		c-3.868,0.135-7.467,0.534-10.797,1.199c-0.935,0.135-2.334,0.469-4.199,1c-5.867,1.334-10.332,2-13.396,2
		c-2.134,0-3.868-0.531-5.199-1.6c-1.334-1.065-1.999-2.665-1.999-4.799c0-4.53,3.365-7.698,10.097-9.498
		c6.729-1.801,13.228-2.699,19.496-2.699c2.665,0,4.33-0.7,4.999-2.1c0.666-1.399,1.031-2.965,1.1-4.699
		c0.066-1.73,0.1-2.864,0.1-3.398l0.2-4.6c0.265-4.266,0.399-7.398,0.399-9.397c0-1.729-0.27-3.465-0.8-5.198
		c-0.534-1.73-1.468-2.6-2.799-2.6c-0.935,0-2.2,0.368-3.799,1.1c-1.6,0.734-2.868,1.101-3.799,1.101c-1.999,0-3.768-0.665-5.298-2
		c-1.534-1.33-2.299-2.999-2.299-4.998c0-3.065,4.398-6.063,13.196-8.998c2.931-1.065,4.73-1.965,5.399-2.699
		c0.666-0.731,1.065-2.631,1.2-5.699l0.2-3.398c0-1.2-0.2-2-0.6-2.399c-0.4-0.4-1.2-0.601-2.399-0.601l-3.599,0.2
		c-2.134,0-4.199-0.831-6.198-2.499c-2-1.665-3-3.499-3-5.499c0-0.8,0.266-1.999,0.8-3.599l7.398-5.799
		C79.837,61.617,84.771,61.482,87.97,61.482 M28.384,72.28c3.73,0,6.999,0.669,9.798,1.999c2.799,1.335,4.199,3.668,4.199,6.999
		c0,1.6-0.6,2.934-1.8,3.999c-1.2,1.068-2.668,1.6-4.399,1.6c-2.134,0-4.468-0.466-6.999-1.4c-3.199-0.799-5.599-1.199-7.198-1.199
		c-1.199,0-2.199-0.731-2.999-2.199c-0.8-1.466-1.2-2.865-1.2-4.199c0-2.131,1.131-3.6,3.399-4.398
		C23.451,72.68,25.85,72.28,28.384,72.28 M29.384,102.473c3.065,0,5.864,0.569,8.398,1.7c2.531,1.134,3.799,3.099,3.799,5.897
		c0,1.199-0.634,2.399-1.9,3.6c-1.269,1.2-2.5,1.8-3.699,1.8c-0.8,0-2-0.165-3.6-0.5c-1.6-0.331-2.799-0.5-3.599-0.5
		c-1.069,0-2.668,0.4-4.799,1.2c-2.134,0.8-3.668,1.199-4.599,1.199c-1.6,0-2.868-0.564-3.799-1.699
		c-0.934-1.131-1.399-2.5-1.399-4.1C14.188,105.341,19.252,102.473,29.384,102.473 M36.182,122.468c1.6,0,2.799,0.534,3.599,1.601
		c0.8,1.067,1.2,2.398,1.2,3.998c0,2.399-1.269,5.1-3.799,8.1c-2.534,2.999-5.533,5.566-8.998,7.698
		c-3.468,2.134-6.398,3.198-8.798,3.198c-2,0-3.833-0.565-5.499-1.699c-1.668-1.131-2.5-2.699-2.5-4.698c0-2,1.6-4.431,4.799-7.299
		c3.199-2.865,6.83-5.398,10.897-7.599C31.149,123.566,34.183,122.468,36.182,122.468 M87.97,57.482
		c-3.251,0-8.144,0.132-14.956,0.403l-1.292,0.052l-1.017,0.797l-7.398,5.799l-0.946,0.741l-0.38,1.141
		c-0.686,2.055-1.006,3.601-1.006,4.865c0,2.225,0.771,5.518,4.44,8.573c2.722,2.271,5.67,3.425,8.757,3.425h0.111l0.111-0.006
		l2.307-0.129l-0.124,2.098l-0.002,0.03l-0.001,0.03c-0.081,1.844-0.251,2.813-0.361,3.268c-0.456,0.262-1.468,0.767-3.559,1.528
		c-7.405,2.474-15.879,6.161-15.879,12.775c0,3.16,1.272,5.935,3.679,8.021c2.263,1.975,4.93,2.979,7.918,2.979
		c1.555,0,3.292-0.465,5.468-1.465c0.515-0.235,0.922-0.396,1.238-0.504c0.326,1.195,0.491,2.395,0.491,3.566
		c0,1.891-0.132,4.969-0.392,9.149l-0.002,0.037l-0.001,0.036l-0.2,4.601l-0.004,0.087v0.087c0,0.461-0.033,1.554-0.097,3.246
		c-0.042,1.049-0.227,1.968-0.564,2.793c-0.236,0.066-0.71,0.158-1.537,0.158c-6.588,0-13.495,0.954-20.529,2.835
		c-10.797,2.887-13.063,8.859-13.063,13.361c0,4.238,1.905,6.648,3.503,7.925c2.042,1.641,4.634,2.475,7.695,2.475
		c3.397,0,8.069-0.687,14.283-2.1l0.105-0.022l0.104-0.031c2.104-0.6,3.16-0.813,3.674-0.888l0.107-0.016l0.105-0.021
		c3.106-0.621,6.522-1,10.152-1.125c1.433-0.049,5.799-0.197,6.86-0.197h5.399h0.044l0.044-0.002
		c17.896-0.396,35.963-0.599,53.698-0.599c4.271,0,7.984-0.503,11.035-1.495c4.296-1.396,6.761-4.933,6.761-9.703
		c0-7.563-7.4-11.397-21.995-11.397c-5.103,0-12.463,0.132-22.502,0.401c-9.703,0.265-17.201,0.397-22.287,0.397
		c-0.79,0-1.39-0.039-1.837-0.092c0.808-2.804,1.289-5.591,1.432-8.293c0.137-2.634,0.206-6.403,0.206-11.21
		c0-4.9,0.468-7.201,0.81-8.227c0.092-0.094,0.302-0.277,0.719-0.523c0.932-0.549,1.975-1.057,3.1-1.51
		c3.305-1.207,5.847-2.494,7.769-3.938c1.823-1.367,3.999-3.936,3.999-8.397c0-2.644-1.291-4.986-3.634-6.597
		c-1.952-1.332-4.09-2.003-6.364-2.003c-0.897,0-1.955,0.17-3.327,0.534c-0.93,0.25-1.274,0.267-1.289,0.267
		c-0.883,0-1.395-0.099-1.656-0.174c-0.235-0.831-0.526-2.525-0.526-5.824c0-0.924,0.113-1.405,0.176-1.604
		c0.403-0.268,1.33-0.758,3.304-1.344c2.534-0.678,4.469-1.569,5.916-2.727c1.992-1.594,3.001-4.058,3.001-7.323
		c0-2.352-1.097-6.509-8.44-7.927C95.613,57.843,91.794,57.482,87.97,57.482L87.97,57.482z M28.384,68.28
		c-2.979,0-5.85,0.479-8.531,1.429c-3.854,1.357-6.066,4.336-6.066,8.17c0,2.005,0.568,4.062,1.688,6.115
		c2.031,3.727,4.951,4.283,6.51,4.283c0.852,0,2.586,0.181,6.027,1.03c2.883,1.041,5.631,1.569,8.17,1.569
		c2.699,0,5.14-0.903,7.059-2.612c2.053-1.823,3.14-4.24,3.14-6.986c0-4.85-2.3-8.617-6.478-10.609
		C36.566,69.083,32.692,68.28,28.384,68.28L28.384,68.28z M29.384,98.473c-5.821,0-10.194,0.873-13.368,2.67
		c-3.813,2.157-5.829,5.59-5.829,9.928c0,2.552,0.779,4.787,2.315,6.646c1.691,2.061,4.074,3.152,6.883,3.152
		c1.469,0,3.32-0.448,6.003-1.453c2.449-0.92,3.305-0.946,3.395-0.946c0.232,0,0.97,0.041,2.788,0.417
		c0.312,0.065,0.609,0.124,0.896,0.18c-2.049,0.595-4.442,1.644-7.288,3.185c-4.315,2.333-8.239,5.069-11.662,8.136
		c-4.183,3.75-6.13,7.016-6.13,10.278c0,3.305,1.511,6.149,4.255,8.01c2.326,1.583,4.933,2.39,7.743,2.39
		c3.183,0,6.747-1.24,10.894-3.793c3.806-2.34,7.156-5.209,9.957-8.523c3.192-3.784,4.744-7.277,4.744-10.68
		c0-2.475-0.672-4.627-1.998-6.396c-0.775-1.033-2.035-2.203-3.986-2.803c1.179-0.479,2.327-1.245,3.433-2.292
		c2.091-1.981,3.151-4.169,3.151-6.504c0-4.378-2.189-7.769-6.164-9.55C36.368,99.161,32.994,98.473,29.384,98.473L29.384,98.473z"
		/>
</g>
<g>
	<path fill="#FFFFFF" stroke="#FFFFFF" stroke-miterlimit="10" d="M222.271,160.26c-2.594,0-4.765-0.687-6.451-2.04
		c-1.822-1.454-2.747-3.595-2.747-6.358c0-5.529,3.896-9.375,11.581-11.43c6.864-1.837,13.598-2.768,20.012-2.768
		c1.738,0,2.901-0.352,3.194-0.962c0.543-1.142,0.848-2.46,0.906-3.916c0.063-1.688,0.099-2.797,0.099-3.319l0.202-4.687
		c0.264-4.259,0.396-7.38,0.396-9.312c0-1.519-0.24-3.07-0.712-4.611c-0.366-1.187-0.731-1.187-0.887-1.187
		c-0.358,0-1.22,0.119-2.968,0.919c-1.877,0.861-3.393,1.28-4.631,1.28c-2.492,0-4.717-0.839-6.613-2.492
		c-1.979-1.716-2.985-3.905-2.985-6.506c0-4.12,4.628-7.582,14.563-10.896c3.771-1.372,4.483-2.072,4.553-2.148
		c0-0.005,0.521-0.78,0.681-4.44l0.198-3.366c-0.003-0.432-0.039-0.708-0.071-0.873c-0.165-0.032-0.442-0.068-0.875-0.071
		l-3.651,0.2c-2.606,0-5.123-0.997-7.479-2.964c-2.467-2.053-3.718-4.42-3.718-7.034c0-1.028,0.295-2.413,0.902-4.232l0.19-0.569
		l8.379-6.568l0.646-0.025c6.787-0.271,11.652-0.402,14.877-0.402c3.697,0,7.39,0.349,10.974,1.036
		c5.64,1.088,6.822,3.844,6.822,5.963c0,2.628-0.757,4.566-2.25,5.761c-1.236,0.989-2.949,1.764-5.236,2.371
		c-2.448,0.723-3.62,1.395-4.163,1.828c-0.469,0.375-0.749,1.511-0.749,3.037c0,3.997,0.421,5.956,0.772,6.896
		c0.359,0.959,2.301,1.103,3.426,1.103c0.164,0,0.665-0.032,1.781-0.332c1.205-0.32,2.099-0.469,2.818-0.469
		c1.864,0,3.623,0.555,5.226,1.647c2.292,1.575,2.772,3.562,2.772,4.952c0,2.878-1.106,5.229-3.201,6.799
		c-1.773,1.33-4.166,2.533-7.314,3.679c-1.18,0.474-2.333,1.034-3.367,1.644c-0.92,0.543-1.318,1.002-1.492,1.309
		c-0.475,1.241-1.021,3.83-1.021,9.165c0,4.771-0.068,8.507-0.203,11.103c-0.143,2.688-0.641,5.469-1.48,8.27
		c-0.277,0.828-0.315,1.244-0.315,1.424c0.001,0.046,0.612,0.8,4.198,0.8c5.104,0,12.621-0.134,22.341-0.397
		c10.021-0.271,17.364-0.401,22.448-0.401c4.945,0,19.996,0,19.996,9.397c0,3.904-1.912,6.675-5.382,7.802
		c-2.85,0.927-6.354,1.397-10.415,1.397c-17.75,0-35.832,0.2-53.742,0.599l-5.442,0.001c-0.748,0-2.95,0.063-6.931,0.199
		c-3.736,0.129-7.26,0.52-10.474,1.16l-0.106,0.02c-0.836,0.121-2.16,0.438-3.937,0.943l-0.104,0.026
		C230.046,159.589,225.52,160.26,222.271,160.26z M191.28,149.063c-2.401,0-4.629-0.688-6.624-2.047
		c-2.206-1.494-3.374-3.691-3.374-6.352c0-2.617,1.787-5.492,5.464-8.788c3.307-2.961,7.102-5.608,11.281-7.868
		c4.401-2.382,7.688-3.54,10.049-3.54c2.808,0,4.377,1.306,5.199,2.398c1.062,1.42,1.6,3.168,1.6,5.2c0,2.91-1.397,5.98-4.271,9.389
		c-2.665,3.152-5.853,5.882-9.479,8.111C197.303,147.919,194.082,149.063,191.28,149.063z M191.28,118.869
		c-2.191,0-4.04-0.84-5.345-2.43c-1.229-1.488-1.854-3.297-1.854-5.369c0-4.836,2.983-10.598,17.196-10.598
		c3.328,0,6.427,0.631,9.213,1.873c3.262,1.461,4.984,4.133,4.984,7.725c0,1.765-0.849,3.464-2.524,5.052
		c-1.647,1.558-3.354,2.348-5.074,2.348c-0.95,0-2.261-0.178-4.008-0.542c-1.828-0.379-2.744-0.458-3.19-0.458
		c-0.463,0-1.61,0.14-4.096,1.072C194.166,118.447,192.481,118.869,191.28,118.869z M208.076,88.877c-2.334,0-4.886-0.5-7.586-1.485
		c-2.977-0.739-5.2-1.114-6.61-1.114c-1.363,0-3.295-0.563-4.755-3.242c-0.958-1.755-1.443-3.49-1.443-5.156
		c0-2.978,1.682-5.21,4.734-6.285c2.465-0.871,5.111-1.313,7.863-1.313c4.009,0,7.594,0.737,10.656,2.192
		c3.495,1.667,5.341,4.711,5.341,8.806c0,2.158-0.854,4.059-2.472,5.494C212.235,88.168,210.308,88.877,208.076,88.877z"/>
	<path fill="#FFFFFF" stroke="#FFFFFF" stroke-miterlimit="10" d="M259.863,61.482c3.599,0,7.129,0.335,10.597,1
		c3.465,0.669,5.199,2,5.199,3.999c0,2-0.5,3.399-1.5,4.199c-1,0.8-2.5,1.469-4.499,1.999c-2.268,0.669-3.898,1.4-4.898,2.2
		c-1,0.8-1.5,2.334-1.5,4.599c0,3.468,0.299,5.998,0.899,7.598c0.601,1.6,2.364,2.4,5.299,2.4c0.531,0,1.299-0.132,2.299-0.4
		c1-0.266,1.765-0.4,2.3-0.4c1.465,0,2.83,0.435,4.099,1.3c1.265,0.869,1.899,1.969,1.899,3.3c0,2.268-0.801,4-2.399,5.199
		c-1.601,1.199-3.868,2.334-6.798,3.398c-1.334,0.534-2.568,1.134-3.699,1.8c-1.135,0.668-1.898,1.399-2.299,2.199
		c-0.801,1.999-1.2,5.333-1.2,9.997c0,4.799-0.069,8.467-0.2,10.998c-0.134,2.533-0.6,5.133-1.398,7.798
		c-0.27,0.8-0.4,1.469-0.4,1.999c0,1.869,2.064,2.8,6.199,2.8c5.063,0,12.527-0.131,22.395-0.399
		c9.863-0.266,17.327-0.399,22.395-0.399c11.998,0,17.996,2.468,17.996,7.397c0,3.067-1.334,5.033-4,5.898
		c-2.668,0.868-5.933,1.3-9.797,1.3c-17.863,0-35.791,0.2-53.787,0.601h-5.398c-0.8,0-3.134,0.067-6.999,0.199
		c-3.868,0.135-7.467,0.534-10.797,1.199c-0.935,0.135-2.334,0.469-4.199,1c-5.866,1.334-10.332,2-13.396,2
		c-2.135,0-3.868-0.531-5.199-1.6c-1.334-1.065-1.999-2.665-1.999-4.799c0-4.53,3.365-7.698,10.097-9.498
		c6.729-1.801,13.229-2.699,19.496-2.699c2.665,0,4.33-0.7,4.999-2.1c0.666-1.399,1.031-2.965,1.101-4.699
		c0.065-1.73,0.1-2.864,0.1-3.398l0.199-4.6c0.266-4.266,0.399-7.398,0.399-9.397c0-1.729-0.269-3.465-0.8-5.198
		c-0.534-1.73-1.468-2.6-2.799-2.6c-0.936,0-2.2,0.368-3.799,1.1c-1.6,0.734-2.868,1.101-3.799,1.101c-2,0-3.769-0.665-5.299-2
		c-1.533-1.33-2.299-2.999-2.299-4.998c0-3.065,4.398-6.063,13.196-8.998c2.931-1.065,4.729-1.965,5.399-2.699
		c0.666-0.731,1.064-2.631,1.199-5.699l0.2-3.398c0-1.2-0.2-2-0.601-2.399c-0.399-0.4-1.199-0.601-2.398-0.601l-3.599,0.2
		c-2.134,0-4.199-0.831-6.198-2.499c-2-1.665-3-3.499-3-5.499c0-0.8,0.266-1.999,0.8-3.599l7.398-5.799
		C251.73,61.617,256.664,61.482,259.863,61.482 M200.277,72.28c3.73,0,6.999,0.669,9.798,1.999c2.799,1.335,4.199,3.668,4.199,6.999
		c0,1.6-0.6,2.934-1.8,3.999c-1.2,1.068-2.668,1.6-4.399,1.6c-2.134,0-4.468-0.466-6.999-1.4c-3.199-0.799-5.599-1.199-7.198-1.199
		c-1.199,0-2.199-0.731-2.999-2.199c-0.8-1.466-1.2-2.865-1.2-4.199c0-2.131,1.131-3.6,3.399-4.398
		C195.344,72.68,197.744,72.28,200.277,72.28 M201.277,102.473c3.065,0,5.864,0.569,8.398,1.7c2.531,1.134,3.799,3.099,3.799,5.897
		c0,1.199-0.634,2.399-1.9,3.6c-1.269,1.2-2.5,1.8-3.699,1.8c-0.8,0-2-0.165-3.6-0.5c-1.6-0.331-2.799-0.5-3.599-0.5
		c-1.069,0-2.668,0.4-4.799,1.2c-2.134,0.8-3.668,1.199-4.599,1.199c-1.6,0-2.868-0.564-3.799-1.699
		c-0.934-1.131-1.399-2.5-1.399-4.1C186.081,105.341,191.146,102.473,201.277,102.473 M208.076,122.468
		c1.6,0,2.799,0.534,3.599,1.601c0.8,1.067,1.2,2.398,1.2,3.998c0,2.399-1.269,5.1-3.799,8.1c-2.534,2.999-5.533,5.566-8.998,7.698
		c-3.468,2.134-6.398,3.198-8.798,3.198c-2,0-3.833-0.565-5.499-1.699c-1.668-1.131-2.5-2.699-2.5-4.698c0-2,1.6-4.431,4.799-7.299
		c3.199-2.865,6.83-5.398,10.897-7.599C203.042,123.566,206.076,122.468,208.076,122.468 M259.863,57.482
		c-3.252,0-8.145,0.132-14.956,0.403l-1.292,0.052l-1.018,0.797l-7.397,5.799l-0.946,0.741l-0.38,1.141
		c-0.687,2.055-1.006,3.601-1.006,4.865c0,2.225,0.771,5.518,4.44,8.573c2.722,2.271,5.67,3.425,8.756,3.425h0.111l0.111-0.006
		l2.307-0.129l-0.123,2.098l-0.003,0.03l-0.001,0.03c-0.081,1.844-0.251,2.813-0.361,3.268c-0.455,0.262-1.467,0.767-3.559,1.528
		c-7.404,2.474-15.879,6.161-15.879,12.775c0,3.16,1.271,5.935,3.68,8.021c2.262,1.975,4.93,2.979,7.918,2.979
		c1.555,0,3.291-0.465,5.467-1.465c0.516-0.235,0.923-0.396,1.238-0.504c0.326,1.195,0.491,2.395,0.491,3.566
		c0,1.891-0.132,4.969-0.392,9.149l-0.002,0.037l-0.002,0.036l-0.199,4.601l-0.004,0.087v0.087c0,0.461-0.033,1.554-0.098,3.246
		c-0.041,1.049-0.227,1.968-0.563,2.793c-0.236,0.066-0.71,0.158-1.537,0.158c-6.588,0-13.495,0.954-20.529,2.835
		c-10.797,2.887-13.063,8.859-13.063,13.361c0,4.238,1.905,6.648,3.503,7.925c2.042,1.641,4.634,2.475,7.695,2.475
		c3.396,0,8.068-0.687,14.283-2.1l0.104-0.022l0.104-0.031c2.104-0.6,3.159-0.813,3.674-0.888l0.106-0.016l0.104-0.021
		c3.106-0.621,6.522-1,10.152-1.125c1.434-0.049,5.799-0.197,6.86-0.197h5.399h0.043l0.045-0.002
		c17.896-0.396,35.961-0.599,53.697-0.599c4.271,0,7.984-0.503,11.035-1.495c4.296-1.396,6.762-4.933,6.762-9.703
		c0-7.563-7.4-11.397-21.996-11.397c-5.103,0-12.463,0.132-22.502,0.401c-9.703,0.265-17.201,0.397-22.287,0.397
		c-0.789,0-1.39-0.039-1.836-0.092c0.808-2.804,1.289-5.591,1.432-8.293c0.137-2.634,0.206-6.403,0.206-11.21
		c0-4.9,0.468-7.201,0.81-8.227c0.092-0.094,0.303-0.277,0.719-0.523c0.933-0.549,1.976-1.057,3.101-1.51
		c3.305-1.207,5.846-2.494,7.769-3.938c1.823-1.367,4-3.936,4-8.397c0-2.644-1.291-4.986-3.635-6.597
		c-1.952-1.332-4.09-2.003-6.363-2.003c-0.897,0-1.955,0.17-3.328,0.534c-0.93,0.25-1.273,0.267-1.289,0.267
		c-0.883,0-1.395-0.099-1.655-0.174c-0.235-0.831-0.526-2.525-0.526-5.824c0-0.924,0.113-1.405,0.176-1.604
		c0.403-0.268,1.33-0.758,3.305-1.344c2.533-0.678,4.469-1.569,5.916-2.727c1.992-1.594,3.001-4.058,3.001-7.323
		c0-2.352-1.097-6.509-8.44-7.927C267.506,57.843,263.688,57.482,259.863,57.482L259.863,57.482z M200.277,68.28
		c-2.979,0-5.85,0.479-8.531,1.429c-3.854,1.357-6.066,4.336-6.066,8.17c0,2.005,0.568,4.062,1.688,6.115
		c2.031,3.727,4.951,4.283,6.51,4.283c0.852,0,2.586,0.181,6.027,1.03c2.883,1.041,5.631,1.569,8.17,1.569
		c2.699,0,5.14-0.903,7.059-2.612c2.053-1.823,3.14-4.24,3.14-6.986c0-4.85-2.3-8.617-6.478-10.609
		C208.459,69.083,204.585,68.28,200.277,68.28L200.277,68.28z M201.277,98.473c-5.821,0-10.194,0.873-13.368,2.67
		c-3.813,2.157-5.829,5.59-5.829,9.928c0,2.552,0.779,4.787,2.315,6.646c1.691,2.061,4.074,3.152,6.883,3.152
		c1.469,0,3.32-0.448,6.003-1.453c2.449-0.92,3.305-0.946,3.395-0.946c0.232,0,0.97,0.041,2.788,0.417
		c0.312,0.065,0.609,0.124,0.896,0.18c-2.049,0.595-4.442,1.644-7.288,3.185c-4.315,2.333-8.239,5.069-11.662,8.136
		c-4.183,3.75-6.13,7.016-6.13,10.278c0,3.305,1.511,6.149,4.255,8.01c2.326,1.583,4.933,2.39,7.743,2.39
		c3.183,0,6.747-1.24,10.894-3.793c3.806-2.34,7.156-5.209,9.957-8.523c3.192-3.784,4.744-7.277,4.744-10.68
		c0-2.475-0.672-4.627-1.998-6.396c-0.775-1.033-2.035-2.203-3.986-2.803c1.179-0.479,2.327-1.245,3.433-2.292
		c2.091-1.981,3.151-4.169,3.151-6.504c0-4.378-2.189-7.769-6.164-9.55C208.262,99.161,204.888,98.473,201.277,98.473
		L201.277,98.473z"/>
</g>
<g>
	<path fill="#FFFFFF" d="M418.592,167.936c-1.003,0-1.884-0.377-2.546-1.091c-0.653-0.7-0.983-1.56-0.983-2.551
		c0-0.913,0.23-2.122,0.703-3.696c0.447-1.494,0.974-3.035,1.563-4.58c1.142-3.289,1.832-5.568,2.039-6.744
		c0.356-2.355,0.687-6.063,0.978-10.996l0.221-3.739l0.332-3.341c0.291-2.471,0.436-4.281,0.436-5.4c0-2.453-0.11-4.939-0.326-7.392
		c-0.074-0.813-0.148-1.83-0.222-3.054c-0.076-1.229-0.112-2.672-0.112-4.404c0-0.158,0.016-0.393,0.053-0.697
		c-0.412,0.178-1.524,0.745-4.472,2.541c-3.787,2.311-4.437,2.896-4.544,3.021c-0.63,1.112-1.219,1.85-1.802,2.236
		c-0.656,0.471-1.333,0.719-1.984,0.719c-1.147,0-2.198-0.66-3.125-1.961c-0.55-0.754-1.065-2.818-1.065-12.68l-0.109-6.143
		c0-3.387,0.305-5.938,0.932-7.813l0.101,0.029c0.227-0.41,0.446-0.844,0.657-1.292c0.261-0.561,0.552-1.122,0.862-1.667
		c2.64-4.002,8.175-6.004,16.487-6.004c1.206,0,2.473,0.401,3.767,1.193c1.449,0.89,2.184,1.973,2.184,3.218
		c0,0.635-0.075,1.472-0.23,2.56l-0.011,0.074l-0.021,0.072c-0.191,0.639-0.288,1.356-0.288,2.133v11.44
		c0,1.185,0.105,2.425,0.315,3.685c0.298,1.722,0.488,3.654,0.563,5.738c0.075,2.139,0.11,3.373,0.11,3.887
		c0.071,2.723,0.402,6.84,0.984,12.212c0.074,0.905,0.258,2.976,0.551,6.231c0.294,3.288,0.444,6.408,0.444,9.274
		c0,4.337-0.719,8.771-2.138,13.176c-1.45,4.504-3.713,7.961-6.723,10.275C420.798,167.438,419.63,167.936,418.592,167.936z
		 M419.473,99.627c-0.877,0-1.666,0.182-2.412,0.557c-0.318,0.158-0.986,0.44-2.166,0.914c-1.14,0.438-1.543,0.686-1.683,0.795
		c-0.12,0.094-0.229,0.356-0.29,0.703c-0.068,0.387-0.15,1.271-0.15,3.291c0,0.119,0.002,0.225,0.006,0.315
		c0.379-0.202,0.978-0.586,1.891-1.316c2.507-1.854,3.53-2.089,4.145-2.089c0.338,0,0.547-0.102,0.727-0.352l0.048-0.067
		l0.058-0.058c0.076-0.076,0.274-0.326,0.459-0.991c0.158-0.573,0.24-1.039,0.24-1.382
		C420.342,99.835,420.342,99.627,419.473,99.627z M411.232,92.097c0.006,0.661,0.094,1.467,0.26,2.394
		c0.061,0.347,0.128,0.56,0.179,0.684c0.379-0.071,1.315-0.284,3.571-0.919c2.131-0.6,3.841-1.078,5.126-1.436
		c0.127-0.308,0.304-1.013,0.304-2.552c0-1.014-0.345-1.09-0.87-1.09c-1.353,0-2.895,0.279-4.584,0.831
		c-1.528,0.5-2.854,1.113-3.946,1.828L411.232,92.097z M372.834,157.374c-2.986,0-3.516-4.726-3.688-6.276
		c-0.406-3.604-0.611-7.231-0.611-10.783v-7.039c0-1.355,0.15-3.392,0.445-6.049c0.07-0.649,0.144-1.463,0.217-2.439
		c0.07-0.977,0.107-2.118,0.107-3.391c0-1.676,0.189-3.551,0.566-5.571c0.277-2.245,0.423-3.98,0.423-5.099
		c0-2.119,0.304-4.578,0.903-7.31c0.603-2.751,1.376-5.005,2.299-6.698c1.008-1.682,2.813-3.154,5.54-4.538
		c2.702-1.368,4.991-2.033,6.998-2.033c2.553,0,4.429,0.915,5.573,2.72c1.033,1.628,1.656,3.399,1.855,5.269
		c0.188,1.764,0.281,4,0.281,6.651c0,10.288-1.611,15.079-5.07,15.079l-2.357-0.11c-0.586,0.001-1.315,0.22-2.119,0.651
		c-1.368,0.686-2.35,0.999-3.113,0.999c-0.748,0-0.93,0.31-1.008,0.442c-0.273,0.463-0.412,1.051-0.412,1.746
		c0,3.762-0.445,9.463-1.327,16.946l-0.549,5.158c-0.056,0.338-0.14,1.063-0.272,2.936c-0.114,1.612-0.391,3.083-0.818,4.369
		c-0.45,1.353-1.143,2.5-2.055,3.416C373.991,157.07,373.417,157.374,372.834,157.374z M383.549,109.089
		c-1.313,0.036-2.222,0.479-2.777,1.351c-0.662,1.041-0.998,2.396-0.998,4.027c0,0.07,0.002,0.129,0.008,0.178
		c0.432-0.095,1.441-0.453,3.63-1.75l0.083-1.668c0.074-0.556,0.107-1.237,0.109-2.115L383.549,109.089z M380.161,100.773
		c-0.067,0.145-0.167,0.474-0.167,1.153c0,0.45,0.018,0.798,0.042,1.063c1.114-0.073,2.272-0.292,3.462-0.654
		c0.216-0.665,0.326-1.28,0.326-1.838c0-0.87-0.238-0.87-0.54-0.87C382.366,99.627,381.316,100.014,380.161,100.773z
		 M356.005,155.175c-1.825,0-3.073-0.509-3.706-1.511c-0.548-0.869-0.814-2.143-0.814-3.891c0-3.025,0.149-6.074,0.445-9.063
		c0.293-2.964,0.737-6.805,1.323-11.412c0.068-0.695,0.356-3.203,0.879-7.636c0.472-4.024,0.728-7.946,0.761-11.671
		c-0.078,0.063-0.164,0.134-0.261,0.218c-0.588,0.521-1.208,1.14-1.844,1.845c-1.431,1.58-2.699,2.789-3.772,3.596
		c-1.201,0.899-2.514,1.355-3.899,1.355c-1.148,0-2.183-0.295-3.076-0.877c-1.017-0.66-1.554-1.654-1.554-2.874
		c0-2.088,0.421-3.819,1.252-5.149c1.129-1.805,2.423-3.518,3.847-5.09c1.399-1.55,3.319-3.539,5.864-6.086
		c2.462-2.463,4.395-4.467,5.738-5.958c1.313-1.453,2.556-3.093,3.695-4.874c0.152-0.229,0.42-0.658,0.814-1.302
		c0.445-0.73,0.93-1.341,1.441-1.811c0.527-0.481,1.104-0.856,1.713-1.117c0.41-0.139,0.834-0.191,1.383-0.191
		c1.229,0,2.307,0.475,3.199,1.409c0.877,0.926,1.32,2.046,1.32,3.331c0,1.359-0.473,2.867-1.447,4.611
		c-0.887,1.591-2.164,3.564-3.797,5.867c-1.154,1.588-2.021,2.89-2.587,3.877c-0.651,1.14-0.747,1.694-0.747,1.924
		c0,1.519,0.035,2.828,0.106,3.895c0.071,1.086,0.146,1.993,0.218,2.717c0.299,3.004,0.445,5.267,0.445,6.92
		c0,8.105-0.26,16.142-0.772,23.881c-0.717,10.8-2.384,13.274-3.575,14.197C357.938,154.872,357.053,155.175,356.005,155.175z"/>
	<path fill="#FFFFFF" d="M422.662,82.237c1.026,0,2.106,0.35,3.245,1.046c1.136,0.698,1.705,1.485,1.705,2.365
		c0,0.587-0.074,1.394-0.221,2.419c-0.22,0.734-0.33,1.54-0.33,2.42v11.44c0,1.247,0.11,2.529,0.33,3.849
		c0.292,1.688,0.477,3.559,0.551,5.61c0.072,2.054,0.109,3.339,0.109,3.851c0.072,2.787,0.402,6.895,0.99,12.318
		c0.072,0.881,0.255,2.953,0.549,6.215c0.292,3.265,0.44,6.325,0.44,9.186c0,4.254-0.697,8.544-2.091,12.869
		c-1.394,4.326-3.52,7.59-6.379,9.789c-1.174,0.881-2.163,1.32-2.97,1.32c-0.734,0-1.338-0.259-1.814-0.771
		c-0.478-0.515-0.715-1.138-0.715-1.87c0-0.809,0.221-1.943,0.66-3.409c0.44-1.468,0.952-2.971,1.54-4.511
		c1.173-3.373,1.87-5.682,2.089-6.93c0.366-2.42,0.696-6.121,0.991-11.108l0.221-3.74l0.329-3.3c0.292-2.492,0.44-4.326,0.44-5.5
		c0-2.492-0.11-4.984-0.33-7.479c-0.074-0.808-0.146-1.814-0.22-3.024c-0.074-1.211-0.11-2.657-0.11-4.347
		c0-0.146,0.018-0.364,0.055-0.658c0.036-0.293,0.018-0.551-0.055-0.771c-0.22-0.22-0.514-0.33-0.88-0.33
		c-0.368,0-2.054,0.918-5.061,2.75c-3.008,1.836-4.619,2.935-4.84,3.301c-0.588,1.027-1.1,1.688-1.539,1.979
		c-0.515,0.367-0.99,0.55-1.431,0.55c-0.808,0-1.578-0.513-2.31-1.539c-0.588-0.807-0.881-4.841-0.881-12.101l-0.109-6.16
		c0-3.226,0.292-5.719,0.88-7.479l-0.11,0.44c0.293-0.512,0.567-1.045,0.825-1.595c0.257-0.551,0.531-1.081,0.825-1.595
		C409.462,84.072,414.668,82.237,422.662,82.237 M411.441,96.207c0.367,0,1.723-0.329,4.07-0.989c2.346-0.66,4.18-1.173,5.5-1.54
		c0.44-0.513,0.66-1.65,0.66-3.41c0-1.392-0.624-2.09-1.87-2.09c-1.467,0-3.098,0.294-4.895,0.88c-1.798,0.588-3.319,1.32-4.564,2.2
		l-0.11,0.77c0,0.734,0.092,1.614,0.275,2.64C410.689,95.693,411.002,96.207,411.441,96.207 M412.212,107.427
		c0.586,0,1.612-0.586,3.08-1.76c1.687-1.246,2.86-1.87,3.521-1.87c0.658,0,1.17-0.256,1.539-0.77
		c0.293-0.293,0.531-0.771,0.715-1.432c0.182-0.658,0.274-1.209,0.274-1.648c0-0.881-0.625-1.32-1.871-1.32
		c-1.026,0-1.979,0.221-2.858,0.661c-0.295,0.147-0.99,0.438-2.09,0.88c-0.955,0.367-1.596,0.678-1.926,0.936
		s-0.55,0.696-0.66,1.318c-0.109,0.624-0.164,1.778-0.164,3.465C411.771,106.915,411.918,107.427,412.212,107.427 M366.234,82.678
		c0.951,0,1.776,0.368,2.475,1.1c0.696,0.734,1.045,1.614,1.045,2.641c0,1.174-0.439,2.548-1.32,4.124
		c-0.879,1.578-2.127,3.503-3.74,5.775c-1.174,1.613-2.053,2.935-2.639,3.959c-0.588,1.027-0.881,1.834-0.881,2.421
		c0,1.538,0.036,2.858,0.11,3.96c0.073,1.1,0.146,2.018,0.22,2.75c0.292,2.934,0.439,5.207,0.439,6.818
		c0,8.141-0.258,16.078-0.77,23.814c-0.514,7.736-1.578,12.227-3.189,13.475c-0.514,0.439-1.174,0.659-1.979,0.659
		c-1.468,0-2.42-0.349-2.86-1.045c-0.439-0.698-0.66-1.813-0.66-3.354c0-3.006,0.146-5.994,0.44-8.965
		c0.292-2.97,0.732-6.765,1.32-11.385c0.071-0.732,0.366-3.281,0.88-7.645c0.512-4.362,0.77-8.561,0.77-12.596l-0.439-0.55
		c-0.368,0-0.863,0.275-1.484,0.825c-0.625,0.55-1.266,1.191-1.926,1.925c-1.395,1.54-2.604,2.694-3.63,3.466
		c-1.028,0.77-2.127,1.154-3.3,1.154c-0.954,0-1.797-0.236-2.53-0.715c-0.733-0.477-1.101-1.155-1.101-2.036
		c0-1.905,0.367-3.444,1.101-4.619c1.101-1.76,2.347-3.409,3.74-4.948c1.392-1.541,3.336-3.557,5.83-6.051
		c2.491-2.492,4.417-4.491,5.774-5.995c1.355-1.502,2.621-3.171,3.795-5.005c0.146-0.22,0.42-0.659,0.824-1.319
		c0.402-0.66,0.825-1.191,1.266-1.596c0.439-0.401,0.916-0.715,1.43-0.935C365.465,82.716,365.795,82.678,366.234,82.678
		 M386.034,91.147c2.2,0,3.776,0.753,4.729,2.256c0.952,1.503,1.521,3.117,1.704,4.839c0.183,1.724,0.275,3.904,0.275,6.545
		c0,9.387-1.357,14.079-4.07,14.079l-2.31-0.109c-0.809,0-1.688,0.259-2.641,0.771c-1.173,0.588-2.054,0.88-2.64,0.88
		c-0.88,0-1.504,0.313-1.87,0.936c-0.368,0.623-0.55,1.374-0.55,2.255c0,3.739-0.44,9.35-1.32,16.828l-0.55,5.17
		c-0.074,0.44-0.165,1.43-0.275,2.971c-0.109,1.539-0.367,2.916-0.77,4.125c-0.403,1.209-1.009,2.218-1.814,3.024
		c-0.439,0.438-0.808,0.659-1.1,0.659c-1.395,0-2.293-1.797-2.695-5.389c-0.404-3.594-0.604-7.15-0.604-10.672v-7.039
		c0-1.318,0.146-3.299,0.44-5.938c0.071-0.66,0.146-1.485,0.219-2.476c0.072-0.989,0.11-2.146,0.11-3.465
		c0-1.611,0.183-3.41,0.55-5.39c0.293-2.346,0.44-4.106,0.44-5.28c0-2.052,0.292-4.416,0.88-7.095c0.586-2.676,1.32-4.819,2.2-6.435
		c0.88-1.467,2.585-2.841,5.114-4.125C382.02,91.791,384.2,91.147,386.034,91.147 M379.214,104.018c1.612,0,3.3-0.293,5.06-0.881
		c0.367-0.951,0.551-1.832,0.551-2.64c0-1.245-0.514-1.87-1.54-1.87c-1.173,0-2.458,0.479-3.851,1.432
		c-0.293,0.366-0.439,0.989-0.439,1.869C378.994,102.881,379.066,103.577,379.214,104.018 M379.544,115.677
		c0.806,0,2.42-0.731,4.84-2.2l0.11-2.199c0.072-0.512,0.109-1.246,0.109-2.199v-0.66l-0.879-0.33c-1.761,0-3.024,0.605-3.796,1.814
		c-0.77,1.209-1.153,2.732-1.153,4.564C378.773,115.273,379.03,115.677,379.544,115.677 M422.662,80.237
		c-8.669,0-14.486,2.153-17.289,6.399l-0.035,0.053l-0.031,0.056c-0.326,0.568-0.63,1.156-0.904,1.745
		c-0.226,0.482-0.467,0.95-0.715,1.388l-0.082-0.024c-0.662,1.981-0.983,4.635-0.983,8.113l0.11,6.195
		c0,10.628,0.598,12.33,1.264,13.243c1.111,1.561,2.438,2.36,3.926,2.36c0.855,0,1.721-0.305,2.569-0.906
		c0.669-0.455,1.315-1.231,2.021-2.43c0.26-0.217,1.178-0.906,4.262-2.787c1.31-0.798,2.24-1.345,2.901-1.718
		c0.013,1.328,0.048,2.478,0.11,3.488c0.072,1.222,0.148,2.261,0.224,3.086c0.213,2.415,0.322,4.872,0.322,7.296
		c0,1.08-0.144,2.854-0.427,5.268l-0.334,3.334l-0.004,0.041l-0.002,0.041l-0.22,3.739c-0.29,4.901-0.616,8.578-0.972,10.929
		c-0.189,1.072-0.862,3.289-1.991,6.543c-0.594,1.557-1.124,3.11-1.576,4.621c-0.501,1.668-0.745,2.972-0.745,3.982
		c0,1.234,0.434,2.352,1.25,3.23c0.857,0.922,1.991,1.41,3.279,1.41c1.264,0,2.627-0.563,4.171-1.723
		c3.192-2.455,5.569-6.075,7.083-10.775c1.451-4.506,2.187-9.041,2.187-13.481c0-2.896-0.151-6.047-0.448-9.363
		c-0.293-3.254-0.478-5.321-0.548-6.198l-0.002-0.026l-0.003-0.026c-0.578-5.329-0.907-9.41-0.979-12.13
		c-0.001-0.541-0.037-1.78-0.111-3.894c-0.076-2.131-0.271-4.109-0.577-5.883c-0.199-1.192-0.302-2.377-0.302-3.507v-11.44
		c0-0.68,0.083-1.301,0.246-1.847l0.043-0.144l0.021-0.147c0.162-1.136,0.24-2.019,0.24-2.701c0-1.111-0.461-2.719-2.658-4.069
		C425.498,80.688,424.055,80.237,422.662,80.237L422.662,80.237z M412.242,92.409c0.934-0.555,2.035-1.041,3.287-1.45
		c1.533-0.5,2.925-0.763,4.142-0.78c0.001,0.027,0.001,0.057,0.001,0.089c0,0.862-0.059,1.408-0.118,1.74
		c-1.211,0.338-2.739,0.766-4.583,1.285c-1.197,0.336-2.007,0.55-2.551,0.685C412.323,93.39,412.264,92.865,412.242,92.409
		L412.242,92.409z M413.943,102.607c0.166-0.094,0.537-0.28,1.297-0.573c1.563-0.625,2.021-0.835,2.269-0.958
		c0.539-0.271,1.11-0.416,1.738-0.444c-0.027,0.126-0.063,0.269-0.108,0.433c-0.119,0.433-0.225,0.574-0.226,0.576l-0.117,0.116
		l-0.026,0.039c-1.18,0.033-2.571,0.714-4.666,2.263l-0.03,0.022l-0.03,0.024c-0.086,0.067-0.169,0.135-0.25,0.195
		c0.028-0.908,0.079-1.337,0.113-1.531C413.919,102.7,413.932,102.646,413.943,102.607L413.943,102.607z M366.234,80.678
		c-0.664,0-1.178,0.066-1.613,0.21l-0.083,0.027l-0.08,0.034c-0.713,0.305-1.383,0.741-1.991,1.296
		c-0.586,0.538-1.131,1.221-1.625,2.033c-0.382,0.625-0.643,1.043-0.781,1.253c-1.129,1.764-2.34,3.359-3.615,4.771
		c-1.334,1.479-3.254,3.472-5.703,5.923c-2.559,2.558-4.487,4.561-5.899,6.123c-1.462,1.613-2.792,3.375-3.952,5.229
		c-0.932,1.49-1.404,3.4-1.404,5.68c0,1.553,0.715,2.871,2.012,3.714c1.055,0.688,2.273,1.037,3.619,1.037
		c1.607,0,3.121-0.522,4.499-1.555c1.143-0.857,2.422-2.075,3.913-3.724c0.104-0.117,0.21-0.229,0.313-0.342
		c-0.1,2.959-0.334,6.027-0.702,9.16c-0.522,4.443-0.804,6.88-0.881,7.653c-0.586,4.604-1.031,8.444-1.322,11.414
		c-0.299,3.018-0.451,6.1-0.451,9.159c0,1.941,0.317,3.39,0.97,4.422c0.828,1.313,2.358,1.979,4.551,1.979
		c1.274,0,2.366-0.373,3.244-1.109c1.45-1.146,3.192-3.912,3.921-14.892c0.514-7.762,0.773-15.817,0.773-23.946
		c0-1.688-0.146-3.981-0.449-7.019c-0.072-0.715-0.145-1.617-0.215-2.685c-0.07-1.045-0.105-2.332-0.105-3.828
		c0.001-0.01,0.028-0.397,0.616-1.426c0.547-0.959,1.396-2.229,2.521-3.777c1.69-2.383,2.952-4.332,3.869-5.978
		c1.059-1.896,1.573-3.563,1.573-5.098c0-1.528-0.551-2.917-1.594-4.017C369.084,81.272,367.729,80.678,366.234,80.678
		L366.234,80.678z M386.034,89.147c-2.167,0-4.604,0.7-7.448,2.141c-2.9,1.473-4.838,3.068-5.926,4.88l-0.021,0.035l-0.02,0.037
		c-0.969,1.775-1.775,4.119-2.398,6.964c-0.615,2.799-0.926,5.33-0.926,7.522c0,1.066-0.141,2.739-0.417,4.975
		c-0.38,2.059-0.571,3.975-0.571,5.695c0,1.246-0.035,2.363-0.105,3.318c-0.071,0.945-0.143,1.756-0.213,2.404
		c-0.305,2.729-0.452,4.742-0.452,6.154v7.039c0,3.588,0.208,7.254,0.618,10.896c0.197,1.771,0.802,7.165,4.682,7.165
		c0.854,0,1.675-0.407,2.514-1.244c1.026-1.029,1.799-2.311,2.299-3.809c0.455-1.366,0.746-2.92,0.867-4.614
		c0.139-1.931,0.217-2.572,0.252-2.782l0.011-0.059l0.006-0.061l0.55-5.17c0.882-7.5,1.331-13.24,1.331-17.041
		c0-0.48,0.08-0.877,0.238-1.177c0.038-0.007,0.098-0.013,0.182-0.013c0.925,0,2.05-0.348,3.536-1.092l0.025-0.014l0.024-0.014
		c0.64-0.344,1.195-0.521,1.655-0.531l2.254,0.107l0.047,0.002h0.047c5.381,0,6.07-8.594,6.07-16.079
		c0-2.687-0.096-4.959-0.286-6.755c-0.216-2.024-0.89-3.941-2.005-5.699C391.53,90.879,389.668,89.147,386.034,89.147
		L386.034,89.147z M381.023,101.411c0.66-0.4,1.261-0.647,1.795-0.742c-0.012,0.269-0.057,0.554-0.129,0.858
		c-0.575,0.154-1.142,0.272-1.695,0.354C380.996,101.674,381.009,101.52,381.023,101.411L381.023,101.411z M380.864,113.15
		c0.124-0.854,0.375-1.582,0.752-2.176c0.17-0.268,0.43-0.561,0.962-0.733c-0.018,0.354-0.043,0.597-0.064,0.756l-0.014,0.089
		l-0.004,0.091l-0.057,1.126C381.788,112.68,381.271,112.951,380.864,113.15L380.864,113.15z"/>
</g>
<path fill="#FFFFFF" stroke="#FFFFFF" stroke-miterlimit="10" d="M406.8,5.045c2.993,3.518,4.792,7.25,2.597,11.944
	c-0.951,2.033-2.015,2.412-4.069,1.387c-6.406-3.194-6.976-6.384-2.032-12.513C404.463,5.591,405.632,5.317,406.8,5.045z"/>
<path fill="#FFFFFF" stroke="#FFFFFF" stroke-miterlimit="10" d="M383.538,30.401c4.423-1,6.579,1.021,6.896,8.103
	c0.346,7.693,0.369,7.156,8.196,7.493c6.556,0.284,12.187-0.444,17.084-5.248c1.192-1.17,4.339-1.837,5.548-1.079
	c1.226,0.768,1.701,3.626,1.573,5.503c-0.642,9.405-6.215,12.931-16.017,12.04c-6.461-0.588-11.787-3.34-17.241-6.078
	c-2.124-1.066-3.411-3.174-4.433,1.021c-1.953,8.015-7.887,12.58-14.949,16.056c-4.612,2.27-15.938-0.92-17.948-5.589
	c-0.36-0.838,1.098-2.885,2.204-3.756c0.611-0.482,2.31,0.129,3.387,0.569c7.066,2.89,12.125,1.339,16.635-5.314
	c4.418-6.516,5.055-6.085,0.535-11.571c-2.262-2.746-1.177-8.515,2.043-10.078C378.645,31.698,380.451,31.363,383.538,30.401z"/>
<path fill="#FFFFFF" stroke="#FFFFFF" stroke-miterlimit="10" d="M345.809,24.872c5.178-1.239,6.354-0.402,7.719,5.506
	c1.275,5.523,0.496,7.307-3.608,8.241c-3.463,0.786-7.659-1.659-8.202-4.78C340.872,28.974,342.366,25.695,345.809,24.872z"/>
</svg>
